<svg width="32" height="32" viewBox="0 0 32 32" fill="none" xmlns="http://www.w3.org/2000/svg">
<path d="M30.125 23.5V8.5C30.125 6.94919 28.8633 5.6875 27.3125 5.6875H4.6875C3.13669 5.6875 1.875 6.94919 1.875 8.5V23.5C1.875 23.8286 1.93219 24.1441 2.03625 24.4375H0V26.3125H32V24.4375H29.9638C30.0678 24.1441 30.125 23.8286 30.125 23.5ZM4.6875 24.4375C4.17056 24.4375 3.75 24.0169 3.75 23.5V8.5C3.75 7.98306 4.17056 7.5625 4.6875 7.5625H27.3125C27.8294 7.5625 28.25 7.98306 28.25 8.5V23.5C28.25 24.0169 27.8294 24.4375 27.3125 24.4375H4.6875Z" fill="white"/>
<path d="M24.4375 9.4375H18.8125V13.1875H15.0625V16.9375H11.3125V20.6875H9.4375V22.5625H26.375V20.6875H24.4375V9.4375ZM22.5625 11.3125V20.6875H20.6875V11.3125H22.5625ZM18.8125 15.0625V20.6875H16.9375V15.0625H18.8125ZM13.1875 18.8125H15.0625V20.6875H13.1875V18.8125Z" fill="white"/>
<path d="M5.625 9.4375H13.1875V11.3125H5.625V9.4375Z" fill="white"/>
<path d="M5.625 13.1875H13.1875V15.0625H5.625V13.1875Z" fill="white"/>
</svg>
