<svg width="60" height="60" viewBox="0 0 60 60" fill="none" xmlns="http://www.w3.org/2000/svg">
<path d="M51.2109 31.4243H45.3377C44.5384 31.4243 43.7645 31.5336 43.028 31.7344C41.5751 28.8783 38.6088 26.9159 35.1908 26.9159H24.8092C21.3912 26.9159 18.4249 28.8783 16.972 31.7344C16.2355 31.5336 15.4616 31.4243 14.6623 31.4243H8.78906C3.94277 31.4243 0 35.3671 0 40.2134V49.6022C0 52.51 2.36566 54.8757 5.27344 54.8757H54.7266C57.6343 54.8757 60 52.51 60 49.6022V40.2134C60 35.3671 56.0572 31.4243 51.2109 31.4243ZM16.0201 35.7052V51.3602H5.27344C4.30418 51.3602 3.51562 50.5716 3.51562 49.6023V40.2135C3.51562 37.3057 5.88129 34.9401 8.78906 34.9401H14.6623C15.1395 34.9401 15.6015 35.0049 16.0414 35.1243C16.0288 35.3166 16.0201 35.51 16.0201 35.7052ZM40.4643 51.3602H19.5357V35.7051C19.5357 32.7973 21.9014 30.4316 24.8092 30.4316H35.1908C38.0986 30.4316 40.4643 32.7973 40.4643 35.7051V51.3602ZM56.4844 49.6023C56.4844 50.5716 55.6958 51.3602 54.7266 51.3602H43.9799V35.7051C43.9799 35.5097 43.9712 35.3164 43.9586 35.1242C44.3985 35.0049 44.8605 34.94 45.3377 34.94H51.2109C54.1187 34.94 56.4844 37.3056 56.4844 40.2134V49.6023Z" fill="#F2C37E"/>
<path d="M11.7256 14.8248C7.41908 14.8248 3.91553 18.3283 3.91553 22.6348C3.91541 26.9414 7.41908 30.4449 11.7256 30.4449C16.032 30.4449 19.5357 26.9414 19.5357 22.6348C19.5357 18.3283 16.0321 14.8248 11.7256 14.8248ZM11.7255 26.9293C9.35748 26.9293 7.43103 25.0029 7.43103 22.6348C7.43103 20.2668 9.35748 18.3404 11.7255 18.3404C14.0935 18.3404 16.0199 20.2668 16.0199 22.6348C16.0199 25.0029 14.0935 26.9293 11.7255 26.9293Z" fill="#F2C37E"/>
<path d="M30.0001 5.12317C24.2466 5.12317 19.5659 9.80387 19.5659 15.5573C19.5659 21.3107 24.2466 25.9914 30.0001 25.9914C35.7535 25.9914 40.4342 21.3107 40.4342 15.5573C40.4342 9.80399 35.7535 5.12317 30.0001 5.12317ZM30.0001 22.4758C26.1851 22.4758 23.0815 19.3722 23.0815 15.5573C23.0815 11.7425 26.1851 8.63879 30.0001 8.63879C33.815 8.63879 36.9186 11.7424 36.9186 15.5573C36.9186 19.3722 33.815 22.4758 30.0001 22.4758Z" fill="#F2C37E"/>
<path d="M48.2744 14.8248C43.968 14.8248 40.4644 18.3283 40.4644 22.6348C40.4645 26.9414 43.968 30.4449 48.2744 30.4449C52.581 30.4449 56.0845 26.9414 56.0845 22.6348C56.0845 18.3283 52.581 14.8248 48.2744 14.8248ZM48.2744 26.9293C45.9065 26.9293 43.98 25.0029 43.98 22.6348C43.9801 20.2668 45.9065 18.3404 48.2744 18.3404C50.6424 18.3404 52.5689 20.2668 52.5689 22.6348C52.5689 25.0029 50.6424 26.9293 48.2744 26.9293Z" fill="#F2C37E"/>
</svg>
