<svg width="60" height="60" viewBox="0 0 60 60" fill="none" xmlns="http://www.w3.org/2000/svg">
<g clip-path="url(#clip0_114_8014)">
<path d="M58.2422 18.8672H51.2109C50.2402 18.8672 49.4531 19.6542 49.4531 20.625C49.4531 21.5958 50.2402 22.3828 51.2109 22.3828H53.9985L45.4329 30.9484C44.6614 27.328 42.293 24.2921 39.1028 22.6159C40.9887 21.0026 42.1875 18.6081 42.1875 15.9375C42.1875 11.0912 38.2447 7.14844 33.3984 7.14844C28.5521 7.14844 24.6094 11.0912 24.6094 15.9375C24.6094 18.6081 25.8082 21.0026 27.6941 22.6158C24.7512 24.1622 22.5073 26.8652 21.5714 30.1172C21.3513 29.8651 21.1209 29.6203 20.8788 29.3845C20.0169 28.5446 19.0519 27.8459 18.0131 27.2999C19.8967 25.6866 21.0938 23.2936 21.0938 20.625C21.0938 15.7787 17.151 11.8359 12.3047 11.8359C7.4584 11.8359 3.51562 15.7787 3.51562 20.625C3.51562 23.2956 4.71445 25.6901 6.60035 27.3033C2.6802 29.3632 0 33.4758 0 38.2031V51.0938C0 52.0645 0.787031 52.8516 1.75781 52.8516H16.0547C16.521 52.8516 16.968 52.6664 17.2976 52.3366L30.1172 39.5172L34.7337 44.1336C35.42 44.82 36.5331 44.82 37.2196 44.1336L56.4844 24.8687V27.6562C56.4844 28.627 57.2714 29.4141 58.2422 29.4141C59.213 29.4141 60 28.627 60 27.6562V20.625C60 19.6542 59.213 18.8672 58.2422 18.8672ZM28.125 15.9375C28.125 13.0297 30.4907 10.6641 33.3984 10.6641C36.3062 10.6641 38.6719 13.0297 38.6719 15.9375C38.6719 18.8453 36.3062 21.2109 33.3984 21.2109C30.4907 21.2109 28.125 18.8453 28.125 15.9375ZM7.03125 20.625C7.03125 17.7172 9.39691 15.3516 12.3047 15.3516C15.2125 15.3516 17.5781 17.7172 17.5781 20.625C17.5781 23.5328 15.2125 25.8984 12.3047 25.8984C9.39691 25.8984 7.03125 23.5328 7.03125 20.625ZM15.3266 49.3359H3.51562V38.2031C3.51562 33.3568 7.4584 29.4141 12.3047 29.4141C14.605 29.4141 16.7786 30.2978 18.4253 31.9023C20.0687 33.5038 21.0111 35.6484 21.0789 37.9411C21.0807 38.003 21.0859 38.0639 21.0939 38.1239V43.5687L15.3266 49.3359ZM35.9766 40.4047L31.3601 35.7882C30.6737 35.1019 29.5607 35.1019 28.8742 35.7882L24.6094 40.0532V33.5156C24.6094 28.6693 28.5521 24.7266 33.3984 24.7266C38.2447 24.7266 42.1875 28.6693 42.1875 33.5156V34.1938L35.9766 40.4047Z" fill="#F2C37E"/>
</g>
<defs>
<clipPath id="clip0_114_8014">
<rect width="60" height="60" fill="white"/>
</clipPath>
</defs>
</svg>
