<svg width="60" height="60" viewBox="0 0 60 60" fill="none" xmlns="http://www.w3.org/2000/svg">
<g clip-path="url(#clip0_114_8018)">
<path d="M58.2384 49.9403H54.6923V26.4865C54.6923 25.5152 53.9036 24.7278 52.9307 24.7278H43.2041C42.2312 24.7278 41.4425 25.5152 41.4425 26.4865V49.9403H36.625V19.5187C36.625 18.5474 35.8363 17.76 34.8633 17.76H25.1368C24.1639 17.76 23.3752 18.5474 23.3752 19.5187V49.9403H18.5576V24.6253C18.5576 23.6541 17.7689 22.8666 16.796 22.8666H7.06933C6.09642 22.8666 5.30771 23.6541 5.30771 24.6253V49.9403H1.76162C0.788711 49.9403 0 50.7277 0 51.699C0 52.6703 0.788711 53.4577 1.76162 53.4577H58.2384C59.2113 53.4577 60 52.6703 60 51.699C60 50.7277 59.2113 49.9403 58.2384 49.9403ZM8.83094 49.9403V26.384H15.0344V49.9403H8.83094ZM26.8983 49.9403V21.2774H33.1017V49.9403H26.8983ZM44.9657 49.9403V28.2452H51.1692V49.9403H44.9657Z" fill="#F2C37E"/>
<path d="M58.7128 13.2315C58.7712 12.4965 58.3427 11.5939 57.3617 11.3657L51.6794 9.9845C50.7353 9.75434 49.7845 10.3341 49.5552 11.278C49.3257 12.2218 49.9048 13.1729 50.8486 13.4022L52.4558 13.7929L47.8999 16.6043L30.6254 6.76974C30.1287 6.48682 29.5252 6.46302 29.0081 6.70607L11.837 14.7658L3.62853 9.64296C2.80464 9.12837 1.71977 9.37974 1.20541 10.2037C0.69117 11.0276 0.942311 12.1125 1.76631 12.6269L10.7867 18.2564C11.2929 18.5724 11.9248 18.6101 12.4651 18.3565L29.6773 10.2774L47.0661 20.177C47.5185 20.4143 48.1492 20.5373 48.8598 20.1452L54.3827 16.737L54.0149 18.4596C53.6101 20.7509 56.8537 21.4016 57.4546 19.1943L58.6737 13.4851C58.6876 13.4051 58.6927 13.4164 58.7128 13.2315Z" fill="#F2C37E"/>
</g>
<defs>
<clipPath id="clip0_114_8018">
<rect width="60" height="60" fill="white"/>
</clipPath>
</defs>
</svg>
