<svg width="60" height="60" viewBox="0 0 60 60" fill="none" xmlns="http://www.w3.org/2000/svg">
<g clip-path="url(#clip0_114_8010)">
<path d="M55.3479 31.1024V3.78013C55.3479 2.80538 54.5577 2.01514 53.5829 2.01514H6.29511C5.32036 2.01514 4.53012 2.80538 4.53012 3.78013V33.2805C3.67869 33.4045 2.84632 33.7351 2.10997 34.2817C-0.211348 35.9278 -0.760378 39.6114 1.18405 41.8832L9.13392 51.5209C14.0549 57.2803 19.2825 57.9859 27.0539 57.9859C33.7228 57.9859 36.7043 58.0153 42.5165 56.691L48.176 55.3374C49.0936 56.6189 50.5505 57.449 52.1883 57.449H54.9762C57.7463 57.449 60 55.0748 60 52.1566V36.3789C60.0001 33.5924 57.9449 31.3036 55.3479 31.1024ZM47.4147 34.7331L45.063 33.5387C41.1964 31.587 36.7259 31.5147 32.7982 33.3408C31.7266 33.7622 29.3894 35.1764 28.1771 35.1291H20.0167C17.3099 35.1291 15.1077 37.3312 15.1077 40.0381V41.3252C15.0925 41.3092 15.0766 41.294 15.0617 41.2778L9.23429 34.9524C8.88164 34.5697 8.48546 34.2494 8.06022 33.9924V16.4815H22.5041V22.9514C22.5041 23.9262 23.2943 24.7164 24.2691 24.7164H35.4063C36.381 24.7164 37.1712 23.9262 37.1712 22.9514V16.4815H51.8181V31.1023C49.7559 31.2616 48.0363 32.7369 47.4147 34.7331ZM26.0339 16.4815H33.6412V21.1865H26.0339V16.4815ZM51.818 12.9515H37.1712V5.54512H51.8181V12.9515H51.818ZM33.6413 5.54512V12.9516H26.034V5.54512H33.6413ZM22.504 5.54512V12.9516H8.0601V5.54512H22.504ZM41.6973 53.2573C36.3282 54.487 33.0946 54.4372 27.1172 54.4372C19.8219 54.4372 16.297 54.3193 11.8572 49.2745L3.90731 39.6368C2.5245 37.8362 5.02914 35.7106 6.63811 37.344L12.4655 43.6695C14.0056 45.2946 15.9437 46.1889 18.3325 46.2415H34.4889C35.4637 46.2415 36.2539 45.4513 36.2539 44.4766C36.2539 43.5018 35.4637 42.7116 34.4889 42.7116H18.6376V40.0378C18.6376 39.2775 19.2561 38.6588 20.0166 38.6588H28.177C30.0154 38.7905 32.6689 37.2554 34.2863 36.5415C37.228 35.1738 40.5763 35.2279 43.4684 36.6877L47.1647 38.5651V51.9494L41.6973 53.2573ZM56.4701 52.1565C56.4701 53.1283 55.8 53.9189 54.9763 53.9189H52.1884C51.3647 53.9189 50.6947 53.1283 50.6947 52.1565V36.3789C50.6947 35.4071 51.3648 34.6164 52.1884 34.6164H54.9763C55.8 34.6164 56.4701 35.407 56.4701 36.3789V52.1565Z" fill="#F2C37E"/>
</g>
<defs>
<clipPath id="clip0_114_8010">
<rect width="60" height="60" fill="white"/>
</clipPath>
</defs>
</svg>
