<svg width="32" height="32" viewBox="0 0 32 32" fill="none" xmlns="http://www.w3.org/2000/svg">
<g clip-path="url(#clip0_114_7909)">
<path d="M31.9623 2.38911C31.893 1.11799 30.882 0.107174 29.6109 0.037799C27.046 -0.102326 22.027 0.0339866 17.2278 2.5163C14.7812 3.7818 12.1937 5.92736 10.1288 8.40286C10.1033 8.43336 10.0786 8.46405 10.0533 8.49461L5.36708 8.85661C4.59571 8.91624 3.90865 9.32055 3.48202 9.9658L0.284896 14.8015C-0.038666 15.2909 -0.0901035 15.9034 0.147209 16.4398C0.384584 16.9763 0.872334 17.3502 1.45202 17.44L5.40021 18.0515C5.38627 18.1282 5.37227 18.2049 5.35946 18.2817C5.22802 19.0679 5.48852 19.8763 6.0564 20.4441L11.5559 25.9437C12.0267 26.4145 12.6629 26.674 13.3148 26.674C13.449 26.674 13.584 26.663 13.7184 26.6405C13.7951 26.6277 13.8718 26.6137 13.9486 26.5998L14.5601 30.548C14.6499 31.1277 15.0238 31.6155 15.5601 31.8529C15.7833 31.9516 16.0195 32.0004 16.2546 32.0004C16.5848 32.0003 16.9127 31.9042 17.1985 31.7152L22.0342 28.518C22.6795 28.0914 23.0838 27.4043 23.1433 26.633L23.5053 21.9468C23.5358 21.9215 23.5666 21.8968 23.5971 21.8714C26.0726 19.8064 28.2183 17.2189 29.4837 14.7723C31.9661 9.97286 32.1022 4.9538 31.9623 2.38911ZM21.0001 26.9539L16.3745 30.0122L15.7785 26.1644C17.7335 25.5896 19.6674 24.669 21.5098 23.4357L21.274 26.4885C21.2593 26.6789 21.1595 26.8486 21.0001 26.9539ZM12.8817 24.6179L7.38215 19.1183C7.24183 18.9779 7.17696 18.7807 7.20877 18.5908C7.37227 17.6131 7.62633 16.6824 7.94083 15.8057L16.1926 24.0574C15.1396 24.4346 14.1964 24.6596 13.4092 24.7912C13.219 24.8229 13.022 24.7582 12.8817 24.6179ZM5.51152 10.726L8.56427 10.4902C7.3309 12.3327 6.41027 14.2666 5.83546 16.2216L1.98771 15.6257L5.04608 10.9999C5.15146 10.8405 5.32115 10.7407 5.51152 10.726ZM22.3962 20.4314C20.8816 21.6947 19.4115 22.6085 18.0563 23.2697L8.73002 13.9434C9.59615 12.1744 10.6532 10.7013 11.5686 9.60392C13.4795 7.31299 15.8562 5.33667 18.0893 4.18167C22.4939 1.90336 27.1346 1.78067 29.5088 1.90992C29.8231 1.92705 30.073 2.17699 30.0901 2.4913C30.2196 4.86555 30.0966 9.50617 27.8183 13.9109C26.6634 16.1439 24.6871 18.5205 22.3962 20.4314Z" fill="white"/>
<path d="M21.9203 14.7646C23.1204 14.7644 24.321 14.3076 25.2347 13.3939C26.1201 12.5086 26.6076 11.3314 26.6076 10.0794C26.6076 8.82744 26.12 7.65032 25.2347 6.76501C23.4071 4.93732 20.4333 4.93744 18.6058 6.76501C17.7205 7.65032 17.2329 8.82744 17.2329 10.0794C17.2329 11.3314 17.7205 12.5086 18.6058 13.3939C19.5197 14.3078 20.7197 14.7647 21.9203 14.7646ZM19.9315 8.09076C20.4798 7.54244 21.2 7.26832 21.9202 7.26832C22.6404 7.26832 23.3606 7.54244 23.9088 8.09076C24.44 8.62194 24.7325 9.32819 24.7325 10.0794C24.7325 10.8306 24.44 11.5369 23.9088 12.0681C22.8123 13.1646 21.028 13.1646 19.9315 12.0681C19.4003 11.5369 19.1077 10.8306 19.1077 10.0794C19.1077 9.32826 19.4003 8.62194 19.9315 8.09076Z" fill="white"/>
<path d="M0.956267 26.3707C1.1962 26.3707 1.43614 26.2792 1.61914 26.096L4.67995 23.0352C5.04608 22.6691 5.04608 22.0755 4.67995 21.7094C4.31389 21.3433 3.72027 21.3433 3.35414 21.7094L0.293393 24.7702C-0.0727324 25.1363 -0.0727324 25.7299 0.293393 26.096C0.476393 26.2791 0.71633 26.3707 0.956267 26.3707Z" fill="white"/>
<path d="M7.48479 24.5153C7.11872 24.1492 6.5251 24.1492 6.15897 24.5153L0.27435 30.4C-0.0917754 30.7661 -0.0917754 31.3597 0.27435 31.7258C0.457412 31.9089 0.697287 32.0004 0.937225 32.0004C1.17716 32.0004 1.4171 31.9089 1.6001 31.7258L7.48472 25.8411C7.85091 25.475 7.85091 24.8814 7.48479 24.5153Z" fill="white"/>
<path d="M8.96407 27.3195L5.90326 30.3803C5.53713 30.7465 5.53713 31.34 5.90326 31.7061C6.08632 31.8892 6.32626 31.9808 6.56613 31.9808C6.806 31.9808 7.046 31.8893 7.229 31.7061L10.2898 28.6453C10.6559 28.2792 10.6559 27.6856 10.2898 27.3195C9.92375 26.9534 9.33013 26.9534 8.96407 27.3195Z" fill="white"/>
</g>
<defs>
<clipPath id="clip0_114_7909">
<rect width="32" height="32" fill="white"/>
</clipPath>
</defs>
</svg>
