<svg width="32" height="32" viewBox="0 0 32 32" fill="none" xmlns="http://www.w3.org/2000/svg">
<g clip-path="url(#clip0_114_1573)">
<path d="M30.4212 1.57917C29.4593 0.617312 28.1326 0.0600985 26.6865 0.00703053C25.3134 -0.0460375 23.9071 0.338706 22.6335 1.12146C22.0696 1.4664 21.8905 2.20272 22.2355 2.75993C22.5804 3.32378 23.3167 3.50288 23.8739 3.15794C25.6053 2.09658 27.602 2.14302 28.7297 3.27071C29.393 3.93406 29.6981 4.89592 29.5854 5.97718C29.466 7.15131 28.8889 8.30554 27.9602 9.23423C27.0315 10.1629 25.8706 10.74 24.7031 10.8594C23.6219 10.9656 22.66 10.6604 21.9967 10.0037C21.5655 9.57254 20.995 9.34036 20.3914 9.34036C19.7811 9.34036 19.2106 9.57917 18.7794 10.0037C18.3482 10.4349 18.1161 11.0054 18.1161 11.6157C18.1161 12.2259 18.3549 12.7964 18.7861 13.2276C19.2172 13.6588 19.7877 13.8909 20.3914 13.8909C21.0016 13.8909 21.5721 13.6521 22.0033 13.2276C22.0962 13.1347 22.1824 13.0352 22.2554 12.9291C22.8856 13.1546 23.5622 13.274 24.2786 13.274C24.4975 13.274 24.723 13.2608 24.9486 13.2409C24.9685 13.2409 24.9884 13.2342 25.0083 13.2342L25.2139 16.2127C25.2603 16.8893 25.0083 17.5526 24.5307 18.0369L13.4063 29.148C12.7827 29.7715 11.7612 29.7715 11.1376 29.148L2.8524 20.8628C2.54726 20.5576 2.38142 20.153 2.38142 19.7284C2.38142 19.2972 2.54726 18.8992 2.8524 18.5941L13.9701 7.47635C14.4477 6.99874 15.1111 6.74667 15.7877 6.7931L25.665 7.44982C26.3217 7.49625 26.8922 6.99874 26.9386 6.33539C26.9851 5.67867 26.4875 5.10819 25.8242 5.06176L15.9469 4.40504C14.5871 4.31217 13.2471 4.81632 12.2852 5.78481L1.16749 16.9026C0.411277 17.6588 0 18.6604 0 19.7284C0 20.7964 0.41791 21.7981 1.16749 22.5543L9.44609 30.8329C10.2222 31.609 11.2504 32.0004 12.272 32.0004C13.2935 32.0004 14.3151 31.609 15.0978 30.8329L26.2156 19.7152C27.1841 18.7467 27.6882 17.4067 27.5953 16.0402L27.3565 12.551C28.1923 12.153 28.9685 11.6024 29.6583 10.9191C30.9718 9.6057 31.7943 7.93406 31.9668 6.21599C32.1459 4.40504 31.5953 2.75993 30.4212 1.57917Z" fill="white"/>
</g>
<defs>
<clipPath id="clip0_114_1573">
<rect width="32" height="32" fill="white"/>
</clipPath>
</defs>
</svg>
