<svg xmlns="http://www.w3.org/2000/svg" xmlns:xlink="http://www.w3.org/1999/xlink" viewBox="0 0 757 764.03"><defs><style>.cls-1{opacity:0.5;}.cls-2{fill:url(#Безымянный_градиент_94);}.cls-113,.cls-120,.cls-15,.cls-3,.cls-4,.cls-98{opacity:0.2;}.cls-10,.cls-102,.cls-11,.cls-113,.cls-114,.cls-12,.cls-120,.cls-122,.cls-123,.cls-124,.cls-13,.cls-14,.cls-15,.cls-18,.cls-19,.cls-3,.cls-32,.cls-35,.cls-36,.cls-37,.cls-39,.cls-40,.cls-41,.cls-43,.cls-44,.cls-45,.cls-48,.cls-49,.cls-5,.cls-50,.cls-52,.cls-53,.cls-54,.cls-56,.cls-57,.cls-58,.cls-6,.cls-60,.cls-61,.cls-62,.cls-7,.cls-8,.cls-86,.cls-9,.cls-98{isolation:isolate;}.cls-3{fill:url(#Безымянный_градиент_64);}.cls-5{opacity:0.09;}.cls-6{opacity:0.18;}.cls-7{opacity:0.27;}.cls-8{opacity:0.36;}.cls-9{opacity:0.45;}.cls-10{opacity:0.55;}.cls-11{opacity:0.64;}.cls-12{opacity:0.73;}.cls-13,.cls-18{opacity:0.82;}.cls-14{opacity:0.91;}.cls-16{fill:url(#Безымянный_градиент_65);}.cls-17{fill:url(#Безымянный_градиент_65-2);}.cls-18{fill:url(#Безымянный_градиент_5);}.cls-19,.cls-32,.cls-86{opacity:0.6;}.cls-19{fill:url(#Безымянный_градиент_53);}.cls-20{opacity:0.4;}.cls-21{fill:url(#Безымянный_градиент_57);}.cls-22{fill:url(#Безымянный_градиент_65-3);}.cls-23{fill:url(#Безымянный_градиент_63);}.cls-24{fill:#bcbec0;}.cls-25{fill:url(#Безымянный_градиент_65-4);}.cls-26{fill:url(#Безымянный_градиент_65-5);}.cls-27{fill:url(#Безымянный_градиент_57-2);}.cls-28{fill:url(#Безымянный_градиент_13);}.cls-29{fill:url(#Безымянный_градиент_95);}.cls-30{fill:url(#Безымянный_градиент_57-3);}.cls-31{fill:url(#Безымянный_градиент_94-2);}.cls-32{fill:url(#Безымянный_градиент_53-2);}.cls-33{fill:url(#Безымянный_градиент_26);}.cls-102,.cls-122,.cls-123,.cls-124,.cls-34,.cls-35,.cls-36,.cls-37,.cls-39,.cls-40,.cls-41,.cls-43,.cls-44,.cls-45,.cls-48,.cls-49,.cls-50,.cls-52,.cls-53,.cls-54,.cls-56,.cls-57,.cls-58,.cls-60,.cls-61,.cls-62{opacity:0.9;}.cls-35{fill:url(#Безымянный_градиент_87);}.cls-36{fill:url(#Безымянный_градиент_87-2);}.cls-37{fill:url(#Безымянный_градиент_87-3);}.cls-38{fill:url(#Безымянный_градиент_26-2);}.cls-39{fill:url(#Безымянный_градиент_87-4);}.cls-40{fill:url(#Безымянный_градиент_87-5);}.cls-41{fill:url(#Безымянный_градиент_87-6);}.cls-42{fill:url(#Безымянный_градиент_26-3);}.cls-43{fill:url(#Безымянный_градиент_87-7);}.cls-44{fill:url(#Безымянный_градиент_87-8);}.cls-45{fill:url(#Безымянный_градиент_87-9);}.cls-46{fill:#fff;}.cls-47{fill:url(#Безымянный_градиент_30);}.cls-48{fill:url(#Безымянный_градиент_87-10);}.cls-49{fill:url(#Безымянный_градиент_87-11);}.cls-50{fill:url(#Безымянный_градиент_87-12);}.cls-51{fill:url(#Безымянный_градиент_42);}.cls-52{fill:url(#Безымянный_градиент_87-13);}.cls-53{fill:url(#Безымянный_градиент_87-14);}.cls-54{fill:url(#Безымянный_градиент_87-15);}.cls-55{fill:url(#Безымянный_градиент_42-2);}.cls-56{fill:url(#Безымянный_градиент_87-16);}.cls-57{fill:url(#Безымянный_градиент_87-17);}.cls-58{fill:url(#Безымянный_градиент_87-18);}.cls-59{fill:url(#Безымянный_градиент_42-3);}.cls-60{fill:url(#Безымянный_градиент_87-19);}.cls-61{fill:url(#Безымянный_градиент_87-20);}.cls-62{fill:url(#Безымянный_градиент_87-21);}.cls-63{fill:url(#Безымянный_градиент_50);}.cls-64{fill:#138bbd;}.cls-65{fill:#18a0ca;}.cls-66{fill:#1cb6d7;}.cls-67{fill:#fcd9a6;}.cls-68{fill:url(#Безымянный_градиент_50-2);}.cls-69{fill:url(#Безымянный_градиент_50-3);}.cls-70{fill:#9f19ab;}.cls-71{fill:#b228b2;}.cls-72{fill:#c537b9;}.cls-73{fill:#d945c0;}.cls-74{fill:#ec54c7;}.cls-75{fill:#ff63ce;}.cls-76{fill:url(#Безымянный_градиент_50-4);}.cls-77{fill:url(#Безымянный_градиент_50-5);}.cls-78{fill:#ffba78;}.cls-79{fill:#ffc281;}.cls-80{fill:#ffcb8b;}.cls-81{fill:#ffd394;}.cls-82{fill:#ffdc9e;}.cls-83{fill:#ffe4a7;}.cls-84{fill:url(#Безымянный_градиент_65-6);}.cls-85{fill:url(#Безымянный_градиент_65-7);}.cls-86{fill:url(#Безымянный_градиент_53-3);}.cls-87{fill:url(#Безымянный_градиент_65-8);}.cls-88{fill:url(#Безымянный_градиент_63-2);}.cls-89{fill:url(#Безымянный_градиент_56);}.cls-90{fill:url(#Безымянный_градиент_57-4);}.cls-91{fill:#25054d;}.cls-92{fill:url(#Безымянный_градиент_65-9);}.cls-93{fill:url(#Безымянный_градиент_65-10);}.cls-94{fill:url(#Безымянный_градиент_62);}.cls-95{fill:url(#Безымянный_градиент_62-2);}.cls-96{fill:url(#Безымянный_градиент_62-3);}.cls-97{fill:url(#Безымянный_градиент_63-3);}.cls-98{fill:url(#Безымянный_градиент_64-2);}.cls-99{fill:url(#Безымянный_градиент_65-11);}.cls-100{fill:#e6e7e8;}.cls-101{fill:url(#Безымянный_градиент_66);}.cls-102{fill:url(#Безымянный_градиент_87-22);}.cls-103{fill:url(#Безымянный_градиент_94-3);}.cls-104{fill:url(#Безымянный_градиент_87-23);}.cls-105{fill:url(#Безымянный_градиент_87-24);}.cls-106{fill:url(#Безымянный_градиент_71);}.cls-107{fill:url(#Безымянный_градиент_81);}.cls-108{fill:url(#Безымянный_градиент_81-2);}.cls-109{fill:url(#Безымянный_градиент_74);}.cls-110{fill:url(#Безымянный_градиент_76);}.cls-111{fill:url(#Безымянный_градиент_76-2);}.cls-112{fill:url(#Безымянный_градиент_77);}.cls-113{fill:url(#Безымянный_градиент_79);}.cls-114{opacity:0.3;fill:url(#Безымянный_градиент_79-2);}.cls-115{fill:url(#Безымянный_градиент_80);}.cls-116{fill:#939598;}.cls-117{fill:url(#Безымянный_градиент_81-3);}.cls-118{fill:#58595b;}.cls-119{fill:url(#Безымянный_градиент_83);}.cls-120{fill:url(#Безымянный_градиент_83-2);}.cls-121{fill:url(#Безымянный_градиент_84);}.cls-122{fill:url(#Безымянный_градиент_87-25);}.cls-123{fill:url(#Безымянный_градиент_87-26);}.cls-124{fill:url(#Безымянный_градиент_87-27);}.cls-125{fill:url(#Безымянный_градиент_93);}.cls-126{fill:url(#Безымянный_градиент_93-2);}.cls-127{fill:url(#Безымянный_градиент_93-3);}.cls-128{fill:url(#Безымянный_градиент_93-4);}.cls-129{fill:url(#Безымянный_градиент_93-5);}.cls-130{fill:url(#Безымянный_градиент_93-6);}.cls-131{fill:url(#Безымянный_градиент_94-4);}.cls-132{fill:url(#Безымянный_градиент_95-2);}</style><radialGradient id="Безымянный_градиент_94" cx="1361.41" cy="838.17" r="1" gradientTransform="matrix(362.94, 0, 0, -370.17, -493714.2, 310630.75)" gradientUnits="userSpaceOnUse"><stop offset="0" stop-color="#fa45c1"/><stop offset="0.21" stop-color="#cb389d"/><stop offset="0.67" stop-color="#571843"/><stop offset="1"/></radialGradient><linearGradient id="Безымянный_градиент_64" x1="305.1" y1="256.61" x2="590.72" y2="256.61" gradientTransform="matrix(1, 0, 0, -1, 0, 884.09)" gradientUnits="userSpaceOnUse"><stop offset="0.06" stop-color="#200041"/><stop offset="0.26" stop-color="#210243"/><stop offset="0.36" stop-color="#25084b"/><stop offset="0.43" stop-color="#2c1358"/><stop offset="0.47" stop-color="#311b61"/><stop offset="0.48" stop-color="#351f65"/><stop offset="0.5" stop-color="#422c73"/><stop offset="0.51" stop-color="#584188"/><stop offset="0.52" stop-color="#765fa7"/><stop offset="0.53" stop-color="#8770b8"/><stop offset="0.54" stop-color="#7e67ae"/><stop offset="0.56" stop-color="#5c468d"/><stop offset="0.59" stop-color="#442e75"/><stop offset="0.61" stop-color="#362066"/><stop offset="0.63" stop-color="#311b61"/><stop offset="0.67" stop-color="#2a1155"/><stop offset="0.75" stop-color="#230446"/><stop offset="0.81" stop-color="#200041"/><stop offset="1" stop-color="#200041"/></linearGradient><linearGradient id="Безымянный_градиент_65" x1="380.53" y1="273.46" x2="510.09" y2="345.13" gradientTransform="matrix(1, 0, 0, -1, 0, 884.09)" gradientUnits="userSpaceOnUse"><stop offset="0" stop-color="#ad5d42"/><stop offset="1" stop-color="#0f001f"/><stop offset="1" stop-color="#723623"/></linearGradient><linearGradient id="Безымянный_градиент_65-2" x1="381.49" y1="282.01" x2="510.96" y2="353.64" xlink:href="#Безымянный_градиент_65"/><linearGradient id="Безымянный_градиент_5" x1="450.14" y1="315.83" x2="475.56" y2="358.45" gradientTransform="matrix(1, 0, 0, -1, 0, 884.09)" gradientUnits="userSpaceOnUse"><stop offset="0" stop-color="#fff"/><stop offset="1"/></linearGradient><radialGradient id="Безымянный_градиент_53" cx="1351.74" cy="838.5" r="1" gradientTransform="matrix(101.62, 0, 0, -101.62, -136912.39, 85834.27)" gradientUnits="userSpaceOnUse"><stop offset="0" stop-color="#fcc69e"/><stop offset="1" stop-color="#f0815b"/></radialGradient><radialGradient id="Безымянный_градиент_57" cx="1333.28" cy="849.12" r="1" gradientTransform="matrix(36.81, -14.17, -17.29, -44.93, -33926.74, 57692.29)" gradientUnits="userSpaceOnUse"><stop offset="0" stop-color="#fcc69f"/><stop offset="0.67" stop-color="#0f040c"/><stop offset="0.83" stop-color="#040103"/><stop offset="1"/></radialGradient><linearGradient id="Безымянный_градиент_65-3" x1="361.42" y1="492.25" x2="608.67" y2="551.59" xlink:href="#Безымянный_градиент_65"/><linearGradient id="Безымянный_градиент_63" x1="201.31" y1="704.15" x2="704.25" y2="329.27" gradientTransform="matrix(1, 0, 0, -1, 0, 884.09)" gradientUnits="userSpaceOnUse"><stop offset="0" stop-color="#f47f7e"/><stop offset="1" stop-color="#ee8346"/></linearGradient><linearGradient id="Безымянный_градиент_65-4" x1="372.48" y1="496.49" x2="618.26" y2="554.6" xlink:href="#Безымянный_градиент_65"/><linearGradient id="Безымянный_градиент_65-5" x1="371.69" y1="495.72" x2="612.01" y2="551.61" xlink:href="#Безымянный_градиент_65"/><radialGradient id="Безымянный_градиент_57-2" cx="1331.53" cy="849.89" r="1" gradientTransform="matrix(34.23, -14.07, -18.02, -43.83, -29612.4, 56311.31)" xlink:href="#Безымянный_градиент_57"/><radialGradient id="Безымянный_градиент_13" cx="1355.41" cy="842.29" r="1" gradientTransform="matrix(118.01, -48.5, -50.34, -122.49, -117241.66, 169114.88)" gradientUnits="userSpaceOnUse"><stop offset="0" stop-color="#972a74"/><stop offset="0.04" stop-color="#8a266a"/><stop offset="0.19" stop-color="#601b4a"/><stop offset="0.35" stop-color="#3d112f"/><stop offset="0.51" stop-color="#220a1b"/><stop offset="0.67" stop-color="#0f040c"/><stop offset="0.83" stop-color="#040103"/><stop offset="1"/></radialGradient><radialGradient id="Безымянный_градиент_95" cx="1318.4" cy="839.62" r="1" gradientTransform="matrix(29.19, 0, 0, -29.19, -37876.77, 24735.61)" gradientUnits="userSpaceOnUse"><stop offset="0.09" stop-color="#c211a1"/><stop offset="0.09" stop-color="#b9109b"/><stop offset="0.13" stop-color="#5b0663"/><stop offset="0.15" stop-color="#510558"/><stop offset="0.21" stop-color="#38043d"/><stop offset="0.29" stop-color="#230226"/><stop offset="0.37" stop-color="#130115"/><stop offset="0.48" stop-color="#080109"/><stop offset="0.62" stop-color="#020002"/><stop offset="1"/></radialGradient><radialGradient id="Безымянный_градиент_57-3" cx="1318.46" cy="853.99" r="1" gradientTransform="matrix(25.81, -8.91, -10.01, -29, -25014.17, 37209.3)" xlink:href="#Безымянный_градиент_57"/><radialGradient id="Безымянный_градиент_94-2" cx="1359.34" cy="838.24" r="1" gradientTransform="matrix(234.27, 0, 0, -234.27, -317900.89, 196668.16)" xlink:href="#Безымянный_градиент_94"/><radialGradient id="Безымянный_градиент_53-2" cx="1351.08" cy="838.54" r="1" gradientTransform="matrix(96.89, 0, 0, -93.27, -130452.85, 78884.37)" xlink:href="#Безымянный_градиент_53"/><linearGradient id="Безымянный_градиент_26" x1="251.19" y1="452.11" x2="309.18" y2="491.25" gradientTransform="matrix(1, 0, 0, -1, 0, 884.09)" gradientUnits="userSpaceOnUse"><stop offset="0" stop-color="#fdd65b"/><stop offset="0.01" stop-color="#f7d159"/><stop offset="0.13" stop-color="#bea144"/><stop offset="0.25" stop-color="#8b7632"/><stop offset="0.37" stop-color="#605223"/><stop offset="0.49" stop-color="#3e3416"/><stop offset="0.62" stop-color="#231d0c"/><stop offset="0.74" stop-color="#0f0d05"/><stop offset="0.87" stop-color="#040301"/><stop offset="1"/></linearGradient><linearGradient id="Безымянный_градиент_87" x1="272.52" y1="444.92" x2="332.69" y2="462.94" gradientTransform="matrix(1, 0, 0, -1, 0, 884.09)" gradientUnits="userSpaceOnUse"><stop offset="0.04" stop-color="#ffa98c"/><stop offset="0.32" stop-color="#ffb892"/><stop offset="0.86" stop-color="#fee1a3"/><stop offset="1" stop-color="#feeca8"/></linearGradient><linearGradient id="Безымянный_градиент_87-2" x1="180.86" y1="437.44" x2="318.7" y2="468.34" xlink:href="#Безымянный_градиент_87"/><linearGradient id="Безымянный_градиент_87-3" x1="277.3" y1="517.8" x2="255.72" y2="476.68" xlink:href="#Безымянный_градиент_87"/><linearGradient id="Безымянный_градиент_26-2" x1="251.18" y1="508.71" x2="309.17" y2="547.85" xlink:href="#Безымянный_градиент_26"/><linearGradient id="Безымянный_градиент_87-4" x1="272.51" y1="501.53" x2="332.68" y2="519.55" xlink:href="#Безымянный_градиент_87"/><linearGradient id="Безымянный_градиент_87-5" x1="180.85" y1="494.05" x2="318.69" y2="524.95" xlink:href="#Безымянный_градиент_87"/><linearGradient id="Безымянный_градиент_87-6" x1="277.28" y1="574.39" x2="255.71" y2="533.27" xlink:href="#Безымянный_градиент_87"/><linearGradient id="Безымянный_градиент_26-3" x1="251.18" y1="565.82" x2="309.17" y2="604.96" xlink:href="#Безымянный_градиент_26"/><linearGradient id="Безымянный_градиент_87-7" x1="272.48" y1="558.73" x2="332.65" y2="576.75" xlink:href="#Безымянный_градиент_87"/><linearGradient id="Безымянный_градиент_87-8" x1="180.83" y1="551.25" x2="318.67" y2="582.15" xlink:href="#Безымянный_градиент_87"/><linearGradient id="Безымянный_градиент_87-9" x1="277.24" y1="631.52" x2="255.66" y2="590.4" xlink:href="#Безымянный_градиент_87"/><linearGradient id="Безымянный_градиент_30" x1="583.4" y1="335.1" x2="641.39" y2="374.25" gradientTransform="matrix(1, 0, 0, -1, 0, 884.09)" gradientUnits="userSpaceOnUse"><stop offset="0" stop-color="#2af6ff"/><stop offset="0.02" stop-color="#29eef7"/><stop offset="0.13" stop-color="#1fb7be"/><stop offset="0.25" stop-color="#17868b"/><stop offset="0.37" stop-color="#105d60"/><stop offset="0.49" stop-color="#0a3b3e"/><stop offset="0.62" stop-color="#062123"/><stop offset="0.74" stop-color="#030f0f"/><stop offset="0.87" stop-color="#010404"/><stop offset="1"/></linearGradient><linearGradient id="Безымянный_градиент_87-10" x1="604.68" y1="327.9" x2="665.41" y2="346.28" xlink:href="#Безымянный_градиент_87"/><linearGradient id="Безымянный_градиент_87-11" x1="513.35" y1="320.58" x2="650.57" y2="351.18" xlink:href="#Безымянный_градиент_87"/><linearGradient id="Безымянный_градиент_87-12" x1="609.78" y1="400.91" x2="588.01" y2="359.65" xlink:href="#Безымянный_градиент_87"/><linearGradient id="Безымянный_градиент_42" x1="583.4" y1="413.07" x2="641.39" y2="452.21" gradientTransform="matrix(1, 0, 0, -1, 0, 884.09)" gradientUnits="userSpaceOnUse"><stop offset="0" stop-color="#c211a1"/><stop offset="0.01" stop-color="#bd119d"/><stop offset="0.15" stop-color="#8b0c73"/><stop offset="0.29" stop-color="#600850"/><stop offset="0.42" stop-color="#3e0533"/><stop offset="0.56" stop-color="#23031d"/><stop offset="0.7" stop-color="#0f010d"/><stop offset="0.85" stop-color="#040003"/><stop offset="1"/></linearGradient><linearGradient id="Безымянный_градиент_87-13" x1="604.68" y1="405.96" x2="665.41" y2="424.35" xlink:href="#Безымянный_градиент_87"/><linearGradient id="Безымянный_градиент_87-14" x1="513.35" y1="398.64" x2="650.57" y2="429.25" xlink:href="#Безымянный_градиент_87"/><linearGradient id="Безымянный_градиент_87-15" x1="609.56" y1="478.77" x2="587.98" y2="437.65" xlink:href="#Безымянный_градиент_87"/><linearGradient id="Безымянный_градиент_42-2" x1="583.37" y1="471.15" x2="641.36" y2="510.3" xlink:href="#Безымянный_градиент_42"/><linearGradient id="Безымянный_градиент_87-16" x1="604.68" y1="463.96" x2="665.41" y2="482.35" xlink:href="#Безымянный_градиент_87"/><linearGradient id="Безымянный_градиент_87-17" x1="513.35" y1="456.64" x2="650.57" y2="487.25" xlink:href="#Безымянный_градиент_87"/><linearGradient id="Безымянный_градиент_87-18" x1="609.56" y1="536.77" x2="587.98" y2="495.65" xlink:href="#Безымянный_градиент_87"/><linearGradient id="Безымянный_градиент_42-3" x1="583.4" y1="530.56" x2="641.39" y2="569.7" xlink:href="#Безымянный_градиент_42"/><linearGradient id="Безымянный_градиент_87-19" x1="604.68" y1="523.35" x2="665.41" y2="541.74" xlink:href="#Безымянный_градиент_87"/><linearGradient id="Безымянный_градиент_87-20" x1="513.35" y1="516.03" x2="650.57" y2="546.64" xlink:href="#Безымянный_градиент_87"/><linearGradient id="Безымянный_градиент_87-21" x1="609.78" y1="596.37" x2="588.01" y2="555.11" xlink:href="#Безымянный_градиент_87"/><linearGradient id="Безымянный_градиент_50" x1="243.14" y1="195.45" x2="276.69" y2="239.32" gradientTransform="matrix(1, 0, 0, -1, 0, 884.09)" gradientUnits="userSpaceOnUse"><stop offset="0.03" stop-color="#d4d1d8"/><stop offset="1" stop-color="#eeebf2"/></linearGradient><linearGradient id="Безымянный_градиент_50-2" x1="235.37" y1="201.05" x2="265.18" y2="240.04" xlink:href="#Безымянный_градиент_50"/><linearGradient id="Безымянный_градиент_50-3" x1="211.3" y1="191.32" x2="253.52" y2="228.78" xlink:href="#Безымянный_градиент_50"/><linearGradient id="Безымянный_градиент_50-4" x1="205.52" y1="197.81" x2="244.84" y2="232.7" xlink:href="#Безымянный_градиент_50"/><linearGradient id="Безымянный_градиент_50-5" x1="167.04" y1="194.29" x2="251.91" y2="222.45" xlink:href="#Безымянный_градиент_50"/><linearGradient id="Безымянный_градиент_65-6" x1="135.29" y1="247.56" x2="288.27" y2="334.22" xlink:href="#Безымянный_градиент_65"/><linearGradient id="Безымянный_градиент_65-7" x1="135.72" y1="253.51" x2="288.73" y2="340.2" xlink:href="#Безымянный_градиент_65"/><radialGradient id="Безымянный_градиент_53-3" cx="1353.94" cy="838.42" r="1" gradientTransform="matrix(121.51, 0, 0, -123.53, -164295.94, 104223.76)" xlink:href="#Безымянный_градиент_53"/><linearGradient id="Безымянный_градиент_65-8" x1="138.64" y1="255.23" x2="284.14" y2="337.59" xlink:href="#Безымянный_градиент_65"/><linearGradient id="Безымянный_градиент_63-2" x1="113.6" y1="417.15" x2="250.85" y2="171.96" xlink:href="#Безымянный_градиент_63"/><radialGradient id="Безымянный_градиент_56" cx="1355.92" cy="831.25" r="1" gradientTransform="matrix(134.18, 44.95, 18.22, -54.38, -196937.98, -15105.91)" gradientUnits="userSpaceOnUse"><stop offset="0" stop-color="#fcc59e"/><stop offset="0.29" stop-color="#f18067"/><stop offset="0.94" stop-color="#05010a"/><stop offset="1"/></radialGradient><radialGradient id="Безымянный_градиент_57-4" cx="1319.86" cy="853.79" r="1" gradientTransform="matrix(25.88, -9.99, -12.22, -31.66, -23486.87, 40910.37)" xlink:href="#Безымянный_градиент_57"/><linearGradient id="Безымянный_градиент_65-9" x1="262.1" y1="228.87" x2="309.11" y2="254.21" xlink:href="#Безымянный_градиент_65"/><linearGradient id="Безымянный_градиент_65-10" x1="273.13" y1="235.62" x2="293.87" y2="246.2" xlink:href="#Безымянный_градиент_65"/><radialGradient id="Безымянный_градиент_62" cx="1452.52" cy="835.1" r="1" gradientTransform="matrix(-15.63, 0, 0, 15.63, 22981.59, -12400.46)" xlink:href="#Безымянный_градиент_5"/><radialGradient id="Безымянный_градиент_62-2" cx="1554.39" cy="831.66" r="1" gradientTransform="matrix(-7.21, 0, 0, 7.21, 11522.87, -5370)" xlink:href="#Безымянный_градиент_5"/><radialGradient id="Безымянный_градиент_62-3" cx="1554.39" cy="831.66" r="1" gradientTransform="matrix(-7.21, 0, 0, 7.21, 11468.13, -5338.23)" xlink:href="#Безымянный_градиент_5"/><linearGradient id="Безымянный_градиент_63-3" x1="274.81" y1="249.33" x2="286.68" y2="230.63" xlink:href="#Безымянный_градиент_63"/><linearGradient id="Безымянный_градиент_64-2" x1="32.38" y1="234.16" x2="366.58" y2="234.16" xlink:href="#Безымянный_градиент_64"/><linearGradient id="Безымянный_градиент_65-11" x1="74.27" y1="241.78" x2="144.24" y2="275.23" xlink:href="#Безымянный_градиент_65"/><linearGradient id="Безымянный_градиент_66" x1="418.31" y1="523.57" x2="395.96" y2="602.53" gradientTransform="matrix(1, 0, 0, -1, 0, 884.09)" gradientUnits="userSpaceOnUse"><stop offset="0.04" stop-color="#ffba78"/><stop offset="0.4" stop-color="#ffc987"/><stop offset="1" stop-color="#feeca8"/></linearGradient><linearGradient id="Безымянный_градиент_87-22" x1="153.87" y1="327.6" x2="735.13" y2="581.28" xlink:href="#Безымянный_градиент_87"/><radialGradient id="Безымянный_градиент_94-3" cx="1349.8" cy="838.56" r="1" gradientTransform="matrix(88.84, 0, 0, -88.84, -119432.36, 74835.26)" xlink:href="#Безымянный_градиент_94"/><linearGradient id="Безымянный_градиент_87-23" x1="136.22" y1="259.71" x2="152.11" y2="328.24" xlink:href="#Безымянный_градиент_87"/><linearGradient id="Безымянный_градиент_87-24" x1="214.22" y1="267.41" x2="196.84" y2="321.04" xlink:href="#Безымянный_градиент_87"/><radialGradient id="Безымянный_градиент_71" cx="1256.92" cy="652.45" r="1" gradientTransform="matrix(3.02, 5.6, 5.6, -3.02, -7251.75, -4505.9)" gradientUnits="userSpaceOnUse"><stop offset="0.1" stop-color="#8493ba"/><stop offset="0.21" stop-color="#606c90"/><stop offset="0.33" stop-color="#444d6e"/><stop offset="0.43" stop-color="#303756"/><stop offset="0.53" stop-color="#232a47"/><stop offset="0.62" stop-color="#1f2542"/><stop offset="0.71" stop-color="#242a49"/><stop offset="0.83" stop-color="#34395b"/><stop offset="0.98" stop-color="#4d5179"/><stop offset="0.98" stop-color="#4d517a"/></radialGradient><linearGradient id="Безымянный_градиент_81" x1="200.37" y1="340.97" x2="211.37" y2="320.57" gradientTransform="matrix(1, 0, 0, -1, 0, 884.09)" gradientUnits="userSpaceOnUse"><stop offset="0" stop-color="#7d62b8"/><stop offset="0.13" stop-color="#9039b1"/><stop offset="0.25" stop-color="#9f19ab"/><stop offset="0.29" stop-color="#89169c"/><stop offset="0.36" stop-color="#5e1080"/><stop offset="0.43" stop-color="#3c0b6a"/><stop offset="0.5" stop-color="#24085a"/><stop offset="0.56" stop-color="#150650"/><stop offset="0.62" stop-color="#10054d"/><stop offset="0.67" stop-color="#150754"/><stop offset="0.75" stop-color="#230e66"/><stop offset="0.84" stop-color="#391985"/><stop offset="0.93" stop-color="#5526ab"/><stop offset="0.96" stop-color="#4d1ba4"/><stop offset="1" stop-color="#4916a1"/></linearGradient><linearGradient id="Безымянный_градиент_81-2" x1="237.02" y1="361.76" x2="248.52" y2="340.41" xlink:href="#Безымянный_градиент_81"/><linearGradient id="Безымянный_градиент_74" x1="278.38" y1="393.04" x2="275.43" y2="349.62" gradientTransform="matrix(1, 0, 0, -1, 0, 884.09)" gradientUnits="userSpaceOnUse"><stop offset="0" stop-color="#d6dae6"/><stop offset="0.01" stop-color="#d4d8e6"/><stop offset="0.28" stop-color="#b4b8e3"/><stop offset="0.4" stop-color="#9a9fc8"/><stop offset="0.53" stop-color="#838ab0"/><stop offset="0.65" stop-color="#757da1"/><stop offset="0.76" stop-color="#70789c"/><stop offset="0.85" stop-color="#777ea2"/><stop offset="0.99" stop-color="#898eb3"/><stop offset="1" stop-color="#8b90b5"/></linearGradient><linearGradient id="Безымянный_градиент_76" x1="312.63" y1="402.39" x2="323.75" y2="381.75" gradientTransform="matrix(1, 0, 0, -1, 0, 884.09)" gradientUnits="userSpaceOnUse"><stop offset="0.01" stop-color="#c1a1d5"/><stop offset="0.05" stop-color="#c8abda"/><stop offset="0.11" stop-color="#dac6e6"/><stop offset="0.2" stop-color="#f7f2f9"/><stop offset="0.22" stop-color="#fff"/><stop offset="0.25" stop-color="#f9f5fb"/><stop offset="0.3" stop-color="#e9dbf2"/><stop offset="0.36" stop-color="#d1b4e3"/><stop offset="0.43" stop-color="#b395d6"/><stop offset="0.49" stop-color="#9c7dcb"/><stop offset="0.56" stop-color="#8e6ec5"/><stop offset="0.61" stop-color="#8969c3"/><stop offset="0.76" stop-color="#9471c6"/><stop offset="1" stop-color="#b086cc"/></linearGradient><linearGradient id="Безымянный_градиент_76-2" x1="366.97" y1="436.3" x2="364.58" y2="401.13" xlink:href="#Безымянный_градиент_76"/><radialGradient id="Безымянный_градиент_77" cx="1180.48" cy="844.27" r="1" gradientTransform="matrix(7.39, 0, 0, -7.39, -8365.48, 6705.63)" gradientUnits="userSpaceOnUse"><stop offset="0" stop-color="#b4299a"/><stop offset="0.12" stop-color="#8a2076"/><stop offset="0.26" stop-color="#601652"/><stop offset="0.4" stop-color="#3e0e35"/><stop offset="0.55" stop-color="#23081e"/><stop offset="0.69" stop-color="#0f030d"/><stop offset="0.84" stop-color="#040103"/><stop offset="1"/></radialGradient><radialGradient id="Безымянный_градиент_79" cx="1340.41" cy="782.51" r="1" gradientTransform="matrix(30.85, 28.32, 10.83, -11.8, -49631.28, -28162.15)" gradientUnits="userSpaceOnUse"><stop offset="0"/><stop offset="1" stop-color="#fff"/></radialGradient><radialGradient id="Безымянный_градиент_79-2" cx="1309.62" cy="713.47" gradientTransform="matrix(13.75, 12.62, 4.83, -5.26, -21263.05, -12215.09)" xlink:href="#Безымянный_градиент_79"/><radialGradient id="Безымянный_градиент_80" cx="1336.59" cy="966.89" r="1" gradientTransform="matrix(36.78, -19.32, -2.44, -4.64, -46489.48, 30792.67)" gradientUnits="userSpaceOnUse"><stop offset="0" stop-color="#fff"/><stop offset="0.13" stop-color="#ff63ce"/><stop offset="1"/></radialGradient><linearGradient id="Безымянный_градиент_81-3" x1="228.27" y1="357.12" x2="239.82" y2="336.81" xlink:href="#Безымянный_градиент_81"/><radialGradient id="Безымянный_градиент_83" cx="1128.51" cy="769.71" r="1" gradientTransform="matrix(2.31, 2.93, 11.98, -9.46, -11620.84, 4526.7)" gradientUnits="userSpaceOnUse"><stop offset="0" stop-color="#742a97"/><stop offset="0.04" stop-color="#6a268a"/><stop offset="0.19" stop-color="#4a1b60"/><stop offset="0.35" stop-color="#2f113d"/><stop offset="0.51" stop-color="#1b0a22"/><stop offset="0.67" stop-color="#0c040f"/><stop offset="0.83" stop-color="#030104"/><stop offset="1"/></radialGradient><radialGradient id="Безымянный_градиент_83-2" cx="1169.07" cy="739.14" r="1" gradientTransform="matrix(0.64, 2.13, 12.53, -3.77, -9803.66, 847.84)" xlink:href="#Безымянный_градиент_83"/><linearGradient id="Безымянный_градиент_84" x1="314.03" y1="660.66" x2="374.08" y2="730.72" gradientTransform="matrix(1, 0, 0, -1, 0, 884.09)" gradientUnits="userSpaceOnUse"><stop offset="0" stop-color="#b086cc"/><stop offset="0.04" stop-color="#a37cbd"/><stop offset="0.17" stop-color="#785b8b"/><stop offset="0.3" stop-color="#533f60"/><stop offset="0.44" stop-color="#35283e"/><stop offset="0.57" stop-color="#1e1723"/><stop offset="0.71" stop-color="#0d0a0f"/><stop offset="0.85" stop-color="#030204"/><stop offset="1"/></linearGradient><linearGradient id="Безымянный_градиент_87-25" x1="399.94" y1="631.83" x2="457.5" y2="644.77" xlink:href="#Безымянный_градиент_87"/><linearGradient id="Безымянный_градиент_87-26" x1="56.92" y1="572.14" x2="579.23" y2="785.49" xlink:href="#Безымянный_градиент_87"/><linearGradient id="Безымянный_градиент_87-27" x1="383.1" y1="830.49" x2="315.94" y2="700.48" xlink:href="#Безымянный_градиент_87"/><linearGradient id="Безымянный_градиент_93" x1="232.86" y1="719.21" x2="266.77" y2="705.46" gradientTransform="matrix(1, 0, 0, -1, 0, 884.09)" gradientUnits="userSpaceOnUse"><stop offset="0" stop-color="#ff8b8a"/><stop offset="1" stop-color="#ff8945"/></linearGradient><linearGradient id="Безымянный_градиент_93-2" x1="258.09" y1="704.71" x2="292" y2="690.96" xlink:href="#Безымянный_градиент_93"/><linearGradient id="Безымянный_градиент_93-3" x1="283.31" y1="690.01" x2="317.22" y2="676.26" xlink:href="#Безымянный_градиент_93"/><linearGradient id="Безымянный_градиент_93-4" x1="308.54" y1="675.51" x2="342.45" y2="661.76" xlink:href="#Безымянный_градиент_93"/><linearGradient id="Безымянный_градиент_93-5" x1="333.77" y1="661.01" x2="367.68" y2="647.26" xlink:href="#Безымянный_градиент_93"/><linearGradient id="Безымянный_градиент_93-6" x1="359.22" y1="646.19" x2="392.88" y2="632.68" xlink:href="#Безымянный_градиент_93"/><radialGradient id="Безымянный_градиент_94-4" cx="1350.74" cy="838.53" r="1" gradientTransform="matrix(94.58, 0, 0, -94.58, -127638.1, 79810.18)" xlink:href="#Безымянный_градиент_94"/><radialGradient id="Безымянный_градиент_95-2" cx="1318.4" cy="839.62" r="1" gradientTransform="matrix(29.19, 0, 0, -29.19, -38358.79, 24996.48)" xlink:href="#Безымянный_градиент_95"/></defs><g id="Слой_2" data-name="Слой 2"><g id="Слой_1-2" data-name="Слой 1"><g class="cls-1"><path class="cls-2" d="M394.09,740.51C594.52,740.51,757,574.74,757,370.26S594.52,0,394.09,0,31.19,165.77,31.19,370.26,193.66,740.51,394.09,740.51Z"/></g><path class="cls-3" d="M565.12,578.82c0,3.78-2.78,7.95-8.35,11.13l-79,75.48c-9.93,5.76-25.23,6.35-33.77,1.39L300.14,583.19c-4.17-2.38-6.16-5.76-5.76-9.14v11.53c0,3.17,2,6.15,5.76,8.34L444,677.54c8.74,5,23.84,4.37,33.77-1.39l79-75.48c5.57-3.18,8.35-7.35,8.35-11.12Z"/><g class="cls-4"><path class="cls-5" d="M297,547.84l126.13-48.47a50.41,50.41,0,0,1,36-4.77,45.71,45.71,0,0,1,9.54,3.77L561.94,553l2.78,1.59c7.35,4.37,10.72,11.32,10.33,18.87s-6.16,16.09-14.5,20.86l-77.67,74.09a50.35,50.35,0,0,1-24.63,6.16c-7.75,0-14.7-1.59-20.26-4.77L294.18,586.17c-7.35-4.17-11.32-10.72-11.32-18.07C283.25,560.35,288.22,553,297,547.84Z"/><path class="cls-6" d="M297.55,548.83l126.14-48.47a47.9,47.9,0,0,1,24.83-6A36.84,36.84,0,0,1,459.24,496a46.26,46.26,0,0,1,9.54,4l92.76,54.43c.2.2,2.58,1.59,2.78,1.79,7.15,4.57,9.54,11.32,8.74,18.67-.79,6.75-7.15,16.09-14.5,20.26l-76.27,72.7a48.11,48.11,0,0,1-24,6.16c-7.55,0-14.3-1.59-19.67-4.77L294.77,585.58c-6.95-4-10.92-10.33-10.72-17.29C284.44,560.75,289.21,553.79,297.55,548.83Z"/><path class="cls-7" d="M298.15,549.82l126.13-48.46a49.82,49.82,0,0,1,24.83-6,46.28,46.28,0,0,1,10.73,1.78,44.07,44.07,0,0,1,9.33,4.18l92.37,54c.2.2,2.58,1.59,2.78,1.79,7.15,4.57,8.54,11.32,7.35,18.67-1,6-8.14,15.89-14.7,19.67l-74.69,71.31a47.55,47.55,0,0,1-23.24,6c-7.34,0-14.1-1.59-19.26-4.57L296,584.58c-6.75-3.77-10.32-9.73-10.13-16.29C285.64,561.14,290.2,554.39,298.15,549.82Z"/><path class="cls-8" d="M298.75,550.82l126.13-48.47a47,47,0,0,1,24.63-5.76,43.25,43.25,0,0,1,10.53,2,64.55,64.55,0,0,1,9.13,4.17L561,556.58c.39.19,2.38,1.58,2.78,1.78,6.95,4.57,8.93,11.72,5.76,18.48,0,5.36-8.94,15.69-14.9,19.07l-73.3,69.92a46.26,46.26,0,0,1-22.64,5.76c-7.15,0-13.71-1.39-18.67-4.37L296.16,583.59c-6.35-3.77-9.73-9.34-9.73-15.49C286.63,561.54,291,555.18,298.75,550.82Z"/><path class="cls-9" d="M299.14,551.81l126.14-48.47a46.92,46.92,0,0,1,24.63-5.56,54.57,54.57,0,0,1,10.52,2,63.16,63.16,0,0,1,9.14,4.37l91.37,53.43a21,21,0,0,1,2.78,1.79c6.76,4.76,8.35,11.92,4.18,18.27,0,4.57-9.94,15.69-14.9,18.47l-71.91,68.73a45.9,45.9,0,0,1-22,5.56c-7,0-13.3-1.39-18.27-4.17L297,582.6c-6.16-3.58-9.34-8.74-9.14-14.5C287.82,561.94,292,556,299.14,551.81Z"/><path class="cls-10" d="M299.74,552.6l126.13-48.46a44.7,44.7,0,0,1,24.43-5.37A39.29,39.29,0,0,1,460.63,501a90.63,90.63,0,0,1,8.94,4.37l90.78,53.23c.59.4,2.38,1.39,2.78,1.79,6.55,4.77,7.55,11.92,2.78,18.27,0,3.78-10.93,15.5-15.1,17.88L480.3,663.84c-6.16,3.57-13.91,5.36-21.45,5.56-6.76,0-12.92-1.39-17.68-4.17L297.36,581.6c-5.76-3.37-8.74-8.34-8.54-13.7C289,562.14,292.79,556.58,299.74,552.6Z"/><path class="cls-11" d="M300.33,553.59l126.14-48.46c6.95-4,16.09-5.76,24.43-5.17a41.21,41.21,0,0,1,10.33,2.39c1.19.39,7.94,4,8.94,4.57l90.18,52.83a30.33,30.33,0,0,1,2.58,1.79c6.36,4.77,6.75,12.12,1.19,18.08,0,3-11.92,15.49-15.29,17.28L479.7,662.84a43.35,43.35,0,0,1-20.85,5.37c-6.56,0-12.72-1.19-17.28-4L297.75,580.61c-5.56-3.18-8.34-7.75-7.94-12.91S293.78,557.37,300.33,553.59Z"/><path class="cls-12" d="M300.93,554.59l126.13-48.47a42.46,42.46,0,0,1,24.24-5,46.39,46.39,0,0,1,10.13,2.58c1,.4,7.94,4.17,8.74,4.57L560,561a14.37,14.37,0,0,1,2.58,1.78c6.16,5,6.16,12.12-.39,18.08,0,2.38-12.92,15.29-15.3,16.68l-67.73,64.56a40.94,40.94,0,0,1-20.26,5.17c-6.36,0-12.32-1.2-16.69-3.78L298.35,579.82c-5.17-3-7.75-7.35-7.55-11.92C291.2,562.93,294.77,558.16,300.93,554.59Z"/><path class="cls-13" d="M301.33,555.58l126.13-48.46c7-4,16.09-5.57,24-4.77a38,38,0,0,1,10.13,2.78c.59.2,8.14,4.37,8.74,4.77l89.38,52a11.62,11.62,0,0,1,2.58,1.79c6.16,5,5.37,12.31-2,17.87,0,1.59-13.71,15.3-15.5,16.09l-66.14,63.17A43,43,0,0,1,459,666c-6.15,0-11.91-1.19-16.28-3.57L298.94,578.82c-5-2.78-7.15-6.75-6.95-11.12C292.39,563.33,295.57,559,301.33,555.58Z"/><path class="cls-14" d="M301.92,556.58l126.14-48.47c6.75-4,16.09-5.56,24-4.57a36.34,36.34,0,0,1,9.93,3c.4.2,8.35,4.77,8.55,4.77l88.79,52a28.19,28.19,0,0,1,2.58,1.79c6,5,4.57,12.51-3.38,17.87,0,.8-14.7,15.1-15.49,15.5l-64.76,61.58a41.33,41.33,0,0,1-19.07,5c-5.95,0-11.52-1-15.69-3.57l-144-83.63c-4.57-2.58-6.75-6.36-6.36-10.13C293.58,563.73,296.56,559.55,301.92,556.58Z"/><path class="cls-15" d="M444,660.46,300.14,576.84c-8.74-5-7.55-13.71,2.38-19.47L428.65,508.9c9.94-5.76,25.23-6.35,33.77-1.39l96.74,56.61c8.74,5,7.55,13.71-2.39,19.47l-79,75.48C467.79,664.83,452.49,665.43,444,660.46Z"/></g><path class="cls-16" d="M444,660.26,300.14,576.64c-3.78-2.19-5.76-5.17-5.76-8.35V557.37c0-3.77,2.78,2.78,8.34-.4l126.13-48.46c9.93-5.77,25.23-6.36,33.77-1.4l96.73,56.62c3,1.59,5-5.37,5.77-3.18.19.79,0,10.72.19,11.52,0,4-2.78,7.94-8.34,11.12l-79.05,75.48C467.79,664.63,452.49,665.23,444,660.26Z"/><path class="cls-17" d="M444,649.54,300.14,565.91c-8.74-5-7.55-13.7,2.38-19.46L428.65,498c9.93-5.76,25.23-6.36,33.77-1.39l96.74,56.61c8.74,5,7.55,13.71-2.39,19.46l-79,75.49C467.79,653.91,452.49,654.7,444,649.54Z"/><path class="cls-18" d="M559.16,553.2l-96.74-56.61c-8.74-5-23.84-4.37-33.77,1.39l-63.56,24.43a17.13,17.13,0,0,0,2,1.39l143.81,83.63a24.27,24.27,0,0,0,7,2.58l38.93-37.15C566.71,566.91,567.9,558.16,559.16,553.2Z"/><path class="cls-19" d="M556.77,570.88l-79,75.48c-9.93,5.76-25.23,6.35-33.77,1.39L300.14,564.12c-3.58-2-5.56-4.76-5.76-7.74-.4,3.57,1.39,7,5.76,9.53L444,649.54c8.74,5,23.84,4.37,33.77-1.39l79-75.49c5.76-3.37,8.55-7.74,8.15-11.91C564.52,564.52,561.74,568.1,556.77,570.88Z"/><g class="cls-20"><path class="cls-21" d="M502.74,642.39c9.94,24.23,1.2,50.65-19.46,59.19s-45.49-4.17-55.62-28.41c-9.93-24.23-1.19-50.65,19.47-59.19C468,605.64,492.81,618.35,502.74,642.39Z"/></g><path class="cls-22" d="M631.86,650.13,278.68,445.94c-18.07-10.33-32.77-38.34-32.77-62.57V113.22c0-24,14.7-35.16,32.77-24.63l353.18,204.2c18.07,10.33,32.77,38.34,32.77,62.57V625.5C664.43,649.54,649.93,660.46,631.86,650.13Z"/><path class="cls-23" d="M636,631.26,287.82,430.05c-14.5-9.14-23.44-27.62-23.44-46.48V111.63a5.74,5.74,0,0,1,8.74-5,4.79,4.79,0,0,1,1,.59l348.6,201.42c17.28,9.93,23.44,27.61,23.44,46.48V626.3a6.23,6.23,0,0,1-9.34,5.36C636.43,631.46,636.23,631.46,636,631.26Z"/><path class="cls-24" d="M622.72,308.68,273.92,107.26a4.79,4.79,0,0,0-1-.59,5.87,5.87,0,0,0-8.74,5V383.57c0,18.86,8.94,37.34,23.44,46.48L635.83,631.26c.2.2.4.2.8.4A6.22,6.22,0,0,0,646,626.3V355.16C646.16,336.29,640,318.61,622.72,308.68ZM642.58,626.3a2.62,2.62,0,0,1-2.58,2.58,2.8,2.8,0,0,1-1.19-.4L289.61,426.87C276.5,418.52,268,401.44,268,383.57V111.63a2.19,2.19,0,0,1,2.18-2.18,1.53,1.53,0,0,1,1,.4l349.59,202c17.88,10.33,21.66,29.4,21.66,43.3V626.3Z"/><path class="cls-25" d="M641.19,287.82,287.82,83.63c-7.15-4.18-13.7-5-19.07-2.79-.59.2-9.73,5.17-10.52,5.57,5.56-2.78,12.71-2.19,20.26,2.18l353.17,204.2c18.07,10.33,32.77,38.34,32.77,62.57V625.5c0,15.1-5.76,25-14.3,27.81a4.73,4.73,0,0,0,2.78-1c.4-.2,10.33-5.76,10.73-6.16,6.16-4.37,10.13-13.31,10.13-25.62V350.39C673.77,326.16,659.07,298.15,641.19,287.82Z"/><path class="cls-26" d="M633.45,292,280.08,87.8c-7.35-4.37-14.31-5-19.67-2.59,4.77-.79,10.13.4,15.69,3.78L629.28,293.18c18.07,10.33,32.77,38.34,32.77,62.58V625.9c0,14.3-5.16,23.83-12.91,27.21,10.13-1.59,16.88-11.92,16.88-28.4V354.56C666,330.33,651.52,302.32,633.45,292Z"/><g class="cls-20"><path class="cls-27" d="M692,304.71c9.94,24.23,2.79,50.05-16.28,58-18.87,7.74-42.31-5.56-52.24-29.8s-2.79-50.05,16.28-58C658.67,267.17,682.11,280.47,692,304.71Z"/></g><path class="cls-28" d="M419.32,157.92c27.81,67.73-2.58,144.21-67.74,171S211,322.58,183.14,254.85s2.58-144.21,67.74-171C316.23,57.21,391.51,90.38,419.32,157.92Z"/><path class="cls-29" d="M607.43,256.24a29.2,29.2,0,1,0-29.2-29.2A29.2,29.2,0,0,0,607.43,256.24Z"/><g class="cls-4"><path class="cls-30" d="M463.42,725.81a29.2,29.2,0,1,0-29.2-29.2A29.19,29.19,0,0,0,463.42,725.81Z"/></g><path class="cls-31" d="M709.33,598.09h-2V328c0-23.64-14.5-51.45-32.18-61.58L322,62.17l1-1.59,353.17,204.2c18.28,10.53,33.18,38.93,33.18,63.36v270Z"/><path class="cls-32" d="M458.65,697.8c-5.76,0-11.13-1.19-15.1-3.57l-144-83.43,1-1.59,143.82,83.63c8.34,4.77,23,4.17,32.77-1.39l79.06-75.28,1.39,1.39-79.26,75.68A46.85,46.85,0,0,1,458.65,697.8Z"/><path class="cls-33" d="M312.06,396.28l-39.73-23-43.9,25v43.5l39.73,22.85v0L312.06,440Z"/><g class="cls-34"><path class="cls-35" d="M268.16,421.5v43.31L286,454.28v-43.5Z"/><path class="cls-36" d="M268.16,421.5v43.31l-39.73-23.05v-43.5Z"/><path class="cls-37" d="M228.43,398.26l39.73,23.24L286,410.78l-39.73-23.24Z"/></g><path class="cls-38" d="M312.06,339.67l-39.73-23.05-43.9,25v43.5l39.73,23.05,43.9-24.84Z"/><g class="cls-34"><path class="cls-39" d="M268.16,364.89V408.2L286,397.67v-43.5Z"/><path class="cls-40" d="M268.16,364.89V408.2l-39.73-23.05v-43.5Z"/><path class="cls-41" d="M228.43,341.65l39.73,23.24L286,354.17l-39.73-23.24Z"/></g><path class="cls-42" d="M312.05,282.66l-39.72-23.24-43.9,25v43.69L268.16,351l43.89-24.63Z"/><g class="cls-34"><path class="cls-43" d="M268.16,307.69V351L286,340.66V297Z"/><path class="cls-44" d="M268.16,307.68V351l-39.73-22.85V284.45Z"/><path class="cls-45" d="M228.43,284.45l39.73,23.23L286,297l-39.72-23Z"/></g><path class="cls-46" d="M259.22,337.68,237,324.77V299.34l22.25,12.92Z"/><path class="cls-46" d="M261.4,382.37c0,7.75-5.56,10.93-12.31,7.15-6.75-4-12.32-13.5-12.32-21.25s5.57-10.92,12.32-6.95C255.84,364.89,261.4,374.43,261.4,382.37Z"/><path class="cls-46" d="M241.34,441.76l-7-17.87,7-9.93,13.91,8.14L262.2,440l-6.95,9.73Z"/><path class="cls-47" d="M644.17,513.27l-39.52-23-43.9,25v43.5l39.53,23L644.17,557Z"/><g class="cls-34"><path class="cls-48" d="M600.27,538.5v43.3l18.08-10.52V527.77Z"/><path class="cls-49" d="M600.27,538.5v43.3l-39.52-23v-43.5Z"/><path class="cls-50" d="M560.75,515.26l39.53,23.24,18.07-10.73-39.73-23.24Z"/></g><path class="cls-51" d="M644.17,435.41l-39.52-23.24-43.9,25v43.69l39.53,22.85,43.89-24.63Z"/><g class="cls-34"><path class="cls-52" d="M600.27,460.44v43.3l18.08-10.33v-43.7Z"/><path class="cls-53" d="M600.27,460.43v43.31l-39.52-22.85V437.2Z"/><path class="cls-54" d="M560.75,437.2l39.53,23.23,18.07-10.72-39.73-23Z"/></g><path class="cls-55" d="M644.17,377.41l-39.52-23.24-43.9,25v43.7l39.53,22.85,43.89-24.83Z"/><g class="cls-34"><path class="cls-56" d="M600.27,402.43v43.31l18.08-10.33v-43.7Z"/><path class="cls-57" d="M600.27,402.43v43.31l-39.52-22.85v-43.7Z"/><path class="cls-58" d="M560.75,379.19l39.53,23.24,18.07-10.72-39.73-23Z"/></g><path class="cls-59" d="M644.17,317.82l-39.52-23.05-43.9,25v43.5l39.53,23.05,43.89-24.83Z"/><g class="cls-34"><path class="cls-60" d="M600.27,343v43.31l18.08-10.53v-43.5Z"/><path class="cls-61" d="M600.27,343v43.31L560.75,363.3V319.8Z"/><path class="cls-62" d="M560.75,319.8,600.28,343l18.07-10.72-39.73-23.24Z"/></g><path class="cls-46" d="M588.75,399.26,567.9,411.17l-2.59,11.33,11.13,3.37L597.29,414Zm-20.66,18.67,1.2-4.77,6.16,10.53-4.77-1.39Zm2-5.76,13.71-7.75,6.55,11.13-13.7,7.74Z"/><path class="cls-46" d="M585.77,367.08l4.18-7.95,5.76-3.18-9.14-15.89-5.76,3.18-8.94-.4c-.2,0-.4,0-.4.2l-5,16.89a2.14,2.14,0,0,0,.2,1,.78.78,0,0,0,.79.4l.4-.2-.4.2c-.2.2-.2.39,0,.79v.2c.2.2.4.6.6.6l17.28,4.17C585.58,367.28,585.77,367.28,585.77,367.08Zm-15.69-5.17,6.16-4.17c.79,1,1.79,1.39,2.58,1,.8-.59.8-2.18,0-3.77s-2.38-2.38-3.18-1.79c-.79.4-.79,1.59-.39,2.78l-6.76,3.18,4.17-14.5,8.15.4,7.74,13.31-3.77,7.15Z"/><path class="cls-46" d="M590.14,476.13l-3.37-6a10.51,10.51,0,0,1,5,.2,2.27,2.27,0,0,0,2-.2c2.19-1.19,2-5.76-1-9.34-1.59-2-3.58-3.18-5.17-3a2.86,2.86,0,0,0-2.18,1.79A11.33,11.33,0,0,1,583,464l-3.37-5.76-3.38,2,1.59,2.58-9.73,5.56c-1.2.6-1.79,2-2,3.78l-.2,3c0,.19,0,.39-.2.39l-1.19,1.79a1.59,1.59,0,0,0,.2,1.59c.4.6.79,1,1.19,1l2-.2h.39l3,1.39a4.46,4.46,0,0,0,4.18.2l9.73-5.56,1.59,2.58Zm-15.49,3.18a3.69,3.69,0,0,1-3.18-.2l-3-1.39a2.12,2.12,0,0,0-1-.2h-.6l.6-.8a1.48,1.48,0,0,0,.4-1l.2-3a3.71,3.71,0,0,1,1.58-3l9.74-5.56,5.36,9.14Z"/><path class="cls-46" d="M592.53,565.71l-5.76-9.93a3.13,3.13,0,0,0-2.19-1.59l-1.59-3c2.59-2.38,2.19-7.94-.79-13.11-3.38-5.76-8.74-8.74-11.92-7-3.38,1.79-3.38,7.94,0,13.71,3,5.16,7.75,8.14,11.12,7.35l1.59,3a2.89,2.89,0,0,0,.2,2.79L589,567.9c.8,1.19,1.79,2,2.58,1.59l1-.6C593.12,568.29,593.12,566.9,592.53,565.71Zm-12.32-17.28c-2.18,1.19-5.76-.79-7.94-4.57s-2.19-7.74,0-8.94,5.76.8,7.94,4.57C582.2,543.07,582.2,547.24,580.21,548.43Z"/><g class="cls-4"><path class="cls-5" d="M155.73,625.3l34.17-12.51a13,13,0,0,1,3-1.39,32.71,32.71,0,0,1,12.51-2.58,30.41,30.41,0,0,1,10.73,2c.59.2,1.58.8,2.18,1l149,91.18c4.17,2.38,7.35,6.75,7.74,10.92v.4c.4,5-2.58,9.93-8.34,13.31L241.14,760a33.24,33.24,0,0,1-15.49,4,24.08,24.08,0,0,1-13.71-2.78l-57.4-111A14.64,14.64,0,0,1,147.39,639v-.6C147,633.45,150.17,628.48,155.73,625.3Z"/><path class="cls-6" d="M156.33,625.5l33.76-12.32c.8-.39,2.19-1,3-1.39a32,32,0,0,1,12.32-2.58,28.47,28.47,0,0,1,10.53,2c.59.2,1.59.79,2.18,1l148,90.38c3.78,2.19,7.55,6.75,8.15,10.53v.4c.79,4.76-1.79,9.73-7.55,13.11l-124.15,32c-3.57,2.18-10.72,4-15.29,4-5.17.6-10.53-.2-14.3-2.39l-56.81-110c-3.78-2.18-6.56-7.55-7.15-11.12a.73.73,0,0,0-.2-.6C147.79,633.84,150.57,628.88,156.33,625.5Z"/><path class="cls-7" d="M156.92,625.9l33.57-12.32c.8-.4,2.19-1,3-1.39a31.76,31.76,0,0,1,12.32-2.58,29,29,0,0,1,10.52,2,16.76,16.76,0,0,1,2,1l146.79,89.78c3.38,2,7.75,6.76,8.34,10.13v.4c1.4,4.77-1.19,9.73-6.95,12.91l-123,31.78c-3.18,1.79-11.13,4-15.1,4-5.36,1-11.12.39-15.1-2L157.12,650.53c-3.18-2-6.36-7.95-7-11.12,0-.2-.2-.4-.2-.6C148.58,634.24,151.16,629.28,156.92,625.9Z"/><path class="cls-8" d="M157.32,626.29l33.37-12.11c.6-.4,2.38-1,3-1.39a30.77,30.77,0,0,1,12.12-2.58,28.24,28.24,0,0,1,10.33,2l2,1,145.6,89c3,1.59,8.74,6.76,8.74,9.74a.19.19,0,0,0,.2.19c1.79,4.57-.6,9.54-6.36,12.92L244.72,756.4c-2.78,1.59-11.52,3.77-15.1,3.77-5.36,1.4-11.72.8-15.89-1.58L157.91,650.53c-2.78-1.59-6.75-8.34-6.75-11.12a.7.7,0,0,0-.2-.4C149.37,634.44,151.56,629.47,157.32,626.29Z"/><path class="cls-9" d="M157.92,626.49l33-12.11c.6-.4,2.38-1,3-1.39A33.66,33.66,0,0,1,206,610.21a28.1,28.1,0,0,1,10.32,2l2,1,144.41,88.4c2.58,1.39,8.94,6.75,9.14,9.33a.19.19,0,0,0,.19.2c2.19,4.37.2,9.34-5.76,12.72l-120.37,31c-2.38,1.39-11.72,3.78-14.9,3.78-5.56,1.58-12.11,1.19-16.48-1.39L159.31,650.13c-2.39-1.39-6.56-8.74-6.56-11.12a.7.7,0,0,0-.2-.4C150,634.84,152.15,629.87,157.92,626.49Z"/><path class="cls-10" d="M158.51,626.89,191.29,615c.39-.19,2.58-1,3-1.19A30,30,0,0,1,206.18,611a26.29,26.29,0,0,1,10.13,2,9.22,9.22,0,0,0,2,1l143.22,87.6c2,1.19,9.33,6.75,9.33,8.94l.2.2c2.78,4.17.8,9.13-5,12.51L246.9,754c-2,1.19-12.11,3.77-14.7,3.77-5.56,2-12.71,1.59-17.28-1L160.3,650.93c-2-1.2-6.36-9.14-6.56-11.13-.2-.2-.2-.2-.2-.39C150.76,635.23,152.55,630.27,158.51,626.89Z"/><path class="cls-11" d="M159.11,627.09l32.57-11.92c.4-.2,2.59-1,3-1.19a29.85,29.85,0,0,1,11.72-2.78,27.08,27.08,0,0,1,10.13,2,6.2,6.2,0,0,0,2,1l142,86.8c1.59,1,9.74,6.75,9.74,8.54l.19.2c3.18,4,1.59,8.94-4.37,12.52L247.9,752.83c-1.59,1-12.52,3.77-14.5,3.77-5.76,2.38-13.31,2.18-18.08-.6L161.09,651.12c-1.58-1-6.35-9.53-6.35-11.12l-.4-.4C151.36,635.63,153.15,630.47,159.11,627.09Z"/><path class="cls-12" d="M159.5,627.49l32.18-11.72c.2-.2,2.58-1,3-1.19a29.05,29.05,0,0,1,11.72-2.79,25.26,25.26,0,0,1,9.93,2,11,11,0,0,1,2,1.19l140.83,86c1.19.8,10.13,6.76,10.13,8.15l.2.2c3.58,3.77,2.19,8.93-3.77,12.31l-116.6,30.19c-1.19.8-12.91,3.78-14.5,3.78-6,2.58-13.91,2.58-18.87-.2L162.09,651.52c-1.19-.79-6.16-9.93-6.16-11.12l-.4-.4C152.15,636,153.54,630.86,159.5,627.49Z"/><path class="cls-13" d="M160.1,627.69l32-11.72c.2-.2,2.78-1,3-1.19A28.12,28.12,0,0,1,206.58,612a25.3,25.3,0,0,1,9.93,2,5.6,5.6,0,0,1,1.79,1.19l139.64,85.42c.79.39,10.33,6.75,10.33,7.54l.2.2c4.17,3.58,3,8.74-3.18,12.12L250.08,750.24c-.79.4-13.31,3.78-14.3,3.78-6,3-14.5,3-19.47.2l-53-102.9c-.8-.39-6-10.33-6-11.12l-.4-.4C153,636.23,154.14,631.26,160.1,627.69Z"/><path class="cls-14" d="M160.7,628.08l31.78-11.52a30.67,30.67,0,0,0,3-1.19,30.8,30.8,0,0,1,11.52-3,21.19,21.19,0,0,1,9.73,2.19s1.79,1,1.79,1.19L357,700.59c.39.19,10.72,6.75,10.72,7.14l.2.2c4.57,3.38,3.58,8.54-2.38,12.12l-114,29.4c-.4.2-13.7,3.57-14.1,3.57-6.16,3.18-15.1,3.58-20.26.6l-52.64-101.9c-.4-.2-6-10.73-6-11.12-.2-.2-.4-.2-.4-.4C153.54,636.62,154.74,631.46,160.7,628.08Z"/><path class="cls-15" d="M217.51,752.63l-57.81-112c-5.36-3.18-4.77-8.55,1.59-12.12L195.65,616c6.16-3.58,15.7-4,21.06-.8l150.17,92c5.36,3.18,4.77,8.54-1.59,12.12L238.56,752C232.2,755.21,222.87,755.61,217.51,752.63Z"/></g><path class="cls-63" d="M318,741.11,148,619l51.85-24,170,122.16Z"/><path class="cls-64" d="M189.3,642l-19.07-13.71,40.52-18.87L230,623.32Z"/><path class="cls-65" d="M214.53,660.06l-19.27-13.7L236,627.49l19.07,13.9Z"/><path class="cls-66" d="M239.75,678.14l-19.26-13.71L261,645.56l19.26,13.91Z"/><path class="cls-67" d="M265,696.21l-19.27-13.7,40.52-18.87,19.27,13.9Z"/><path class="cls-67" d="M290,714.29l-19.07-13.71,40.52-18.87,19.07,13.91Z"/><path class="cls-67" d="M315.23,732.37,296,718.66l40.52-18.87,19.27,13.9Z"/><path class="cls-68" d="M318,741.11,148,619l51.85-24L332.52,734.35Z"/><path class="cls-69" d="M268.16,751,140.24,613l58.59-17.88,127.93,138Z"/><path class="cls-70" d="M173.41,640.2l-14.5-15.69L205,610.4l14.3,15.7Z"/><path class="cls-71" d="M192.48,660.66,178,645l45.88-14.11,14.5,15.7Z"/><path class="cls-72" d="M211.35,680.92l-14.5-15.49,45.88-14.11,14.5,15.7Z"/><path class="cls-73" d="M230.22,701.38l-14.5-15.49,46.08-14.11,14.3,15.69Z"/><path class="cls-74" d="M249.29,721.84l-14.5-15.49,45.88-14.11,14.5,15.5Z"/><path class="cls-75" d="M268.16,742.3l-14.5-15.5,45.88-14.1L314,728.2Z"/><path class="cls-76" d="M268.16,751,140.24,613l58.59-17.88,87.4,150.76Z"/><path class="cls-77" d="M216.91,756.8,134.28,607.62l63.36-11.32,82.63,149Z"/><path class="cls-78" d="M158.51,637.82l-9.33-16.89L198.83,612l9.34,16.89Z"/><path class="cls-79" d="M170.83,659.87,161.49,643,211,634l9.34,16.89Z"/><path class="cls-80" d="M182.94,681.91,173.61,665l49.65-8.94L232.6,673Z"/><path class="cls-81" d="M195.26,704l-9.34-16.88,49.66-8.94L244.92,695Z"/><path class="cls-82" d="M207.38,726,198,709.13l49.66-8.94L257,717.07Z"/><path class="cls-83" d="M219.69,748.06l-9.34-16.69L260,722.24l9.34,16.88Z"/><g class="cls-4"><path class="cls-5" d="M145,519.63a32,32,0,0,1,16.29-4,34.63,34.63,0,0,1,6.56.79A30.33,30.33,0,0,1,174.6,519L351,620.54c5,2.78,7.35,7.35,7.15,12.11a11.56,11.56,0,0,1-.8,3.58c-1.19,3.57-4.76,7.35-8.93,9.73l-99.52,57.41-4,2a34.59,34.59,0,0,1-12.12,2.19c-5,0-9.73-1-13.31-3.18l-177-101.7c-5-2.78-7.35-7.35-7.15-12.12a8.11,8.11,0,0,1,.59-3c1-3.77,4.77-7.94,9.14-10.33Z"/><path class="cls-6" d="M145.6,519.83a34,34,0,0,1,16.29-4,22.19,22.19,0,0,1,6.35,1,34.19,34.19,0,0,1,6.76,2.78l176,101.1c4.77,2.79,7.15,7.35,6.55,11.92a21.58,21.58,0,0,1-1,3.38c-1.19,3.18-5.36,7.35-8.94,9.33L249.29,702c-1,.59-2.78,1.39-4,2a33.48,33.48,0,0,1-11.91,2.39,27.24,27.24,0,0,1-13.11-3L43.1,601.66c-5-2.78-7.15-7.34-6.35-12.11a16.21,16.21,0,0,1,.79-3c1-3.38,5.37-7.75,9.34-9.93Z"/><path class="cls-7" d="M146.2,520.22a31.79,31.79,0,0,1,16.28-3.77,33.26,33.26,0,0,1,6.36,1,40.4,40.4,0,0,1,6.75,2.78L351,620.93c4.77,2.78,6.95,7.15,6,11.92a9,9,0,0,1-1.19,3.18c-1.2,2.78-5.77,7.15-9.14,8.94l-97.13,56a24.64,24.64,0,0,1-4,2,32.44,32.44,0,0,1-11.72,2.38c-5,0-9.53-1-12.91-3l-177-101.7c-5-2.78-6.75-7.35-5.76-11.92a15.72,15.72,0,0,1,1-2.78c1-3,6-7.55,9.54-9.53Z"/><path class="cls-8" d="M146.79,520.62a31.59,31.59,0,0,1,16.09-3.77A28.31,28.31,0,0,1,175.79,521l174.8,100.51c4.77,2.78,6.56,7.15,5.36,11.72-.39,1-.79,2-1.39,3.18-1,2.38-6.35,7-9.33,8.54l-95.94,55.22c-.8.4-3,1.59-3.78,2A37.1,37.1,0,0,1,234,704.76,23.67,23.67,0,0,1,221.28,702l-177-101.7c-5-2.79-6.56-7.35-5.17-11.72A15.71,15.71,0,0,1,40.32,586c1-2.58,6.56-7.35,9.74-9.13Z"/><path class="cls-9" d="M147.19,520.82a29.57,29.57,0,0,1,16.09-3.57,31.71,31.71,0,0,1,6.35,1.19,65.39,65.39,0,0,1,6.56,3l174.2,100.11c4.77,2.78,6.36,7.15,4.77,11.52-.4,1-1,1.79-1.59,3-1,2-6.95,6.75-9.34,8.14L249.68,699c-.79.39-3,1.59-3.77,2a35,35,0,0,1-11.32,2.59,23.63,23.63,0,0,1-12.71-2.79l-177-101.7c-5-2.78-6.35-7.35-4.57-11.72a27.68,27.68,0,0,0,1.19-2.58c.6-2.38,7.35-7.35,9.94-8.74Z"/><path class="cls-10" d="M147.79,521.22a29.4,29.4,0,0,1,16.08-3.38,28.42,28.42,0,0,1,6.16,1.39,67.44,67.44,0,0,1,6.56,3.18l173.6,99.91c4.77,2.78,6.16,7.15,4.17,11.52a10.65,10.65,0,0,1-1.78,2.78c-.6,1.79-7.55,6.76-9.54,8L249.68,698.4c-.59.4-3.17,1.59-3.77,2A29.47,29.47,0,0,1,234.79,703c-4.77.2-9.14-.6-12.52-2.58l-177-101.71c-5-2.77-6.16-7.34-4-11.52a14.38,14.38,0,0,1,1.39-2.38c.39-2,7.94-7.15,10.13-8.34Z"/><path class="cls-11" d="M148.38,521.42A29.46,29.46,0,0,1,164.47,518a28.56,28.56,0,0,1,6.16,1.39c1,.2,5.56,2.78,6.35,3.18l173.21,99.51c4.77,2.79,5.76,7.16,3.58,11.33a23.25,23.25,0,0,1-2,2.58c-.39,1.39-7.94,6.55-9.73,7.55l-92.17,53c-.39.2-3.17,1.79-3.57,2a34.1,34.1,0,0,1-10.93,2.78c-4.57.2-9.13-.6-12.31-2.58l-177-101.7c-4.76-2.78-5.76-7.35-3.37-11.52a8.55,8.55,0,0,1,1.59-2.19c.39-1.59,8.54-6.95,10.33-7.94Z"/><path class="cls-12" d="M149,521.81a27.65,27.65,0,0,1,16.09-3.17,28.22,28.22,0,0,1,6.15,1.58c.6.2,5.76,3,6.36,3.18l172.61,99.12c4.77,2.78,5.57,7.15,3,11.13A12.05,12.05,0,0,1,351,636c-.4,1-8.54,6.36-9.73,7.15l-91,52.44c-.4.2-3.18,1.79-3.57,2A31.74,31.74,0,0,1,236,700.39,23.24,23.24,0,0,1,223.86,698l-177-101.7C42.11,593.52,41.32,589,44.3,585a18.75,18.75,0,0,1,1.78-2c.2-1.19,9.14-6.75,10.53-7.54Z"/><path class="cls-13" d="M149.57,522.21A27.75,27.75,0,0,1,165.46,519a22.16,22.16,0,0,1,6.16,1.79c.4.2,6,3.18,6.36,3.38l172,98.92c4.76,2.78,5.36,7.15,2.38,10.92a11.36,11.36,0,0,1-2.19,2.19c-.19.79-9.13,6.16-9.93,6.75l-89.58,51.65c-.2.2-3.38,1.78-3.58,2a30.28,30.28,0,0,1-10.53,2.78c-4.56.2-8.93-.39-11.91-2.38l-177-101.7c-4.76-2.78-5.36-7.35-2-11.32a18.53,18.53,0,0,1,2-2c.2-.79,9.74-6.55,10.53-7.15Z"/><path class="cls-14" d="M150.17,522.41a27.62,27.62,0,0,1,15.89-3c2.18.2,4.17,1.19,6,1.79.2,0,6,3.37,6.16,3.37L349.6,623.12c4.76,2.78,5.16,7.15,1.79,10.92a25.92,25.92,0,0,1-2.39,2.19c-.2.39-9.73,6-10.13,6.35l-88.39,51c-.2,0-3.38,2-3.38,2a36.47,36.47,0,0,1-10.33,3,21.07,21.07,0,0,1-11.92-2.19l-177-101.7c-4.77-2.78-5.16-7.35-1.39-11.12a21.06,21.06,0,0,1,2.19-1.79c0-.39,10.32-6.55,10.72-6.75Z"/><path class="cls-15" d="M225.25,695.22l-177-101.7c-5.56-3.18-5-8.94,1.59-12.71l100.9-58.2c6.56-3.77,16.29-4.17,21.85-1l177,101.7c5.56,3.17,5,8.94-1.59,12.71L247.1,694.23C240.75,698.2,231,698.6,225.25,695.22Z"/></g><path class="cls-84" d="M249.88,694.23l99.72-57.41c4-2.38,6-5.36,6-8.54v-6.75c-.4-3.77-3.18-1.59-8.54-4.77L172.41,516.05c-10.32-5.95-25.82-6.55-34.76-1.39L37.94,572.07c-4,2.38-6-1.79-6,1.39v7.95c.4,3.77,3.18,7.54,8.54,10.52l174.6,100.71C225.45,698.6,240.94,699.2,249.88,694.23Z"/><path class="cls-85" d="M249.88,687.47l99.72-57.4c8.94-5.16,7.75-14.1-2.58-20.06L172.42,509.3c-10.33-6-25.83-6.56-34.77-1.39L37.94,565.32c-8.94,5.16-7.75,14.1,2.58,20.06l174.6,100.71C225.45,691.84,241,692.44,249.88,687.47Z"/><path class="cls-86" d="M349.6,629.08l-99.72,57.4c-8.94,5.17-24.43,4.57-34.76-1.39L40.52,584.38c-5.36-3.17-8.34-7.15-8.54-10.92-.2,4,2.58,8.34,8.54,11.72l174.6,100.71c10.33,6,25.82,6.55,34.76,1.39l99.72-57.41c4.17-2.38,6.16-5.76,6-9.14C355.36,623.91,353.37,626.89,349.6,629.08Z"/><path class="cls-87" d="M341.45,612.79l-174-100.31c-7.55-4.37-18.87-4.77-25.43-1L44.49,567.7c-6.55,3.77-5.76,10.33,1.79,14.7l174,100.31c7.55,4.37,18.87,4.76,25.42,1l97.53-56.21C349.8,623.71,349,617.16,341.45,612.79Z"/><path class="cls-88" d="M322.78,603.85l-157.91-91c-6.16-3.57-16.09-3.57-22.25,0L46.68,568.1c-6.16,3.57-6.16,9.33,0,12.71l157.91,91Z"/><path d="M311.46,658.08l-14.1,8.14a8.54,8.54,0,0,1,3.57-6.75l7.15-4.17C309.87,654.3,311.46,655.49,311.46,658.08Z"/><g class="cls-4"><path class="cls-89" d="M278.09,687.48c-10.13,30-78.26,34.16-152.35,9.33S-.4,627.49,9.73,597.49,88,563.33,162.09,588.16,288.22,657.48,278.09,687.48Z"/></g><g class="cls-20"><path class="cls-90" d="M261.21,679.33c7,17.08.79,35.76-13.71,41.71s-32-3-39.13-20.06c-7-17.08-.8-35.75,13.7-41.71S254.05,662.25,261.21,679.33Z"/></g><path class="cls-91" d="M50.85,580.81c-.2,0-.4,0-.4-.2a.39.39,0,0,1,.2-.6l4.77-2.78a.38.38,0,0,1,.6.2.39.39,0,0,1-.2.6l-4.77,2.78Z"/><path class="cls-91" d="M64.36,588.55c-.2,0-.4,0-.4-.19a.38.38,0,0,1,.2-.6L68.93,585a.44.44,0,0,1,.39.79l-4.76,2.78Z"/><path class="cls-91" d="M77.87,596.3c-.2,0-.4,0-.4-.2a.37.37,0,0,1,.2-.59l4.76-2.78a.44.44,0,1,1,.4.79l-4.77,2.78Z"/><path class="cls-91" d="M91.17,604.05c-.2,0-.39,0-.39-.2a.38.38,0,0,1,.19-.59l4.77-2.79a.39.39,0,0,1,.6.2.38.38,0,0,1-.2.6l-4.77,2.78C91.37,603.85,91.37,604.05,91.17,604.05Z"/><path class="cls-91" d="M104.68,611.8c-.2,0-.4,0-.4-.2a.38.38,0,0,1,.2-.6l4.77-2.78a.38.38,0,0,1,.6.2.39.39,0,0,1-.2.6l-4.77,2.58A.2.2,0,0,1,104.68,611.8Z"/><path class="cls-91" d="M118.19,619.54c-.2,0-.4,0-.4-.2a.38.38,0,0,1,.2-.59l4.77-2.78a.44.44,0,0,1,.39.79l-4.76,2.78C118.39,619.34,118.19,619.54,118.19,619.54Z"/><path class="cls-91" d="M131.7,627.09c-.2,0-.4,0-.4-.2a.38.38,0,0,1,.2-.6l4.76-2.78a.39.39,0,0,1,.6.2.38.38,0,0,1-.2.6l-4.77,2.78Z"/><path class="cls-91" d="M145.2,634.84c-.2,0-.4,0-.4-.2a.39.39,0,0,1,.2-.6l4.77-2.78a.45.45,0,1,1,.4.8l-4.77,2.78Z"/><path class="cls-91" d="M158.51,642.58c-.2,0-.4,0-.4-.19a.39.39,0,0,1,.2-.6l4.77-2.78a.38.38,0,0,1,.6.2.37.37,0,0,1-.2.59l-4.77,2.78Z"/><path class="cls-91" d="M172,650.33c-.2,0-.4,0-.4-.2a.37.37,0,0,1,.2-.59l4.77-2.78a.38.38,0,0,1,.59.19.38.38,0,0,1-.2.6l-4.76,2.78Z"/><path class="cls-91" d="M185.52,658.08c-.19,0-.39,0-.39-.2a.38.38,0,0,1,.2-.6l4.76-2.78a.45.45,0,0,1,.4.8l-4.77,2.78Z"/><path class="cls-91" d="M199,665.82c-.2,0-.39,0-.39-.2a.37.37,0,0,1,.19-.59l4.77-2.78a.38.38,0,0,1,.6.2.37.37,0,0,1-.2.59l-4.77,2.78Z"/><path d="M325.76,620.54a13.46,13.46,0,0,0-13.9-.6L234,665.43a5.66,5.66,0,0,0-.39,9.33,14.21,14.21,0,0,0,15.29.6l76.47-44.5A6,6,0,0,0,325.76,620.54Z"/><path class="cls-92" d="M325.76,618.35a13.44,13.44,0,0,0-13.9-.59L234,663a5.67,5.67,0,0,0-.39,9.34,14.18,14.18,0,0,0,15.29.59l76.47-44.49C329.34,626.1,329.54,620.73,325.76,618.35Z"/><path d="M301.13,644l-15.89-10.92a5,5,0,0,0-5-.2L261,644.17a2,2,0,0,0-.2,3.18l15.89,10.93a4.91,4.91,0,0,0,5,.19l19.27-11.32A1.86,1.86,0,0,0,301.13,644Z"/><path class="cls-93" d="M301.13,642.78l-15.89-10.92a4.9,4.9,0,0,0-5-.2L261,643a2,2,0,0,0-.2,3.18l15.89,10.92a4.89,4.89,0,0,0,5,.2L300.93,646A1.87,1.87,0,0,0,301.13,642.78Z"/><path class="cls-94" d="M260.81,645l15.89,10.92a4.89,4.89,0,0,0,5,.2l19.27-11.32a1.33,1.33,0,0,0,.8-1,1.89,1.89,0,0,1-.8,2.18l-19.27,11.32a4.9,4.9,0,0,1-5-.2l-15.89-10.92A2,2,0,0,1,260,644,2,2,0,0,0,260.81,645Z"/><path class="cls-95" d="M316.23,636v-2.38l-14.9-9.74-1,.6,14.7,9.73v2.38Z"/><path d="M315.63,636.43v-2.19l-15.1-9.73-1,.59,14.7,9.74v2.38Z"/><path class="cls-96" d="M261.4,667.81v-2.38l-14.89-9.74-1,.6,14.7,9.73v2.39Z"/><path d="M260.81,668.21V666l-14.9-9.73-1,.6,14.7,9.73V669Z"/><path class="cls-97" d="M290.21,642.78l-6.76-4.57a3,3,0,0,0-3.37-.19l-8.55,5a1.58,1.58,0,0,0-.19,2.58l6.75,4.57a3,3,0,0,0,3.38.2l8.54-5C291.2,645,291.2,643.58,290.21,642.78Z"/><path class="cls-98" d="M355.56,631.86c-.2,3.17-2.19,6-6,8.14l-42.11,24.23,5.16,3.78,37-21.26c4-2.38,6-5.36,6-8.54Z"/><path class="cls-99" d="M165.26,667.21,40.52,595.31c-6.35-3.58-9.14-8.34-8.34-12.71a8,8,0,0,0-.2,1v7.94c.4,3.78,3.18,7.55,8.54,10.53l129.11,74.49Z"/><path class="cls-100" d="M411.77,351.39c12.32,7.15,22.25,1.39,22.25-12.72s-9.93-31.18-22.25-38.33-22.25-1.39-22.25,12.71S399.45,344.43,411.77,351.39Zm74.49-7c-20.26-11.72-34.76,75.29-57.21,62.18-22.64-13.11-30.79-51.85-48.66-62.18-12.32-7.15-26.62,43.9-36.55,51.85v.79L533.73,506.72v-2.19C517.84,476.72,502,353.37,486.26,344.43Zm40.92,4.77v2.58l-36.95-21.85v-3.37l-7.55-4.37v3.37l-28.8-17.08v-2l-6.95-4v8l6.95,4v-3.58l27.61,16.29a21.68,21.68,0,0,0-3.57.4c-7.35,2.18-12.72,11.52-17.68,21.25l-3.38-2a.89.89,0,0,0-1,0,.79.79,0,0,0-.4.79v8.74a1,1,0,0,0,.4.8l7.55,4.37a.71.71,0,0,1,.39.19c.2,0,.4,0,.4-.19a.8.8,0,0,0,.4-.8V352a1,1,0,0,0-.4-.79l-2.58-1.59c4.37-9.14,9.93-18.28,16.48-20.46a10,10,0,0,1,4.18-.4v1.79l7.54,4.37v-2.38c6,5.36,14.5,18.47,19.67,39.52l-2.19-1.39a.89.89,0,0,0-1,0,.8.8,0,0,0-.4.8v8.74a1,1,0,0,0,.4.79l7.55,4.37a.7.7,0,0,1,.4.2c.2,0,.39,0,.39-.2a.79.79,0,0,0,.4-.79v-8.74a1,1,0,0,0-.4-.8l-3-1.78c-4-17.29-10.72-31-17.28-38.74l32.18,18.87v3l6.95,4v-7.94ZM463,352.78v6.35L457.46,356V349.6ZM513.67,377v6.36l-5.56-3.18v-6.36Z"/><path class="cls-101" d="M431,339.67c0,14.1-9.93,19.66-22.25,12.71-12.31-7.15-22.25-24.24-22.25-38.34s9.94-19.66,22.25-12.71C421.11,308.48,431,325.76,431,339.67Z"/><path class="cls-102" d="M340.66,398.06,530.55,507.71v-2.19c-15.49-27.8-31.58-151.16-47.07-160.09-20.26-11.72-34.76,75.28-57.21,62.17-22.64-13.11-30.79-51.84-48.66-62.17-12.32-7.16-26.62,43.89-36.55,51.84v.79Z"/><path class="cls-103" d="M524.2,350.19v2.58l-37-21.85v-3.37l-7.55-4.37v3.37l-28.8-17.08v-2l-6.95-4v7.95l6.95,4v-3.57l27.61,16.28a21.68,21.68,0,0,0-3.57.4c-7.35,2.19-12.72,11.52-17.68,21.26l-3.38-2a.89.89,0,0,0-1,0,.79.79,0,0,0-.4.79v8.74a1,1,0,0,0,.4.8l7.55,4.37a.7.7,0,0,1,.39.2c.2,0,.4,0,.4-.2a.8.8,0,0,0,.4-.8V353a1,1,0,0,0-.4-.79l-2.58-1.59c4.37-9.14,9.93-18.27,16.49-20.46a10.05,10.05,0,0,1,4.17-.4v1.79l7.54,4.37v-2.38c6,5.36,14.51,18.47,19.67,39.53l-2.19-1.4a.93.93,0,0,0-1,0,.8.8,0,0,0-.4.8v8.74a1,1,0,0,0,.4.79l7.55,4.37a.7.7,0,0,1,.4.2c.19,0,.39,0,.39-.2a.78.78,0,0,0,.4-.79v-8.74a1,1,0,0,0-.4-.79l-3-1.79c-4-17.28-10.72-31-17.28-38.74l32.18,18.87v3l6.95,4v-7.95ZM460,360.32l-5.56-3.18v-6.35L460,354Zm50.65,24-5.56-3.18v-6.36l5.56,3.18Z"/><path class="cls-104" d="M148.18,585.18A28.27,28.27,0,0,1,134.67,582c-3.77-2.18-6-5.16-6-8.34s2-6.16,5.77-8.34a28,28,0,0,1,13.3-3.18,28.8,28.8,0,0,1,13.51,3.18c3.78,2.18,6,5.16,6,8.34s-2,6.16-5.76,8.34A28,28,0,0,1,148.18,585.18Zm-.2-21.06c-4.77,0-9.13,1-12.31,3-3.18,1.79-4.77,4.17-4.77,6.56s1.79,4.76,5,6.55a24.75,24.75,0,0,0,12.51,3c4.77,0,9.14-1,12.32-3,3.17-1.79,4.76-4.17,4.76-6.55s-1.78-4.77-5-6.56A24.92,24.92,0,0,0,148,564.12Z"/><path class="cls-105" d="M170.43,629.67l-1.79-.59v-.6c-.4-2.38-3.77-7.35-7.15-12.12-5-7-9.93-14.1-8.94-18.27a3.55,3.55,0,0,1,1.79-2.38c4.77-2.79,11.92-2.79,19.66-2.59,8.35.2,16.89.2,23.24-3.37a4.63,4.63,0,0,0,2-2.39c1-4.37-4.57-12.31-8.94-18.67a1,1,0,0,1,.2-1.39c.4-.4,1-.2,1.39.2,5,7.15,10.53,15.1,9.34,20.26a6.56,6.56,0,0,1-2.78,3.77c-6.76,4-15.7,3.78-24.24,3.58-7.35-.2-14.3-.2-18.67,2.38a2,2,0,0,0-.79,1c-.8,3.17,4.56,10.72,8.74,16.68,3.37,5,6.55,9.34,7.35,12.12l86-49.66a1,1,0,1,1,1,1.79Z"/><path class="cls-106" d="M193.47,564.52c-1.59.8-6.36,2-7.35.4s2.58-5.37,4.17-6.16a3.26,3.26,0,0,1,4.37,1.39A3,3,0,0,1,193.47,564.52Z"/><path class="cls-107" d="M221.08,558.56c8.34-4.37-2.78-25.62-11.72-20.46s-18.87,18.67-18.87,18.67c-1.19,1.39-1.39,3.18-.2,5.56s2.39,3,4.77,2.78C194.86,565.31,212.74,562.93,221.08,558.56Z"/><path class="cls-108" d="M282.46,524.79l-11.32-21-62,34.36c-3.37,1.79-3.57,7.95-.4,13.71s8.35,8.93,11.73,7.15Z"/><path class="cls-109" d="M282.46,524.79c-3.38,1.79-8.54-1.39-11.72-7.15s-3-11.92.4-13.7,8.54,1.39,11.72,7.15S285.84,523,282.46,524.79Z"/><path class="cls-110" d="M370.45,475.13l-9.13-16.88-90.18,45.88c-3.38,1.79-3.58,8-.4,13.71s8.34,8.94,11.72,7.15Z"/><path class="cls-111" d="M370.26,475.13c-2.78,1.39-7-1.19-9.54-5.76-2.58-4.76-2.38-9.73.4-11.12s6.95,1.19,9.53,5.76S373,473.74,370.26,475.13Z"/><path class="cls-112" d="M361.12,469.17c-2.58-4.76-2.39-9.73.4-11.12h.19c-.39,0-.59.2-1,.4-2.78,1.39-3,6.55-.4,11.12,2.39,4.57,6.56,7.15,9.34,6C367.08,475.93,363.5,473.35,361.12,469.17Z"/><path class="cls-113" d="M286.23,618.75l-78.46-46.88a2.4,2.4,0,0,0-1-.4,128.77,128.77,0,0,0-18.08-7.75c-1.19-.39-1.78,0-1.59,1.39.4,1.59,1,2.39,2.79,4,0,0,11.52,9.53,19.06,14.5.4.39.8.59,1.2,1L289,631.86Z"/><path class="cls-114" d="M232.21,589.15l-35.16-21.06a.71.71,0,0,0-.4-.19,49.12,49.12,0,0,0-8.14-3.38c-.6-.2-.2,1.79.59,2.38,0,0,5.16,4.37,8.54,6.56.2.2.4.4.6.4l35.36,21.25Z"/><path class="cls-115" d="M356,465.8c1.4,2.38-18.67,15.49-38.33,25.82s-36.55,16.69-37.74,14.1c-1.39-2.38,13.5-12.91,33.17-23S354.76,463.41,356,465.8Z"/><path class="cls-116" d="M265.58,517.84l-52.44,28.6a2.54,2.54,0,0,1-3.38-1l-1-1.79a2.53,2.53,0,0,1,1-3.37l52.44-28.61a2.55,2.55,0,0,1,3.38,1l1,1.78A2.55,2.55,0,0,1,265.58,517.84Z"/><path class="cls-117" d="M247.5,526.38l-30,16.29a2,2,0,0,1-2.59-.8l-.79-1.39a2,2,0,0,1,.79-2.58l30-16.29a2,2,0,0,1,2.58.8l.79,1.39A1.9,1.9,0,0,1,247.5,526.38Z"/><path class="cls-118" d="M247.9,523.4a2.39,2.39,0,0,0-1-1l.4.39a2.85,2.85,0,0,1-1,3.58l-28.8,15.69a3,3,0,0,1-2.59,0,2.43,2.43,0,0,0,3.18.6L246.9,527A2.66,2.66,0,0,0,247.9,523.4Z"/><g class="cls-1"><path class="cls-119" d="M214.92,543.46c7.35-5.76,4-10.52-4.17-4s-18.87,17.28-18.87,17.28c-1.19,1.19-1.79,2.19-1.39,2.58.4.6,1,.4,3-.79C193.47,558.56,207.77,549.22,214.92,543.46Z"/></g><path class="cls-120" d="M218.3,558.16c7.75-2.38,6.95-5.76-1.59-3.17s-20.66,7.35-20.66,7.35c-1.39.59-2.18,1-2,1.39s.59.39,2.38,0C196.45,563.73,210.75,560.55,218.3,558.16Z"/><path class="cls-121" d="M457.06,191.48,289.81,94.75l-61,35.95v57.21l167.25,96.54,61-35.76Z"/><g class="cls-34"><path class="cls-122" d="M396.08,227.83v56.61l16.49-9.33v-57Z"/><path class="cls-123" d="M396.08,227.83v56.61L228.83,187.91V130.7Z"/><path class="cls-124" d="M228.83,130.7l167.25,97.13,16.49-9.73L245.12,121.17Z"/></g><path class="cls-125" d="M259.62,196.25l-19.27-11.12V147.39l19.27,11.12Z"/><path class="cls-126" d="M284.84,210.75l-19.26-11.12V161.89L284.84,173Z"/><path class="cls-127" d="M310.07,225.45,290.8,214.33V176.59l19.27,11.12Z"/><path class="cls-128" d="M335.3,240,316,228.83V191.09l19.27,11.12Z"/><path class="cls-129" d="M360.52,254.45l-19.27-11.12V205.59l19.27,11.12Z"/><path class="cls-130" d="M385.75,269.15,366.68,258V220.29l19.07,11.12Z"/><path class="cls-131" d="M72.3,636.23,18.87,605.44C6.75,598.49,0,587.76,0,576c0-10.92,6-20.66,16.49-26.81l174-99.92,1,1.79-174,99.72C7.75,556.38,2,565.51,2,575.84c0,10.93,6.55,21.06,17.87,27.61L73.3,634.24Z"/><path class="cls-132" d="M125.34,517.05a29.2,29.2,0,1,0-29.2-29.2A29.21,29.21,0,0,0,125.34,517.05Z"/></g></g></svg>