<svg xmlns="http://www.w3.org/2000/svg" xmlns:xlink="http://www.w3.org/1999/xlink" viewBox="0 0 666.01 549"><defs><style>.cls-1{fill:url(#Безымянный_градиент_48);}.cls-2{fill:url(#Безымянный_градиент_4);}.cls-3{fill:url(#Безымянный_градиент_4-2);}.cls-4{fill:url(#Безымянный_градиент_4-3);}.cls-5{fill:url(#Безымянный_градиент_49);}.cls-6{fill:url(#Безымянный_градиент_49-2);}.cls-7{fill:url(#Безымянный_градиент_49-3);}.cls-8{fill:url(#Безымянный_градиент_49-4);}.cls-9{fill:url(#Безымянный_градиент_49-5);}.cls-10{fill:url(#Безымянный_градиент_10);}.cls-11{fill:url(#Безымянный_градиент_49-6);}.cls-12{fill:url(#Безымянный_градиент_14);}.cls-13{fill:url(#Безымянный_градиент_14-2);}.cls-14{fill:url(#Безымянный_градиент_14-3);}.cls-15{fill:#a8a8fb;}.cls-15,.cls-31,.cls-40{opacity:0.75;}.cls-15,.cls-31{isolation:isolate;}.cls-16{fill:url(#Безымянный_градиент_15);}.cls-17{fill:url(#Безымянный_градиент_38);}.cls-18{fill:url(#Безымянный_градиент_17);}.cls-19{fill:url(#Безымянный_градиент_38-2);}.cls-20{fill:url(#Безымянный_градиент_19);}.cls-21{fill:url(#Безымянный_градиент_38-3);}.cls-22{fill:url(#Безымянный_градиент_48-2);}.cls-23{fill:#fcd9a6;}.cls-24{fill:#e8eaf8;}.cls-25{fill:url(#Безымянный_градиент_49-7);}.cls-26{fill:url(#Безымянный_градиент_49-8);}.cls-27{fill:url(#Безымянный_градиент_49-9);}.cls-28{fill:url(#Безымянный_градиент_49-10);}.cls-29{fill:url(#Безымянный_градиент_49-11);}.cls-30{fill:url(#Безымянный_градиент_48-3);}.cls-31{fill:#fff;}.cls-32{fill:url(#Безымянный_градиент_49-12);}.cls-33{fill:url(#Безымянный_градиент_49-13);}.cls-34{fill:url(#Безымянный_градиент_48-4);}.cls-35{fill:url(#Безымянный_градиент_38-4);}.cls-36{fill:url(#Безымянный_градиент_32);}.cls-37{fill:url(#Безымянный_градиент_33);}.cls-38{fill:url(#Безымянный_градиент_48-5);}.cls-39{fill:url(#Безымянный_градиент_38-5);}.cls-41{fill:url(#Безымянный_градиент_36);}.cls-42{fill:url(#Безымянный_градиент_48-6);}.cls-43{fill:url(#Безымянный_градиент_38-6);}.cls-44{fill:url(#Безымянный_градиент_49-14);}.cls-45{fill:url(#Безымянный_градиент_40);}.cls-46{fill:url(#Безымянный_градиент_49-15);}.cls-47{fill:#e8eaf9;}.cls-48{fill:url(#Безымянный_градиент_48-7);}.cls-49{fill:url(#Безымянный_градиент_49-16);}.cls-50{fill:url(#Безымянный_градиент_49-17);}.cls-51{fill:url(#Безымянный_градиент_49-18);}.cls-52{fill:url(#Безымянный_градиент_49-19);}.cls-53{fill:url(#Безымянный_градиент_49-20);}.cls-54{fill:url(#Безымянный_градиент_48-8);}.cls-55{fill:url(#Безымянный_градиент_49-21);}.cls-56{fill:url(#Безымянный_градиент_50);}.cls-57{fill:#fcf7f8;}.cls-58{fill:url(#Безымянный_градиент_51);}</style><linearGradient id="Безымянный_градиент_48" x1="333.14" y1="38.73" x2="333.14" y2="402.14" gradientTransform="matrix(1, 0, 0, -1, 0, 530)" gradientUnits="userSpaceOnUse"><stop offset="0" stop-color="#d8e0fd" stop-opacity="0.6"/><stop offset="1" stop-color="#f5f7f9"/></linearGradient><linearGradient id="Безымянный_градиент_4" x1="476.94" y1="407.09" x2="468.43" y2="418.85" gradientTransform="matrix(1, 0, 0, -1, 0, 530)" gradientUnits="userSpaceOnUse"><stop offset="0" stop-color="#de5d83"/><stop offset="1" stop-color="#ebb083"/></linearGradient><linearGradient id="Безымянный_градиент_4-2" x1="499.11" y1="407.11" x2="490.6" y2="418.87" xlink:href="#Безымянный_градиент_4"/><linearGradient id="Безымянный_градиент_4-3" x1="520.63" y1="407.12" x2="512.12" y2="418.88" xlink:href="#Безымянный_градиент_4"/><linearGradient id="Безымянный_градиент_49" x1="240.5" y1="313.41" x2="265.68" y2="211.13" gradientTransform="matrix(1, 0, 0, -1, 0, 530)" gradientUnits="userSpaceOnUse"><stop offset="0" stop-color="#f47f7e"/><stop offset="1" stop-color="#ee8346"/></linearGradient><linearGradient id="Безымянный_градиент_49-2" x1="270.63" y1="320.83" x2="295.81" y2="218.55" xlink:href="#Безымянный_градиент_49"/><linearGradient id="Безымянный_градиент_49-3" x1="308.16" y1="330.07" x2="333.34" y2="227.79" xlink:href="#Безымянный_градиент_49"/><linearGradient id="Безымянный_градиент_49-4" x1="361.65" y1="343.24" x2="386.83" y2="240.96" xlink:href="#Безымянный_градиент_49"/><linearGradient id="Безымянный_градиент_49-5" x1="403.04" y1="353.43" x2="428.22" y2="251.15" xlink:href="#Безымянный_градиент_49"/><linearGradient id="Безымянный_градиент_10" x1="333.07" y1="330.16" x2="333.07" y2="376.35" gradientTransform="matrix(1, 0, 0, -1, 0, 530)" gradientUnits="userSpaceOnUse"><stop offset="0" stop-color="#d8e0fd" stop-opacity="0"/><stop offset="1" stop-color="#fff"/></linearGradient><linearGradient id="Безымянный_градиент_49-6" x1="461.7" y1="373.97" x2="480.76" y2="355.73" xlink:href="#Безымянный_градиент_49"/><linearGradient id="Безымянный_градиент_14" x1="208.74" y1="41.48" x2="206.43" y2="186.99" gradientTransform="matrix(1, 0, 0, -1, 0, 530)" gradientUnits="userSpaceOnUse"><stop offset="0" stop-color="#d8e0fd" stop-opacity="0"/><stop offset="1" stop-color="#f5f7f9"/></linearGradient><linearGradient id="Безымянный_градиент_14-2" x1="334.57" y1="43.48" x2="332.26" y2="188.99" xlink:href="#Безымянный_градиент_14"/><linearGradient id="Безымянный_градиент_14-3" x1="461.06" y1="45.49" x2="458.75" y2="191" xlink:href="#Безымянный_градиент_14"/><linearGradient id="Безымянный_градиент_15" x1="205.21" y1="117.28" x2="207.52" y2="210.82" gradientTransform="matrix(1, 0, 0, -1, 0, 530)" gradientUnits="userSpaceOnUse"><stop offset="0" stop-color="#eaad83" stop-opacity="0"/><stop offset="1" stop-color="#e27b83"/></linearGradient><radialGradient id="Безымянный_градиент_38" cx="26.97" cy="659.14" r="1" gradientTransform="matrix(56.39, 0, 0, -56.39, -1355.97, 37497.82)" gradientUnits="userSpaceOnUse"><stop offset="0" stop-color="#eaab71"/><stop offset="1" stop-color="#de5d83" stop-opacity="0"/></radialGradient><linearGradient id="Безымянный_градиент_17" x1="331.07" y1="117.28" x2="333.38" y2="210.82" gradientTransform="matrix(1, 0, 0, -1, 0, 530)" gradientUnits="userSpaceOnUse"><stop offset="0" stop-color="#d8e0fd" stop-opacity="0"/><stop offset="1" stop-color="#6b6bea"/></linearGradient><radialGradient id="Безымянный_градиент_38-2" cx="27" cy="659.19" gradientTransform="matrix(57.98, 0, 0, -57.98, -1271.84, 38543.11)" xlink:href="#Безымянный_градиент_38"/><linearGradient id="Безымянный_градиент_19" x1="457.59" y1="117.28" x2="459.9" y2="210.82" gradientTransform="matrix(1, 0, 0, -1, 0, 530)" gradientUnits="userSpaceOnUse"><stop offset="0" stop-color="#8fdce9" stop-opacity="0"/><stop offset="1" stop-color="#9ef6ec"/></linearGradient><radialGradient id="Безымянный_градиент_38-3" cx="27" cy="659.18" gradientTransform="matrix(57.73, 0, 0, -57.73, -1140.12, 38376.45)" xlink:href="#Безымянный_градиент_38"/><linearGradient id="Безымянный_градиент_48-2" x1="65.78" y1="225.47" x2="64.85" y2="426.36" xlink:href="#Безымянный_градиент_48"/><linearGradient id="Безымянный_градиент_49-7" x1="31.26" y1="422.88" x2="105.03" y2="358.68" xlink:href="#Безымянный_градиент_49"/><linearGradient id="Безымянный_градиент_49-8" x1="43.32" y1="399.5" x2="55.17" y2="387.59" xlink:href="#Безымянный_градиент_49"/><linearGradient id="Безымянный_градиент_49-9" x1="57.18" y1="399.49" x2="69.01" y2="387.18" xlink:href="#Безымянный_градиент_49"/><linearGradient id="Безымянный_градиент_49-10" x1="73.59" y1="401.15" x2="84.87" y2="385.69" xlink:href="#Безымянный_градиент_49"/><linearGradient id="Безымянный_градиент_49-11" x1="63.93" y1="349.63" x2="66.53" y2="328.9" xlink:href="#Безымянный_градиент_49"/><linearGradient id="Безымянный_градиент_48-3" x1="578.15" y1="121.52" x2="577.38" y2="289.84" xlink:href="#Безымянный_градиент_48"/><linearGradient id="Безымянный_градиент_49-12" x1="546" y1="296.74" x2="596.68" y2="191.81" xlink:href="#Безымянный_градиент_49"/><linearGradient id="Безымянный_градиент_49-13" x1="609.45" y1="287.82" x2="626.03" y2="270.78" xlink:href="#Безымянный_градиент_49"/><linearGradient id="Безымянный_градиент_48-4" x1="618.08" y1="51.81" x2="617.79" y2="112.72" xlink:href="#Безымянный_градиент_48"/><radialGradient id="Безымянный_градиент_38-4" cx="27.23" cy="659.61" gradientTransform="matrix(75.6, 0, 0, -75.6, -1483.77, 50276.17)" xlink:href="#Безымянный_градиент_38"/><linearGradient id="Безымянный_градиент_32" x1="616.38" y1="56.55" x2="618.21" y2="109.41" gradientTransform="matrix(1, 0, 0, -1, 0, 530)" gradientUnits="userSpaceOnUse"><stop offset="0" stop-color="#d8e0fd"/><stop offset="1" stop-color="#f5f7f9"/></linearGradient><linearGradient id="Безымянный_градиент_33" x1="606.71" y1="81.62" x2="594.01" y2="103.56" gradientTransform="matrix(1, 0, 0, -1, 0, 530)" gradientUnits="userSpaceOnUse"><stop offset="0" stop-color="#4c86fa"/><stop offset="1" stop-color="#8ef0fd"/></linearGradient><linearGradient id="Безымянный_градиент_48-5" x1="618.08" y1="-10.91" x2="617.79" y2="50" xlink:href="#Безымянный_градиент_48"/><radialGradient id="Безымянный_градиент_38-5" cx="27.23" cy="659.61" gradientTransform="matrix(75.6, 0, 0, -75.6, -1483.77, 50338.89)" xlink:href="#Безымянный_градиент_38"/><linearGradient id="Безымянный_градиент_36" x1="645.54" y1="18.9" x2="632.83" y2="40.84" gradientTransform="matrix(1, 0, 0, -1, 0, 530)" gradientUnits="userSpaceOnUse"><stop offset="0" stop-color="#de5d83"/><stop offset="1" stop-color="#eaab71"/></linearGradient><linearGradient id="Безымянный_градиент_48-6" x1="304.28" y1="-6.98" x2="304.1" y2="32.25" xlink:href="#Безымянный_градиент_48"/><radialGradient id="Безымянный_градиент_38-6" cx="27.67" cy="660.4" gradientTransform="matrix(174.84, 0, 0, -174.84, -4553.59, 115908.03)" xlink:href="#Безымянный_градиент_38"/><linearGradient id="Безымянный_градиент_49-14" x1="261.77" y1="44.59" x2="267.37" y2="-1.58" xlink:href="#Безымянный_градиент_49"/><radialGradient id="Безымянный_градиент_40" cx="27.68" cy="660.43" r="1" gradientTransform="matrix(182.85, 0, 0, -182.85, -4542.61, 120788.65)" gradientUnits="userSpaceOnUse"><stop offset="0" stop-color="#f5f7f9"/><stop offset="1" stop-color="#d8e0fd" stop-opacity="0.6"/></radialGradient><linearGradient id="Безымянный_градиент_49-15" x1="500.43" y1="500.22" x2="581.72" y2="416.63" xlink:href="#Безымянный_градиент_49"/><linearGradient id="Безымянный_градиент_48-7" x1="304.25" y1="449.71" x2="304.02" y2="498.98" xlink:href="#Безымянный_градиент_48"/><linearGradient id="Безымянный_градиент_49-16" x1="218.7" y1="499.49" x2="244.85" y2="471.52" xlink:href="#Безымянный_градиент_49"/><linearGradient id="Безымянный_градиент_49-17" x1="252.11" y1="499.49" x2="278.26" y2="471.52" xlink:href="#Безымянный_градиент_49"/><linearGradient id="Безымянный_градиент_49-18" x1="286.71" y1="499.49" x2="312.86" y2="471.52" xlink:href="#Безымянный_градиент_49"/><linearGradient id="Безымянный_градиент_49-19" x1="320.13" y1="499.49" x2="346.27" y2="471.52" xlink:href="#Безымянный_градиент_49"/><linearGradient id="Безымянный_градиент_49-20" x1="357.77" y1="499.49" x2="383.91" y2="471.52" xlink:href="#Безымянный_градиент_49"/><linearGradient id="Безымянный_градиент_48-8" x1="80.58" y1="118.92" x2="66.86" y2="118.86" xlink:href="#Безымянный_градиент_48"/><linearGradient id="Безымянный_градиент_49-21" x1="60.22" y1="119.21" x2="81.03" y2="118.42" xlink:href="#Безымянный_градиент_49"/><linearGradient id="Безымянный_градиент_50" x1="74.77" y1="-67.55" x2="68.99" y2="140.32" gradientTransform="matrix(1, 0, 0, -1, 0, 530)" gradientUnits="userSpaceOnUse"><stop offset="0" stop-color="#f3d35b"/><stop offset="1" stop-color="#e9a472"/></linearGradient><linearGradient id="Безымянный_градиент_51" x1="72.66" y1="168.61" x2="68.54" y2="176.85" gradientTransform="matrix(1, 0, 0, -1, 0, 530)" gradientUnits="userSpaceOnUse"><stop offset="0" stop-color="#454490" stop-opacity="0"/><stop offset="1" stop-color="#e9a771"/></linearGradient></defs><g id="Слой_2" data-name="Слой 2"><g id="Слой_1-2" data-name="Слой 1"><path class="cls-1" d="M543.85,453.25H122.29a10.59,10.59,0,0,1-10.56-10.56V122.29a31.56,31.56,0,0,1,31.56-31.56H523a31.56,31.56,0,0,1,31.57,31.56v320.4A10.8,10.8,0,0,1,543.85,453.25Z"/><path class="cls-2" d="M477.16,114.63a6.21,6.21,0,1,1-6.21-6.2A6.2,6.2,0,0,1,477.16,114.63Z"/><path class="cls-3" d="M499.34,114.63a6.21,6.21,0,1,1-6.2-6.2A6.19,6.19,0,0,1,499.34,114.63Z"/><path class="cls-4" d="M520.87,114.63a6.21,6.21,0,1,1-6.21-6.2A6.2,6.2,0,0,1,520.87,114.63Z"/><path class="cls-5" d="M263.42,221a2,2,0,0,1,2,2v31q0,8.23-5.16,13t-14,4.79q-8.78,0-13.94-4.65T227,254.4V223a2,2,0,0,1,2-2h6.33a2,2,0,0,1,2,2v31.09q0,4.92,2.34,7.19a9.11,9.11,0,0,0,6.54,2.24q8.72,0,8.85-9.16V223a2,2,0,0,1,2-2Z"/><path class="cls-6" d="M284.88,269.13a2,2,0,0,1-2,2h-6.33a2,2,0,0,1-2-2V223a2,2,0,0,1,2-2h6.33a2,2,0,0,1,2,2Z"/><path class="cls-7" d="M315,274.08a2,2,0,0,1-1.89,1.35h-3.18a2,2,0,0,1-1.89-2.64l17.09-50.43A2,2,0,0,1,327,221h3.18a2,2,0,0,1,1.89,2.64Z"/><path class="cls-8" d="M391.92,221a2,2,0,0,1,2,2v31q0,8.23-5.16,13t-14.05,4.79q-8.77,0-13.95-4.65T355.5,254.4V223a2,2,0,0,1,2-2h6.33a2,2,0,0,1,2,2v31.09q0,4.92,2.34,7.19a9.11,9.11,0,0,0,6.54,2.24q8.71,0,8.85-9.16V223a2,2,0,0,1,2-2Z"/><path class="cls-9" d="M418.57,235.05a2,2,0,0,0,3.52,0l7.07-13a2,2,0,0,1,1.76-1h7.19a2,2,0,0,1,1.73,3l-12.23,20.83a2,2,0,0,0,0,2l12.59,21.24a2,2,0,0,1-1.72,3h-7.33a2,2,0,0,1-1.75-1l-7.32-13.32a2,2,0,0,0-3.5,0l-7.32,13.32a2,2,0,0,1-1.75,1h-7.33a2,2,0,0,1-1.72-3l12.59-21.24a2,2,0,0,0,0-2L400.82,224a2,2,0,0,1,1.73-3h7.19a2,2,0,0,1,1.76,1Z"/><path class="cls-10" d="M488.65,180.8H177.5a15.32,15.32,0,1,1,0-30.64H488.65a15.32,15.32,0,1,1,0,30.64Z"/><path class="cls-11" d="M479.53,172.88l-4.62-5.29a7,7,0,0,0-.26-9.11,7.21,7.21,0,1,0-1.72,11l4.62,5.28a1.29,1.29,0,0,0,1.85.14A1.44,1.44,0,0,0,479.53,172.88Zm-14-6.48a5,5,0,1,1,7,.4A4.86,4.86,0,0,1,465.53,166.4Z"/><path class="cls-12" d="M250.27,427.63h-86.9a13.87,13.87,0,0,1-13.87-13.86v-93a13.87,13.87,0,0,1,13.87-13.87h86.9a13.86,13.86,0,0,1,13.86,13.87v93A13.69,13.69,0,0,1,250.27,427.63Z"/><path class="cls-13" d="M376.13,427.63h-86.9a13.87,13.87,0,0,1-13.87-13.86v-93a13.87,13.87,0,0,1,13.87-13.87h86.9A13.86,13.86,0,0,1,390,320.79v93A13.69,13.69,0,0,1,376.13,427.63Z"/><path class="cls-14" d="M502.65,427.63H415.74a13.87,13.87,0,0,1-13.86-13.86v-93a13.87,13.87,0,0,1,13.86-13.87h86.91a13.87,13.87,0,0,1,13.86,13.87v93A13.78,13.78,0,0,1,502.65,427.63Z"/><path class="cls-15" d="M206.15,386.69H163.5v5.15h42.65Z"/><path class="cls-15" d="M248.68,397.39H163.5v5.15h85.18Z"/><path class="cls-15" d="M333.07,386.69H290.42v5.15h42.65Z"/><path class="cls-15" d="M375.6,397.39H290.41v5.15H375.6Z"/><path class="cls-15" d="M457.21,386.69H414.56v5.15h42.65Z"/><path class="cls-15" d="M499.74,397.39H414.56v5.15h85.18Z"/><path class="cls-16" d="M243.4,374.54H170.23a8,8,0,0,1-8-8.06V329.11a8,8,0,0,1,8-8.06H243.4a8,8,0,0,1,8,8.06v37.37A8,8,0,0,1,243.4,374.54Z"/><path class="cls-17" d="M243.4,374.54H170.23a8,8,0,0,1-8-8.06V329.11a8,8,0,0,1,8-8.06H243.4a8,8,0,0,1,8,8.06v37.37A8,8,0,0,1,243.4,374.54Z"/><path class="cls-18" d="M369.26,374.54H296.09a8,8,0,0,1-8-8.06V329.11a8,8,0,0,1,8-8.06h73.17a8,8,0,0,1,8.05,8.06v37.37A8,8,0,0,1,369.26,374.54Z"/><path class="cls-19" d="M369.26,374.54H296.09a8,8,0,0,1-8-8.06V329.11a8,8,0,0,1,8-8.06h73.17a8,8,0,0,1,8.05,8.06v37.37A8,8,0,0,1,369.26,374.54Z"/><path class="cls-20" d="M495.78,374.54H422.61a8,8,0,0,1-8.05-8.06V329.11a8,8,0,0,1,8.05-8.06h73.17a8,8,0,0,1,8.05,8.06v37.37A8,8,0,0,1,495.78,374.54Z"/><path class="cls-21" d="M495.78,374.54H422.61a8,8,0,0,1-8.05-8.06V329.11a8,8,0,0,1,8.05-8.06h73.17a8,8,0,0,1,8.05,8.06v37.37A8,8,0,0,1,495.78,374.54Z"/><path class="cls-22" d="M114.24,243H16.11A16.06,16.06,0,0,1,0,227V92.45A16.1,16.1,0,0,1,16.11,76.33h98.13a16,16,0,0,1,16,16.12V227A15.79,15.79,0,0,1,114.24,243Z"/><path class="cls-23" d="M114.24,243H16.11A16.06,16.06,0,0,1,0,227V92.45A16.1,16.1,0,0,1,16.11,76.33h98.13a16,16,0,0,1,16,16.12V227A15.79,15.79,0,0,1,114.24,243Z"/><path class="cls-24" d="M65.24,99.31a37.35,37.35,0,0,0-37.37,37.38,37.4,37.4,0,0,0,37.37,37.37,37.38,37.38,0,1,0,0-74.75Zm0,69.07a31.08,31.08,0,0,1-21.92-8.84,31.67,31.67,0,1,1,21.92,8.84Z"/><path class="cls-25" d="M102.61,136.69a37.36,37.36,0,0,1-63.26,26.94l4-4.23a31.68,31.68,0,1,0,21.92-54.54V99.31A37.43,37.43,0,0,1,102.61,136.69Z"/><path class="cls-26" d="M47,142.63a4.7,4.7,0,0,1-2.11-.39c-.53-.27-.92-.53-1-.93a2.1,2.1,0,0,1-.4-1.19c0-.39-.13-.79-.13-1.05v-4.63a3.29,3.29,0,0,1,.13-1.05,2.07,2.07,0,0,1,.4-1.19,2.61,2.61,0,0,1,1-1.06,4.68,4.68,0,0,1,2.11-.4h3.7a10.82,10.82,0,0,1,2.38.14c.53.13.92.13,1.06.26s.39.13.39.26L54.15,133a16.32,16.32,0,0,0-2-.13c-1.19,0-2.65-.13-4.76-.13a1.76,1.76,0,0,0-1.32.39,1.28,1.28,0,0,0-.26.93v1.32a4.29,4.29,0,0,0,1.05-.13h4.49a5.35,5.35,0,0,1,2.25.39,2,2,0,0,1,1.05,1.06,3.83,3.83,0,0,1,.27,1.85v.53a3.66,3.66,0,0,1-.13,1.18,4.18,4.18,0,0,1-.4,1.19,1.66,1.66,0,0,1-1.06.8,4.42,4.42,0,0,1-2,.39Zm.67-2h3.43a2.58,2.58,0,0,0,1.06-.26c.26-.14.39-.27.39-.53a1.22,1.22,0,0,0,.13-.66v-.93a1.92,1.92,0,0,0-.26-.92c-.13-.27-.53-.4-1.19-.4H46v2.25a1.41,1.41,0,0,0,1.72,1.45Z"/><path class="cls-27" d="M61,142.63a9.54,9.54,0,0,1-2.11-.13,8.7,8.7,0,0,1-1.19-.26c-.26-.14-.39-.14-.53-.27l.8-1.58c.26,0,1.05.13,2.11.13s2.77.13,5,.13c.53,0,1-.13,1.19-.4a1.5,1.5,0,0,0,.39-1.05v-.8a1.76,1.76,0,0,0-.39-1.05A1.74,1.74,0,0,0,65,137H59.3l-1.59.27v-6.48h9.11a4,4,0,0,1,1.46.14.57.57,0,0,1,.39.13l-.39,1.72H60.35v2.77a4.31,4.31,0,0,0,1.06-.13h3.7a5.07,5.07,0,0,1,3.17.79,2.83,2.83,0,0,1,.92,2.38v.39a5,5,0,0,1-.13,1.32c-.13.4-.26.8-.4,1.19a1.64,1.64,0,0,1-1,.8,4.58,4.58,0,0,1-2,.26H61Z"/><path class="cls-28" d="M73.3,136.42a3.43,3.43,0,0,1-1.33-.26,1.32,1.32,0,0,1-.52-.66c0-.26-.13-.53-.13-.93v-2.11a1.69,1.69,0,0,1,.13-.79,1.1,1.1,0,0,1,.39-.66,2.87,2.87,0,0,1,1.32-.27h2.25a3.31,3.31,0,0,1,1.32.27,1.3,1.3,0,0,1,.53.66c0,.26.13.53.13.79v2.11a2.28,2.28,0,0,1-.13.93.89.89,0,0,1-.53.66,2.86,2.86,0,0,1-1.32.26Zm.39-1.58H75c.13,0,.27,0,.27-.13s.13-.14.13-.27v-1.71c0-.14,0-.14-.13-.27s-.14-.13-.27-.13H73.69a.48.48,0,0,0-.39.13c0,.13-.14.13-.14.27v1.71c0,.13,0,.13.14.27A.48.48,0,0,0,73.69,134.84Zm1.06,7.79L81,131.8l.26-1.06h2.64l-6.21,10.83-.26.93H74.75Zm8.32,0a3.33,3.33,0,0,1-1.32-.26,1.29,1.29,0,0,1-.53-.66c0-.27-.13-.53-.13-.93v-2.11a1.67,1.67,0,0,1,.13-.79,1.07,1.07,0,0,1,.4-.66,2.71,2.71,0,0,1,1.32-.27h2.24a3.15,3.15,0,0,1,1.32.27,1.25,1.25,0,0,1,.53.66c0,.26.13.52.13.79v2.11a2.31,2.31,0,0,1-.13.93.87.87,0,0,1-.53.66,2.86,2.86,0,0,1-1.32.26Zm.39-1.58h1.33c.13,0,.26,0,.26-.14s.13-.13.13-.26v-1.72c0-.13,0-.13-.13-.26s-.13-.13-.26-.13H83.46a.48.48,0,0,0-.39.13c0,.13-.13.13-.13.26v1.72c0,.13,0,.13.13.26S83.2,141.05,83.46,141.05Z"/><path class="cls-29" d="M100.9,196.12H29.58a5.29,5.29,0,0,1,0-10.57H100.9a5.29,5.29,0,0,1,0,10.57Z"/><path class="cls-15" d="M98.13,208.4H32.49v3.83H98.13Z"/><path class="cls-15" d="M90.33,217.51h-50v3.83H90.33Z"/><path class="cls-30" d="M650,356.71H505.29a16.07,16.07,0,0,1-16.12-16V233.49a16,16,0,0,1,16.12-16H650a16,16,0,0,1,16,16V340.73A16,16,0,0,1,650,356.71Z"/><path class="cls-23" d="M650,356.71H505.29a16.07,16.07,0,0,1-16.12-16V233.49a16,16,0,0,1,16.12-16H650a16,16,0,0,1,16,16V340.73A16,16,0,0,1,650,356.71Z"/><path class="cls-31" d="M643,240.1v66.56a9.1,9.1,0,0,1-9,9.11H521.27a9,9,0,0,1-9-9.11V240.1a9.11,9.11,0,0,1,9-9.12H634.05A9,9,0,0,1,643,240.1Z"/><path class="cls-32" d="M643,288.83v17.83a9.1,9.1,0,0,1-9,9.11H521.27a9,9,0,0,1-9-9.11V284.47L548.08,253a9.05,9.05,0,0,1,12.54.66l30.64,33.41,19.94-16.64a10.62,10.62,0,0,1,14.4.66Z"/><path class="cls-33" d="M626.13,250.79a8.32,8.32,0,1,1-8.32-8.32A8.28,8.28,0,0,1,626.13,250.79Z"/><path class="cls-24" d="M627.32,331.22H528v8.72h99.32Z"/><path class="cls-34" d="M637.62,459.46H598.13a25.23,25.23,0,1,1,0-50.45h39.49a25.23,25.23,0,0,1,0,50.45Z"/><path class="cls-35" d="M637.62,459.46H598.13a25.23,25.23,0,1,1,0-50.45h39.49a25.23,25.23,0,0,1,0,50.45Z"/><path class="cls-36" d="M598,453a18.76,18.76,0,1,1,0-37.51h39.48a18.76,18.76,0,1,1,0,37.51Z"/><path class="cls-37" d="M598.53,449.16a14.93,14.93,0,1,0-14.93-14.93A14.92,14.92,0,0,0,598.53,449.16Z"/><path class="cls-38" d="M637.62,522.19H598.13a25.23,25.23,0,1,1,0-50.45h39.49a25.23,25.23,0,0,1,0,50.45Z"/><path class="cls-39" d="M637.62,522.19H598.13a25.23,25.23,0,1,1,0-50.45h39.49a25.23,25.23,0,0,1,0,50.45Z"/><g class="cls-40"><g class="cls-40"><path class="cls-23" d="M598,515.72a18.76,18.76,0,1,1,0-37.51h39.48a18.76,18.76,0,1,1,0,37.51Z"/></g></g><path class="cls-41" d="M637.35,511.89A14.93,14.93,0,1,0,622.43,497,14.93,14.93,0,0,0,637.35,511.89Z"/><path class="cls-42" d="M426.18,524.43H182.12a15.72,15.72,0,1,1,0-31.43H426.18a15.72,15.72,0,0,1,0,31.43Z"/><path class="cls-43" d="M426.18,524.43H182.12a15.72,15.72,0,1,1,0-31.43H426.18a15.72,15.72,0,0,1,0,31.43Z"/><path class="cls-23" d="M437.93,508.72a11.77,11.77,0,0,1-11.75,11.75H182.12a11.75,11.75,0,0,1,0-23.5H426.18A11.77,11.77,0,0,1,437.93,508.72Z"/><path class="cls-44" d="M358.82,508.72a11.77,11.77,0,0,1-11.75,11.75H182.12a11.75,11.75,0,0,1,0-23.5h165A11.77,11.77,0,0,1,358.82,508.72Z"/><path class="cls-45" d="M541.47,144a72,72,0,1,0-72-72A72,72,0,0,0,541.47,144Z"/><path class="cls-23" d="M541.47,144a72,72,0,1,0-72-72A72,72,0,0,0,541.47,144Z"/><path class="cls-46" d="M582.28,72a40.84,40.84,0,0,1-40.81,40.81,40.28,40.28,0,0,1-25.36-8.85,40.81,40.81,0,1,1,66.17-32Z"/><path class="cls-47" d="M541.47,75.94a14.66,14.66,0,1,0-14.66-14.66A14.66,14.66,0,0,0,541.47,75.94Z"/><path class="cls-47" d="M567,103.94a40.83,40.83,0,0,1-25.36,8.85,40.23,40.23,0,0,1-25.35-8.85,25.72,25.72,0,0,1,50.71,0Z"/><path class="cls-48" d="M395,64.85H213.15A11.78,11.78,0,0,1,201.4,53.09V36.45A11.77,11.77,0,0,1,213.15,24.7H395a11.77,11.77,0,0,1,11.75,11.75V53.09A11.78,11.78,0,0,1,395,64.85Z"/><path class="cls-23" d="M395,65.15H213.15A11.78,11.78,0,0,1,201.4,53.39V36.75A11.77,11.77,0,0,1,213.15,25H395a11.77,11.77,0,0,1,11.75,11.75V53.39A11.78,11.78,0,0,1,395,65.15Z"/><path class="cls-49" d="M234.42,31.7l2.64,5.41a1.71,1.71,0,0,0,1.58,1.06l6.08.92a2,2,0,0,1,1.19,3.44l-4.36,4.22A2,2,0,0,0,241,48.6l1.06,5.94a2,2,0,0,1-2.91,2.12l-5.41-2.78a2.29,2.29,0,0,0-1.85,0l-5.42,2.78a2,2,0,0,1-2.9-2.12l1.06-5.94a2.4,2.4,0,0,0-.53-1.85l-4.36-4.22A2,2,0,0,1,221,39.09l6.07-.92a2.64,2.64,0,0,0,1.59-1.06l2.64-5.41C231.51,30.24,233.63,30.24,234.42,31.7Z"/><path class="cls-50" d="M267.83,31.7l2.64,5.41a1.73,1.73,0,0,0,1.59,1.06l6.07.92a2,2,0,0,1,1.19,3.44L275,46.75a2,2,0,0,0-.53,1.85l1.06,5.94a2,2,0,0,1-2.91,2.12l-5.41-2.78a2.29,2.29,0,0,0-1.85,0l-5.41,2.78A2,2,0,0,1,257,54.54l1.06-5.94a2.37,2.37,0,0,0-.53-1.85l-4.36-4.22a2,2,0,0,1,1.19-3.44l6.07-.92A2.61,2.61,0,0,0,262,37.11l2.64-5.41C264.92,30.24,267,30.24,267.83,31.7Z"/><path class="cls-51" d="M302.43,31.7l2.64,5.41a1.73,1.73,0,0,0,1.59,1.06l6.07.92a2,2,0,0,1,1.19,3.44l-4.36,4.22A2,2,0,0,0,309,48.6l1,5.94a2,2,0,0,1-2.9,2.12l-5.42-2.78a2.29,2.29,0,0,0-1.85,0l-5.41,2.78a2,2,0,0,1-2.91-2.12l1.06-5.94a2.37,2.37,0,0,0-.53-1.85l-4.36-4.22A2,2,0,0,1,289,39.09l6.08-.92a2.59,2.59,0,0,0,1.58-1.06l2.64-5.41A1.69,1.69,0,0,1,302.43,31.7Z"/><path class="cls-52" d="M335.85,31.7l2.64,5.41a1.71,1.71,0,0,0,1.58,1.06l6.08.92a2,2,0,0,1,1.18,3.44L343,46.75a2,2,0,0,0-.53,1.85l1.06,5.94a2,2,0,0,1-2.91,2.12l-5.42-2.78a2.27,2.27,0,0,0-1.84,0l-5.42,2.78a2,2,0,0,1-2.9-2.12l1.05-5.94a2.37,2.37,0,0,0-.53-1.85l-4.35-4.22a2,2,0,0,1,1.18-3.44l6.08-.92A2.59,2.59,0,0,0,330,37.11l2.64-5.41C333.07,30.24,335.18,30.24,335.85,31.7Z"/><path class="cls-53" d="M373.48,31.7l2.65,5.41a1.71,1.71,0,0,0,1.58,1.06l6.08.92A2,2,0,0,1,385,42.53l-4.35,4.22a1.94,1.94,0,0,0-.53,1.85l1.05,5.94a2,2,0,0,1-2.9,2.12l-5.42-2.78a2.27,2.27,0,0,0-1.84,0l-5.42,2.78a2,2,0,0,1-2.91-2.12l1.06-5.94a2.37,2.37,0,0,0-.53-1.85l-4.35-4.22A2,2,0,0,1,360,39.09l6.08-.92a2.59,2.59,0,0,0,1.58-1.06l2.65-5.41C370.58,30.24,372.69,30.24,373.48,31.7Z"/><path class="cls-54" d="M75.81,278.4V543.85a5.16,5.16,0,0,1-10.31,0V278.4a5.16,5.16,0,0,1,5.15-5.16A5.26,5.26,0,0,1,75.81,278.4Z"/><path class="cls-55" d="M75.81,278.4V543.85A5.16,5.16,0,0,1,70.66,549a4.88,4.88,0,0,1-3.57-1.45A5.14,5.14,0,0,1,65.64,544V278.53a5.16,5.16,0,0,1,5.15-5.15,4.88,4.88,0,0,1,3.56,1.45A5.11,5.11,0,0,1,75.81,278.4Z"/><path class="cls-56" d="M75.81,359.88v184A5.16,5.16,0,0,1,70.66,549a4.88,4.88,0,0,1-3.57-1.45A5.14,5.14,0,0,1,65.64,544V359.88a5.16,5.16,0,0,1,5.15-5.15,4.88,4.88,0,0,1,3.56,1.45A5.42,5.42,0,0,1,75.81,359.88Z"/><path class="cls-57" d="M81.62,357.37a11,11,0,1,1-11-11A11.11,11.11,0,0,1,81.62,357.37Z"/><path class="cls-58" d="M70.65,362.79a5.42,5.42,0,1,0-5.41-5.42A5.42,5.42,0,0,0,70.65,362.79Z"/></g></g></svg>