<?xml version="1.0" encoding="utf-8"?>
<!-- Generator: Adobe Illustrator 24.1.2, SVG Export Plug-In . SVG Version: 6.00 Build 0)  -->
<svg version="1.1" id="Слой_1" xmlns="http://www.w3.org/2000/svg" xmlns:xlink="http://www.w3.org/1999/xlink" x="0px" y="0px"
	 viewBox="0 0 798 524" style="enable-background:new 0 0 798 524;" xml:space="preserve">
<style type="text/css">
	.st0{fill:none;stroke:url(#SVGID_1_);stroke-width:2;stroke-miterlimit:10;}
	.st1{fill:#D1DE31;}
	.st2{fill:#FCD9A6;}
	.st3{fill:#FFFFFF;}
	.st4{fill:url(#SVGID_2_);stroke:url(#SVGID_3_);stroke-miterlimit:10;}
	.st5{fill:#1B75BB;}
	.st6{fill:url(#SVGID_4_);}
	.st7{fill:#F2F7FB;}
	.st8{fill:#3D3D3D;}
	.st9{fill:none;stroke:url(#SVGID_5_);stroke-miterlimit:10;}
	.st10{fill:#FAAF40;}
	.st11{fill:url(#SVGID_6_);stroke:url(#SVGID_7_);stroke-miterlimit:10;}
	.st12{opacity:0.85;}
	.st13{opacity:0.85;fill:url(#SVGID_8_);stroke:url(#SVGID_9_);stroke-miterlimit:10;enable-background:new    ;}
	.st14{fill:url(#SVGID_10_);}
	.st15{fill:none;stroke:url(#SVGID_11_);stroke-width:4;}
	.st16{fill:url(#SVGID_12_);}
	.st17{fill:none;stroke:url(#SVGID_13_);stroke-width:4;}
</style>
<linearGradient id="SVGID_1_" gradientUnits="userSpaceOnUse" x1="134.392" y1="293.2259" x2="687.376" y2="293.2259" gradientTransform="matrix(1 0 0 -1 0 526)">
	<stop  offset="0" style="stop-color:#FFFFFF;stop-opacity:0.2"/>
	<stop  offset="1" style="stop-color:#FFFFFF;stop-opacity:0.2"/>
</linearGradient>
<path class="st0" d="M150.1,41.2h521.7c7.8,0,14.1,6.3,14.1,14.1v354.9c0,7.8-6.3,14.1-14.1,14.1H150.1c-7.8,0-14.1-6.3-14.1-14.1
	V55.3C136,47.5,142.3,41.2,150.1,41.2z"/>
<path class="st1" d="M171.1,60.5c3.6,0,6.6,3,6.6,6.6c0,3.6-3,6.6-6.6,6.6c-3.6,0-6.6-3-6.6-6.6C164.5,63.4,167.4,60.5,171.1,60.5z"
	/>
<path class="st1" d="M199.9,60.6c3.5,0,6.5,2.8,6.5,6.5c0,3.5-2.8,6.5-6.5,6.5c-3.5,0-6.5-2.8-6.5-6.5
	C193.4,63.6,196.4,60.6,199.9,60.6z"/>
<path class="st1" d="M227.9,60.5c3.6,0,6.6,3,6.6,6.6c0,3.6-3,6.6-6.6,6.6s-6.6-3-6.6-6.6C221.4,63.4,224.2,60.5,227.9,60.5z"/>
<g>
	<path class="st2" d="M384.2,133.2h271.3c7.8,0,14.1,6.3,14.1,14.1v247.9c0,7.8-6.3,14.1-14.1,14.1H384.2c-7.8,0-14.1-6.3-14.1-14.1
		V147.2C370.1,139.5,376.4,133.2,384.2,133.2z"/>
</g>
<path class="st3" d="M535.3,274.3c2.3-1.3,2.3-4.6,0-6.1l-30.6-17.7c-2.3-1.3-5.3,0.3-5.3,3V289c0,2.7,3,4.3,5.3,3L535.3,274.3z"/>
<linearGradient id="SVGID_2_" gradientUnits="userSpaceOnUse" x1="156.6501" y1="433.6459" x2="665.2931" y2="407.4971" gradientTransform="matrix(1 0 0 -1 0 526)">
	<stop  offset="0" style="stop-color:#FFFFFF;stop-opacity:0.8"/>
	<stop  offset="1" style="stop-color:#D48AF7;stop-opacity:0.7"/>
</linearGradient>
<linearGradient id="SVGID_3_" gradientUnits="userSpaceOnUse" x1="155.5114" y1="420.4951" x2="670.2664" y2="420.4951" gradientTransform="matrix(1 0 0 -1 0 526)">
	<stop  offset="0" style="stop-color:#FFFFFF;stop-opacity:0.4"/>
	<stop  offset="1" style="stop-color:#FFFFFF;stop-opacity:0.2"/>
</linearGradient>
<path class="st4" d="M173.2,88.3h478.4c9.6,0,17.2,7.8,17.2,17.2c0,9.6-7.8,17.2-17.2,17.2H173.2c-9.6,0-17.2-7.8-17.2-17.2
	C155.8,96.1,163.6,88.3,173.2,88.3z"/>
<path class="st5" d="M243.3,102.5c1.7,0,3,1.3,3,3c0,1.7-1.3,3-3,3c-1.7,0-3-1.3-3-3C240.3,103.8,241.6,102.5,243.3,102.5z"/>
<path class="st5" d="M253.7,102.5h19.7c1.7,0,3,1.3,3,3c0,1.7-1.3,3-3,3h-19.7c-1.7,0-3-1.3-3-3
	C250.7,103.8,252.1,102.5,253.7,102.5z"/>
<path class="st5" d="M183.7,102.5h48.5c1.7,0,3,1.3,3,3c0,1.7-1.3,3-3,3h-48.5c-1.7,0-3-1.3-3-3C180.7,103.8,182,102.5,183.7,102.5z
	"/>
<linearGradient id="SVGID_4_" gradientUnits="userSpaceOnUse" x1="124.106" y1="356.9165" x2="389.368" y2="154.6645" gradientTransform="matrix(1 0 0 -1 0 526)">
	<stop  offset="0" style="stop-color:#F47F7E"/>
	<stop  offset="1" style="stop-color:#EE8346"/>
</linearGradient>
<path class="st6" d="M169.8,133.2h176.5c7.8,0,14.1,6.3,14.1,14.1v247.9c0,7.8-6.3,14.1-14.1,14.1H169.8c-7.8,0-14.1-6.3-14.1-14.1
	V147.2C155.7,139.5,162,133.2,169.8,133.2z"/>
<path class="st7" d="M223.2,193.9c3.7,0,6.6-3,6.6-6.6c0-3.7-3-6.6-6.6-6.6c-3.7,0-6.6,3-6.6,6.6C216.6,191,219.6,193.9,223.2,193.9
	z"/>
<path class="st7" d="M257.4,181.2c3.6,0,6.6,3,6.6,6.6c0,3.6-3,6.6-6.6,6.6c-3.6,0-6.6-3-6.6-6.6
	C250.7,184.2,253.7,181.2,257.4,181.2z"/>
<path class="st7" d="M291,181.7c3.6,0,6.6,3,6.6,6.6c0,3.6-3,6.6-6.6,6.6c-3.6,0-6.6-3-6.6-6.6C284.5,184.7,287.3,181.7,291,181.7z"
	/>
<path class="st7" d="M191.6,229.9h135.6c1.7,0,3,1.3,3,3c0,1.7-1.3,3-3,3H191.6c-1.7,0-3-1.3-3-3C188.6,231.2,190,229.9,191.6,229.9
	z"/>
<path class="st7" d="M191.6,254.4h135.6c1.7,0,3,1.3,3,3s-1.3,3-3,3H191.6c-1.7,0-3-1.3-3-3S190,254.4,191.6,254.4z"/>
<path class="st7" d="M191.6,278.9h135.6c1.7,0,3,1.3,3,3s-1.3,3-3,3H191.6c-1.7,0-3-1.3-3-3S190,278.9,191.6,278.9z"/>
<g>
	<path class="st2" d="M187.3,339.7c0-10.6,8.6-19.2,19.2-19.2h102.7c10.6,0,19.2,8.6,19.2,19.2s-8.6,19.2-19.2,19.2H206.5
		C195.8,358.9,187.3,350.3,187.3,339.7z"/>
</g>
<path class="st8" d="M239.9,339.9c0.6,0.1,1.2,0.4,1.6,1s0.6,1.1,0.6,1.8c0,0.6-0.2,1.1-0.5,1.6c-0.3,0.5-0.7,0.8-1.3,1.1
	c-0.6,0.3-1.2,0.4-2,0.4h-4.9v-11.4h4.7c0.8,0,1.4,0.1,2,0.4c0.6,0.3,1,0.6,1.3,1c0.3,0.4,0.4,0.9,0.4,1.5c0,0.7-0.2,1.2-0.5,1.7
	C240.9,339.4,240.5,339.8,239.9,339.9z M235.7,339.1h2.1c0.5,0,1-0.1,1.3-0.4c0.3-0.3,0.4-0.6,0.4-1.1c0-0.5-0.1-0.8-0.4-1.1
	c-0.3-0.3-0.7-0.4-1.3-0.4h-2.1V339.1z M238,343.9c0.6,0,1-0.1,1.3-0.4c0.3-0.3,0.5-0.6,0.5-1.1c0-0.5-0.2-0.9-0.5-1.1
	c-0.3-0.3-0.8-0.4-1.3-0.4h-2.2v3.1H238z"/>
<path class="st8" d="M252.4,336.7v9h-2.3v-1.1c-0.3,0.4-0.7,0.7-1.2,0.9c-0.5,0.2-1,0.3-1.5,0.3c-0.7,0-1.3-0.1-1.9-0.4
	c-0.5-0.3-1-0.7-1.3-1.3c-0.3-0.6-0.5-1.3-0.5-2.1v-5.3h2.3v5c0,0.7,0.2,1.3,0.5,1.7c0.4,0.4,0.8,0.6,1.5,0.6c0.6,0,1.1-0.2,1.5-0.6
	c0.4-0.4,0.5-0.9,0.5-1.7v-5H252.4z"/>
<path class="st8" d="M257.3,338.6v4.4c0,0.3,0.1,0.5,0.2,0.7c0.2,0.1,0.4,0.2,0.7,0.2h1.1v1.9h-1.4c-1.9,0-2.9-0.9-2.9-2.8v-4.3
	h-1.1v-1.9h1.1v-2.2h2.3v2.2h2v1.9H257.3z"/>
<path class="st8" d="M263.6,338.6v4.4c0,0.3,0.1,0.5,0.2,0.7c0.2,0.1,0.4,0.2,0.7,0.2h1.1v1.9h-1.4c-1.9,0-2.9-0.9-2.9-2.8v-4.3
	h-1.1v-1.9h1.1v-2.2h2.3v2.2h2v1.9H263.6z"/>
<path class="st8" d="M271.3,345.9c-0.9,0-1.6-0.2-2.3-0.6c-0.7-0.4-1.2-0.9-1.6-1.6c-0.4-0.7-0.6-1.5-0.6-2.4s0.2-1.7,0.6-2.4
	c0.4-0.7,1-1.2,1.7-1.6c0.7-0.4,1.5-0.6,2.4-0.6c0.9,0,1.7,0.2,2.4,0.6c0.7,0.4,1.3,0.9,1.7,1.6c0.4,0.7,0.6,1.5,0.6,2.4
	s-0.2,1.7-0.6,2.4c-0.4,0.7-1,1.3-1.7,1.6C272.9,345.7,272.2,345.9,271.3,345.9z M271.3,343.9c0.4,0,0.8-0.1,1.2-0.3
	c0.4-0.2,0.7-0.5,0.9-0.9c0.2-0.4,0.3-0.9,0.3-1.5c0-0.9-0.2-1.5-0.7-2c-0.4-0.5-1-0.7-1.6-0.7s-1.2,0.2-1.6,0.7
	c-0.4,0.5-0.7,1.1-0.7,2s0.2,1.5,0.6,2C270.1,343.7,270.6,343.9,271.3,343.9z"/>
<path class="st8" d="M282.6,336.6c1.1,0,1.9,0.3,2.6,1c0.7,0.7,1,1.6,1,2.8v5.3H284v-5c0-0.7-0.2-1.3-0.5-1.6
	c-0.4-0.4-0.8-0.6-1.5-0.6c-0.6,0-1.1,0.2-1.5,0.6c-0.4,0.4-0.5,0.9-0.5,1.6v5h-2.3v-9h2.3v1.1c0.3-0.4,0.7-0.7,1.2-0.9
	C281.6,336.7,282.1,336.6,282.6,336.6z"/>
<linearGradient id="SVGID_5_" gradientUnits="userSpaceOnUse" x1="583.843" y1="125.798" x2="748.041" y2="125.798" gradientTransform="matrix(1 0 0 -1 0 526)">
	<stop  offset="0" style="stop-color:#FFFFFF;stop-opacity:0.2"/>
	<stop  offset="1" style="stop-color:#FFFFFF;stop-opacity:0.2"/>
</linearGradient>
<path class="st9" d="M598.7,277.4h134.5c7.8,0,14.1,6.3,14.1,14.1v217.4c0,7.8-6.3,14.1-14.1,14.1H598.7c-7.8,0-14.1-6.3-14.1-14.1
	V291.3C584.6,283.5,590.9,277.4,598.7,277.4z"/>
<path class="st10" d="M610.9,289.7c2.3,0,4.3,2,4.3,4.3c0,2.3-2,4.3-4.3,4.3c-2.3,0-4.3-2-4.3-4.3
	C606.6,291.6,608.6,289.7,610.9,289.7z"/>
<path class="st10" d="M628.5,289.7c2.3,0,4.3,2,4.3,4.3c0,2.3-2,4.3-4.3,4.3c-2.3,0-4.3-2-4.3-4.3
	C624.2,291.6,626,289.7,628.5,289.7z"/>
<path class="st10" d="M645.9,289.7c2.3,0,4.3,2,4.3,4.3c0,2.3-2,4.3-4.3,4.3c-2.3,0-4.3-2-4.3-4.3
	C641.6,291.6,643.6,289.7,645.9,289.7z"/>
<linearGradient id="SVGID_6_" gradientUnits="userSpaceOnUse" x1="594.9917" y1="205.7753" x2="736.7867" y2="16.7153" gradientTransform="matrix(1 0 0 -1 0 526)">
	<stop  offset="0" style="stop-color:#1464FF"/>
	<stop  offset="1" style="stop-color:#D64FF7"/>
</linearGradient>
<linearGradient id="SVGID_7_" gradientUnits="userSpaceOnUse" x1="594.182" y1="111.3075" x2="737.633" y2="111.3075" gradientTransform="matrix(1 0 0 -1 0 526)">
	<stop  offset="0" style="stop-color:#FFFFFF;stop-opacity:0.4"/>
	<stop  offset="1" style="stop-color:#FFFFFF;stop-opacity:0.2"/>
</linearGradient>
<path class="st11" d="M606.3,320.1h119.1c6.3,0,11.4,5.1,11.4,11.4v166.3c0,6.3-5.1,11.4-11.4,11.4H606.3c-6.3,0-11.4-5.1-11.4-11.4
	V331.6C595,325.3,600.2,320.1,606.3,320.1z"/>
<path class="st3" d="M687.6,349.8c-0.2-0.7-0.8-1.2-1.5-1.5c-8.4-2.2-17.1,0.3-23,7.3l-2.2,2.6l-5.5-1.2c-2.6-1-5.5,0.2-6.6,2.6
	l-4.5,7.8c-0.3,0.7-0.3,1.2,0,1.8c0.2,0.7,0.8,1,1.5,1.2l6.3,1.3c-0.7,1.7-0.8,3.1-1.2,4.8c0,0.7,0.2,1.2,0.7,1.7l6.3,6.3
	c0.3,0.3,0.8,0.7,1.5,0.7h0.2c1.8-0.2,3.5-0.3,5-1l1.2,6c0.2,0.7,0.7,1.2,1.2,1.5c0.2,0.2,0.7,0.2,0.8,0.2c0.3,0,0.7,0,1-0.2
	l7.8-4.5c2.2-1.2,3.5-4,2.8-6.6l-1.5-5.6l2.5-2.2C687.1,367,689.9,357.9,687.6,349.8z M656.8,363.2c-1.2,1.7-2.5,3.1-3.1,4.8l-4.3-1
	l3-5.5c0.3-0.8,1.2-1,2.2-0.8l3.5,0.8L656.8,363.2z M674.4,383.4l-5.5,3l-0.8-4c1.8-0.8,3.5-2,4.8-3.1l1.5-1.3l0.8,3.5
	C675.5,382.2,674.9,383.2,674.4,383.4z M675.7,363.2c-1.7,0-3-1.3-3-3s1.5-3,3-3c1.7,0,3,1.3,3,3S677.5,363.2,675.7,363.2z"/>
<path class="st3" d="M627.9,411.1v10.6h-2.1v-10.6H627.9z"/>
<path class="st3" d="M634.6,413.1c1,0,1.8,0.3,2.4,1c0.6,0.6,0.9,1.5,0.9,2.6v4.9h-2.1V417c0-0.7-0.2-1.2-0.5-1.5
	c-0.3-0.4-0.8-0.5-1.4-0.5c-0.6,0-1.1,0.2-1.4,0.5c-0.3,0.4-0.5,0.9-0.5,1.5v4.6H630v-8.4h2.1v1c0.3-0.4,0.6-0.6,1.1-0.9
	C633.6,413.2,634.1,413.1,634.6,413.1z"/>
<path class="st3" d="M643.2,421.8c-0.7,0-1.3-0.1-1.9-0.4c-0.5-0.3-1-0.6-1.3-1c-0.3-0.4-0.5-0.9-0.5-1.4h2.1c0,0.3,0.2,0.6,0.5,0.8
	c0.3,0.2,0.6,0.3,1,0.3c0.4,0,0.7-0.1,0.9-0.2c0.2-0.2,0.4-0.4,0.4-0.6c0-0.3-0.1-0.5-0.4-0.6c-0.3-0.1-0.7-0.3-1.3-0.5
	c-0.6-0.2-1.1-0.3-1.5-0.5c-0.4-0.2-0.7-0.4-1-0.7c-0.3-0.3-0.4-0.8-0.4-1.4c0-0.5,0.1-0.9,0.4-1.3c0.3-0.4,0.7-0.7,1.2-0.9
	c0.5-0.2,1.1-0.3,1.8-0.3c1,0,1.8,0.3,2.4,0.8c0.6,0.5,0.9,1.2,1,2h-2c0-0.3-0.2-0.6-0.4-0.8c-0.2-0.2-0.6-0.3-1-0.3
	c-0.4,0-0.7,0.1-0.9,0.2c-0.2,0.1-0.3,0.3-0.3,0.6c0,0.3,0.1,0.5,0.4,0.7c0.3,0.1,0.7,0.3,1.3,0.4c0.6,0.2,1.1,0.3,1.5,0.5
	c0.4,0.2,0.7,0.4,1,0.8c0.3,0.3,0.4,0.8,0.5,1.3c0,0.5-0.1,0.9-0.4,1.3c-0.3,0.4-0.6,0.7-1.2,0.9
	C644.5,421.7,643.9,421.8,643.2,421.8z"/>
<path class="st3" d="M656.1,417.3c0,0.3,0,0.6-0.1,0.8h-6.2c0.1,0.6,0.3,1.1,0.6,1.4c0.4,0.3,0.8,0.5,1.4,0.5c0.8,0,1.4-0.3,1.7-1
	h2.3c-0.2,0.8-0.7,1.5-1.4,2c-0.7,0.5-1.5,0.8-2.5,0.8c-0.8,0-1.5-0.2-2.2-0.5c-0.6-0.4-1.1-0.9-1.5-1.5c-0.4-0.7-0.5-1.4-0.5-2.3
	c0-0.9,0.2-1.6,0.5-2.3c0.4-0.7,0.9-1.2,1.5-1.5c0.6-0.4,1.4-0.5,2.2-0.5c0.8,0,1.5,0.2,2.1,0.5c0.6,0.3,1.1,0.8,1.5,1.5
	C655.9,415.7,656.1,416.4,656.1,417.3z M653.9,416.7c0-0.5-0.2-1-0.6-1.3c-0.4-0.3-0.9-0.5-1.4-0.5c-0.5,0-1,0.2-1.3,0.5
	c-0.4,0.3-0.6,0.8-0.7,1.3H653.9z"/>
<path class="st3" d="M659.8,414.5c0.3-0.4,0.6-0.8,1.1-1c0.4-0.3,1-0.4,1.5-0.4v2.2h-0.6c-0.7,0-1.2,0.2-1.5,0.5
	c-0.3,0.3-0.5,0.9-0.5,1.6v4.2h-2.1v-8.4h2.1V414.5z"/>
<path class="st3" d="M666.3,415v4.1c0,0.3,0.1,0.5,0.2,0.6c0.1,0.1,0.4,0.2,0.7,0.2h1v1.8h-1.3c-1.8,0-2.7-0.9-2.7-2.6V415h-1v-1.7
	h1v-2.1h2.1v2.1h1.9v1.7H666.3z"/>
<path class="st3" d="M680.5,411.1v1.7h-2.8v8.9h-2.1v-8.9h-2.8v-1.7H680.5z"/>
<path class="st3" d="M683.1,412.2c-0.4,0-0.7-0.1-0.9-0.3c-0.2-0.2-0.4-0.5-0.4-0.9c0-0.4,0.1-0.6,0.4-0.9c0.3-0.2,0.6-0.4,0.9-0.4
	c0.4,0,0.7,0.1,0.9,0.4c0.3,0.2,0.4,0.5,0.4,0.9c0,0.4-0.1,0.7-0.4,0.9C683.8,412.1,683.5,412.2,683.1,412.2z M684.2,413.2v8.4h-2.1
	v-8.4H684.2z"/>
<path class="st3" d="M688.8,415v4.1c0,0.3,0.1,0.5,0.2,0.6c0.1,0.1,0.4,0.2,0.7,0.2h1v1.8h-1.3c-1.8,0-2.7-0.9-2.7-2.6V415h-1v-1.7
	h1v-2.1h2.1v2.1h1.9v1.7H688.8z"/>
<path class="st3" d="M694.3,410.4v11.2h-2.1v-11.2H694.3z"/>
<path class="st3" d="M704.2,417.3c0,0.3,0,0.6-0.1,0.8H698c0,0.6,0.3,1.1,0.6,1.4c0.4,0.3,0.8,0.5,1.4,0.5c0.8,0,1.4-0.3,1.7-1h2.3
	c-0.2,0.8-0.7,1.5-1.4,2c-0.7,0.5-1.5,0.8-2.5,0.8c-0.8,0-1.5-0.2-2.2-0.5c-0.6-0.4-1.1-0.9-1.5-1.5c-0.4-0.7-0.5-1.4-0.5-2.3
	c0-0.9,0.2-1.6,0.5-2.3c0.4-0.7,0.9-1.2,1.5-1.5c0.6-0.4,1.4-0.5,2.2-0.5c0.8,0,1.5,0.2,2.1,0.5c0.6,0.3,1.1,0.8,1.5,1.5
	C704.1,415.7,704.2,416.4,704.2,417.3z M702,416.7c0-0.5-0.2-1-0.6-1.3c-0.4-0.3-0.9-0.5-1.4-0.5c-0.5,0-1,0.2-1.3,0.5
	c-0.4,0.3-0.6,0.8-0.7,1.3H702z"/>
<path class="st3" d="M623.1,440.2h2v0.6h-2.8v-5.8h0.8V440.2z"/>
<path class="st3" d="M627.9,440.9c-0.4,0-0.8-0.1-1.2-0.3c-0.3-0.2-0.6-0.5-0.8-0.8c-0.2-0.4-0.3-0.8-0.3-1.2c0-0.5,0.1-0.9,0.3-1.2
	c0.2-0.4,0.5-0.6,0.8-0.8c0.3-0.2,0.7-0.3,1.2-0.3c0.4,0,0.8,0.1,1.2,0.3c0.3,0.2,0.6,0.5,0.8,0.8c0.2,0.4,0.3,0.8,0.3,1.2
	c0,0.5-0.1,0.9-0.3,1.2c-0.2,0.4-0.5,0.6-0.8,0.8C628.7,440.8,628.3,440.9,627.9,440.9z M627.9,440.3c0.3,0,0.5-0.1,0.8-0.2
	c0.2-0.1,0.4-0.3,0.6-0.6c0.1-0.3,0.2-0.6,0.2-0.9c0-0.4-0.1-0.7-0.2-0.9c-0.1-0.3-0.3-0.4-0.6-0.6c-0.2-0.1-0.5-0.2-0.8-0.2
	c-0.3,0-0.5,0.1-0.8,0.2c-0.2,0.1-0.4,0.3-0.5,0.6s-0.2,0.6-0.2,0.9c0,0.4,0.1,0.7,0.2,0.9c0.1,0.3,0.3,0.4,0.5,0.6
	C627.4,440.2,627.6,440.3,627.9,440.3z"/>
<path class="st3" d="M632,437.1c0.1-0.3,0.3-0.5,0.6-0.6c0.2-0.1,0.5-0.2,0.9-0.2v0.8h-0.2c-0.8,0-1.3,0.5-1.3,1.4v2.5h-0.8v-4.5
	h0.8V437.1z"/>
<path class="st3" d="M638.5,438.4c0,0.1,0,0.3,0,0.5h-3.6c0,0.4,0.2,0.8,0.5,1.1c0.3,0.2,0.6,0.4,1,0.4c0.3,0,0.6-0.1,0.8-0.2
	c0.2-0.2,0.4-0.4,0.5-0.6h0.8c-0.1,0.4-0.4,0.8-0.7,1.1c-0.4,0.3-0.8,0.4-1.4,0.4c-0.4,0-0.8-0.1-1.2-0.3c-0.3-0.2-0.6-0.5-0.8-0.8
	c-0.2-0.4-0.3-0.8-0.3-1.2c0-0.5,0.1-0.9,0.3-1.2c0.2-0.4,0.5-0.6,0.8-0.8c0.3-0.2,0.7-0.3,1.2-0.3c0.4,0,0.8,0.1,1.1,0.3
	c0.3,0.2,0.6,0.4,0.8,0.8C638.4,437.6,638.5,438,638.5,438.4z M637.7,438.3c0-0.3-0.1-0.5-0.2-0.7c-0.1-0.2-0.3-0.4-0.5-0.5
	c-0.2-0.1-0.5-0.2-0.7-0.2c-0.4,0-0.7,0.1-1,0.4c-0.3,0.2-0.4,0.6-0.5,1H637.7z"/>
<path class="st3" d="M644.9,436.2c0.4,0,0.7,0.1,0.9,0.2c0.3,0.1,0.5,0.4,0.7,0.7c0.2,0.3,0.2,0.6,0.2,1.1v2.7H646v-2.6
	c0-0.5-0.1-0.8-0.3-1c-0.2-0.2-0.5-0.4-0.9-0.4c-0.4,0-0.7,0.1-0.9,0.4c-0.2,0.2-0.3,0.6-0.3,1.1v2.5h-0.7v-2.6c0-0.5-0.1-0.8-0.3-1
	c-0.2-0.2-0.5-0.4-0.9-0.4c-0.4,0-0.7,0.1-0.9,0.4c-0.2,0.2-0.3,0.6-0.3,1.1v2.5h-0.8v-4.5h0.8v0.7c0.1-0.2,0.3-0.4,0.6-0.5
	c0.3-0.1,0.5-0.2,0.8-0.2c0.4,0,0.7,0.1,1,0.3c0.3,0.2,0.5,0.4,0.7,0.8c0.1-0.3,0.3-0.6,0.6-0.7
	C644.2,436.3,644.6,436.2,644.9,436.2z"/>
<path class="st3" d="M650.6,435.6c-0.1,0-0.3-0.1-0.4-0.1c-0.1-0.1-0.1-0.2-0.1-0.4c0-0.1,0-0.3,0.1-0.4c0.1-0.1,0.2-0.1,0.4-0.1
	c0.1,0,0.3,0,0.3,0.1c0.1,0.1,0.1,0.2,0.1,0.4c0,0.1,0,0.3-0.1,0.4C650.8,435.5,650.7,435.6,650.6,435.6z M650.9,436.3v4.5h-0.8
	v-4.5H650.9z"/>
<path class="st3" d="M653,437.2c0.1-0.3,0.4-0.5,0.7-0.6c0.3-0.2,0.6-0.3,1-0.3c0.4,0,0.8,0.1,1.1,0.3c0.3,0.2,0.6,0.5,0.8,0.8
	c0.2,0.3,0.3,0.8,0.3,1.2c0,0.5-0.1,0.9-0.3,1.2c-0.2,0.4-0.4,0.6-0.8,0.8c-0.3,0.2-0.7,0.3-1.1,0.3c-0.4,0-0.7-0.1-1-0.3
	c-0.3-0.2-0.5-0.4-0.7-0.7v3h-0.8v-6.7h0.8V437.2z M656.1,438.6c0-0.3-0.1-0.6-0.2-0.9c-0.1-0.3-0.3-0.4-0.6-0.6
	c-0.2-0.1-0.5-0.2-0.8-0.2c-0.3,0-0.5,0.1-0.8,0.2c-0.2,0.1-0.4,0.3-0.6,0.6c-0.1,0.3-0.2,0.5-0.2,0.9c0,0.3,0.1,0.6,0.2,0.9
	c0.1,0.3,0.3,0.4,0.6,0.6c0.2,0.1,0.5,0.2,0.8,0.2c0.3,0,0.5-0.1,0.8-0.2c0.2-0.1,0.4-0.3,0.6-0.6
	C656,439.2,656.1,438.9,656.1,438.6z"/>
<path class="st3" d="M659.4,440.9c-0.3,0-0.7-0.1-0.9-0.2c-0.3-0.1-0.5-0.3-0.7-0.5c-0.2-0.2-0.2-0.5-0.3-0.7h0.8
	c0,0.2,0.1,0.4,0.3,0.6c0.2,0.1,0.4,0.2,0.8,0.2c0.3,0,0.5-0.1,0.7-0.2c0.2-0.1,0.2-0.3,0.2-0.5c0-0.2-0.1-0.3-0.3-0.4
	c-0.2-0.1-0.4-0.2-0.8-0.3c-0.3-0.1-0.6-0.2-0.8-0.3c-0.2-0.1-0.4-0.2-0.5-0.4c-0.1-0.2-0.2-0.4-0.2-0.7c0-0.2,0.1-0.4,0.2-0.6
	s0.3-0.3,0.6-0.5c0.3-0.1,0.5-0.2,0.9-0.2c0.5,0,0.9,0.1,1.2,0.4c0.3,0.3,0.5,0.6,0.5,1h-0.8c0-0.2-0.1-0.4-0.3-0.6
	c-0.2-0.1-0.4-0.2-0.7-0.2c-0.3,0-0.5,0.1-0.6,0.2c-0.2,0.1-0.2,0.3-0.2,0.5c0,0.1,0,0.3,0.1,0.4c0.1,0.1,0.2,0.2,0.4,0.2
	c0.1,0.1,0.4,0.1,0.6,0.2c0.3,0.1,0.6,0.2,0.8,0.3c0.2,0.1,0.4,0.2,0.5,0.4c0.1,0.2,0.2,0.4,0.2,0.7c0,0.2-0.1,0.5-0.2,0.7
	c-0.1,0.2-0.3,0.4-0.6,0.5C660,440.9,659.8,440.9,659.4,440.9z"/>
<path class="st3" d="M666.2,436.3v4.5h-0.8v-0.7c-0.1,0.2-0.3,0.4-0.6,0.5c-0.3,0.1-0.5,0.2-0.8,0.2c-0.4,0-0.7-0.1-1-0.2
	c-0.3-0.1-0.5-0.4-0.7-0.7c-0.2-0.3-0.2-0.6-0.2-1.1v-2.7h0.7v2.6c0,0.4,0.1,0.8,0.3,1c0.2,0.2,0.5,0.4,0.9,0.4c0.4,0,0.7-0.1,1-0.4
	c0.2-0.2,0.3-0.6,0.3-1.1v-2.5H666.2z"/>
<path class="st3" d="M672.9,436.2c0.4,0,0.7,0.1,0.9,0.2c0.3,0.1,0.5,0.4,0.7,0.7c0.2,0.3,0.2,0.6,0.2,1.1v2.7H674v-2.6
	c0-0.5-0.1-0.8-0.3-1c-0.2-0.2-0.5-0.4-0.9-0.4c-0.4,0-0.7,0.1-0.9,0.4c-0.2,0.2-0.3,0.6-0.3,1.1v2.5h-0.7v-2.6c0-0.5-0.1-0.8-0.3-1
	c-0.2-0.2-0.5-0.4-0.9-0.4c-0.4,0-0.7,0.1-0.9,0.4c-0.2,0.2-0.3,0.6-0.3,1.1v2.5h-0.8v-4.5h0.8v0.7c0.1-0.2,0.3-0.4,0.6-0.5
	c0.3-0.1,0.5-0.2,0.8-0.2c0.4,0,0.7,0.1,1,0.3c0.3,0.2,0.5,0.4,0.7,0.8c0.1-0.3,0.3-0.6,0.6-0.7
	C672.2,436.3,672.5,436.2,672.9,436.2z"/>
<path class="st3" d="M677.9,438.6c0-0.5,0.1-0.9,0.3-1.2c0.2-0.4,0.4-0.6,0.8-0.8c0.3-0.2,0.7-0.3,1.1-0.3c0.4,0,0.7,0.1,1,0.2
	c0.3,0.2,0.5,0.4,0.7,0.6v-2.4h0.8v6.1h-0.8V440c-0.1,0.3-0.4,0.5-0.7,0.7c-0.3,0.2-0.6,0.3-1,0.3c-0.4,0-0.8-0.1-1.1-0.3
	c-0.3-0.2-0.6-0.5-0.8-0.8C678,439.4,677.9,439,677.9,438.6z M681.7,438.6c0-0.3-0.1-0.6-0.2-0.9s-0.3-0.4-0.6-0.6
	c-0.2-0.1-0.5-0.2-0.8-0.2c-0.3,0-0.5,0.1-0.8,0.2c-0.2,0.1-0.4,0.3-0.6,0.6c-0.1,0.3-0.2,0.6-0.2,0.9c0,0.3,0.1,0.7,0.2,0.9
	c0.1,0.3,0.3,0.4,0.6,0.6c0.2,0.1,0.5,0.2,0.8,0.2c0.3,0,0.5-0.1,0.8-0.2c0.2-0.1,0.4-0.3,0.6-0.6
	C681.7,439.2,681.7,438.9,681.7,438.6z"/>
<path class="st3" d="M685.8,440.9c-0.4,0-0.8-0.1-1.2-0.3c-0.3-0.2-0.6-0.5-0.8-0.8c-0.2-0.4-0.3-0.8-0.3-1.2c0-0.5,0.1-0.9,0.3-1.2
	c0.2-0.4,0.5-0.6,0.8-0.8c0.3-0.2,0.7-0.3,1.2-0.3c0.4,0,0.8,0.1,1.2,0.3c0.3,0.2,0.6,0.5,0.8,0.8c0.2,0.4,0.3,0.8,0.3,1.2
	c0,0.5-0.1,0.9-0.3,1.2c-0.2,0.4-0.5,0.6-0.8,0.8C686.6,440.8,686.2,440.9,685.8,440.9z M685.8,440.3c0.3,0,0.5-0.1,0.8-0.2
	c0.2-0.1,0.4-0.3,0.6-0.6c0.1-0.3,0.2-0.6,0.2-0.9c0-0.4-0.1-0.7-0.2-0.9c-0.1-0.3-0.3-0.4-0.6-0.6c-0.2-0.1-0.5-0.2-0.8-0.2
	c-0.3,0-0.5,0.1-0.8,0.2c-0.2,0.1-0.4,0.3-0.5,0.6s-0.2,0.6-0.2,0.9c0,0.4,0.1,0.7,0.2,0.9c0.1,0.3,0.3,0.4,0.5,0.6
	C685.2,440.2,685.5,440.3,685.8,440.3z"/>
<path class="st3" d="M689.8,434.7v6.1h-0.8v-6.1H689.8z"/>
<path class="st3" d="M693.1,440.9c-0.4,0-0.8-0.1-1.2-0.3c-0.3-0.2-0.6-0.5-0.8-0.8c-0.2-0.4-0.3-0.8-0.3-1.2c0-0.5,0.1-0.9,0.3-1.2
	c0.2-0.4,0.5-0.6,0.8-0.8c0.3-0.2,0.7-0.3,1.2-0.3c0.4,0,0.8,0.1,1.2,0.3c0.3,0.2,0.6,0.5,0.8,0.8c0.2,0.4,0.3,0.8,0.3,1.2
	c0,0.5-0.1,0.9-0.3,1.2c-0.2,0.4-0.5,0.6-0.8,0.8C693.9,440.8,693.5,440.9,693.1,440.9z M693.1,440.3c0.3,0,0.5-0.1,0.8-0.2
	c0.2-0.1,0.4-0.3,0.6-0.6c0.1-0.3,0.2-0.6,0.2-0.9c0-0.4-0.1-0.7-0.2-0.9c-0.1-0.3-0.3-0.4-0.6-0.6c-0.2-0.1-0.5-0.2-0.8-0.2
	c-0.3,0-0.5,0.1-0.8,0.2c-0.2,0.1-0.4,0.3-0.5,0.6s-0.2,0.6-0.2,0.9c0,0.4,0.1,0.7,0.2,0.9c0.1,0.3,0.3,0.4,0.5,0.6
	C692.6,440.2,692.8,440.3,693.1,440.3z"/>
<path class="st3" d="M697.2,437.1c0.1-0.3,0.3-0.5,0.6-0.6c0.2-0.1,0.6-0.2,0.9-0.2v0.8h-0.2c-0.8,0-1.3,0.5-1.3,1.4v2.5h-0.8v-4.5
	h0.8V437.1z"/>
<path class="st3" d="M703.3,440.9c-0.3,0-0.7-0.1-0.9-0.2c-0.3-0.1-0.5-0.3-0.7-0.5c-0.2-0.2-0.2-0.5-0.3-0.7h0.8
	c0,0.2,0.1,0.4,0.3,0.6c0.2,0.1,0.4,0.2,0.8,0.2c0.3,0,0.5-0.1,0.7-0.2c0.2-0.1,0.2-0.3,0.2-0.5c0-0.2-0.1-0.3-0.3-0.4
	c-0.2-0.1-0.5-0.2-0.8-0.3c-0.3-0.1-0.6-0.2-0.8-0.3c-0.2-0.1-0.4-0.2-0.5-0.4c-0.1-0.2-0.2-0.4-0.2-0.7c0-0.2,0.1-0.4,0.2-0.6
	s0.3-0.3,0.6-0.5c0.3-0.1,0.5-0.2,0.9-0.2c0.5,0,0.9,0.1,1.2,0.4c0.3,0.3,0.5,0.6,0.5,1h-0.8c0-0.2-0.1-0.4-0.3-0.6
	c-0.2-0.1-0.4-0.2-0.7-0.2c-0.3,0-0.5,0.1-0.6,0.2c-0.2,0.1-0.2,0.3-0.2,0.5c0,0.1,0,0.3,0.1,0.4c0.1,0.1,0.2,0.2,0.4,0.2
	c0.2,0.1,0.4,0.1,0.6,0.2c0.3,0.1,0.6,0.2,0.8,0.3c0.2,0.1,0.4,0.2,0.5,0.4c0.1,0.2,0.2,0.4,0.2,0.7c0,0.2-0.1,0.5-0.2,0.7
	c-0.1,0.2-0.3,0.4-0.6,0.5C703.9,440.9,703.6,440.9,703.3,440.9z"/>
<path class="st3" d="M706.4,435.6c-0.1,0-0.3-0.1-0.4-0.1c-0.1-0.1-0.1-0.2-0.1-0.4c0-0.1,0-0.3,0.1-0.4c0.1-0.1,0.2-0.1,0.4-0.1
	c0.1,0,0.3,0,0.3,0.1c0.1,0.1,0.1,0.2,0.1,0.4c0,0.1,0,0.3-0.1,0.4C706.7,435.5,706.6,435.6,706.4,435.6z M706.8,436.3v4.5H706v-4.5
	H706.8z"/>
<path class="st3" d="M709,436.9v2.7c0,0.2,0,0.4,0.1,0.5c0.1,0.1,0.3,0.1,0.5,0.1h0.6v0.6h-0.7c-0.4,0-0.7-0.1-0.9-0.3
	c-0.2-0.2-0.3-0.5-0.3-1v-2.7h-0.6v-0.6h0.6v-1.1h0.8v1.1h1.2v0.6H709z"/>
<path class="st3" d="M626,451.8c0-0.5,0.1-0.9,0.3-1.2c0.2-0.4,0.4-0.6,0.8-0.8c0.3-0.2,0.7-0.3,1.1-0.3c0.4,0,0.7,0.1,1,0.3
	c0.3,0.2,0.5,0.4,0.7,0.6v-0.8h0.8v4.5h-0.8v-0.8c-0.1,0.3-0.4,0.5-0.7,0.7c-0.3,0.2-0.6,0.3-1,0.3c-0.4,0-0.8-0.1-1.1-0.3
	c-0.3-0.2-0.6-0.5-0.8-0.8C626.1,452.7,626,452.3,626,451.8z M629.8,451.8c0-0.3-0.1-0.6-0.2-0.9s-0.3-0.4-0.6-0.6
	c-0.2-0.1-0.5-0.2-0.8-0.2c-0.3,0-0.5,0.1-0.8,0.2c-0.2,0.1-0.4,0.3-0.6,0.6s-0.2,0.6-0.2,0.9c0,0.3,0.1,0.7,0.2,0.9
	c0.1,0.3,0.3,0.5,0.6,0.6c0.2,0.1,0.5,0.2,0.8,0.2c0.3,0,0.5-0.1,0.8-0.2c0.2-0.1,0.4-0.3,0.6-0.6
	C629.8,452.5,629.8,452.2,629.8,451.8z"/>
<path class="st3" d="M637.3,449.5c0.4,0,0.7,0.1,0.9,0.2c0.3,0.1,0.5,0.4,0.7,0.7c0.2,0.3,0.2,0.6,0.2,1.1v2.7h-0.7v-2.6
	c0-0.5-0.1-0.8-0.3-1c-0.2-0.2-0.5-0.4-0.9-0.4c-0.4,0-0.7,0.1-0.9,0.4c-0.2,0.2-0.3,0.6-0.3,1.1v2.5h-0.7v-2.6c0-0.5-0.1-0.8-0.3-1
	c-0.2-0.2-0.5-0.4-0.9-0.4c-0.4,0-0.7,0.1-0.9,0.4c-0.2,0.2-0.3,0.6-0.3,1.1v2.5h-0.8v-4.5h0.8v0.7c0.1-0.2,0.3-0.4,0.6-0.5
	c0.3-0.1,0.5-0.2,0.8-0.2c0.4,0,0.7,0.1,1,0.3c0.3,0.2,0.5,0.4,0.7,0.8c0.1-0.3,0.3-0.6,0.6-0.7C636.6,449.6,637,449.5,637.3,449.5z
	"/>
<path class="st3" d="M644.5,451.7c0,0.1,0,0.3,0,0.5h-3.6c0,0.4,0.2,0.8,0.5,1.1c0.3,0.2,0.6,0.4,1,0.4c0.3,0,0.6-0.1,0.8-0.2
	c0.2-0.2,0.4-0.4,0.5-0.6h0.8c-0.1,0.4-0.4,0.8-0.7,1.1c-0.4,0.3-0.8,0.4-1.4,0.4c-0.4,0-0.8-0.1-1.2-0.3c-0.3-0.2-0.6-0.5-0.8-0.8
	c-0.2-0.4-0.3-0.8-0.3-1.2c0-0.5,0.1-0.9,0.3-1.2c0.2-0.4,0.5-0.6,0.8-0.8c0.3-0.2,0.7-0.3,1.2-0.3c0.4,0,0.8,0.1,1.1,0.3
	c0.3,0.2,0.6,0.4,0.8,0.8C644.4,450.9,644.5,451.3,644.5,451.7z M643.8,451.5c0-0.3-0.1-0.5-0.2-0.7c-0.1-0.2-0.3-0.4-0.5-0.5
	c-0.2-0.1-0.5-0.2-0.7-0.2c-0.4,0-0.7,0.1-1,0.4c-0.3,0.2-0.4,0.6-0.5,1H643.8z"/>
<path class="st3" d="M646.4,450.2v2.7c0,0.2,0,0.4,0.1,0.5c0.1,0.1,0.3,0.1,0.5,0.1h0.6v0.6h-0.7c-0.4,0-0.7-0.1-0.9-0.3
	c-0.2-0.2-0.3-0.5-0.3-1v-2.7h-0.6v-0.6h0.6v-1.1h0.8v1.1h1.2v0.6H646.4z"/>
<path class="st3" d="M649.3,453.1l-0.9,2.2h-0.5l0.6-2.2H649.3z"/>
<path class="st3" d="M652.1,451.8c0-0.5,0.1-0.9,0.3-1.2c0.2-0.4,0.4-0.6,0.8-0.8c0.3-0.2,0.7-0.3,1.2-0.3c0.6,0,1,0.1,1.4,0.4
	c0.4,0.3,0.6,0.6,0.7,1.1h-0.8c-0.1-0.3-0.2-0.5-0.5-0.7c-0.2-0.2-0.5-0.2-0.8-0.2c-0.4,0-0.8,0.1-1,0.4c-0.3,0.3-0.4,0.7-0.4,1.3
	c0,0.5,0.1,1,0.4,1.3c0.3,0.3,0.6,0.4,1,0.4c0.3,0,0.6-0.1,0.8-0.2c0.2-0.2,0.4-0.4,0.5-0.7h0.8c-0.1,0.5-0.4,0.8-0.7,1.1
	c-0.4,0.3-0.8,0.4-1.4,0.4c-0.4,0-0.8-0.1-1.2-0.3c-0.3-0.2-0.6-0.5-0.8-0.8S652.1,452.3,652.1,451.8z"/>
<path class="st3" d="M659.4,454.2c-0.4,0-0.8-0.1-1.2-0.3c-0.3-0.2-0.6-0.5-0.8-0.8c-0.2-0.4-0.3-0.8-0.3-1.2c0-0.5,0.1-0.9,0.3-1.2
	c0.2-0.4,0.5-0.6,0.8-0.8c0.3-0.2,0.7-0.3,1.2-0.3c0.4,0,0.8,0.1,1.2,0.3c0.3,0.2,0.6,0.5,0.8,0.8c0.2,0.4,0.3,0.8,0.3,1.2
	c0,0.5-0.1,0.9-0.3,1.2c-0.2,0.4-0.5,0.6-0.8,0.8C660.2,454.1,659.8,454.2,659.4,454.2z M659.4,453.5c0.3,0,0.5-0.1,0.8-0.2
	c0.2-0.1,0.4-0.3,0.6-0.6c0.1-0.3,0.2-0.6,0.2-0.9c0-0.4-0.1-0.7-0.2-0.9c-0.1-0.3-0.3-0.4-0.6-0.6c-0.2-0.1-0.5-0.2-0.8-0.2
	c-0.3,0-0.5,0.1-0.8,0.2c-0.2,0.1-0.4,0.3-0.5,0.6c-0.1,0.3-0.2,0.6-0.2,0.9c0,0.4,0.1,0.7,0.2,0.9c0.1,0.3,0.3,0.4,0.5,0.6
	C658.9,453.5,659.1,453.5,659.4,453.5z"/>
<path class="st3" d="M664.9,449.5c0.6,0,1,0.2,1.3,0.5c0.3,0.3,0.5,0.8,0.5,1.4v2.7H666v-2.6c0-0.5-0.1-0.8-0.3-1
	c-0.2-0.2-0.5-0.4-0.9-0.4c-0.4,0-0.7,0.1-1,0.4c-0.2,0.2-0.3,0.6-0.3,1.1v2.5h-0.8v-4.5h0.8v0.6c0.1-0.2,0.3-0.4,0.6-0.5
	C664.3,449.5,664.6,449.5,664.9,449.5z"/>
<path class="st3" d="M669.6,454.2c-0.3,0-0.7-0.1-0.9-0.2c-0.3-0.1-0.5-0.3-0.7-0.5c-0.2-0.2-0.2-0.5-0.3-0.7h0.8
	c0,0.2,0.1,0.4,0.3,0.6c0.2,0.1,0.4,0.2,0.8,0.2c0.3,0,0.5-0.1,0.7-0.2c0.2-0.1,0.2-0.3,0.2-0.5c0-0.2-0.1-0.3-0.3-0.4
	c-0.2-0.1-0.5-0.2-0.8-0.3c-0.3-0.1-0.6-0.2-0.8-0.3c-0.2-0.1-0.4-0.2-0.5-0.4c-0.1-0.2-0.2-0.4-0.2-0.7c0-0.2,0.1-0.4,0.2-0.6
	c0.1-0.2,0.3-0.3,0.6-0.5c0.3-0.1,0.5-0.2,0.9-0.2c0.5,0,0.9,0.1,1.2,0.4c0.3,0.3,0.5,0.6,0.5,1h-0.8c0-0.2-0.1-0.4-0.3-0.6
	c-0.2-0.1-0.4-0.2-0.7-0.2c-0.3,0-0.5,0.1-0.6,0.2c-0.2,0.1-0.2,0.3-0.2,0.5c0,0.1,0,0.3,0.1,0.4c0.1,0.1,0.2,0.2,0.4,0.2
	c0.1,0.1,0.4,0.1,0.6,0.2c0.3,0.1,0.6,0.2,0.8,0.3c0.2,0.1,0.4,0.2,0.5,0.4c0.1,0.2,0.2,0.4,0.2,0.7c0,0.2-0.1,0.5-0.2,0.7
	s-0.3,0.4-0.6,0.5C670.2,454.1,669.9,454.2,669.6,454.2z"/>
<path class="st3" d="M676.5,451.7c0,0.1,0,0.3,0,0.5h-3.6c0,0.4,0.2,0.8,0.5,1.1c0.3,0.2,0.6,0.4,1,0.4c0.3,0,0.6-0.1,0.8-0.2
	c0.2-0.2,0.4-0.4,0.5-0.6h0.8c-0.1,0.4-0.4,0.8-0.7,1.1c-0.4,0.3-0.8,0.4-1.4,0.4c-0.4,0-0.8-0.1-1.2-0.3c-0.3-0.2-0.6-0.5-0.8-0.8
	c-0.2-0.4-0.3-0.8-0.3-1.2c0-0.5,0.1-0.9,0.3-1.2c0.2-0.4,0.5-0.6,0.8-0.8c0.3-0.2,0.7-0.3,1.2-0.3c0.4,0,0.8,0.1,1.1,0.3
	c0.3,0.2,0.6,0.4,0.8,0.8C676.4,450.9,676.5,451.3,676.5,451.7z M675.7,451.5c0-0.3-0.1-0.5-0.2-0.7c-0.1-0.2-0.3-0.4-0.5-0.5
	c-0.2-0.1-0.5-0.2-0.7-0.2c-0.4,0-0.7,0.1-1,0.4c-0.3,0.2-0.4,0.6-0.5,1H675.7z"/>
<path class="st3" d="M677.2,451.8c0-0.5,0.1-0.9,0.3-1.2c0.2-0.4,0.4-0.6,0.8-0.8c0.3-0.2,0.7-0.3,1.2-0.3c0.6,0,1,0.1,1.4,0.4
	c0.4,0.3,0.6,0.6,0.7,1.1h-0.8c-0.1-0.3-0.2-0.5-0.5-0.7c-0.2-0.2-0.5-0.2-0.8-0.2c-0.4,0-0.8,0.1-1,0.4c-0.3,0.3-0.4,0.7-0.4,1.3
	c0,0.5,0.1,1,0.4,1.3c0.3,0.3,0.6,0.4,1,0.4c0.3,0,0.6-0.1,0.8-0.2c0.2-0.2,0.4-0.4,0.5-0.7h0.8c-0.1,0.5-0.4,0.8-0.7,1.1
	c-0.4,0.3-0.8,0.4-1.4,0.4c-0.4,0-0.8-0.1-1.2-0.3c-0.3-0.2-0.6-0.5-0.8-0.8C677.3,452.7,677.2,452.3,677.2,451.8z"/>
<path class="st3" d="M683.4,450.2v2.7c0,0.2,0,0.4,0.1,0.5c0.1,0.1,0.3,0.1,0.5,0.1h0.6v0.6h-0.7c-0.4,0-0.7-0.1-0.9-0.3
	c-0.2-0.2-0.3-0.5-0.3-1v-2.7h-0.6v-0.6h0.6v-1.1h0.8v1.1h1.2v0.6H683.4z"/>
<path class="st3" d="M689.7,451.7c0,0.1,0,0.3,0,0.5H686c0,0.4,0.2,0.8,0.5,1.1c0.3,0.2,0.6,0.4,1,0.4c0.3,0,0.6-0.1,0.8-0.2
	c0.2-0.2,0.4-0.4,0.5-0.6h0.8c-0.1,0.4-0.4,0.8-0.7,1.1c-0.4,0.3-0.8,0.4-1.4,0.4c-0.4,0-0.8-0.1-1.2-0.3c-0.3-0.2-0.6-0.5-0.8-0.8
	c-0.2-0.4-0.3-0.8-0.3-1.2c0-0.5,0.1-0.9,0.3-1.2c0.2-0.4,0.4-0.6,0.8-0.8c0.3-0.2,0.7-0.3,1.2-0.3c0.4,0,0.8,0.1,1.1,0.3
	c0.3,0.2,0.6,0.4,0.8,0.8C689.6,450.9,689.7,451.3,689.7,451.7z M688.9,451.5c0-0.3-0.1-0.5-0.2-0.7c-0.1-0.2-0.3-0.4-0.5-0.5
	c-0.2-0.1-0.5-0.2-0.7-0.2c-0.4,0-0.7,0.1-1,0.4c-0.3,0.2-0.4,0.6-0.5,1H688.9z"/>
<path class="st3" d="M691.6,450.2v2.7c0,0.2,0,0.4,0.1,0.5c0.1,0.1,0.3,0.1,0.5,0.1h0.6v0.6h-0.7c-0.4,0-0.7-0.1-0.9-0.3
	c-0.2-0.2-0.3-0.5-0.3-1v-2.7h-0.6v-0.6h0.6v-1.1h0.8v1.1h1.2v0.6H691.6z"/>
<path class="st3" d="M697.7,449.6v4.5h-0.8v-0.7c-0.1,0.2-0.3,0.4-0.6,0.5c-0.3,0.1-0.5,0.2-0.8,0.2c-0.4,0-0.7-0.1-1-0.2
	c-0.3-0.1-0.5-0.4-0.7-0.7c-0.2-0.3-0.2-0.6-0.2-1.1v-2.7h0.7v2.6c0,0.4,0.1,0.8,0.3,1c0.2,0.2,0.5,0.4,0.9,0.4c0.4,0,0.7-0.1,1-0.4
	c0.2-0.2,0.3-0.6,0.3-1.1v-2.5H697.7z"/>
<path class="st3" d="M703.1,451.7c0,0.1,0,0.3,0,0.5h-3.6c0,0.4,0.2,0.8,0.5,1.1c0.3,0.2,0.6,0.4,1,0.4c0.3,0,0.6-0.1,0.8-0.2
	c0.2-0.2,0.4-0.4,0.5-0.6h0.8c-0.1,0.4-0.4,0.8-0.7,1.1c-0.4,0.3-0.8,0.4-1.4,0.4c-0.4,0-0.8-0.1-1.2-0.3c-0.3-0.2-0.6-0.5-0.8-0.8
	c-0.2-0.4-0.3-0.8-0.3-1.2c0-0.5,0.1-0.9,0.3-1.2c0.2-0.4,0.4-0.6,0.8-0.8c0.3-0.2,0.7-0.3,1.2-0.3c0.4,0,0.8,0.1,1.1,0.3
	c0.3,0.2,0.6,0.4,0.8,0.8C703,450.9,703.1,451.3,703.1,451.7z M702.3,451.5c0-0.3-0.1-0.5-0.2-0.7c-0.1-0.2-0.3-0.4-0.5-0.5
	c-0.2-0.1-0.5-0.2-0.7-0.2c-0.4,0-0.7,0.1-1,0.4c-0.3,0.2-0.4,0.6-0.5,1H702.3z"/>
<path class="st3" d="M704.9,450.3c0.1-0.3,0.3-0.5,0.6-0.6c0.2-0.1,0.5-0.2,0.9-0.2v0.8h-0.2c-0.8,0-1.3,0.5-1.3,1.4v2.5h-0.8v-4.5
	h0.8V450.3z"/>
<path class="st3" d="M619.7,465.1c0-0.5,0.1-0.9,0.3-1.2c0.2-0.4,0.4-0.6,0.8-0.8c0.3-0.2,0.7-0.3,1.1-0.3c0.4,0,0.7,0.1,1,0.3
	c0.3,0.2,0.5,0.4,0.7,0.6v-0.8h0.8v4.5h-0.8v-0.8c-0.1,0.3-0.4,0.5-0.7,0.7c-0.3,0.2-0.6,0.3-1,0.3c-0.4,0-0.8-0.1-1.1-0.3
	c-0.3-0.2-0.6-0.5-0.8-0.8C619.8,465.9,619.7,465.5,619.7,465.1z M623.5,465.1c0-0.3-0.1-0.6-0.2-0.9s-0.3-0.4-0.6-0.6
	c-0.2-0.1-0.5-0.2-0.8-0.2c-0.3,0-0.5,0.1-0.8,0.2c-0.2,0.1-0.4,0.3-0.6,0.6s-0.2,0.6-0.2,0.9c0,0.3,0.1,0.7,0.2,0.9
	c0.1,0.3,0.3,0.5,0.6,0.6c0.2,0.1,0.5,0.2,0.8,0.2c0.3,0,0.5-0.1,0.8-0.2c0.2-0.1,0.4-0.3,0.6-0.6
	C623.4,465.7,623.5,465.4,623.5,465.1z"/>
<path class="st3" d="M625.3,465.1c0-0.5,0.1-0.9,0.3-1.2c0.2-0.4,0.4-0.6,0.8-0.8c0.3-0.2,0.7-0.3,1.1-0.3c0.4,0,0.7,0.1,1,0.2
	c0.3,0.2,0.5,0.4,0.7,0.6v-2.4h0.8v6.1h-0.8v-0.9c-0.1,0.3-0.4,0.5-0.7,0.7c-0.3,0.2-0.6,0.3-1,0.3c-0.4,0-0.8-0.1-1.1-0.3
	c-0.3-0.2-0.6-0.5-0.8-0.8C625.3,465.9,625.3,465.5,625.3,465.1z M629.1,465.1c0-0.3-0.1-0.6-0.2-0.9s-0.3-0.4-0.6-0.6
	c-0.2-0.1-0.5-0.2-0.8-0.2c-0.3,0-0.5,0.1-0.8,0.2c-0.2,0.1-0.4,0.3-0.6,0.6s-0.2,0.6-0.2,0.9c0,0.3,0.1,0.7,0.2,0.9
	c0.1,0.3,0.3,0.5,0.6,0.6c0.2,0.1,0.5,0.2,0.8,0.2c0.3,0,0.5-0.1,0.8-0.2c0.2-0.1,0.4-0.3,0.6-0.6
	C629,465.7,629.1,465.4,629.1,465.1z"/>
<path class="st3" d="M631.5,462.1c-0.1,0-0.3,0-0.4-0.1c-0.1-0.1-0.1-0.2-0.1-0.4c0-0.1,0.1-0.3,0.1-0.4c0.1-0.1,0.2-0.1,0.4-0.1
	c0.1,0,0.3,0.1,0.3,0.1c0.1,0.1,0.1,0.2,0.1,0.4c0,0.1,0,0.3-0.1,0.4C631.8,462,631.7,462.1,631.5,462.1z M631.9,462.8v4.5h-0.8
	v-4.5H631.9z"/>
<path class="st3" d="M633.9,463.7c0.1-0.3,0.4-0.5,0.7-0.6c0.3-0.2,0.6-0.3,1-0.3c0.4,0,0.8,0.1,1.1,0.3c0.3,0.2,0.6,0.5,0.8,0.8
	c0.2,0.3,0.3,0.8,0.3,1.2c0,0.5-0.1,0.9-0.3,1.2c-0.2,0.4-0.4,0.6-0.8,0.8c-0.3,0.2-0.7,0.3-1.1,0.3c-0.4,0-0.7-0.1-1-0.3
	c-0.3-0.2-0.5-0.4-0.7-0.7v3h-0.8v-6.7h0.8V463.7z M637,465.1c0-0.3-0.1-0.6-0.2-0.9s-0.3-0.4-0.6-0.6c-0.2-0.1-0.5-0.2-0.8-0.2
	c-0.3,0-0.5,0.1-0.8,0.2c-0.2,0.1-0.4,0.3-0.6,0.6c-0.1,0.3-0.2,0.5-0.2,0.9c0,0.3,0.1,0.6,0.2,0.9c0.1,0.3,0.3,0.5,0.6,0.6
	c0.2,0.1,0.5,0.2,0.8,0.2c0.3,0,0.5-0.1,0.8-0.2c0.2-0.1,0.4-0.3,0.6-0.6C636.9,465.7,637,465.4,637,465.1z"/>
<path class="st3" d="M639.2,462.1c-0.1,0-0.3,0-0.4-0.1c-0.1-0.1-0.1-0.2-0.1-0.4c0-0.1,0-0.3,0.1-0.4c0.1-0.1,0.2-0.1,0.4-0.1
	c0.1,0,0.3,0.1,0.3,0.1c0.1,0.1,0.1,0.2,0.1,0.4c0,0.1,0,0.3-0.1,0.4C639.4,462,639.3,462.1,639.2,462.1z M639.5,462.8v4.5h-0.8
	v-4.5H639.5z"/>
<path class="st3" d="M642.4,467.4c-0.3,0-0.7-0.1-0.9-0.2c-0.3-0.1-0.5-0.3-0.7-0.5c-0.2-0.2-0.2-0.5-0.3-0.7h0.8
	c0,0.2,0.1,0.4,0.3,0.6c0.2,0.1,0.4,0.2,0.8,0.2c0.3,0,0.5-0.1,0.7-0.2c0.2-0.1,0.2-0.3,0.2-0.5c0-0.2-0.1-0.3-0.3-0.4
	c-0.2-0.1-0.5-0.2-0.8-0.3c-0.3-0.1-0.6-0.2-0.8-0.3c-0.2-0.1-0.4-0.2-0.5-0.4c-0.1-0.2-0.2-0.4-0.2-0.7c0-0.2,0.1-0.4,0.2-0.6
	c0.1-0.2,0.3-0.3,0.6-0.5c0.3-0.1,0.5-0.2,0.9-0.2c0.5,0,0.9,0.1,1.2,0.4c0.3,0.3,0.5,0.6,0.5,1h-0.8c0-0.2-0.1-0.4-0.3-0.6
	c-0.2-0.1-0.4-0.2-0.7-0.2c-0.3,0-0.5,0.1-0.6,0.2c-0.2,0.1-0.2,0.3-0.2,0.5c0,0.1,0,0.3,0.1,0.4c0.1,0.1,0.2,0.2,0.4,0.2
	c0.1,0.1,0.4,0.1,0.6,0.2c0.3,0.1,0.6,0.2,0.8,0.3c0.2,0.1,0.4,0.2,0.5,0.4c0.1,0.2,0.2,0.4,0.2,0.7c0,0.2-0.1,0.5-0.2,0.7
	c-0.1,0.2-0.3,0.4-0.6,0.5C643,467.4,642.7,467.4,642.4,467.4z"/>
<path class="st3" d="M644.8,465.1c0-0.5,0.1-0.9,0.3-1.2c0.2-0.4,0.4-0.6,0.8-0.8c0.3-0.2,0.7-0.3,1.2-0.3c0.6,0,1,0.1,1.4,0.4
	c0.4,0.3,0.6,0.6,0.7,1.1h-0.8c-0.1-0.3-0.2-0.5-0.5-0.7c-0.2-0.2-0.5-0.2-0.8-0.2c-0.4,0-0.8,0.1-1,0.4c-0.3,0.3-0.4,0.7-0.4,1.3
	c0,0.5,0.1,1,0.4,1.3s0.6,0.4,1,0.4c0.3,0,0.6-0.1,0.8-0.2c0.2-0.2,0.4-0.4,0.5-0.7h0.8c-0.1,0.5-0.4,0.8-0.7,1.1
	c-0.4,0.3-0.8,0.4-1.4,0.4c-0.4,0-0.8-0.1-1.2-0.3c-0.3-0.2-0.6-0.5-0.8-0.8C644.9,466,644.8,465.6,644.8,465.1z"/>
<path class="st3" d="M650.5,462.1c-0.1,0-0.3,0-0.4-0.1c-0.1-0.1-0.1-0.2-0.1-0.4c0-0.1,0-0.3,0.1-0.4c0.1-0.1,0.2-0.1,0.4-0.1
	c0.1,0,0.3,0.1,0.3,0.1c0.1,0.1,0.1,0.2,0.1,0.4c0,0.1-0.1,0.3-0.1,0.4C650.8,462,650.7,462.1,650.5,462.1z M650.9,462.8v4.5h-0.8
	v-4.5H650.9z"/>
<path class="st3" d="M654.4,462.7c0.6,0,1,0.2,1.3,0.5c0.3,0.3,0.5,0.8,0.5,1.4v2.7h-0.7v-2.6c0-0.5-0.1-0.8-0.3-1
	c-0.2-0.2-0.5-0.4-0.9-0.4c-0.4,0-0.7,0.1-1,0.4c-0.2,0.2-0.3,0.6-0.3,1.1v2.5h-0.8v-4.5h0.8v0.6c0.1-0.2,0.4-0.4,0.6-0.5
	C653.8,462.8,654.1,462.7,654.4,462.7z"/>
<path class="st3" d="M659.4,462.7c0.4,0,0.7,0.1,1,0.3c0.3,0.2,0.5,0.4,0.7,0.6v-0.8h0.8v4.6c0,0.4-0.1,0.8-0.3,1.1
	c-0.2,0.3-0.4,0.6-0.8,0.8c-0.3,0.2-0.7,0.3-1.1,0.3c-0.6,0-1.1-0.1-1.5-0.4c-0.4-0.3-0.6-0.7-0.7-1.2h0.7c0.1,0.3,0.3,0.5,0.5,0.7
	c0.3,0.2,0.6,0.3,0.9,0.3c0.4,0,0.8-0.1,1-0.4c0.3-0.3,0.4-0.6,0.4-1.1v-1c-0.1,0.3-0.4,0.5-0.7,0.7c-0.3,0.2-0.6,0.3-1,0.3
	c-0.4,0-0.8-0.1-1.1-0.3c-0.3-0.2-0.6-0.5-0.8-0.8c-0.2-0.4-0.3-0.8-0.3-1.2c0-0.5,0.1-0.9,0.3-1.2c0.2-0.4,0.4-0.6,0.8-0.8
	C658.6,462.8,659,462.7,659.4,462.7z M661.1,465.1c0-0.3-0.1-0.6-0.2-0.9s-0.3-0.4-0.6-0.6c-0.2-0.1-0.5-0.2-0.8-0.2
	c-0.3,0-0.5,0.1-0.8,0.2c-0.2,0.1-0.4,0.3-0.6,0.6s-0.2,0.6-0.2,0.9c0,0.3,0.1,0.7,0.2,0.9c0.1,0.3,0.3,0.5,0.6,0.6
	c0.2,0.1,0.5,0.2,0.8,0.2c0.3,0,0.5-0.1,0.8-0.2c0.2-0.1,0.4-0.3,0.6-0.6C661,465.7,661.1,465.4,661.1,465.1z"/>
<path class="st3" d="M669.4,464.9c0,0.1,0,0.3,0,0.5h-3.6c0,0.4,0.2,0.8,0.5,1.1c0.3,0.2,0.6,0.4,1,0.4c0.3,0,0.6-0.1,0.8-0.2
	c0.2-0.2,0.4-0.4,0.5-0.6h0.8c-0.1,0.4-0.4,0.8-0.7,1.1c-0.4,0.3-0.8,0.4-1.4,0.4c-0.4,0-0.8-0.1-1.2-0.3c-0.3-0.2-0.6-0.5-0.8-0.8
	c-0.2-0.4-0.3-0.8-0.3-1.2c0-0.5,0.1-0.9,0.3-1.2c0.2-0.4,0.5-0.6,0.8-0.8c0.3-0.2,0.7-0.3,1.2-0.3c0.4,0,0.8,0.1,1.1,0.3
	c0.3,0.2,0.6,0.4,0.8,0.8C669.3,464.1,669.4,464.5,669.4,464.9z M668.7,464.8c0-0.3-0.1-0.5-0.2-0.7c-0.1-0.2-0.3-0.4-0.5-0.5
	c-0.2-0.1-0.5-0.2-0.7-0.2c-0.4,0-0.7,0.1-1,0.4c-0.3,0.2-0.4,0.6-0.5,1H668.7z"/>
<path class="st3" d="M671.2,461.2v6.1h-0.8v-6.1H671.2z"/>
<path class="st3" d="M672.9,462.1c-0.1,0-0.3,0-0.4-0.1c-0.1-0.1-0.1-0.2-0.1-0.4c0-0.1,0-0.3,0.1-0.4c0.1-0.1,0.2-0.1,0.4-0.1
	c0.1,0,0.3,0.1,0.3,0.1c0.1,0.1,0.1,0.2,0.1,0.4c0,0.1,0,0.3-0.1,0.4C673.1,462,673,462.1,672.9,462.1z M673.2,462.8v4.5h-0.8v-4.5
	H673.2z"/>
<path class="st3" d="M675.4,463.4v2.7c0,0.2,0,0.4,0.1,0.5c0.1,0.1,0.3,0.1,0.5,0.1h0.6v0.6h-0.7c-0.4,0-0.7-0.1-0.9-0.3
	c-0.2-0.2-0.3-0.5-0.3-1v-2.7h-0.6v-0.6h0.6v-1.1h0.8v1.1h1.2v0.6H675.4z"/>
<path class="st3" d="M677.8,467.4c-0.1,0-0.3,0-0.4-0.1c-0.1-0.1-0.1-0.2-0.1-0.4c0-0.1,0.1-0.3,0.1-0.4c0.1-0.1,0.2-0.1,0.4-0.1
	c0.1,0,0.3,0,0.3,0.1c0.1,0.1,0.1,0.2,0.1,0.4c0,0.1,0,0.3-0.1,0.4C678,467.4,677.9,467.4,677.8,467.4z"/>
<path class="st3" d="M684.9,466.1h-2.5l-0.5,1.3h-0.8l2.1-5.7h0.9l2.1,5.7h-0.8L684.9,466.1z M684.7,465.5l-1-2.9l-1,2.9H684.7z"/>
<path class="st3" d="M691.2,464.9c0,0.1,0,0.3,0,0.5h-3.6c0,0.4,0.2,0.8,0.5,1.1c0.3,0.2,0.6,0.4,1,0.4c0.3,0,0.6-0.1,0.8-0.2
	c0.2-0.2,0.4-0.4,0.5-0.6h0.8c-0.1,0.4-0.4,0.8-0.7,1.1c-0.4,0.3-0.8,0.4-1.4,0.4c-0.4,0-0.8-0.1-1.2-0.3c-0.3-0.2-0.6-0.5-0.8-0.8
	c-0.2-0.4-0.3-0.8-0.3-1.2c0-0.5,0.1-0.9,0.3-1.2c0.2-0.4,0.5-0.6,0.8-0.8c0.3-0.2,0.7-0.3,1.2-0.3c0.4,0,0.8,0.1,1.1,0.3
	c0.3,0.2,0.6,0.4,0.8,0.8C691.1,464.1,691.2,464.5,691.2,464.9z M690.4,464.8c0-0.3-0.1-0.5-0.2-0.7c-0.1-0.2-0.3-0.4-0.5-0.5
	c-0.2-0.1-0.5-0.2-0.7-0.2c-0.4,0-0.7,0.1-1,0.4c-0.3,0.2-0.4,0.6-0.5,1H690.4z"/>
<path class="st3" d="M694.4,462.7c0.6,0,1,0.2,1.3,0.5c0.3,0.3,0.5,0.8,0.5,1.4v2.7h-0.7v-2.6c0-0.5-0.1-0.8-0.3-1
	c-0.2-0.2-0.5-0.4-0.9-0.4c-0.4,0-0.7,0.1-1,0.4c-0.2,0.2-0.3,0.6-0.3,1.1v2.5h-0.8v-4.5h0.8v0.6c0.1-0.2,0.4-0.4,0.6-0.5
	C693.8,462.8,694.1,462.7,694.4,462.7z"/>
<path class="st3" d="M701.6,464.9c0,0.1,0,0.3,0,0.5H698c0,0.4,0.2,0.8,0.5,1.1c0.3,0.2,0.6,0.4,1,0.4c0.3,0,0.6-0.1,0.8-0.2
	c0.2-0.2,0.4-0.4,0.5-0.6h0.8c-0.1,0.4-0.4,0.8-0.7,1.1c-0.4,0.3-0.8,0.4-1.4,0.4c-0.4,0-0.8-0.1-1.2-0.3c-0.3-0.2-0.6-0.5-0.8-0.8
	c-0.2-0.4-0.3-0.8-0.3-1.2c0-0.5,0.1-0.9,0.3-1.2s0.5-0.6,0.8-0.8c0.3-0.2,0.7-0.3,1.2-0.3c0.4,0,0.8,0.1,1.1,0.3
	c0.3,0.2,0.6,0.4,0.8,0.8C701.5,464.1,701.6,464.5,701.6,464.9z M700.8,464.8c0-0.3-0.1-0.5-0.2-0.7c-0.1-0.2-0.3-0.4-0.5-0.5
	c-0.2-0.1-0.5-0.2-0.7-0.2c-0.4,0-0.7,0.1-1,0.4c-0.3,0.2-0.4,0.6-0.5,1H700.8z"/>
<path class="st3" d="M702.3,465.1c0-0.5,0.1-0.9,0.3-1.2c0.2-0.4,0.4-0.6,0.8-0.8c0.3-0.2,0.7-0.3,1.1-0.3c0.4,0,0.7,0.1,1,0.3
	c0.3,0.2,0.5,0.4,0.7,0.6v-0.8h0.8v4.5h-0.8v-0.8c-0.1,0.3-0.4,0.5-0.7,0.7c-0.3,0.2-0.6,0.3-1,0.3c-0.4,0-0.8-0.1-1.1-0.3
	c-0.3-0.2-0.6-0.5-0.8-0.8C702.4,465.9,702.3,465.5,702.3,465.1z M706.2,465.1c0-0.3-0.1-0.6-0.2-0.9s-0.3-0.4-0.6-0.6
	c-0.2-0.1-0.5-0.2-0.8-0.2c-0.3,0-0.5,0.1-0.8,0.2c-0.2,0.1-0.4,0.3-0.6,0.6s-0.2,0.6-0.2,0.9c0,0.3,0.1,0.7,0.2,0.9
	c0.1,0.3,0.3,0.5,0.6,0.6c0.2,0.1,0.5,0.2,0.8,0.2c0.3,0,0.5-0.1,0.8-0.2c0.2-0.1,0.4-0.3,0.6-0.6
	C706.1,465.7,706.2,465.4,706.2,465.1z"/>
<path class="st3" d="M710.4,462.7c0.6,0,1,0.2,1.3,0.5c0.3,0.3,0.5,0.8,0.5,1.4v2.7h-0.7v-2.6c0-0.5-0.1-0.8-0.3-1
	c-0.2-0.2-0.5-0.4-0.9-0.4c-0.4,0-0.7,0.1-1,0.4c-0.2,0.2-0.3,0.6-0.3,1.1v2.5h-0.8v-4.5h0.8v0.6c0.1-0.2,0.4-0.4,0.6-0.5
	C709.8,462.8,710.1,462.7,710.4,462.7z"/>
<path class="st3" d="M621.7,478.3c0-0.5,0.1-0.9,0.3-1.2c0.2-0.4,0.4-0.6,0.8-0.8c0.3-0.2,0.7-0.3,1.2-0.3c0.6,0,1,0.1,1.4,0.4
	c0.4,0.3,0.6,0.6,0.7,1.1h-0.8c-0.1-0.3-0.2-0.5-0.5-0.7c-0.2-0.2-0.5-0.2-0.8-0.2c-0.4,0-0.8,0.1-1,0.4c-0.3,0.3-0.4,0.7-0.4,1.3
	c0,0.5,0.1,1,0.4,1.3c0.3,0.3,0.6,0.4,1,0.4c0.3,0,0.6-0.1,0.8-0.2c0.2-0.2,0.4-0.4,0.5-0.7h0.8c-0.1,0.5-0.4,0.8-0.7,1.1
	c-0.4,0.3-0.8,0.4-1.4,0.4c-0.4,0-0.8-0.1-1.2-0.3c-0.3-0.2-0.6-0.5-0.8-0.8C621.8,479.2,621.7,478.8,621.7,478.3z"/>
<path class="st3" d="M629,480.7c-0.4,0-0.8-0.1-1.2-0.3c-0.3-0.2-0.6-0.5-0.8-0.8c-0.2-0.4-0.3-0.8-0.3-1.2c0-0.5,0.1-0.9,0.3-1.2
	c0.2-0.4,0.5-0.6,0.8-0.8c0.3-0.2,0.7-0.3,1.2-0.3c0.4,0,0.8,0.1,1.2,0.3c0.3,0.2,0.6,0.5,0.8,0.8c0.2,0.4,0.3,0.8,0.3,1.2
	s-0.1,0.9-0.3,1.2c-0.2,0.4-0.5,0.6-0.8,0.8S629.4,480.7,629,480.7z M629,480c0.3,0,0.5-0.1,0.8-0.2c0.2-0.1,0.4-0.3,0.6-0.6
	c0.1-0.3,0.2-0.6,0.2-0.9c0-0.4-0.1-0.7-0.2-0.9c-0.1-0.3-0.3-0.4-0.6-0.6c-0.2-0.1-0.5-0.2-0.8-0.2c-0.3,0-0.5,0.1-0.8,0.2
	c-0.2,0.1-0.4,0.3-0.5,0.6s-0.2,0.6-0.2,0.9c0,0.4,0.1,0.7,0.2,0.9c0.1,0.3,0.3,0.4,0.5,0.6C628.5,480,628.7,480,629,480z"/>
<path class="st3" d="M637.8,476c0.4,0,0.7,0.1,0.9,0.2c0.3,0.1,0.5,0.4,0.7,0.7c0.2,0.3,0.2,0.6,0.2,1.1v2.7h-0.7V478
	c0-0.5-0.1-0.8-0.3-1c-0.2-0.2-0.5-0.4-0.9-0.4c-0.4,0-0.7,0.1-0.9,0.4c-0.2,0.2-0.3,0.6-0.3,1.1v2.5h-0.7V478c0-0.5-0.1-0.8-0.3-1
	c-0.2-0.2-0.5-0.4-0.9-0.4c-0.4,0-0.7,0.1-0.9,0.4c-0.2,0.2-0.3,0.6-0.3,1.1v2.5h-0.8v-4.5h0.8v0.7c0.1-0.2,0.3-0.4,0.6-0.5
	c0.3-0.1,0.5-0.2,0.8-0.2c0.4,0,0.7,0.1,1,0.3c0.3,0.2,0.5,0.4,0.7,0.8c0.1-0.3,0.3-0.6,0.6-0.7C637.1,476.1,637.4,476,637.8,476z"
	/>
<path class="st3" d="M646.3,476c0.4,0,0.7,0.1,0.9,0.2c0.3,0.1,0.5,0.4,0.7,0.7c0.2,0.3,0.2,0.6,0.2,1.1v2.7h-0.7V478
	c0-0.5-0.1-0.8-0.3-1c-0.2-0.2-0.5-0.4-0.9-0.4c-0.4,0-0.7,0.1-0.9,0.4c-0.2,0.2-0.3,0.6-0.3,1.1v2.5h-0.7V478c0-0.5-0.1-0.8-0.3-1
	c-0.2-0.2-0.5-0.4-0.9-0.4c-0.4,0-0.7,0.1-0.9,0.4c-0.2,0.2-0.3,0.6-0.3,1.1v2.5h-0.8v-4.5h0.8v0.7c0.1-0.2,0.3-0.4,0.6-0.5
	c0.3-0.1,0.5-0.2,0.8-0.2c0.4,0,0.7,0.1,1,0.3c0.3,0.2,0.5,0.4,0.7,0.8c0.1-0.3,0.3-0.6,0.6-0.7C645.6,476.1,645.9,476,646.3,476z"
	/>
<path class="st3" d="M651.4,480.7c-0.4,0-0.8-0.1-1.2-0.3c-0.3-0.2-0.6-0.5-0.8-0.8c-0.2-0.4-0.3-0.8-0.3-1.2c0-0.5,0.1-0.9,0.3-1.2
	c0.2-0.4,0.5-0.6,0.8-0.8c0.3-0.2,0.7-0.3,1.2-0.3c0.4,0,0.8,0.1,1.2,0.3c0.3,0.2,0.6,0.5,0.8,0.8c0.2,0.4,0.3,0.8,0.3,1.2
	s-0.1,0.9-0.3,1.2c-0.2,0.4-0.5,0.6-0.8,0.8C652.2,480.6,651.8,480.7,651.4,480.7z M651.4,480c0.3,0,0.5-0.1,0.8-0.2
	c0.2-0.1,0.4-0.3,0.6-0.6c0.1-0.3,0.2-0.6,0.2-0.9c0-0.4-0.1-0.7-0.2-0.9c-0.1-0.3-0.3-0.4-0.6-0.6c-0.2-0.1-0.5-0.2-0.8-0.2
	c-0.3,0-0.5,0.1-0.8,0.2c-0.2,0.1-0.4,0.3-0.5,0.6s-0.2,0.6-0.2,0.9c0,0.4,0.1,0.7,0.2,0.9c0.1,0.3,0.3,0.4,0.5,0.6
	C650.8,480,651.1,480,651.4,480z"/>
<path class="st3" d="M654.4,478.3c0-0.5,0.1-0.9,0.3-1.2c0.2-0.4,0.4-0.6,0.8-0.8c0.3-0.2,0.7-0.3,1.1-0.3c0.4,0,0.7,0.1,1,0.2
	c0.3,0.2,0.5,0.4,0.7,0.6v-2.4h0.8v6.1h-0.8v-0.9c-0.1,0.3-0.4,0.5-0.7,0.7c-0.3,0.2-0.6,0.3-1,0.3c-0.4,0-0.8-0.1-1.1-0.3
	c-0.3-0.2-0.6-0.5-0.8-0.8C654.5,479.2,654.4,478.8,654.4,478.3z M658.2,478.3c0-0.3-0.1-0.6-0.2-0.9c-0.1-0.3-0.3-0.4-0.6-0.6
	c-0.2-0.1-0.5-0.2-0.8-0.2c-0.3,0-0.5,0.1-0.8,0.2c-0.2,0.1-0.4,0.3-0.6,0.6s-0.2,0.6-0.2,0.9c0,0.3,0.1,0.7,0.2,0.9
	c0.1,0.3,0.3,0.4,0.6,0.6c0.2,0.1,0.5,0.2,0.8,0.2c0.3,0,0.5-0.1,0.8-0.2c0.2-0.1,0.4-0.3,0.6-0.6
	C658.2,479,658.2,478.7,658.2,478.3z"/>
<path class="st3" d="M662.2,480.7c-0.4,0-0.8-0.1-1.2-0.3c-0.3-0.2-0.6-0.5-0.8-0.8c-0.2-0.4-0.3-0.8-0.3-1.2c0-0.5,0.1-0.9,0.3-1.2
	c0.2-0.4,0.5-0.6,0.8-0.8c0.3-0.2,0.7-0.3,1.2-0.3c0.4,0,0.8,0.1,1.2,0.3c0.3,0.2,0.6,0.5,0.8,0.8c0.2,0.4,0.3,0.8,0.3,1.2
	s-0.1,0.9-0.3,1.2c-0.2,0.4-0.5,0.6-0.8,0.8C663.1,480.6,662.7,480.7,662.2,480.7z M662.2,480c0.3,0,0.5-0.1,0.8-0.2
	c0.2-0.1,0.4-0.3,0.6-0.6c0.1-0.3,0.2-0.6,0.2-0.9c0-0.4-0.1-0.7-0.2-0.9c-0.1-0.3-0.3-0.4-0.6-0.6c-0.2-0.1-0.5-0.2-0.8-0.2
	c-0.3,0-0.5,0.1-0.8,0.2c-0.2,0.1-0.4,0.3-0.5,0.6s-0.2,0.6-0.2,0.9c0,0.4,0.1,0.7,0.2,0.9c0.1,0.3,0.3,0.4,0.5,0.6
	C661.7,480,662,480,662.2,480z"/>
<path class="st3" d="M668.5,474.5v6.1h-0.8v-6.1H668.5z"/>
<path class="st3" d="M670.2,475.3c-0.1,0-0.3,0-0.4-0.1c-0.1-0.1-0.1-0.2-0.1-0.4c0-0.1,0-0.3,0.1-0.4c0.1-0.1,0.2-0.1,0.4-0.1
	c0.1,0,0.3,0,0.3,0.1c0.1,0.1,0.1,0.2,0.1,0.4c0,0.1,0,0.3-0.1,0.4C670.5,475.3,670.3,475.3,670.2,475.3z M670.6,476.1v4.5h-0.8
	v-4.5H670.6z"/>
<path class="st3" d="M673.7,476c0.4,0,0.7,0.1,1,0.3c0.3,0.2,0.5,0.4,0.7,0.6v-0.8h0.8v4.6c0,0.4-0.1,0.8-0.3,1.1
	c-0.2,0.3-0.4,0.6-0.8,0.8c-0.3,0.2-0.7,0.3-1.1,0.3c-0.6,0-1.1-0.1-1.5-0.4c-0.4-0.3-0.6-0.7-0.7-1.2h0.7c0.1,0.3,0.3,0.5,0.5,0.7
	c0.3,0.2,0.6,0.3,0.9,0.3c0.4,0,0.8-0.1,1-0.4c0.3-0.3,0.4-0.6,0.4-1.1v-1c-0.1,0.3-0.4,0.5-0.7,0.7c-0.3,0.2-0.6,0.3-1,0.3
	c-0.4,0-0.8-0.1-1.1-0.3c-0.3-0.2-0.6-0.5-0.8-0.8c-0.2-0.4-0.3-0.8-0.3-1.2c0-0.5,0.1-0.9,0.3-1.2c0.2-0.4,0.4-0.6,0.8-0.8
	C672.9,476.1,673.3,476,673.7,476z M675.4,478.3c0-0.3-0.1-0.6-0.2-0.9c-0.1-0.3-0.3-0.4-0.6-0.6c-0.2-0.1-0.5-0.2-0.8-0.2
	c-0.3,0-0.5,0.1-0.8,0.2c-0.2,0.1-0.4,0.3-0.6,0.6s-0.2,0.6-0.2,0.9c0,0.3,0.1,0.7,0.2,0.9c0.1,0.3,0.3,0.4,0.6,0.6
	c0.2,0.1,0.5,0.2,0.8,0.2c0.3,0,0.5-0.1,0.8-0.2c0.2-0.1,0.4-0.3,0.6-0.6C675.3,479,675.4,478.7,675.4,478.3z"/>
<path class="st3" d="M681.5,476.1v4.5h-0.8v-0.7c-0.1,0.2-0.3,0.4-0.6,0.5c-0.3,0.1-0.5,0.2-0.8,0.2c-0.4,0-0.7-0.1-1-0.2
	c-0.3-0.1-0.5-0.4-0.7-0.7c-0.2-0.3-0.2-0.6-0.2-1.1v-2.7h0.7v2.6c0,0.4,0.1,0.8,0.3,1c0.2,0.2,0.5,0.4,0.9,0.4c0.4,0,0.7-0.1,1-0.4
	c0.2-0.2,0.3-0.6,0.3-1.1v-2.5H681.5z"/>
<path class="st3" d="M683.5,474.5v6.1h-0.8v-6.1H683.5z"/>
<path class="st3" d="M684.5,478.3c0-0.5,0.1-0.9,0.3-1.2c0.2-0.4,0.4-0.6,0.8-0.8c0.3-0.2,0.7-0.3,1.1-0.3c0.4,0,0.7,0.1,1,0.3
	c0.3,0.2,0.5,0.4,0.7,0.6v-0.8h0.8v4.5h-0.8v-0.8c-0.1,0.3-0.4,0.5-0.7,0.7c-0.3,0.2-0.6,0.3-1,0.3c-0.4,0-0.8-0.1-1.1-0.3
	c-0.3-0.2-0.6-0.5-0.8-0.8C684.6,479.2,684.5,478.8,684.5,478.3z M688.3,478.3c0-0.3-0.1-0.6-0.2-0.9c-0.1-0.3-0.3-0.4-0.6-0.6
	c-0.2-0.1-0.5-0.2-0.8-0.2c-0.3,0-0.5,0.1-0.8,0.2c-0.2,0.1-0.4,0.3-0.6,0.6s-0.2,0.6-0.2,0.9c0,0.3,0.1,0.7,0.2,0.9
	c0.1,0.3,0.3,0.4,0.6,0.6c0.2,0.1,0.5,0.2,0.8,0.2c0.3,0,0.5-0.1,0.8-0.2c0.2-0.1,0.4-0.3,0.6-0.6
	C688.3,479,688.3,478.7,688.3,478.3z"/>
<path class="st3" d="M696.7,478.2c0,0.1,0,0.3,0,0.5h-3.6c0,0.4,0.2,0.8,0.5,1.1c0.3,0.2,0.6,0.4,1,0.4c0.3,0,0.6-0.1,0.8-0.2
	c0.2-0.2,0.4-0.4,0.5-0.6h0.8c-0.1,0.4-0.4,0.8-0.7,1.1c-0.4,0.3-0.8,0.4-1.4,0.4c-0.4,0-0.8-0.1-1.2-0.3c-0.3-0.2-0.6-0.5-0.8-0.8
	c-0.2-0.4-0.3-0.8-0.3-1.2s0.1-0.9,0.3-1.2c0.2-0.4,0.5-0.6,0.8-0.8c0.3-0.2,0.7-0.3,1.2-0.3c0.4,0,0.8,0.1,1.1,0.3
	c0.3,0.2,0.6,0.4,0.8,0.8C696.6,477.4,696.7,477.7,696.7,478.2z M695.9,478c0-0.3-0.1-0.5-0.2-0.7c-0.1-0.2-0.3-0.4-0.5-0.5
	c-0.2-0.1-0.5-0.2-0.7-0.2c-0.4,0-0.7,0.1-1,0.4c-0.3,0.2-0.4,0.6-0.5,1H695.9z"/>
<path class="st3" d="M699.6,476c0.4,0,0.7,0.1,1,0.3c0.3,0.2,0.5,0.4,0.7,0.6v-0.8h0.8v4.6c0,0.4-0.1,0.8-0.3,1.1
	c-0.2,0.3-0.4,0.6-0.8,0.8c-0.3,0.2-0.7,0.3-1.1,0.3c-0.6,0-1.1-0.1-1.5-0.4c-0.4-0.3-0.6-0.7-0.7-1.2h0.7c0.1,0.3,0.3,0.5,0.5,0.7
	c0.3,0.2,0.6,0.3,0.9,0.3c0.4,0,0.8-0.1,1-0.4c0.3-0.3,0.4-0.6,0.4-1.1v-1c-0.1,0.3-0.4,0.5-0.7,0.7c-0.3,0.2-0.6,0.3-1,0.3
	c-0.4,0-0.8-0.1-1.1-0.3c-0.3-0.2-0.6-0.5-0.8-0.8c-0.2-0.4-0.3-0.8-0.3-1.2c0-0.5,0.1-0.9,0.3-1.2c0.2-0.4,0.4-0.6,0.8-0.8
	C698.8,476.1,699.2,476,699.6,476z M701.3,478.3c0-0.3-0.1-0.6-0.2-0.9c-0.1-0.3-0.3-0.4-0.6-0.6c-0.2-0.1-0.5-0.2-0.8-0.2
	c-0.3,0-0.5,0.1-0.8,0.2c-0.2,0.1-0.4,0.3-0.6,0.6s-0.2,0.6-0.2,0.9c0,0.3,0.1,0.7,0.2,0.9c0.1,0.3,0.3,0.4,0.6,0.6
	c0.2,0.1,0.5,0.2,0.8,0.2c0.3,0,0.5-0.1,0.8-0.2c0.2-0.1,0.4-0.3,0.6-0.6C701.2,479,701.3,478.7,701.3,478.3z"/>
<path class="st3" d="M707.5,478.2c0,0.1,0,0.3,0,0.5h-3.6c0,0.4,0.2,0.8,0.5,1.1c0.3,0.2,0.6,0.4,1,0.4c0.3,0,0.6-0.1,0.8-0.2
	c0.2-0.2,0.4-0.4,0.5-0.6h0.8c-0.1,0.4-0.4,0.8-0.7,1.1c-0.4,0.3-0.8,0.4-1.4,0.4c-0.4,0-0.8-0.1-1.2-0.3c-0.3-0.2-0.6-0.5-0.8-0.8
	c-0.2-0.4-0.3-0.8-0.3-1.2s0.1-0.9,0.3-1.2c0.2-0.4,0.5-0.6,0.8-0.8c0.3-0.2,0.7-0.3,1.2-0.3c0.4,0,0.8,0.1,1.1,0.3
	c0.3,0.2,0.6,0.4,0.8,0.8C707.4,477.4,707.5,477.7,707.5,478.2z M706.7,478c0-0.3-0.1-0.5-0.2-0.7c-0.1-0.2-0.3-0.4-0.5-0.5
	c-0.2-0.1-0.5-0.2-0.7-0.2c-0.4,0-0.7,0.1-1,0.4c-0.3,0.2-0.4,0.6-0.5,1H706.7z"/>
<path class="st3" d="M709.4,476.7v2.7c0,0.2,0,0.4,0.1,0.5c0.1,0.1,0.3,0.1,0.5,0.1h0.6v0.6h-0.7c-0.4,0-0.7-0.1-0.9-0.3
	c-0.2-0.2-0.3-0.5-0.3-1v-2.7H708v-0.6h0.6v-1.1h0.8v1.1h1.2v0.6H709.4z"/>
<path class="st3" d="M654.9,491.6c0-0.5,0.1-0.9,0.3-1.2c0.2-0.4,0.4-0.6,0.8-0.8c0.3-0.2,0.7-0.3,1.1-0.3c0.4,0,0.7,0.1,1,0.2
	c0.3,0.2,0.5,0.4,0.7,0.6v-2.4h0.8v6.1h-0.8V493c-0.1,0.3-0.4,0.5-0.7,0.7c-0.3,0.2-0.6,0.3-1,0.3c-0.4,0-0.8-0.1-1.1-0.3
	c-0.3-0.2-0.6-0.5-0.8-0.8S654.9,492,654.9,491.6z M658.8,491.6c0-0.3-0.1-0.6-0.2-0.9c-0.1-0.3-0.3-0.4-0.6-0.6
	c-0.2-0.1-0.5-0.2-0.8-0.2c-0.3,0-0.5,0.1-0.8,0.2c-0.2,0.1-0.4,0.3-0.6,0.6s-0.2,0.6-0.2,0.9c0,0.3,0.1,0.7,0.2,0.9
	c0.1,0.3,0.3,0.5,0.6,0.6c0.2,0.1,0.5,0.2,0.8,0.2c0.3,0,0.5-0.1,0.8-0.2c0.2-0.1,0.4-0.3,0.6-0.6
	C658.7,492.2,658.8,491.9,658.8,491.6z"/>
<path class="st3" d="M662.8,493.9c-0.4,0-0.8-0.1-1.2-0.3c-0.3-0.2-0.6-0.5-0.8-0.8c-0.2-0.4-0.3-0.8-0.3-1.2c0-0.5,0.1-0.9,0.3-1.2
	c0.2-0.4,0.5-0.6,0.8-0.8c0.3-0.2,0.7-0.3,1.2-0.3c0.4,0,0.8,0.1,1.2,0.3c0.3,0.2,0.6,0.5,0.8,0.8c0.2,0.4,0.3,0.8,0.3,1.2
	c0,0.5-0.1,0.9-0.3,1.2c-0.2,0.4-0.5,0.6-0.8,0.8C663.6,493.8,663.2,493.9,662.8,493.9z M662.8,493.3c0.3,0,0.5-0.1,0.8-0.2
	c0.2-0.1,0.4-0.3,0.6-0.6c0.1-0.3,0.2-0.6,0.2-0.9c0-0.4-0.1-0.7-0.2-0.9c-0.1-0.3-0.3-0.4-0.6-0.6c-0.2-0.1-0.5-0.2-0.8-0.2
	c-0.3,0-0.5,0.1-0.8,0.2c-0.2,0.1-0.4,0.3-0.5,0.6c-0.1,0.3-0.2,0.6-0.2,0.9c0,0.4,0.1,0.7,0.2,0.9c0.1,0.3,0.3,0.4,0.5,0.6
	C662.3,493.2,662.5,493.3,662.8,493.3z"/>
<path class="st3" d="M666.8,487.7v6.1h-0.8v-6.1H666.8z"/>
<path class="st3" d="M670.1,493.9c-0.4,0-0.8-0.1-1.2-0.3c-0.3-0.2-0.6-0.5-0.8-0.8c-0.2-0.4-0.3-0.8-0.3-1.2c0-0.5,0.1-0.9,0.3-1.2
	c0.2-0.4,0.5-0.6,0.8-0.8c0.3-0.2,0.7-0.3,1.2-0.3c0.4,0,0.8,0.1,1.2,0.3c0.3,0.2,0.6,0.5,0.8,0.8c0.2,0.4,0.3,0.8,0.3,1.2
	c0,0.5-0.1,0.9-0.3,1.2c-0.2,0.4-0.5,0.6-0.8,0.8C670.9,493.8,670.5,493.9,670.1,493.9z M670.1,493.3c0.3,0,0.5-0.1,0.8-0.2
	c0.2-0.1,0.4-0.3,0.6-0.6c0.1-0.3,0.2-0.6,0.2-0.9c0-0.4-0.1-0.7-0.2-0.9c-0.1-0.3-0.3-0.4-0.6-0.6c-0.2-0.1-0.5-0.2-0.8-0.2
	c-0.3,0-0.5,0.1-0.8,0.2c-0.2,0.1-0.4,0.3-0.5,0.6c-0.1,0.3-0.2,0.6-0.2,0.9c0,0.4,0.1,0.7,0.2,0.9c0.1,0.3,0.3,0.4,0.5,0.6
	C669.6,493.2,669.8,493.3,670.1,493.3z"/>
<path class="st3" d="M674.2,490.1c0.1-0.3,0.3-0.5,0.6-0.6c0.2-0.1,0.5-0.2,0.9-0.2v0.8h-0.2c-0.8,0-1.3,0.5-1.3,1.4v2.5h-0.8v-4.5
	h0.8V490.1z"/>
<path class="st3" d="M676.8,493.9c-0.1,0-0.3-0.1-0.4-0.1c-0.1-0.1-0.1-0.2-0.1-0.4c0-0.1,0-0.3,0.1-0.4c0.1-0.1,0.2-0.1,0.4-0.1
	c0.1,0,0.3,0,0.3,0.1c0.1,0.1,0.1,0.2,0.1,0.4c0,0.1,0,0.3-0.1,0.4C677,493.9,676.9,493.9,676.8,493.9z"/>
<g class="st12">
	
		<linearGradient id="SVGID_8_" gradientUnits="userSpaceOnUse" x1="42.1453" y1="172.2184" x2="170.0005" y2="1.7454" gradientTransform="matrix(1 0 0 -1 0 526)">
		<stop  offset="0" style="stop-color:#4974FF"/>
		<stop  offset="1" style="stop-color:#C860ED"/>
	</linearGradient>
	
		<linearGradient id="SVGID_9_" gradientUnits="userSpaceOnUse" x1="34.3152" y1="86.963" x2="177.766" y2="86.963" gradientTransform="matrix(1 0 0 -1 0 526)">
		<stop  offset="0" style="stop-color:#FFFFFF;stop-opacity:0.4"/>
		<stop  offset="1" style="stop-color:#FFFFFF;stop-opacity:0.2"/>
	</linearGradient>
	<path class="st13" d="M46.6,358.9h119.1c6.3,0,11.4,4.3,11.4,9.6v141.1c0,5.3-5.1,9.6-11.4,9.6H46.6c-6.3,0-11.4-4.3-11.4-9.6
		V368.5C35.1,363.2,40.3,358.9,46.6,358.9z"/>
</g>
<path class="st3" d="M68.1,433.6v10.6H66v-10.6H68.1z"/>
<path class="st3" d="M74.9,435.6c1,0,1.8,0.3,2.4,1c0.6,0.6,0.9,1.5,0.9,2.6v4.9h-2.1v-4.6c0-0.7-0.2-1.2-0.5-1.5
	c-0.3-0.4-0.8-0.5-1.4-0.5c-0.6,0-1.1,0.2-1.4,0.5c-0.3,0.4-0.5,0.9-0.5,1.5v4.6h-2.1v-8.4h2.1v1c0.3-0.4,0.6-0.6,1.1-0.9
	C73.9,435.7,74.3,435.6,74.9,435.6z"/>
<path class="st3" d="M83.5,444.3c-0.7,0-1.3-0.1-1.9-0.4c-0.5-0.3-1-0.6-1.3-1c-0.3-0.4-0.5-0.9-0.5-1.4h2.1c0,0.3,0.2,0.6,0.5,0.8
	c0.3,0.2,0.6,0.3,1,0.3c0.4,0,0.7-0.1,0.9-0.2c0.2-0.2,0.3-0.4,0.3-0.6c0-0.3-0.1-0.5-0.4-0.6c-0.3-0.1-0.7-0.3-1.3-0.5
	c-0.6-0.2-1.1-0.3-1.5-0.5c-0.4-0.2-0.7-0.4-1-0.7c-0.3-0.3-0.4-0.8-0.4-1.4c0-0.5,0.1-0.9,0.4-1.3c0.3-0.4,0.7-0.7,1.2-0.9
	c0.5-0.2,1.1-0.3,1.8-0.3c1,0,1.8,0.3,2.4,0.8c0.6,0.5,0.9,1.2,1,2h-2c0-0.3-0.2-0.6-0.4-0.8c-0.2-0.2-0.6-0.3-1-0.3
	c-0.4,0-0.7,0.1-0.9,0.2c-0.2,0.1-0.3,0.3-0.3,0.6c0,0.3,0.1,0.5,0.4,0.7c0.3,0.1,0.7,0.3,1.3,0.4c0.6,0.2,1.1,0.3,1.5,0.5
	c0.4,0.2,0.7,0.4,1,0.8c0.3,0.3,0.4,0.8,0.5,1.3c0,0.5-0.1,0.9-0.4,1.3c-0.3,0.4-0.6,0.7-1.2,0.9C84.7,444.2,84.1,444.3,83.5,444.3z
	"/>
<path class="st3" d="M96.3,439.8c0,0.3,0,0.6-0.1,0.8h-6.2c0.1,0.6,0.3,1.1,0.6,1.4c0.4,0.3,0.8,0.5,1.4,0.5c0.8,0,1.4-0.3,1.7-1
	h2.3c-0.2,0.8-0.7,1.5-1.4,2c-0.7,0.5-1.5,0.8-2.5,0.8c-0.8,0-1.5-0.2-2.2-0.5c-0.6-0.4-1.1-0.9-1.5-1.5c-0.4-0.7-0.5-1.4-0.5-2.3
	c0-0.9,0.2-1.6,0.5-2.3c0.4-0.7,0.9-1.2,1.5-1.5c0.6-0.4,1.4-0.5,2.2-0.5c0.8,0,1.5,0.2,2.1,0.5c0.6,0.3,1.1,0.8,1.5,1.5
	C96.2,438.2,96.3,439,96.3,439.8z M94.1,439.2c0-0.5-0.2-1-0.6-1.3c-0.4-0.3-0.9-0.5-1.4-0.5c-0.5,0-1,0.2-1.3,0.5
	c-0.4,0.3-0.6,0.8-0.7,1.3H94.1z"/>
<path class="st3" d="M100,437.1c0.3-0.4,0.6-0.8,1.1-1c0.4-0.3,1-0.4,1.5-0.4v2.2H102c-0.7,0-1.2,0.2-1.5,0.5
	c-0.3,0.3-0.5,0.9-0.5,1.6v4.2h-2.1v-8.4h2.1V437.1z"/>
<path class="st3" d="M106.5,437.5v4.1c0,0.3,0.1,0.5,0.2,0.6c0.1,0.1,0.4,0.2,0.7,0.2h1v1.8h-1.3c-1.8,0-2.7-0.9-2.7-2.6v-4.1h-1
	v-1.7h1v-2.1h2.1v2.1h1.9v1.7H106.5z"/>
<path class="st3" d="M120.8,433.6v1.7h-2.8v8.9h-2.1v-8.9H113v-1.7H120.8z"/>
<path class="st3" d="M123.4,434.8c-0.4,0-0.7-0.1-0.9-0.4c-0.2-0.2-0.4-0.5-0.4-0.9c0-0.4,0.1-0.6,0.4-0.9c0.3-0.2,0.6-0.4,0.9-0.4
	c0.4,0,0.7,0.1,0.9,0.4c0.3,0.2,0.4,0.5,0.4,0.9c0,0.4-0.1,0.7-0.4,0.9C124.1,434.6,123.8,434.8,123.4,434.8z M124.4,435.8v8.4h-2.1
	v-8.4H124.4z"/>
<path class="st3" d="M129,437.5v4.1c0,0.3,0.1,0.5,0.2,0.6c0.1,0.1,0.4,0.2,0.7,0.2h1v1.8h-1.3c-1.8,0-2.7-0.9-2.7-2.6v-4.1h-1v-1.7
	h1v-2.1h2.1v2.1h1.9v1.7H129z"/>
<path class="st3" d="M134.6,432.9v11.2h-2.1v-11.2H134.6z"/>
<path class="st3" d="M144.5,439.8c0,0.3,0,0.6-0.1,0.8h-6.2c0,0.6,0.3,1.1,0.6,1.4c0.4,0.3,0.8,0.5,1.4,0.5c0.8,0,1.4-0.3,1.7-1h2.3
	c-0.2,0.8-0.7,1.5-1.4,2c-0.7,0.5-1.5,0.8-2.5,0.8c-0.8,0-1.5-0.2-2.2-0.5c-0.6-0.4-1.1-0.9-1.5-1.5c-0.4-0.7-0.5-1.4-0.5-2.3
	c0-0.9,0.2-1.6,0.5-2.3c0.4-0.7,0.8-1.2,1.5-1.5c0.6-0.4,1.4-0.5,2.2-0.5c0.8,0,1.5,0.2,2.1,0.5c0.6,0.3,1.1,0.8,1.5,1.5
	C144.3,438.2,144.5,439,144.5,439.8z M142.3,439.2c0-0.5-0.2-1-0.6-1.3c-0.4-0.3-0.9-0.5-1.4-0.5c-0.5,0-1,0.2-1.3,0.5
	c-0.4,0.3-0.6,0.8-0.7,1.3H142.3z"/>
<path class="st3" d="M87.7,392.9c-1.5-0.8-2.3-2-2.3-3.7c0-0.8,0.2-1.6,0.6-2.3c0.4-0.7,1.1-1.2,1.9-1.6c0.9-0.4,1.9-0.6,3.2-0.6
	s2.3,0.2,3.1,0.6c0.9,0.4,1.5,1,1.9,1.6c0.4,0.7,0.6,1.4,0.6,2.3c0,0.8-0.2,1.6-0.6,2.2c-0.4,0.6-1,1.1-1.7,1.5
	c0.8,0.4,1.5,0.9,2,1.6c0.5,0.7,0.7,1.6,0.7,2.5c0,1-0.3,2-0.8,2.8c-0.5,0.8-1.3,1.4-2.2,1.8c-0.9,0.4-2,0.6-3.1,0.6
	c-1.2,0-2.2-0.2-3.1-0.6c-0.9-0.4-1.6-1-2.2-1.8c-0.5-0.8-0.8-1.7-0.8-2.8c0-1,0.2-1.8,0.7-2.5C86.2,393.8,86.9,393.3,87.7,392.9z
	 M93.6,389.6c0-0.8-0.2-1.3-0.7-1.8c-0.4-0.4-1.1-0.6-1.9-0.6c-0.8,0-1.4,0.2-1.9,0.6c-0.4,0.4-0.7,1-0.7,1.8c0,0.7,0.2,1.3,0.7,1.7
	c0.5,0.4,1.1,0.6,1.8,0.6s1.4-0.2,1.8-0.6C93.4,390.9,93.6,390.3,93.6,389.6z M91.1,394.3c-0.9,0-1.6,0.2-2.2,0.7
	c-0.5,0.4-0.8,1.1-0.8,1.9c0,0.8,0.3,1.4,0.8,1.9c0.5,0.5,1.3,0.7,2.2,0.7s1.6-0.2,2.2-0.7c0.5-0.5,0.8-1.1,0.8-1.9
	c0-0.8-0.3-1.5-0.8-1.9C92.7,394.5,92,394.3,91.1,394.3z"/>
<path class="st3" d="M110.5,387.4l-6.2,14.4h-3.3l6.2-14.1h-7.9V385h11.2V387.4z"/>
<path class="st3" d="M112.1,389.1c0-1.2,0.3-2.1,1-2.8c0.7-0.7,1.6-1,2.7-1c1.1,0,2,0.3,2.6,1c0.7,0.7,1,1.6,1,2.8
	c0,1.2-0.3,2.1-1,2.8c-0.7,0.7-1.6,1-2.6,1c-1.1,0-2-0.3-2.7-1C112.4,391.2,112.1,390.3,112.1,389.1z M127,385.6l-9.1,16.2h-3.2
	l9.1-16.2H127z M115.8,387.3c-0.8,0-1.3,0.6-1.3,1.8c0,1.2,0.4,1.8,1.3,1.8c0.4,0,0.7-0.1,1-0.4c0.2-0.3,0.3-0.8,0.3-1.4
	C117.1,387.9,116.6,387.3,115.8,387.3z M122.3,398.3c0-1.2,0.3-2.1,1-2.8c0.7-0.7,1.6-1,2.7-1c1.1,0,2,0.3,2.6,1
	c0.7,0.6,1,1.6,1,2.8c0,1.2-0.3,2.1-1,2.8c-0.7,0.7-1.5,1-2.6,1c-1.1,0-2-0.3-2.7-1S122.3,399.5,122.3,398.3z M125.9,396.5
	c-0.9,0-1.3,0.6-1.3,1.8c0,1.2,0.4,1.8,1.3,1.8c0.9,0,1.3-0.6,1.3-1.8C127.2,397.1,126.8,396.5,125.9,396.5z"/>
<path class="st3" d="M62,470.2h1.6v0.5h-2.2v-4.6H62V470.2z"/>
<path class="st3" d="M65.8,470.7c-0.3,0-0.6-0.1-0.9-0.2c-0.3-0.2-0.5-0.4-0.6-0.7c-0.2-0.3-0.2-0.6-0.2-1c0-0.4,0.1-0.7,0.2-1
	c0.2-0.3,0.4-0.5,0.7-0.7c0.3-0.2,0.6-0.2,0.9-0.2c0.3,0,0.7,0.1,0.9,0.2c0.3,0.2,0.5,0.4,0.7,0.6c0.2,0.3,0.2,0.6,0.2,1
	c0,0.4-0.1,0.7-0.3,1c-0.2,0.3-0.4,0.5-0.7,0.7C66.5,470.7,66.2,470.7,65.8,470.7z M65.8,470.2c0.2,0,0.4-0.1,0.6-0.2
	c0.2-0.1,0.3-0.3,0.5-0.5c0.1-0.2,0.2-0.5,0.2-0.7c0-0.3-0.1-0.5-0.2-0.7c-0.1-0.2-0.3-0.4-0.5-0.5c-0.2-0.1-0.4-0.2-0.6-0.2
	c-0.2,0-0.4,0.1-0.6,0.2c-0.2,0.1-0.3,0.2-0.4,0.5s-0.2,0.4-0.2,0.7c0,0.3,0.1,0.5,0.2,0.7c0.1,0.2,0.3,0.4,0.4,0.5
	C65.4,470.1,65.6,470.2,65.8,470.2z"/>
<path class="st3" d="M69.1,467.6c0.1-0.2,0.3-0.4,0.5-0.5c0.2-0.1,0.4-0.2,0.7-0.2v0.6h-0.2c-0.7,0-1,0.4-1,1.1v2h-0.6V467h0.6
	V467.6z"/>
<path class="st3" d="M74.3,468.7c0,0.1,0,0.2,0,0.4h-2.9c0,0.4,0.1,0.6,0.4,0.8c0.2,0.2,0.5,0.3,0.8,0.3c0.3,0,0.5-0.1,0.6-0.2
	c0.2-0.1,0.3-0.3,0.4-0.5h0.6c-0.1,0.3-0.3,0.6-0.6,0.9c-0.3,0.2-0.7,0.3-1.1,0.3c-0.3,0-0.7-0.1-0.9-0.2c-0.3-0.2-0.5-0.4-0.6-0.7
	c-0.2-0.3-0.2-0.6-0.2-1c0-0.4,0.1-0.7,0.2-1c0.2-0.3,0.4-0.5,0.6-0.6c0.3-0.2,0.6-0.2,0.9-0.2c0.3,0,0.6,0.1,0.9,0.2
	c0.3,0.1,0.5,0.4,0.6,0.6C74.2,468.1,74.3,468.4,74.3,468.7z M73.7,468.6c0-0.2-0.1-0.4-0.2-0.6c-0.1-0.2-0.2-0.3-0.4-0.4
	c-0.2-0.1-0.4-0.1-0.6-0.1c-0.3,0-0.6,0.1-0.8,0.3c-0.2,0.2-0.3,0.5-0.4,0.8H73.7z"/>
<path class="st3" d="M79.4,467c0.3,0,0.5,0.1,0.8,0.2c0.2,0.1,0.4,0.3,0.5,0.5c0.1,0.2,0.2,0.5,0.2,0.9v2.1h-0.6v-2.1
	c0-0.4-0.1-0.6-0.3-0.8c-0.2-0.2-0.4-0.3-0.7-0.3c-0.3,0-0.6,0.1-0.7,0.3c-0.2,0.2-0.3,0.5-0.3,0.9v2h-0.6v-2.1
	c0-0.4-0.1-0.6-0.3-0.8c-0.2-0.2-0.4-0.3-0.7-0.3c-0.3,0-0.6,0.1-0.7,0.3c-0.2,0.2-0.3,0.5-0.3,0.9v2h-0.6V467h0.6v0.5
	c0.1-0.2,0.3-0.3,0.5-0.4c0.2-0.1,0.4-0.2,0.7-0.2c0.3,0,0.6,0.1,0.8,0.2c0.2,0.1,0.4,0.3,0.5,0.6c0.1-0.3,0.3-0.5,0.5-0.6
	C78.9,467,79.2,467,79.4,467z"/>
<path class="st3" d="M84,466.4c-0.1,0-0.2,0-0.3-0.1c-0.1-0.1-0.1-0.2-0.1-0.3c0-0.1,0-0.2,0.1-0.3c0.1-0.1,0.2-0.1,0.3-0.1
	c0.1,0,0.2,0,0.3,0.1c0.1,0.1,0.1,0.2,0.1,0.3c0,0.1,0,0.2-0.1,0.3C84.2,466.4,84.1,466.4,84,466.4z M84.3,467v3.6h-0.6V467H84.3z"
	/>
<path class="st3" d="M85.9,467.7c0.1-0.2,0.3-0.4,0.5-0.5c0.2-0.1,0.5-0.2,0.8-0.2c0.3,0,0.6,0.1,0.9,0.2c0.3,0.2,0.5,0.4,0.6,0.7
	c0.2,0.3,0.2,0.6,0.2,1c0,0.4-0.1,0.7-0.2,1c-0.2,0.3-0.4,0.5-0.6,0.7c-0.3,0.2-0.6,0.2-0.9,0.2c-0.3,0-0.6-0.1-0.8-0.2
	c-0.2-0.1-0.4-0.3-0.5-0.5v2.4h-0.6V467h0.6V467.7z M88.4,468.8c0-0.3-0.1-0.5-0.2-0.7c-0.1-0.2-0.3-0.4-0.5-0.5
	c-0.2-0.1-0.4-0.2-0.6-0.2c-0.2,0-0.4,0.1-0.6,0.2c-0.2,0.1-0.3,0.3-0.5,0.5c-0.1,0.2-0.2,0.4-0.2,0.7c0,0.3,0.1,0.5,0.2,0.7
	c0.1,0.2,0.3,0.4,0.5,0.5c0.2,0.1,0.4,0.2,0.6,0.2c0.2,0,0.4-0.1,0.6-0.2c0.2-0.1,0.3-0.3,0.5-0.5C88.3,469.4,88.4,469.1,88.4,468.8
	z"/>
<path class="st3" d="M91.1,470.7c-0.3,0-0.5,0-0.7-0.1c-0.2-0.1-0.4-0.2-0.5-0.4c-0.1-0.2-0.2-0.4-0.2-0.6h0.6
	c0,0.2,0.1,0.3,0.3,0.4c0.2,0.1,0.4,0.2,0.6,0.2c0.2,0,0.4-0.1,0.5-0.2c0.1-0.1,0.2-0.2,0.2-0.4c0-0.2-0.1-0.3-0.2-0.4
	c-0.1-0.1-0.4-0.2-0.7-0.2c-0.3-0.1-0.5-0.1-0.7-0.2c-0.2-0.1-0.3-0.2-0.4-0.3c-0.1-0.1-0.2-0.3-0.2-0.6c0-0.2,0.1-0.4,0.2-0.5
	s0.3-0.3,0.5-0.4c0.2-0.1,0.4-0.1,0.7-0.1c0.4,0,0.7,0.1,1,0.3s0.4,0.5,0.4,0.8h-0.6c0-0.2-0.1-0.3-0.2-0.5
	c-0.1-0.1-0.3-0.2-0.6-0.2c-0.2,0-0.4,0-0.5,0.1c-0.1,0.1-0.2,0.2-0.2,0.4c0,0.1,0,0.2,0.1,0.3c0.1,0.1,0.2,0.1,0.3,0.2
	c0.1,0,0.3,0.1,0.5,0.2c0.3,0.1,0.5,0.1,0.6,0.2c0.2,0.1,0.3,0.2,0.4,0.3c0.1,0.1,0.2,0.3,0.2,0.5c0,0.2-0.1,0.4-0.2,0.5
	c-0.1,0.2-0.3,0.3-0.5,0.4C91.6,470.7,91.3,470.7,91.1,470.7z"/>
<path class="st3" d="M96.5,467v3.6h-0.6v-0.5c-0.1,0.2-0.3,0.3-0.5,0.4c-0.2,0.1-0.4,0.2-0.7,0.2c-0.3,0-0.5-0.1-0.8-0.2
	c-0.2-0.1-0.4-0.3-0.5-0.5c-0.1-0.2-0.2-0.5-0.2-0.9V467h0.6v2c0,0.4,0.1,0.6,0.3,0.8c0.2,0.2,0.4,0.3,0.7,0.3
	c0.3,0,0.6-0.1,0.8-0.3s0.3-0.5,0.3-0.9v-2H96.5z"/>
<path class="st3" d="M101.8,467c0.3,0,0.5,0.1,0.8,0.2c0.2,0.1,0.4,0.3,0.5,0.5c0.1,0.2,0.2,0.5,0.2,0.9v2.1h-0.6v-2.1
	c0-0.4-0.1-0.6-0.3-0.8c-0.2-0.2-0.4-0.3-0.7-0.3c-0.3,0-0.6,0.1-0.7,0.3c-0.2,0.2-0.3,0.5-0.3,0.9v2h-0.6v-2.1
	c0-0.4-0.1-0.6-0.3-0.8c-0.2-0.2-0.4-0.3-0.7-0.3c-0.3,0-0.6,0.1-0.7,0.3c-0.2,0.2-0.3,0.5-0.3,0.9v2h-0.6V467h0.6v0.5
	c0.1-0.2,0.3-0.3,0.5-0.4c0.2-0.1,0.4-0.2,0.7-0.2c0.3,0,0.6,0.1,0.8,0.2c0.2,0.1,0.4,0.3,0.5,0.6c0.1-0.3,0.3-0.5,0.5-0.6
	C101.3,467,101.6,467,101.8,467z"/>
<path class="st3" d="M105.8,468.8c0-0.4,0.1-0.7,0.2-1c0.1-0.3,0.4-0.5,0.6-0.7c0.3-0.2,0.6-0.2,0.9-0.2c0.3,0,0.5,0.1,0.8,0.2
	c0.2,0.1,0.4,0.3,0.6,0.5v-1.9h0.6v4.9h-0.6V470c-0.1,0.2-0.3,0.4-0.5,0.5c-0.2,0.1-0.5,0.2-0.8,0.2c-0.3,0-0.6-0.1-0.9-0.2
	c-0.3-0.2-0.5-0.4-0.6-0.7C105.9,469.5,105.8,469.2,105.8,468.8z M108.9,468.8c0-0.3-0.1-0.5-0.2-0.7c-0.1-0.2-0.3-0.4-0.5-0.5
	c-0.2-0.1-0.4-0.2-0.6-0.2s-0.4,0.1-0.6,0.2c-0.2,0.1-0.3,0.3-0.4,0.5c-0.1,0.2-0.2,0.4-0.2,0.7c0,0.3,0.1,0.5,0.2,0.7
	c0.1,0.2,0.3,0.4,0.4,0.5c0.2,0.1,0.4,0.2,0.6,0.2s0.4-0.1,0.6-0.2c0.2-0.1,0.3-0.3,0.5-0.5C108.9,469.4,108.9,469.1,108.9,468.8z"
	/>
<path class="st3" d="M112.1,470.7c-0.3,0-0.6-0.1-0.9-0.2c-0.3-0.2-0.5-0.4-0.6-0.7c-0.2-0.3-0.2-0.6-0.2-1c0-0.4,0.1-0.7,0.2-1
	c0.2-0.3,0.4-0.5,0.7-0.7c0.3-0.2,0.6-0.2,0.9-0.2c0.3,0,0.7,0.1,0.9,0.2c0.3,0.2,0.5,0.4,0.7,0.6c0.2,0.3,0.2,0.6,0.2,1
	c0,0.4-0.1,0.7-0.3,1c-0.2,0.3-0.4,0.5-0.7,0.7C112.8,470.7,112.5,470.7,112.1,470.7z M112.1,470.2c0.2,0,0.4-0.1,0.6-0.2
	c0.2-0.1,0.3-0.3,0.5-0.5c0.1-0.2,0.2-0.5,0.2-0.7c0-0.3-0.1-0.5-0.2-0.7c-0.1-0.2-0.3-0.4-0.4-0.5c-0.2-0.1-0.4-0.2-0.6-0.2
	c-0.2,0-0.4,0.1-0.6,0.2c-0.2,0.1-0.3,0.2-0.4,0.5c-0.1,0.2-0.2,0.4-0.2,0.7c0,0.3,0.1,0.5,0.2,0.7c0.1,0.2,0.3,0.4,0.4,0.5
	C111.7,470.1,111.9,470.2,112.1,470.2z"/>
<path class="st3" d="M115.4,465.8v4.9h-0.6v-4.9H115.4z"/>
<path class="st3" d="M118,470.7c-0.3,0-0.6-0.1-0.9-0.2c-0.3-0.2-0.5-0.4-0.6-0.7c-0.2-0.3-0.2-0.6-0.2-1c0-0.4,0.1-0.7,0.2-1
	c0.2-0.3,0.4-0.5,0.7-0.7c0.3-0.2,0.6-0.2,0.9-0.2c0.3,0,0.7,0.1,0.9,0.2c0.3,0.2,0.5,0.4,0.7,0.6c0.2,0.3,0.2,0.6,0.2,1
	c0,0.4-0.1,0.7-0.3,1c-0.2,0.3-0.4,0.5-0.7,0.7C118.7,470.7,118.3,470.7,118,470.7z M118,470.2c0.2,0,0.4-0.1,0.6-0.2
	c0.2-0.1,0.3-0.3,0.5-0.5c0.1-0.2,0.2-0.5,0.2-0.7c0-0.3-0.1-0.5-0.2-0.7c-0.1-0.2-0.3-0.4-0.5-0.5c-0.2-0.1-0.4-0.2-0.6-0.2
	c-0.2,0-0.4,0.1-0.6,0.2c-0.2,0.1-0.3,0.2-0.4,0.5c-0.1,0.2-0.2,0.4-0.2,0.7c0,0.3,0.1,0.5,0.2,0.7c0.1,0.2,0.3,0.4,0.4,0.5
	C117.6,470.1,117.8,470.2,118,470.2z"/>
<path class="st3" d="M121.2,467.6c0.1-0.2,0.3-0.4,0.4-0.5c0.2-0.1,0.4-0.2,0.7-0.2v0.6h-0.2c-0.7,0-1,0.4-1,1.1v2h-0.6V467h0.6
	V467.6z"/>
<path class="st3" d="M126.2,470.7c-0.3,0-0.5,0-0.7-0.1c-0.2-0.1-0.4-0.2-0.5-0.4c-0.1-0.2-0.2-0.4-0.2-0.6h0.6
	c0,0.2,0.1,0.3,0.3,0.4c0.2,0.1,0.4,0.2,0.6,0.2c0.2,0,0.4-0.1,0.5-0.2c0.1-0.1,0.2-0.2,0.2-0.4c0-0.2-0.1-0.3-0.2-0.4
	c-0.1-0.1-0.4-0.2-0.7-0.2c-0.3-0.1-0.5-0.1-0.7-0.2c-0.2-0.1-0.3-0.2-0.4-0.3c-0.1-0.1-0.2-0.3-0.2-0.6c0-0.2,0.1-0.4,0.2-0.5
	c0.1-0.2,0.3-0.3,0.5-0.4c0.2-0.1,0.4-0.1,0.7-0.1c0.4,0,0.7,0.1,1,0.3c0.2,0.2,0.4,0.5,0.4,0.8h-0.6c0-0.2-0.1-0.3-0.2-0.5
	c-0.1-0.1-0.3-0.2-0.6-0.2c-0.2,0-0.4,0-0.5,0.1c-0.1,0.1-0.2,0.2-0.2,0.4c0,0.1,0,0.2,0.1,0.3c0.1,0.1,0.2,0.1,0.3,0.2
	c0.1,0,0.3,0.1,0.5,0.2c0.3,0.1,0.5,0.1,0.6,0.2c0.2,0.1,0.3,0.2,0.4,0.3c0.1,0.1,0.2,0.3,0.2,0.5c0,0.2-0.1,0.4-0.2,0.5
	c-0.1,0.2-0.3,0.3-0.5,0.4C126.7,470.7,126.4,470.7,126.2,470.7z"/>
<path class="st3" d="M128.7,466.4c-0.1,0-0.2,0-0.3-0.1c-0.1-0.1-0.1-0.2-0.1-0.3c0-0.1,0-0.2,0.1-0.3c0.1-0.1,0.2-0.1,0.3-0.1
	c0.1,0,0.2,0,0.3,0.1c0.1,0.1,0.1,0.2,0.1,0.3c0,0.1,0,0.2-0.1,0.3C128.9,466.4,128.8,466.4,128.7,466.4z M128.9,467v3.6h-0.6V467
	H128.9z"/>
<path class="st3" d="M130.7,467.5v2.1c0,0.2,0,0.3,0.1,0.4c0.1,0.1,0.2,0.1,0.4,0.1h0.4v0.5h-0.5c-0.3,0-0.6-0.1-0.8-0.2
	c-0.2-0.2-0.3-0.4-0.3-0.8v-2.1h-0.5V467h0.5v-0.9h0.6v0.9h0.9v0.5H130.7z"/>
<path class="st3" d="M133.9,468.8c0-0.4,0.1-0.7,0.2-1c0.1-0.3,0.4-0.5,0.6-0.7c0.3-0.2,0.6-0.2,0.9-0.2c0.3,0,0.6,0.1,0.8,0.2
	c0.2,0.1,0.4,0.3,0.5,0.5V467h0.6v3.6H137V470c-0.1,0.2-0.3,0.4-0.5,0.5c-0.2,0.1-0.5,0.2-0.8,0.2c-0.3,0-0.6-0.1-0.9-0.2
	c-0.3-0.2-0.5-0.4-0.6-0.7C134,469.5,133.9,469.2,133.9,468.8z M137,468.8c0-0.3-0.1-0.5-0.2-0.7s-0.3-0.4-0.5-0.5
	c-0.2-0.1-0.4-0.2-0.6-0.2c-0.2,0-0.4,0.1-0.6,0.2c-0.2,0.1-0.3,0.3-0.4,0.5c-0.1,0.2-0.2,0.4-0.2,0.7c0,0.3,0.1,0.5,0.2,0.7
	c0.1,0.2,0.3,0.4,0.4,0.5c0.2,0.1,0.4,0.2,0.6,0.2c0.2,0,0.4-0.1,0.6-0.2c0.2-0.1,0.3-0.3,0.5-0.5C136.9,469.4,137,469.1,137,468.8z
	"/>
<path class="st3" d="M143,467c0.3,0,0.5,0.1,0.8,0.2c0.2,0.1,0.4,0.3,0.5,0.5c0.1,0.2,0.2,0.5,0.2,0.9v2.1h-0.6v-2.1
	c0-0.4-0.1-0.6-0.3-0.8c-0.2-0.2-0.4-0.3-0.7-0.3c-0.3,0-0.6,0.1-0.7,0.3c-0.2,0.2-0.3,0.5-0.3,0.9v2h-0.6v-2.1
	c0-0.4-0.1-0.6-0.3-0.8c-0.2-0.2-0.4-0.3-0.7-0.3c-0.3,0-0.6,0.1-0.7,0.3c-0.2,0.2-0.3,0.5-0.3,0.9v2h-0.6V467h0.6v0.5
	c0.1-0.2,0.3-0.3,0.5-0.4c0.2-0.1,0.4-0.2,0.7-0.2c0.3,0,0.6,0.1,0.8,0.2c0.2,0.1,0.4,0.3,0.5,0.6c0.1-0.3,0.3-0.5,0.5-0.6
	C142.4,467,142.7,467,143,467z"/>
<path class="st3" d="M148.8,468.7c0,0.1,0,0.2,0,0.4h-2.9c0,0.4,0.1,0.6,0.4,0.8c0.2,0.2,0.5,0.3,0.8,0.3c0.3,0,0.5-0.1,0.6-0.2
	c0.2-0.1,0.3-0.3,0.4-0.5h0.6c-0.1,0.3-0.3,0.6-0.6,0.9c-0.3,0.2-0.7,0.3-1.1,0.3c-0.3,0-0.7-0.1-0.9-0.2c-0.3-0.2-0.5-0.4-0.6-0.7
	c-0.2-0.3-0.2-0.6-0.2-1c0-0.4,0.1-0.7,0.2-1c0.2-0.3,0.4-0.5,0.6-0.6c0.3-0.2,0.6-0.2,0.9-0.2c0.3,0,0.6,0.1,0.9,0.2
	c0.3,0.1,0.5,0.4,0.6,0.6C148.7,468.1,148.8,468.4,148.8,468.7z M148.1,468.6c0-0.2-0.1-0.4-0.2-0.6c-0.1-0.2-0.2-0.3-0.4-0.4
	c-0.2-0.1-0.4-0.1-0.6-0.1c-0.3,0-0.6,0.1-0.8,0.3c-0.2,0.2-0.3,0.5-0.4,0.8H148.1z"/>
<path class="st3" d="M150.3,467.5v2.1c0,0.2,0,0.3,0.1,0.4c0.1,0.1,0.2,0.1,0.4,0.1h0.4v0.5h-0.5c-0.3,0-0.6-0.1-0.8-0.2
	c-0.2-0.2-0.3-0.4-0.3-0.8v-2.1h-0.5V467h0.5v-0.9h0.6v0.9h0.9v0.5H150.3z"/>
<path class="st3" d="M152.6,469.8l-0.7,1.8h-0.4l0.5-1.8H152.6z"/>
<path class="st3" d="M60.6,478.8c0-0.4,0.1-0.7,0.2-1c0.2-0.3,0.4-0.5,0.6-0.7c0.3-0.2,0.6-0.2,0.9-0.2c0.4,0,0.8,0.1,1.1,0.3
	c0.3,0.2,0.5,0.5,0.6,0.9h-0.6c-0.1-0.2-0.2-0.4-0.4-0.5c-0.2-0.1-0.4-0.2-0.7-0.2c-0.3,0-0.6,0.1-0.8,0.4c-0.2,0.2-0.3,0.6-0.3,1
	c0,0.4,0.1,0.8,0.3,1c0.2,0.2,0.5,0.4,0.8,0.4c0.3,0,0.5-0.1,0.7-0.2c0.2-0.1,0.3-0.3,0.4-0.5H64c-0.1,0.4-0.3,0.7-0.6,0.9
	c-0.3,0.2-0.7,0.3-1.1,0.3c-0.3,0-0.7-0.1-0.9-0.2c-0.3-0.2-0.5-0.4-0.6-0.7C60.7,479.5,60.6,479.2,60.6,478.8z"/>
<path class="st3" d="M66.4,480.7c-0.3,0-0.6-0.1-0.9-0.2c-0.3-0.2-0.5-0.4-0.6-0.7c-0.2-0.3-0.2-0.6-0.2-1c0-0.4,0.1-0.7,0.2-1
	c0.2-0.3,0.4-0.5,0.7-0.7c0.3-0.2,0.6-0.2,0.9-0.2c0.3,0,0.7,0.1,0.9,0.2c0.3,0.1,0.5,0.4,0.7,0.6c0.2,0.3,0.2,0.6,0.2,1
	s-0.1,0.7-0.3,1c-0.2,0.3-0.4,0.5-0.7,0.7C67.1,480.6,66.8,480.7,66.4,480.7z M66.4,480.1c0.2,0,0.4,0,0.6-0.2
	c0.2-0.1,0.3-0.3,0.5-0.5c0.1-0.2,0.2-0.4,0.2-0.7c0-0.3-0.1-0.5-0.2-0.7c-0.1-0.2-0.3-0.4-0.5-0.4c-0.2-0.1-0.4-0.2-0.6-0.2
	c-0.2,0-0.4,0.1-0.6,0.2c-0.2,0.1-0.3,0.2-0.4,0.4c-0.1,0.2-0.2,0.5-0.2,0.7c0,0.3,0.1,0.5,0.2,0.7c0.1,0.2,0.3,0.4,0.4,0.5
	C66,480.1,66.2,480.1,66.4,480.1z"/>
<path class="st3" d="M70.8,476.9c0.4,0,0.8,0.1,1.1,0.4c0.3,0.3,0.4,0.6,0.4,1.2v2.1h-0.6v-2.1c0-0.4-0.1-0.6-0.3-0.8
	c-0.2-0.2-0.4-0.3-0.7-0.3c-0.3,0-0.6,0.1-0.8,0.3c-0.2,0.2-0.3,0.5-0.3,0.9v2h-0.6V477h0.6v0.5c0.1-0.2,0.3-0.3,0.5-0.4
	C70.4,477,70.6,476.9,70.8,476.9z"/>
<path class="st3" d="M74.6,480.7c-0.3,0-0.5,0-0.7-0.1c-0.2-0.1-0.4-0.2-0.5-0.4c-0.1-0.2-0.2-0.4-0.2-0.6h0.6
	c0,0.2,0.1,0.3,0.3,0.4c0.2,0.1,0.4,0.2,0.6,0.2c0.2,0,0.4,0,0.5-0.2c0.1-0.1,0.2-0.2,0.2-0.4c0-0.2-0.1-0.3-0.2-0.4
	c-0.1-0.1-0.4-0.2-0.7-0.2c-0.3-0.1-0.5-0.1-0.7-0.2c-0.2-0.1-0.3-0.2-0.4-0.3c-0.1-0.1-0.2-0.3-0.2-0.6c0-0.2,0.1-0.4,0.2-0.5
	c0.1-0.2,0.3-0.3,0.5-0.4c0.2-0.1,0.4-0.1,0.7-0.1c0.4,0,0.7,0.1,1,0.3s0.4,0.5,0.4,0.8h-0.6c0-0.2-0.1-0.3-0.2-0.5
	c-0.1-0.1-0.3-0.2-0.6-0.2c-0.2,0-0.4,0-0.5,0.1c-0.1,0.1-0.2,0.2-0.2,0.4c0,0.1,0,0.2,0.1,0.3c0.1,0.1,0.2,0.1,0.3,0.2
	c0.1,0,0.3,0.1,0.5,0.2c0.3,0.1,0.5,0.1,0.6,0.2c0.2,0.1,0.3,0.2,0.4,0.3c0.1,0.1,0.2,0.3,0.2,0.5c0,0.2-0.1,0.4-0.2,0.5
	c-0.1,0.2-0.3,0.3-0.5,0.4C75.1,480.6,74.9,480.7,74.6,480.7z"/>
<path class="st3" d="M80.1,478.7c0,0.1,0,0.2,0,0.4h-2.9c0,0.4,0.1,0.6,0.4,0.8c0.2,0.2,0.5,0.3,0.8,0.3c0.3,0,0.5-0.1,0.6-0.2
	c0.2-0.1,0.3-0.3,0.4-0.5H80c-0.1,0.3-0.3,0.6-0.6,0.9c-0.3,0.2-0.7,0.3-1.1,0.3c-0.3,0-0.7-0.1-0.9-0.2c-0.3-0.2-0.5-0.4-0.6-0.7
	c-0.2-0.3-0.2-0.6-0.2-1s0.1-0.7,0.2-1c0.2-0.3,0.4-0.5,0.6-0.6c0.3-0.2,0.6-0.2,0.9-0.2c0.3,0,0.6,0.1,0.9,0.2
	c0.3,0.1,0.5,0.4,0.6,0.6C80,478,80.1,478.3,80.1,478.7z M79.5,478.5c0-0.2-0.1-0.4-0.2-0.6c-0.1-0.2-0.2-0.3-0.4-0.4
	c-0.2-0.1-0.4-0.1-0.6-0.1c-0.3,0-0.6,0.1-0.8,0.3c-0.2,0.2-0.3,0.5-0.4,0.8H79.5z"/>
<path class="st3" d="M80.7,478.8c0-0.4,0.1-0.7,0.2-1c0.2-0.3,0.4-0.5,0.6-0.7c0.3-0.2,0.6-0.2,0.9-0.2c0.4,0,0.8,0.1,1.1,0.3
	c0.3,0.2,0.5,0.5,0.6,0.9h-0.6c-0.1-0.2-0.2-0.4-0.4-0.5c-0.2-0.1-0.4-0.2-0.7-0.2c-0.3,0-0.6,0.1-0.8,0.4c-0.2,0.2-0.3,0.6-0.3,1
	c0,0.4,0.1,0.8,0.3,1c0.2,0.2,0.5,0.4,0.8,0.4c0.3,0,0.5-0.1,0.7-0.2c0.2-0.1,0.3-0.3,0.4-0.5h0.6c-0.1,0.4-0.3,0.7-0.6,0.9
	c-0.3,0.2-0.7,0.3-1.1,0.3c-0.3,0-0.7-0.1-0.9-0.2c-0.3-0.2-0.5-0.4-0.6-0.7C80.7,479.5,80.7,479.2,80.7,478.8z"/>
<path class="st3" d="M85.6,477.5v2.1c0,0.2,0,0.3,0.1,0.4c0.1,0.1,0.2,0.1,0.4,0.1h0.4v0.5H86c-0.3,0-0.6-0.1-0.8-0.2
	c-0.2-0.2-0.3-0.4-0.3-0.8v-2.1h-0.5V477H85v-0.9h0.6v0.9h0.9v0.5H85.6z"/>
<path class="st3" d="M90.6,478.7c0,0.1,0,0.2,0,0.4h-2.9c0,0.4,0.1,0.6,0.4,0.8c0.2,0.2,0.5,0.3,0.8,0.3c0.3,0,0.5-0.1,0.6-0.2
	c0.2-0.1,0.3-0.3,0.4-0.5h0.6c-0.1,0.3-0.3,0.6-0.6,0.9c-0.3,0.2-0.7,0.3-1.1,0.3c-0.3,0-0.7-0.1-0.9-0.2c-0.3-0.2-0.5-0.4-0.6-0.7
	c-0.2-0.3-0.2-0.6-0.2-1s0.1-0.7,0.2-1c0.2-0.3,0.4-0.5,0.6-0.6c0.3-0.2,0.6-0.2,0.9-0.2c0.3,0,0.6,0.1,0.9,0.2
	c0.3,0.1,0.5,0.4,0.6,0.6C90.6,478,90.6,478.3,90.6,478.7z M90,478.5c0-0.2-0.1-0.4-0.2-0.6c-0.1-0.2-0.2-0.3-0.4-0.4
	c-0.2-0.1-0.4-0.1-0.6-0.1c-0.3,0-0.6,0.1-0.8,0.3c-0.2,0.2-0.3,0.5-0.4,0.8H90z"/>
<path class="st3" d="M92.2,477.5v2.1c0,0.2,0,0.3,0.1,0.4c0.1,0.1,0.2,0.1,0.4,0.1h0.4v0.5h-0.5c-0.3,0-0.6-0.1-0.8-0.2
	c-0.2-0.2-0.3-0.4-0.3-0.8v-2.1h-0.5V477h0.5v-0.9h0.6v0.9h0.9v0.5H92.2z"/>
<path class="st3" d="M97.1,477v3.6h-0.6v-0.5c-0.1,0.2-0.3,0.3-0.5,0.4c-0.2,0.1-0.4,0.2-0.7,0.2c-0.3,0-0.5-0.1-0.8-0.2
	c-0.2-0.1-0.4-0.3-0.5-0.5c-0.1-0.2-0.2-0.5-0.2-0.9V477h0.6v2c0,0.4,0.1,0.6,0.3,0.8c0.2,0.2,0.4,0.3,0.7,0.3
	c0.3,0,0.6-0.1,0.8-0.3c0.2-0.2,0.3-0.5,0.3-0.9v-2H97.1z"/>
<path class="st3" d="M101.4,478.7c0,0.1,0,0.2,0,0.4h-2.9c0,0.4,0.1,0.6,0.4,0.8c0.2,0.2,0.5,0.3,0.8,0.3c0.3,0,0.5-0.1,0.6-0.2
	c0.2-0.1,0.3-0.3,0.4-0.5h0.7c-0.1,0.3-0.3,0.6-0.6,0.9c-0.3,0.2-0.7,0.3-1.1,0.3c-0.3,0-0.7-0.1-0.9-0.2c-0.3-0.2-0.5-0.4-0.6-0.7
	c-0.2-0.3-0.2-0.6-0.2-1s0.1-0.7,0.2-1c0.2-0.3,0.4-0.5,0.6-0.6c0.3-0.2,0.6-0.2,0.9-0.2c0.3,0,0.6,0.1,0.9,0.2
	c0.3,0.1,0.5,0.4,0.6,0.6C101.3,478,101.4,478.3,101.4,478.7z M100.8,478.5c0-0.2-0.1-0.4-0.2-0.6c-0.1-0.2-0.2-0.3-0.4-0.4
	c-0.2-0.1-0.4-0.1-0.6-0.1c-0.3,0-0.6,0.1-0.8,0.3c-0.2,0.2-0.3,0.5-0.4,0.8H100.8z"/>
<path class="st3" d="M102.8,477.6c0.1-0.2,0.3-0.4,0.4-0.5c0.2-0.1,0.4-0.2,0.7-0.2v0.6h-0.2c-0.7,0-1,0.4-1,1.1v2h-0.6V477h0.6
	V477.6z"/>
<path class="st3" d="M106.2,478.8c0-0.4,0.1-0.7,0.2-1c0.2-0.3,0.4-0.5,0.6-0.7c0.3-0.2,0.6-0.2,0.9-0.2c0.3,0,0.6,0.1,0.8,0.2
	c0.2,0.1,0.4,0.3,0.5,0.5V477h0.6v3.6h-0.6v-0.7c-0.1,0.2-0.3,0.4-0.5,0.5c-0.2,0.1-0.5,0.2-0.8,0.2c-0.3,0-0.6-0.1-0.9-0.2
	c-0.3-0.2-0.5-0.4-0.6-0.7C106.3,479.5,106.2,479.1,106.2,478.8z M109.3,478.8c0-0.3-0.1-0.5-0.2-0.7c-0.1-0.2-0.3-0.4-0.4-0.5
	c-0.2-0.1-0.4-0.2-0.6-0.2c-0.2,0-0.4,0.1-0.6,0.2c-0.2,0.1-0.3,0.3-0.4,0.5c-0.1,0.2-0.2,0.4-0.2,0.7c0,0.3,0.1,0.5,0.2,0.7
	c0.1,0.2,0.3,0.4,0.4,0.5c0.2,0.1,0.4,0.2,0.6,0.2c0.2,0,0.4-0.1,0.6-0.2c0.2-0.1,0.3-0.3,0.4-0.5
	C109.2,479.3,109.3,479.1,109.3,478.8z"/>
<path class="st3" d="M110.7,478.8c0-0.4,0.1-0.7,0.2-1c0.1-0.3,0.4-0.5,0.6-0.7c0.3-0.2,0.6-0.2,0.9-0.2c0.3,0,0.5,0.1,0.8,0.2
	c0.2,0.1,0.4,0.3,0.6,0.5v-1.9h0.6v4.9h-0.6v-0.7c-0.1,0.2-0.3,0.4-0.5,0.5c-0.2,0.1-0.5,0.2-0.8,0.2c-0.3,0-0.6-0.1-0.9-0.2
	c-0.3-0.2-0.5-0.4-0.6-0.7C110.7,479.5,110.7,479.1,110.7,478.8z M113.7,478.8c0-0.3-0.1-0.5-0.2-0.7c-0.1-0.2-0.3-0.4-0.5-0.5
	c-0.2-0.1-0.4-0.2-0.6-0.2c-0.2,0-0.4,0.1-0.6,0.2c-0.2,0.1-0.3,0.3-0.4,0.5c-0.1,0.2-0.2,0.4-0.2,0.7c0,0.3,0.1,0.5,0.2,0.7
	c0.1,0.2,0.3,0.4,0.4,0.5c0.2,0.1,0.4,0.2,0.6,0.2c0.2,0,0.4-0.1,0.6-0.2c0.2-0.1,0.3-0.3,0.5-0.5
	C113.7,479.3,113.7,479.1,113.7,478.8z"/>
<path class="st3" d="M115.7,476.4c-0.1,0-0.2,0-0.3-0.1c-0.1-0.1-0.1-0.2-0.1-0.3c0-0.1,0-0.2,0.1-0.3c0.1-0.1,0.2-0.1,0.3-0.1
	c0.1,0,0.2,0,0.3,0.1c0.1,0.1,0.1,0.2,0.1,0.3c0,0.1,0,0.2-0.1,0.3C115.9,476.3,115.8,476.4,115.7,476.4z M116,477v3.6h-0.6V477H116
	z"/>
<path class="st3" d="M117.6,477.6c0.1-0.2,0.3-0.4,0.5-0.5c0.2-0.1,0.5-0.2,0.8-0.2c0.3,0,0.6,0.1,0.9,0.2c0.3,0.2,0.5,0.4,0.6,0.7
	c0.2,0.3,0.2,0.6,0.2,1c0,0.4-0.1,0.7-0.2,1c-0.2,0.3-0.4,0.5-0.6,0.7c-0.3,0.2-0.6,0.2-0.9,0.2c-0.3,0-0.6-0.1-0.8-0.2
	c-0.2-0.1-0.4-0.3-0.5-0.5v2.4H117V477h0.6V477.6z M120.1,478.8c0-0.3-0.1-0.5-0.2-0.7c-0.1-0.2-0.3-0.4-0.4-0.5
	c-0.2-0.1-0.4-0.2-0.6-0.2c-0.2,0-0.4,0.1-0.6,0.2c-0.2,0.1-0.3,0.3-0.5,0.5c-0.1,0.2-0.2,0.4-0.2,0.7c0,0.3,0.1,0.5,0.2,0.7
	c0.1,0.2,0.3,0.4,0.5,0.5c0.2,0.1,0.4,0.2,0.6,0.2c0.2,0,0.4-0.1,0.6-0.2c0.2-0.1,0.3-0.3,0.4-0.5
	C120,479.3,120.1,479.1,120.1,478.8z"/>
<path class="st3" d="M121.8,476.4c-0.1,0-0.2,0-0.3-0.1c-0.1-0.1-0.1-0.2-0.1-0.3c0-0.1,0-0.2,0.1-0.3c0.1-0.1,0.2-0.1,0.3-0.1
	c0.1,0,0.2,0,0.3,0.1c0.1,0.1,0.1,0.2,0.1,0.3c0,0.1,0,0.2-0.1,0.3C122,476.3,121.9,476.4,121.8,476.4z M122.1,477v3.6h-0.6V477
	H122.1z"/>
<path class="st3" d="M124.4,480.7c-0.3,0-0.5,0-0.7-0.1c-0.2-0.1-0.4-0.2-0.5-0.4c-0.1-0.2-0.2-0.4-0.2-0.6h0.6
	c0,0.2,0.1,0.3,0.3,0.4c0.2,0.1,0.4,0.2,0.6,0.2c0.2,0,0.4,0,0.5-0.2c0.1-0.1,0.2-0.2,0.2-0.4c0-0.2-0.1-0.3-0.2-0.4
	c-0.1-0.1-0.4-0.2-0.7-0.2c-0.3-0.1-0.5-0.1-0.7-0.2c-0.2-0.1-0.3-0.2-0.4-0.3c-0.1-0.1-0.2-0.3-0.2-0.6c0-0.2,0.1-0.4,0.2-0.5
	c0.1-0.2,0.3-0.3,0.5-0.4c0.2-0.1,0.4-0.1,0.7-0.1c0.4,0,0.7,0.1,1,0.3s0.4,0.5,0.4,0.8h-0.6c0-0.2-0.1-0.3-0.2-0.5
	c-0.1-0.1-0.3-0.2-0.6-0.2c-0.2,0-0.4,0-0.5,0.1c-0.1,0.1-0.2,0.2-0.2,0.4c0,0.1,0,0.2,0.1,0.3c0.1,0.1,0.2,0.1,0.3,0.2
	c0.1,0,0.3,0.1,0.5,0.2c0.3,0.1,0.5,0.1,0.6,0.2c0.2,0.1,0.3,0.2,0.4,0.3c0.1,0.1,0.2,0.3,0.2,0.5c0,0.2-0.1,0.4-0.2,0.5
	c-0.1,0.2-0.3,0.3-0.5,0.4C124.9,480.6,124.7,480.7,124.4,480.7z"/>
<path class="st3" d="M126.3,478.8c0-0.4,0.1-0.7,0.2-1c0.2-0.3,0.4-0.5,0.6-0.7c0.3-0.2,0.6-0.2,0.9-0.2c0.4,0,0.8,0.1,1.1,0.3
	c0.3,0.2,0.5,0.5,0.6,0.9h-0.6c-0.1-0.2-0.2-0.4-0.4-0.5c-0.2-0.1-0.4-0.2-0.7-0.2c-0.3,0-0.6,0.1-0.8,0.4c-0.2,0.2-0.3,0.6-0.3,1
	c0,0.4,0.1,0.8,0.3,1c0.2,0.2,0.5,0.4,0.8,0.4c0.3,0,0.5-0.1,0.7-0.2c0.2-0.1,0.3-0.3,0.4-0.5h0.6c-0.1,0.4-0.3,0.7-0.6,0.9
	c-0.3,0.2-0.7,0.3-1.1,0.3c-0.3,0-0.7-0.1-0.9-0.2c-0.3-0.2-0.5-0.4-0.6-0.7C126.4,479.5,126.3,479.2,126.3,478.8z"/>
<path class="st3" d="M130.9,476.4c-0.1,0-0.2,0-0.3-0.1c-0.1-0.1-0.1-0.2-0.1-0.3c0-0.1,0-0.2,0.1-0.3c0.1-0.1,0.2-0.1,0.3-0.1
	c0.1,0,0.2,0,0.3,0.1c0.1,0.1,0.1,0.2,0.1,0.3c0,0.1,0,0.2-0.1,0.3C131.1,476.3,131,476.4,130.9,476.4z M131.2,477v3.6h-0.6V477
	H131.2z"/>
<path class="st3" d="M134,476.9c0.4,0,0.8,0.1,1.1,0.4c0.3,0.3,0.4,0.6,0.4,1.2v2.1h-0.6v-2.1c0-0.4-0.1-0.6-0.3-0.8
	c-0.2-0.2-0.4-0.3-0.7-0.3c-0.3,0-0.6,0.1-0.8,0.3c-0.2,0.2-0.3,0.5-0.3,0.9v2h-0.6V477h0.6v0.5c0.1-0.2,0.3-0.3,0.5-0.4
	C133.5,477,133.7,476.9,134,476.9z"/>
<path class="st3" d="M138,476.9c0.3,0,0.6,0.1,0.8,0.2c0.2,0.1,0.4,0.3,0.5,0.5V477h0.6v3.7c0,0.3-0.1,0.6-0.2,0.9
	c-0.1,0.3-0.3,0.5-0.6,0.6c-0.3,0.1-0.6,0.2-0.9,0.2c-0.5,0-0.9-0.1-1.2-0.3c-0.3-0.2-0.5-0.5-0.6-0.9h0.6c0.1,0.2,0.2,0.4,0.4,0.5
	c0.2,0.1,0.5,0.2,0.7,0.2c0.3,0,0.6-0.1,0.8-0.3c0.2-0.2,0.3-0.5,0.3-0.9v-0.8c-0.1,0.2-0.3,0.4-0.5,0.5c-0.2,0.1-0.5,0.2-0.8,0.2
	c-0.3,0-0.6-0.1-0.9-0.2c-0.3-0.2-0.5-0.4-0.6-0.7c-0.2-0.3-0.2-0.6-0.2-1c0-0.4,0.1-0.7,0.2-1c0.2-0.3,0.4-0.5,0.6-0.7
	C137.3,477,137.6,476.9,138,476.9z M139.3,478.8c0-0.3-0.1-0.5-0.2-0.7c-0.1-0.2-0.3-0.4-0.4-0.5c-0.2-0.1-0.4-0.2-0.6-0.2
	c-0.2,0-0.4,0.1-0.6,0.2c-0.2,0.1-0.3,0.3-0.4,0.5s-0.2,0.4-0.2,0.7c0,0.3,0.1,0.5,0.2,0.7c0.1,0.2,0.3,0.4,0.4,0.5
	c0.2,0.1,0.4,0.2,0.6,0.2c0.2,0,0.4-0.1,0.6-0.2c0.2-0.1,0.3-0.3,0.4-0.5C139.3,479.3,139.3,479.1,139.3,478.8z"/>
<path class="st3" d="M146,478.7c0,0.1,0,0.2,0,0.4h-2.9c0,0.4,0.1,0.6,0.4,0.8c0.2,0.2,0.5,0.3,0.8,0.3c0.3,0,0.5-0.1,0.6-0.2
	c0.2-0.1,0.3-0.3,0.4-0.5h0.6c-0.1,0.3-0.3,0.6-0.6,0.9c-0.3,0.2-0.7,0.3-1.1,0.3c-0.3,0-0.7-0.1-0.9-0.2c-0.3-0.2-0.5-0.4-0.6-0.7
	c-0.2-0.3-0.2-0.6-0.2-1s0.1-0.7,0.2-1c0.1-0.3,0.4-0.5,0.6-0.6c0.3-0.2,0.6-0.2,0.9-0.2c0.3,0,0.6,0.1,0.9,0.2
	c0.3,0.1,0.5,0.4,0.6,0.6C145.9,478,146,478.3,146,478.7z M145.4,478.5c0-0.2-0.1-0.4-0.2-0.6c-0.1-0.2-0.2-0.3-0.4-0.4
	c-0.2-0.1-0.4-0.1-0.6-0.1c-0.3,0-0.6,0.1-0.8,0.3c-0.2,0.2-0.3,0.5-0.4,0.8H145.4z"/>
<path class="st3" d="M147.4,475.7v4.9h-0.6v-4.9H147.4z"/>
<path class="st3" d="M148.8,476.4c-0.1,0-0.2,0-0.3-0.1c-0.1-0.1-0.1-0.2-0.1-0.3c0-0.1,0-0.2,0.1-0.3c0.1-0.1,0.2-0.1,0.3-0.1
	c0.1,0,0.2,0,0.3,0.1c0.1,0.1,0.1,0.2,0.1,0.3c0,0.1,0,0.2-0.1,0.3C149,476.3,148.9,476.4,148.8,476.4z M149,477v3.6h-0.6V477H149z"
	/>
<path class="st3" d="M150.8,477.5v2.1c0,0.2,0,0.3,0.1,0.4c0.1,0.1,0.2,0.1,0.4,0.1h0.4v0.5h-0.5c-0.3,0-0.6-0.1-0.8-0.2
	c-0.2-0.2-0.3-0.4-0.3-0.8v-2.1h-0.5V477h0.5v-0.9h0.6v0.9h0.9v0.5H150.8z"/>
<path class="st3" d="M152.7,480.6c-0.1,0-0.2,0-0.3-0.1c-0.1-0.1-0.1-0.2-0.1-0.3c0-0.1,0-0.2,0.1-0.3c0.1-0.1,0.2-0.1,0.3-0.1
	c0.1,0,0.2,0,0.3,0.1c0.1,0.1,0.1,0.2,0.1,0.3c0,0.1,0,0.2-0.1,0.3C152.9,480.6,152.8,480.6,152.7,480.6z"/>
<path class="st3" d="M60.6,489.5h-2l-0.4,1h-0.6l1.7-4.6h0.7l1.7,4.6H61L60.6,489.5z M60.4,489l-0.8-2.3l-0.8,2.3H60.4z"/>
<path class="st3" d="M65.6,488.6c0,0.1,0,0.2,0,0.4h-2.9c0,0.4,0.1,0.6,0.4,0.8c0.2,0.2,0.5,0.3,0.8,0.3c0.3,0,0.5-0.1,0.6-0.2
	c0.2-0.1,0.3-0.3,0.4-0.5h0.6c-0.1,0.3-0.3,0.6-0.6,0.9c-0.3,0.2-0.7,0.3-1.1,0.3c-0.3,0-0.7-0.1-0.9-0.2c-0.3-0.2-0.5-0.4-0.6-0.7
	c-0.2-0.3-0.2-0.6-0.2-1c0-0.4,0.1-0.7,0.2-1c0.2-0.3,0.4-0.5,0.6-0.6c0.3-0.2,0.6-0.2,0.9-0.2c0.3,0,0.6,0.1,0.9,0.2
	c0.3,0.1,0.5,0.4,0.6,0.6C65.6,488,65.6,488.3,65.6,488.6z M65,488.5c0-0.2-0.1-0.4-0.2-0.6c-0.1-0.2-0.2-0.3-0.4-0.4
	c-0.2-0.1-0.4-0.1-0.6-0.1c-0.3,0-0.6,0.1-0.8,0.3c-0.2,0.2-0.3,0.5-0.4,0.8H65z"/>
<path class="st3" d="M68.2,486.8c0.4,0,0.8,0.1,1.1,0.4c0.3,0.3,0.4,0.6,0.4,1.2v2.1h-0.6v-2.1c0-0.4-0.1-0.6-0.3-0.8
	c-0.2-0.2-0.4-0.3-0.7-0.3c-0.3,0-0.6,0.1-0.8,0.3c-0.2,0.2-0.3,0.5-0.3,0.9v2h-0.6v-3.6H67v0.5c0.1-0.2,0.3-0.3,0.5-0.4
	C67.7,486.9,68,486.8,68.2,486.8z"/>
<path class="st3" d="M74,488.6c0,0.1,0,0.2,0,0.4h-2.9c0,0.4,0.1,0.6,0.4,0.8c0.2,0.2,0.5,0.3,0.8,0.3c0.3,0,0.5-0.1,0.6-0.2
	c0.2-0.1,0.3-0.3,0.4-0.5h0.6c-0.1,0.3-0.3,0.6-0.6,0.9c-0.3,0.2-0.7,0.3-1.1,0.3c-0.3,0-0.7-0.1-0.9-0.2c-0.3-0.2-0.5-0.4-0.6-0.7
	c-0.2-0.3-0.2-0.6-0.2-1c0-0.4,0.1-0.7,0.2-1c0.2-0.3,0.4-0.5,0.6-0.6c0.3-0.2,0.6-0.2,0.9-0.2c0.3,0,0.6,0.1,0.9,0.2
	c0.3,0.1,0.5,0.4,0.6,0.6C73.9,488,74,488.3,74,488.6z M73.4,488.5c0-0.2-0.1-0.4-0.2-0.6c-0.1-0.2-0.2-0.3-0.4-0.4
	c-0.2-0.1-0.4-0.1-0.6-0.1c-0.3,0-0.6,0.1-0.8,0.3c-0.2,0.2-0.3,0.5-0.4,0.8H73.4z"/>
<path class="st3" d="M74.5,488.7c0-0.4,0.1-0.7,0.2-1c0.2-0.3,0.4-0.5,0.6-0.7c0.3-0.2,0.6-0.2,0.9-0.2c0.3,0,0.6,0.1,0.8,0.2
	c0.2,0.1,0.4,0.3,0.5,0.5v-0.7h0.6v3.6h-0.6v-0.7c-0.1,0.2-0.3,0.4-0.5,0.5c-0.2,0.1-0.5,0.2-0.8,0.2c-0.3,0-0.6-0.1-0.9-0.2
	c-0.3-0.2-0.5-0.4-0.6-0.7C74.6,489.4,74.5,489.1,74.5,488.7z M77.6,488.7c0-0.3-0.1-0.5-0.2-0.7c-0.1-0.2-0.3-0.4-0.5-0.5
	c-0.2-0.1-0.4-0.2-0.6-0.2c-0.2,0-0.4,0.1-0.6,0.2c-0.2,0.1-0.3,0.3-0.4,0.5c-0.1,0.2-0.2,0.4-0.2,0.7c0,0.3,0.1,0.5,0.2,0.7
	c0.1,0.2,0.3,0.4,0.4,0.5c0.2,0.1,0.4,0.2,0.6,0.2c0.2,0,0.4-0.1,0.6-0.2c0.2-0.1,0.3-0.3,0.5-0.5C77.6,489.2,77.6,489,77.6,488.7z"
	/>
<path class="st3" d="M81,486.8c0.4,0,0.8,0.1,1.1,0.4c0.3,0.3,0.4,0.6,0.4,1.2v2.1h-0.6v-2.1c0-0.4-0.1-0.6-0.3-0.8
	c-0.2-0.2-0.4-0.3-0.7-0.3c-0.3,0-0.6,0.1-0.8,0.3c-0.2,0.2-0.3,0.5-0.3,0.9v2h-0.6v-3.6h0.6v0.5c0.1-0.2,0.3-0.3,0.5-0.4
	C80.5,486.9,80.8,486.8,81,486.8z"/>
<path class="st3" d="M85,488.7c0-0.4,0.1-0.7,0.2-1c0.2-0.3,0.4-0.5,0.6-0.7c0.3-0.2,0.6-0.2,0.9-0.2c0.4,0,0.8,0.1,1.1,0.3
	c0.3,0.2,0.5,0.5,0.6,0.9h-0.6c-0.1-0.2-0.2-0.4-0.4-0.5c-0.2-0.1-0.4-0.2-0.7-0.2c-0.3,0-0.6,0.1-0.8,0.4c-0.2,0.2-0.3,0.6-0.3,1
	c0,0.4,0.1,0.8,0.3,1c0.2,0.2,0.5,0.4,0.8,0.4c0.3,0,0.5-0.1,0.7-0.2c0.2-0.1,0.3-0.3,0.4-0.5h0.6c-0.1,0.4-0.3,0.7-0.6,0.9
	c-0.3,0.2-0.7,0.3-1.1,0.3c-0.3,0-0.7-0.1-0.9-0.2c-0.3-0.2-0.5-0.4-0.6-0.7C85.1,489.4,85,489.1,85,488.7z"/>
<path class="st3" d="M90.9,490.6c-0.3,0-0.6-0.1-0.9-0.2c-0.3-0.2-0.5-0.4-0.6-0.7c-0.2-0.3-0.2-0.6-0.2-1c0-0.4,0.1-0.7,0.2-1
	c0.2-0.3,0.4-0.5,0.7-0.7c0.3-0.2,0.6-0.2,0.9-0.2c0.3,0,0.7,0.1,0.9,0.2c0.3,0.1,0.5,0.4,0.7,0.6c0.2,0.3,0.2,0.6,0.2,1
	c0,0.4-0.1,0.7-0.3,1c-0.2,0.3-0.4,0.5-0.7,0.7S91.2,490.6,90.9,490.6z M90.9,490.1c0.2,0,0.4-0.1,0.6-0.2c0.2-0.1,0.3-0.3,0.5-0.5
	c0.1-0.2,0.2-0.5,0.2-0.7c0-0.3-0.1-0.5-0.2-0.7c-0.1-0.2-0.3-0.4-0.5-0.5c-0.2-0.1-0.4-0.2-0.6-0.2c-0.2,0-0.4,0.1-0.6,0.2
	c-0.2,0.1-0.3,0.2-0.4,0.5c-0.1,0.2-0.2,0.5-0.2,0.7c0,0.3,0.1,0.5,0.2,0.7c0.1,0.2,0.3,0.4,0.4,0.5C90.4,490,90.6,490.1,90.9,490.1
	z"/>
<path class="st3" d="M97.9,486.8c0.3,0,0.5,0.1,0.8,0.2c0.2,0.1,0.4,0.3,0.5,0.5c0.1,0.2,0.2,0.5,0.2,0.9v2.1h-0.6v-2.1
	c0-0.4-0.1-0.6-0.3-0.8c-0.2-0.2-0.4-0.3-0.7-0.3c-0.3,0-0.6,0.1-0.7,0.3c-0.2,0.2-0.3,0.5-0.3,0.9v2h-0.6v-2.1
	c0-0.4-0.1-0.6-0.3-0.8c-0.2-0.2-0.4-0.3-0.7-0.3c-0.3,0-0.6,0.1-0.7,0.3c-0.2,0.2-0.3,0.5-0.3,0.9v2h-0.6v-3.6h0.6v0.5
	c0.1-0.2,0.3-0.3,0.5-0.4c0.2-0.1,0.4-0.2,0.7-0.2c0.3,0,0.6,0.1,0.8,0.2c0.2,0.1,0.4,0.3,0.5,0.6c0.1-0.3,0.3-0.5,0.5-0.6
	C97.3,486.9,97.6,486.8,97.9,486.8z"/>
<path class="st3" d="M104.7,486.8c0.3,0,0.5,0.1,0.8,0.2c0.2,0.1,0.4,0.3,0.5,0.5s0.2,0.5,0.2,0.9v2.1h-0.6v-2.1
	c0-0.4-0.1-0.6-0.3-0.8c-0.2-0.2-0.4-0.3-0.7-0.3c-0.3,0-0.6,0.1-0.7,0.3c-0.2,0.2-0.3,0.5-0.3,0.9v2H103v-2.1
	c0-0.4-0.1-0.6-0.3-0.8c-0.2-0.2-0.4-0.3-0.7-0.3c-0.3,0-0.6,0.1-0.7,0.3c-0.2,0.2-0.3,0.5-0.3,0.9v2h-0.6v-3.6h0.6v0.5
	c0.1-0.2,0.3-0.3,0.5-0.4c0.2-0.1,0.4-0.2,0.7-0.2c0.3,0,0.6,0.1,0.8,0.2c0.2,0.1,0.4,0.3,0.5,0.6c0.1-0.3,0.3-0.5,0.5-0.6
	C104.2,486.9,104.4,486.8,104.7,486.8z"/>
<path class="st3" d="M108.7,490.6c-0.3,0-0.7-0.1-0.9-0.2c-0.3-0.2-0.5-0.4-0.6-0.7c-0.2-0.3-0.2-0.6-0.2-1c0-0.4,0.1-0.7,0.2-1
	c0.2-0.3,0.4-0.5,0.7-0.7c0.3-0.2,0.6-0.2,0.9-0.2c0.3,0,0.7,0.1,0.9,0.2c0.3,0.1,0.5,0.4,0.7,0.6c0.2,0.3,0.2,0.6,0.2,1
	c0,0.4-0.1,0.7-0.3,1c-0.2,0.3-0.4,0.5-0.7,0.7C109.4,490.5,109.1,490.6,108.7,490.6z M108.7,490.1c0.2,0,0.4-0.1,0.6-0.2
	c0.2-0.1,0.3-0.3,0.5-0.5c0.1-0.2,0.2-0.5,0.2-0.7c0-0.3-0.1-0.5-0.2-0.7c-0.1-0.2-0.3-0.4-0.5-0.5c-0.2-0.1-0.4-0.2-0.6-0.2
	c-0.2,0-0.4,0.1-0.6,0.2c-0.2,0.1-0.3,0.2-0.4,0.5c-0.1,0.2-0.2,0.5-0.2,0.7c0,0.3,0.1,0.5,0.2,0.7c0.1,0.2,0.3,0.4,0.4,0.5
	C108.3,490,108.5,490.1,108.7,490.1z"/>
<path class="st3" d="M111.2,488.7c0-0.4,0.1-0.7,0.2-1c0.2-0.3,0.4-0.5,0.6-0.7c0.3-0.2,0.6-0.2,0.9-0.2c0.3,0,0.5,0.1,0.8,0.2
	c0.2,0.1,0.4,0.3,0.6,0.5v-1.9h0.6v4.9h-0.6v-0.7c-0.1,0.2-0.3,0.4-0.5,0.5c-0.2,0.1-0.5,0.2-0.8,0.2c-0.3,0-0.6-0.1-0.9-0.2
	c-0.3-0.2-0.5-0.4-0.6-0.7C111.3,489.4,111.2,489.1,111.2,488.7z M114.3,488.7c0-0.3-0.1-0.5-0.2-0.7c-0.1-0.2-0.3-0.4-0.4-0.5
	c-0.2-0.1-0.4-0.2-0.6-0.2s-0.4,0.1-0.6,0.2c-0.2,0.1-0.3,0.3-0.4,0.5c-0.1,0.2-0.2,0.4-0.2,0.7c0,0.3,0.1,0.5,0.2,0.7
	c0.1,0.2,0.3,0.4,0.4,0.5c0.2,0.1,0.4,0.2,0.6,0.2s0.4-0.1,0.6-0.2c0.2-0.1,0.3-0.3,0.4-0.5C114.2,489.2,114.3,489,114.3,488.7z"/>
<path class="st3" d="M117.5,490.6c-0.3,0-0.6-0.1-0.9-0.2c-0.3-0.2-0.5-0.4-0.6-0.7c-0.2-0.3-0.2-0.6-0.2-1c0-0.4,0.1-0.7,0.2-1
	c0.2-0.3,0.4-0.5,0.7-0.7c0.3-0.2,0.6-0.2,0.9-0.2c0.3,0,0.7,0.1,0.9,0.2c0.3,0.1,0.5,0.4,0.7,0.6c0.2,0.3,0.2,0.6,0.2,1
	c0,0.4-0.1,0.7-0.3,1c-0.2,0.3-0.4,0.5-0.7,0.7S117.8,490.6,117.5,490.6z M117.5,490.1c0.2,0,0.4-0.1,0.6-0.2
	c0.2-0.1,0.3-0.3,0.5-0.5c0.1-0.2,0.2-0.5,0.2-0.7c0-0.3-0.1-0.5-0.2-0.7c-0.1-0.2-0.3-0.4-0.4-0.5c-0.2-0.1-0.4-0.2-0.6-0.2
	c-0.2,0-0.4,0.1-0.6,0.2c-0.2,0.1-0.3,0.2-0.4,0.5c-0.1,0.2-0.2,0.5-0.2,0.7c0,0.3,0.1,0.5,0.2,0.7c0.1,0.2,0.3,0.4,0.4,0.5
	C117,490,117.2,490.1,117.5,490.1z"/>
<path class="st3" d="M122.5,485.6v4.9h-0.6v-4.9H122.5z"/>
<path class="st3" d="M123.8,486.3c-0.1,0-0.2,0-0.3-0.1c-0.1-0.1-0.1-0.2-0.1-0.3c0-0.1,0-0.2,0.1-0.3c0.1-0.1,0.2-0.1,0.3-0.1
	c0.1,0,0.2,0,0.3,0.1c0.1,0.1,0.1,0.2,0.1,0.3c0,0.1,0,0.2-0.1,0.3C124,486.3,123.9,486.3,123.8,486.3z M124.1,486.9v3.6h-0.6v-3.6
	H124.1z"/>
<path class="st3" d="M126.6,486.9c0.3,0,0.6,0.1,0.8,0.2c0.2,0.1,0.4,0.3,0.5,0.5v-0.7h0.6v3.7c0,0.3-0.1,0.6-0.2,0.9
	c-0.1,0.3-0.3,0.5-0.6,0.6c-0.3,0.1-0.6,0.2-0.9,0.2c-0.5,0-0.9-0.1-1.2-0.3s-0.5-0.5-0.6-0.9h0.6c0.1,0.2,0.2,0.4,0.4,0.5
	c0.2,0.1,0.5,0.2,0.7,0.2c0.3,0,0.6-0.1,0.8-0.3c0.2-0.2,0.3-0.5,0.3-0.9v-0.8c-0.1,0.2-0.3,0.4-0.5,0.5c-0.2,0.1-0.5,0.2-0.8,0.2
	c-0.3,0-0.6-0.1-0.9-0.2c-0.3-0.2-0.5-0.4-0.6-0.7c-0.2-0.3-0.2-0.6-0.2-1c0-0.4,0.1-0.7,0.2-1c0.2-0.3,0.4-0.5,0.6-0.7
	C126,486.9,126.3,486.9,126.6,486.9z M128,488.7c0-0.3-0.1-0.5-0.2-0.7c-0.1-0.2-0.3-0.4-0.5-0.5c-0.2-0.1-0.4-0.2-0.6-0.2
	c-0.2,0-0.4,0.1-0.6,0.2c-0.2,0.1-0.3,0.3-0.4,0.5c-0.1,0.2-0.2,0.4-0.2,0.7c0,0.3,0.1,0.5,0.2,0.7c0.1,0.2,0.3,0.4,0.4,0.5
	c0.2,0.1,0.4,0.2,0.6,0.2c0.2,0,0.4-0.1,0.6-0.2c0.2-0.1,0.3-0.3,0.5-0.5C127.9,489.2,128,489,128,488.7z"/>
<path class="st3" d="M132.8,486.9v3.6h-0.6V490c-0.1,0.2-0.3,0.3-0.5,0.4c-0.2,0.1-0.4,0.2-0.7,0.2c-0.3,0-0.5-0.1-0.8-0.2
	c-0.2-0.1-0.4-0.3-0.5-0.5c-0.1-0.2-0.2-0.5-0.2-0.9v-2.1h0.6v2c0,0.4,0.1,0.6,0.3,0.8c0.2,0.2,0.4,0.3,0.7,0.3
	c0.3,0,0.6-0.1,0.8-0.3c0.2-0.2,0.3-0.5,0.3-0.9v-2H132.8z"/>
<path class="st3" d="M134.5,485.6v4.9h-0.6v-4.9H134.5z"/>
<path class="st3" d="M135.3,488.7c0-0.4,0.1-0.7,0.2-1c0.2-0.3,0.4-0.5,0.6-0.7c0.3-0.2,0.6-0.2,0.9-0.2c0.3,0,0.6,0.1,0.8,0.2
	c0.2,0.1,0.4,0.3,0.5,0.5v-0.7h0.6v3.6h-0.6v-0.7c-0.1,0.2-0.3,0.4-0.5,0.5c-0.2,0.1-0.5,0.2-0.8,0.2c-0.3,0-0.6-0.1-0.9-0.2
	c-0.3-0.2-0.5-0.4-0.6-0.7C135.3,489.4,135.3,489.1,135.3,488.7z M138.3,488.7c0-0.3-0.1-0.5-0.2-0.7c-0.1-0.2-0.3-0.4-0.5-0.5
	c-0.2-0.1-0.4-0.2-0.6-0.2c-0.2,0-0.4,0.1-0.6,0.2c-0.2,0.1-0.3,0.3-0.4,0.5c-0.1,0.2-0.2,0.4-0.2,0.7c0,0.3,0.1,0.5,0.2,0.7
	c0.1,0.2,0.3,0.4,0.4,0.5c0.2,0.1,0.4,0.2,0.6,0.2c0.2,0,0.4-0.1,0.6-0.2c0.2-0.1,0.3-0.3,0.5-0.5
	C138.3,489.2,138.3,489,138.3,488.7z"/>
<path class="st3" d="M145,488.6c0,0.1,0,0.2,0,0.4h-2.9c0,0.4,0.1,0.6,0.4,0.8c0.2,0.2,0.5,0.3,0.8,0.3c0.3,0,0.5-0.1,0.6-0.2
	c0.2-0.1,0.3-0.3,0.4-0.5h0.7c-0.1,0.3-0.3,0.6-0.6,0.9c-0.3,0.2-0.7,0.3-1.1,0.3c-0.3,0-0.7-0.1-0.9-0.2c-0.3-0.2-0.5-0.4-0.6-0.7
	c-0.2-0.3-0.2-0.6-0.2-1c0-0.4,0.1-0.7,0.2-1c0.2-0.3,0.4-0.5,0.6-0.6c0.3-0.2,0.6-0.2,0.9-0.2c0.3,0,0.6,0.1,0.9,0.2
	s0.5,0.4,0.6,0.6C145,488,145,488.3,145,488.6z M144.4,488.5c0-0.2-0.1-0.4-0.2-0.6c-0.1-0.2-0.2-0.3-0.4-0.4
	c-0.2-0.1-0.4-0.1-0.6-0.1c-0.3,0-0.6,0.1-0.8,0.3c-0.2,0.2-0.3,0.5-0.4,0.8H144.4z"/>
<path class="st3" d="M147.3,486.9c0.3,0,0.6,0.1,0.8,0.2c0.2,0.1,0.4,0.3,0.5,0.5v-0.7h0.6v3.7c0,0.3-0.1,0.6-0.2,0.9
	c-0.1,0.3-0.3,0.5-0.6,0.6c-0.3,0.1-0.6,0.2-0.9,0.2c-0.5,0-0.9-0.1-1.2-0.3c-0.3-0.2-0.5-0.5-0.6-0.9h0.6c0.1,0.2,0.2,0.4,0.4,0.5
	c0.2,0.1,0.5,0.2,0.7,0.2c0.3,0,0.6-0.1,0.8-0.3c0.2-0.2,0.3-0.5,0.3-0.9v-0.8c-0.1,0.2-0.3,0.4-0.5,0.5c-0.2,0.1-0.5,0.2-0.8,0.2
	c-0.3,0-0.6-0.1-0.9-0.2c-0.3-0.2-0.5-0.4-0.6-0.7c-0.1-0.3-0.2-0.6-0.2-1c0-0.4,0.1-0.7,0.2-1c0.1-0.3,0.4-0.5,0.6-0.7
	C146.7,486.9,147,486.9,147.3,486.9z M148.7,488.7c0-0.3-0.1-0.5-0.2-0.7s-0.3-0.4-0.4-0.5c-0.2-0.1-0.4-0.2-0.6-0.2
	c-0.2,0-0.4,0.1-0.6,0.2c-0.2,0.1-0.3,0.3-0.4,0.5c-0.1,0.2-0.2,0.4-0.2,0.7c0,0.3,0.1,0.5,0.2,0.7c0.1,0.2,0.3,0.4,0.4,0.5
	c0.2,0.1,0.4,0.2,0.6,0.2c0.2,0,0.4-0.1,0.6-0.2c0.2-0.1,0.3-0.3,0.4-0.5C148.6,489.2,148.7,489,148.7,488.7z"/>
<path class="st3" d="M153.6,488.6c0,0.1,0,0.2,0,0.4h-2.9c0,0.4,0.1,0.6,0.4,0.8c0.2,0.2,0.5,0.3,0.8,0.3c0.3,0,0.5-0.1,0.6-0.2
	c0.2-0.1,0.3-0.3,0.4-0.5h0.6c-0.1,0.3-0.3,0.6-0.6,0.9c-0.3,0.2-0.7,0.3-1.1,0.3c-0.3,0-0.7-0.1-0.9-0.2c-0.3-0.2-0.5-0.4-0.6-0.7
	c-0.2-0.3-0.2-0.6-0.2-1c0-0.4,0.1-0.7,0.2-1c0.1-0.3,0.4-0.5,0.6-0.6c0.3-0.2,0.6-0.2,0.9-0.2c0.3,0,0.6,0.1,0.9,0.2
	s0.5,0.4,0.6,0.6C153.6,488,153.6,488.3,153.6,488.6z M153,488.5c0-0.2-0.1-0.4-0.2-0.6c-0.1-0.2-0.2-0.3-0.4-0.4
	c-0.2-0.1-0.4-0.1-0.6-0.1c-0.3,0-0.6,0.1-0.8,0.3c-0.2,0.2-0.3,0.5-0.4,0.8H153z"/>
<path class="st3" d="M155.2,487.4v2.1c0,0.2,0,0.3,0.1,0.4c0.1,0.1,0.2,0.1,0.4,0.1h0.4v0.5h-0.5c-0.3,0-0.6-0.1-0.8-0.2
	c-0.2-0.2-0.3-0.4-0.3-0.8v-2.1h-0.5v-0.5h0.5V486h0.6v0.9h0.9v0.5H155.2z"/>
<path class="st3" d="M97.9,498.6c0-0.4,0.1-0.7,0.2-1c0.2-0.3,0.4-0.5,0.6-0.7c0.3-0.2,0.6-0.2,0.9-0.2c0.3,0,0.5,0.1,0.8,0.2
	c0.2,0.1,0.4,0.3,0.6,0.5v-1.9h0.6v4.9H101v-0.7c-0.1,0.2-0.3,0.4-0.5,0.5c-0.2,0.1-0.5,0.2-0.8,0.2c-0.3,0-0.6-0.1-0.9-0.2
	c-0.3-0.2-0.5-0.4-0.6-0.7C98,499.3,97.9,499,97.9,498.6z M101,498.7c0-0.3-0.1-0.5-0.2-0.7c-0.1-0.2-0.3-0.4-0.5-0.5
	c-0.2-0.1-0.4-0.2-0.6-0.2c-0.2,0-0.4,0.1-0.6,0.2s-0.3,0.3-0.4,0.5c-0.1,0.2-0.2,0.4-0.2,0.7c0,0.3,0.1,0.5,0.2,0.7
	c0.1,0.2,0.3,0.4,0.4,0.5c0.2,0.1,0.4,0.2,0.6,0.2c0.2,0,0.4-0.1,0.6-0.2c0.2-0.1,0.3-0.3,0.5-0.5C100.9,499.2,101,498.9,101,498.7z
	"/>
<path class="st3" d="M104.2,500.5c-0.3,0-0.7-0.1-0.9-0.2c-0.3-0.2-0.5-0.4-0.6-0.7c-0.2-0.3-0.2-0.6-0.2-1c0-0.4,0.1-0.7,0.2-1
	c0.2-0.3,0.4-0.5,0.7-0.7c0.3-0.2,0.6-0.2,0.9-0.2c0.3,0,0.7,0.1,0.9,0.2c0.3,0.2,0.5,0.4,0.7,0.6c0.2,0.3,0.2,0.6,0.2,1
	s-0.1,0.7-0.3,1c-0.2,0.3-0.4,0.5-0.7,0.7C104.8,500.5,104.5,500.5,104.2,500.5z M104.2,500c0.2,0,0.4,0,0.6-0.2
	c0.2-0.1,0.3-0.3,0.5-0.5c0.1-0.2,0.2-0.5,0.2-0.7c0-0.3-0.1-0.5-0.2-0.7c-0.1-0.2-0.3-0.4-0.5-0.5c-0.2-0.1-0.4-0.2-0.6-0.2
	c-0.2,0-0.4,0.1-0.6,0.2c-0.2,0.1-0.3,0.2-0.4,0.5c-0.1,0.2-0.2,0.5-0.2,0.7c0,0.3,0.1,0.5,0.2,0.7c0.1,0.2,0.3,0.4,0.4,0.5
	C103.8,500,104,500,104.2,500z"/>
<path class="st3" d="M107.4,495.6v4.9h-0.6v-4.9H107.4z"/>
<path class="st3" d="M110.1,500.5c-0.3,0-0.6-0.1-0.9-0.2c-0.3-0.2-0.5-0.4-0.7-0.7c-0.2-0.3-0.2-0.6-0.2-1c0-0.4,0.1-0.7,0.2-1
	c0.2-0.3,0.4-0.5,0.7-0.7c0.3-0.2,0.6-0.2,0.9-0.2c0.3,0,0.7,0.1,0.9,0.2c0.3,0.2,0.5,0.4,0.7,0.6c0.2,0.3,0.2,0.6,0.2,1
	s-0.1,0.7-0.3,1c-0.2,0.3-0.4,0.5-0.7,0.7C110.7,500.5,110.4,500.5,110.1,500.5z M110.1,500c0.2,0,0.4,0,0.6-0.2
	c0.2-0.1,0.3-0.3,0.5-0.5c0.1-0.2,0.2-0.5,0.2-0.7c0-0.3-0.1-0.5-0.2-0.7s-0.3-0.4-0.4-0.5c-0.2-0.1-0.4-0.2-0.6-0.2
	c-0.2,0-0.4,0.1-0.6,0.2c-0.2,0.1-0.3,0.2-0.4,0.5c-0.1,0.2-0.2,0.5-0.2,0.7c0,0.3,0.1,0.5,0.2,0.7c0.1,0.2,0.3,0.4,0.4,0.5
	C109.6,500,109.8,500,110.1,500z"/>
<path class="st3" d="M113.3,497.4c0.1-0.2,0.3-0.4,0.5-0.5c0.2-0.1,0.4-0.2,0.7-0.2v0.6h-0.2c-0.7,0-1,0.4-1,1.1v2h-0.6v-3.6h0.6
	V497.4z"/>
<path class="st3" d="M115.4,500.5c-0.1,0-0.2,0-0.3-0.1c-0.1-0.1-0.1-0.2-0.1-0.3c0-0.1,0-0.2,0.1-0.3c0.1-0.1,0.2-0.1,0.3-0.1
	c0.1,0,0.2,0,0.3,0.1c0.1,0.1,0.1,0.2,0.1,0.3c0,0.1,0,0.2-0.1,0.3C115.6,500.5,115.5,500.5,115.4,500.5z"/>
<linearGradient id="SVGID_10_" gradientUnits="userSpaceOnUse" x1="723.1304" y1="398.8986" x2="794.5833" y2="325.8016" gradientTransform="matrix(1 0 0 -1 0 526)">
	<stop  offset="0" style="stop-color:#F47F7E"/>
	<stop  offset="1" style="stop-color:#EE8346"/>
</linearGradient>
<path class="st14" d="M737.6,128.2H781c7.8,0,14.1,6.3,14.1,14.1V186c0,7.8-6.3,14.1-14.1,14.1h-43.4c-7.8,0-14.1-6.3-14.1-14.1
	v-43.7C723.6,134.3,729.8,128.2,737.6,128.2z"/>
<linearGradient id="SVGID_11_" gradientUnits="userSpaceOnUse" x1="796.8073" y1="399.716" x2="721.7372" y2="324.186" gradientTransform="matrix(1 0 0 -1 0 526)">
	<stop  offset="0" style="stop-color:#FFFFFF;stop-opacity:0.5"/>
	<stop  offset="1" style="stop-color:#FFFFFF;stop-opacity:0.3"/>
</linearGradient>
<path class="st15" d="M737.6,127.2H781c8.3,0,14.9,6.6,14.9,14.9v43.7c0,8.3-6.6,14.9-14.9,14.9h-43.4c-8.3,0-14.9-6.6-14.9-14.9
	v-43.7C722.7,134,729.4,127.2,737.6,127.2z"/>
<path class="st3" d="M749.6,181.9h-6.5c-0.2,0-0.5,0-0.7-0.2c-0.2,0-0.3-0.2-0.5-0.3c-0.2-0.2-0.3-0.3-0.3-0.5
	c0-0.2-0.2-0.3-0.2-0.7v-9.8c0-0.2,0-0.5,0.2-0.7c0.2-0.2,0.2-0.3,0.3-0.5c0.2-0.2,0.3-0.3,0.5-0.3c0.2,0,0.3-0.2,0.7-0.2h6.5
	c0.2,0,0.5,0,0.7,0.2c0.2,0,0.3,0.2,0.5,0.3c0.2,0.2,0.3,0.3,0.3,0.5c0,0.2,0.2,0.3,0.2,0.7v9.8c0,0.2,0,0.5-0.2,0.7
	c-0.2,0.2-0.2,0.3-0.3,0.5c-0.2,0.2-0.3,0.3-0.5,0.3C750.1,181.7,749.9,181.9,749.6,181.9z"/>
<path class="st3" d="M762.6,181.8h-6.5c-0.2,0-0.5,0-0.7-0.2c-0.2,0-0.3-0.2-0.5-0.3c-0.2-0.2-0.3-0.3-0.3-0.5
	c-0.2-0.2-0.2-0.3-0.2-0.7v-19.5c0-0.2,0-0.5,0.2-0.7c0-0.2,0.2-0.3,0.3-0.5c0.2-0.2,0.3-0.3,0.5-0.3c0.2,0,0.3-0.2,0.7-0.2h6.5
	c0.2,0,0.5,0,0.7,0.2c0.2,0,0.3,0.2,0.5,0.3c0.2,0.2,0.3,0.3,0.3,0.5c0.2,0.2,0.2,0.3,0.2,0.7v19.5c0,0.2,0,0.5-0.2,0.7
	c0,0.2-0.2,0.3-0.3,0.5c-0.2,0.2-0.3,0.3-0.5,0.3C763,181.7,762.8,181.8,762.6,181.8z"/>
<path class="st3" d="M775.6,181.9h-6.5c-0.2,0-0.5,0-0.7-0.2c-0.2,0-0.3-0.2-0.5-0.3c-0.2-0.2-0.3-0.3-0.3-0.5
	c-0.2-0.2-0.2-0.3-0.2-0.7v-32.5c0-0.2,0-0.5,0.2-0.7c0-0.2,0.2-0.3,0.3-0.5c0.2-0.2,0.3-0.3,0.5-0.3c0.2,0,0.3-0.2,0.7-0.2h6.5
	c0.2,0,0.5,0,0.7,0.2c0.2,0,0.3,0.2,0.5,0.3c0.2,0.2,0.3,0.3,0.3,0.5c0.2,0.2,0.2,0.3,0.2,0.7v32.5c0,0.2,0,0.5-0.2,0.7
	c-0.2,0.2-0.2,0.3-0.3,0.5c-0.2,0.2-0.3,0.3-0.5,0.3C776.1,181.7,775.7,181.9,775.6,181.9z"/>
<linearGradient id="SVGID_12_" gradientUnits="userSpaceOnUse" x1="2.3926" y1="524.5921" x2="94.7724" y2="429.9339" gradientTransform="matrix(1 0 0 -1 0 526)">
	<stop  offset="0" style="stop-color:#F47F7E"/>
	<stop  offset="1" style="stop-color:#EE8346"/>
</linearGradient>
<path class="st16" d="M16.1,2.8H82c7.3,0,13.2,6,13.2,13.2v66.2c0,7.3-6,13.2-13.2,13.2H16.1c-7.3,0-13.2-6-13.2-13.2V16.1
	C2.8,8.8,8.8,2.8,16.1,2.8z"/>
<linearGradient id="SVGID_13_" gradientUnits="userSpaceOnUse" x1="96.9499" y1="525.0935" x2="1.0062" y2="428.4008" gradientTransform="matrix(1 0 0 -1 0 526)">
	<stop  offset="0" style="stop-color:#FFFFFF;stop-opacity:0.5"/>
	<stop  offset="1" style="stop-color:#FFFFFF;stop-opacity:0.3"/>
</linearGradient>
<path class="st17" d="M16.1,2H82c7.8,0,14.1,6.3,14.1,14.1v66.2c0,7.8-6.3,14.1-14.1,14.1H16.1C8.3,96.4,2,90.1,2,82.3V16.1
	C2,8.3,8.3,2,16.1,2z"/>
<path class="st3" d="M61.6,41.4H41.3v-5.1c0-2,0.8-3.8,2.3-5.3c3.1-3.1,7.9-3.1,10.8,0c1,1,1.5,2.3,2,3.6c0.3,1.3,1.8,2,3.1,1.8
	c1.3-0.3,2.3-1.8,1.8-3.1C60.8,31,59.5,29,58,27.5c-2.3-2.5-5.6-3.8-8.9-3.8c-7.1,0-12.8,5.6-12.8,12.8v5.1c-4.3,0-7.6,3.3-7.6,7.6
	v17.9c0,4.3,3.3,7.6,7.6,7.6h25.5c4.3,0,7.6-3.3,7.6-7.6V49.2C69.4,44.7,66.1,41.4,61.6,41.4z M51.7,58.1l-0.3,0.3v3.6
	c0,1.5-1,2.5-2.5,2.5c-1.5,0-2.5-1-2.5-2.5v-3.6c-1.5-1.5-1.8-3.8-0.3-5.3c1.5-1.5,3.8-1.8,5.3-0.3C53,54,53.3,56.5,51.7,58.1z"/>
</svg>
