<?xml version="1.0" encoding="utf-8"?>
<!-- Generator: Adobe Illustrator 24.1.2, SVG Export Plug-In . SVG Version: 6.00 Build 0)  -->
<svg version="1.1" id="Слой_1" xmlns="http://www.w3.org/2000/svg" xmlns:xlink="http://www.w3.org/1999/xlink" x="0px" y="0px"
	 viewBox="0 0 339 300" style="enable-background:new 0 0 339 300;" xml:space="preserve">
<style type="text/css">
	.st0{fill:url(#SVGID_1_);}
	.st1{fill:url(#SVGID_2_);filter:url(#Adobe_OpacityMaskFilter);}
	.st2{mask:url(#mask0_305:34977_1_);}
	.st3{fill:#FFFFFF;}
</style>
<linearGradient id="SVGID_1_" gradientUnits="userSpaceOnUse" x1="20.268" y1="325.4108" x2="315.8527" y2="-18.0649" gradientTransform="matrix(1 0 0 -1 0 302)">
	<stop  offset="0" style="stop-color:#F47F7E"/>
	<stop  offset="1" style="stop-color:#EE8346"/>
</linearGradient>
<rect class="st0" width="339" height="300"/>
<defs>
	<filter id="Adobe_OpacityMaskFilter" filterUnits="userSpaceOnUse" x="120" y="-8" width="204" height="204">
		<feColorMatrix  type="matrix" values="1 0 0 0 0  0 1 0 0 0  0 0 1 0 0  0 0 0 1 0"/>
	</filter>
</defs>
<mask maskUnits="userSpaceOnUse" x="120" y="-8" width="204" height="204" id="mask0_305:34977_1_">
	
		<linearGradient id="SVGID_2_" gradientUnits="userSpaceOnUse" x1="20.268" y1="325.4108" x2="315.8527" y2="-18.0649" gradientTransform="matrix(1 0 0 -1 0 302)">
		<stop  offset="0" style="stop-color:#F47F7E"/>
		<stop  offset="1" style="stop-color:#EE8346"/>
	</linearGradient>
	<path class="st1" d="M8,0h323c4.4,0,8,3.6,8,8v284c0,4.4-3.6,8-8,8H8c-4.4,0-8-3.6-8-8V8C0,3.6,3.6,0,8,0z"/>
</mask>
<g class="st2">
	<path class="st3" d="M320.3,2.3c-0.8-3.1-3.8-5.3-6.9-6.9C274.5-14.5,234.8-3,207.4,29l-9.9,12.2l-25.2-5.3
		c-12.2-4.6-25.2,0.8-30.5,12.2l-20.6,35.8c-1.5,3.1-1.5,5.3,0,8.4c0.8,3.1,3.8,4.6,6.9,5.3l29,6.1c-3.1,7.6-3.8,14.5-5.3,22.1
		c0,3,0.8,5.3,3.1,7.6l29,29c1.5,1.5,3.8,3.1,6.9,3.1h0.8c8.4-0.8,16-1.5,22.9-4.6l5.3,27.4c0.8,3.1,3.1,5.3,5.3,6.9
		c0.8,0.8,3.1,0.8,3.8,0.8c1.5,0,3.1,0,4.6-0.8l35.9-20.6c9.9-5.3,16-18.3,13-30.5l-6.9-25.9l11.4-9.9C318,81.6,331,39.7,320.3,2.3z
		 M178.4,64.1c-5.3,7.6-11.4,14.5-14.5,22.1L144,81.6l13.7-25.2c1.5-3.8,5.3-4.6,9.9-3.8l16,3.8L178.4,64.1z M259.3,157.1
		l-25.2,13.7l-3.8-18.3c8.4-3.8,16-9.2,22.1-14.5l6.9-6.1l3.8,16C264.6,151.8,261.6,156.4,259.3,157.1z M265.4,64.1
		c-7.6,0-13.7-6.1-13.7-13.7c0-7.6,6.9-13.7,13.7-13.7c7.6,0,13.7,6.1,13.7,13.7C279.1,58,273.8,64.1,265.4,64.1z"/>
</g>
</svg>
