<?xml version="1.0" encoding="utf-8"?>
<!-- Generator: Adobe Illustrator 24.1.2, SVG Export Plug-In . SVG Version: 6.00 Build 0)  -->
<svg version="1.1" id="Слой_1" xmlns="http://www.w3.org/2000/svg" xmlns:xlink="http://www.w3.org/1999/xlink" x="0px" y="0px"
	 viewBox="0 0 706 300" style="enable-background:new 0 0 706 300;" xml:space="preserve">
<style type="text/css">
	.st0{fill:#FFF4CE;}
	.st1{fill:url(#SVGID_1_);}
	.st2{fill:url(#SVGID_2_);}
	.st3{fill:url(#SVGID_3_);}
	.st4{fill:url(#SVGID_4_);}
	.st5{fill:url(#SVGID_5_);}
	.st6{opacity:0.3;fill:url(#SVGID_6_);enable-background:new    ;}
	.st7{fill:url(#SVGID_7_);}
	.st8{fill:url(#SVGID_8_);}
	.st9{fill:url(#SVGID_9_);}
	.st10{fill:url(#SVGID_10_);}
	.st11{fill:url(#SVGID_11_);}
	.st12{fill:url(#SVGID_12_);}
	.st13{fill:url(#SVGID_13_);}
	.st14{fill:url(#SVGID_14_);}
	.st15{fill:url(#SVGID_15_);}
	.st16{fill:url(#SVGID_16_);}
	.st17{fill:url(#SVGID_17_);}
	.st18{opacity:0.3;fill:url(#SVGID_18_);enable-background:new    ;}
	.st19{opacity:0.3;fill:url(#SVGID_19_);enable-background:new    ;}
	.st20{opacity:0.3;fill:url(#SVGID_20_);enable-background:new    ;}
	.st21{opacity:0.3;fill:url(#SVGID_21_);enable-background:new    ;}
	.st22{opacity:0.3;fill:url(#SVGID_22_);enable-background:new    ;}
	.st23{fill:url(#SVGID_23_);}
	.st24{fill:url(#SVGID_24_);}
	.st25{fill:url(#SVGID_25_);}
	.st26{fill:url(#SVGID_26_);}
	.st27{fill:url(#SVGID_27_);}
	.st28{fill:url(#SVGID_28_);}
</style>
<path class="st0" d="M8,0h690c4.4,0,8,3.6,8,8v284c0,4.4-3.6,8-8,8H8c-4.4,0-8-3.6-8-8V8C0,3.6,3.6,0,8,0z"/>
<linearGradient id="SVGID_1_" gradientUnits="userSpaceOnUse" x1="508.1645" y1="204.3033" x2="450.8685" y2="185.9153" gradientTransform="matrix(1 0 0 -1 0 302)">
	<stop  offset="0" style="stop-color:#FCB148"/>
	<stop  offset="5.207239e-02" style="stop-color:#FDBA46"/>
	<stop  offset="0.1424" style="stop-color:#FFC244"/>
	<stop  offset="0.3183" style="stop-color:#FFC444"/>
	<stop  offset="0.4849" style="stop-color:#FDB946"/>
	<stop  offset="0.7754" style="stop-color:#F99C4D"/>
	<stop  offset="0.8658" style="stop-color:#F8924F"/>
	<stop  offset="1" style="stop-color:#F8924F"/>
</linearGradient>
<path class="st1" d="M574.1,95.6c0,26.6-20.8,47.5-47.3,46.7c-27.6-0.9-50.9-24.7-50.9-53.3s23.3-49.3,50.9-46.4
	C553.3,45.3,574.1,69,574.1,95.6z"/>
<linearGradient id="SVGID_2_" gradientUnits="userSpaceOnUse" x1="554.518" y1="261.3371" x2="503.368" y2="148.4913" gradientTransform="matrix(1 0 0 -1 0 302)">
	<stop  offset="0" style="stop-color:#FFDB44"/>
	<stop  offset="1" style="stop-color:#FEEF06"/>
</linearGradient>
<path class="st2" d="M581.3,93.3c0,26.6-20.8,47.5-47.3,46.7c-27.6-0.8-50.9-24.7-50.9-53.3c0-28.6,23.3-49.3,50.9-46.4
	C560.5,43,581.3,66.7,581.3,93.3z"/>
<linearGradient id="SVGID_3_" gradientUnits="userSpaceOnUse" x1="545.1089" y1="142.1881" x2="535.2388" y2="196.1041" gradientTransform="matrix(1 0 0 -1 0 302)">
	<stop  offset="0" style="stop-color:#FCB148"/>
	<stop  offset="5.207239e-02" style="stop-color:#FDBA46"/>
	<stop  offset="0.1424" style="stop-color:#FFC244"/>
	<stop  offset="0.3183" style="stop-color:#FFC444"/>
	<stop  offset="0.4849" style="stop-color:#FDB946"/>
	<stop  offset="0.7754" style="stop-color:#F99C4D"/>
	<stop  offset="0.8658" style="stop-color:#F8924F"/>
	<stop  offset="1" style="stop-color:#F8924F"/>
</linearGradient>
<path class="st3" d="M579.2,93.2c0,25.4-19.9,45.4-45.3,44.5c-26.4-0.8-48.5-23.6-48.5-50.9c0-27.2,22.1-47,48.5-44.3
	C559.3,45.1,579.2,67.8,579.2,93.2z"/>
<linearGradient id="SVGID_4_" gradientUnits="userSpaceOnUse" x1="524.1818" y1="229.4588" x2="564.8558" y2="143.1173" gradientTransform="matrix(1 0 0 -1 0 302)">
	<stop  offset="0" style="stop-color:#FCB148"/>
	<stop  offset="5.207239e-02" style="stop-color:#FDBA46"/>
	<stop  offset="0.1424" style="stop-color:#FFC244"/>
	<stop  offset="0.3183" style="stop-color:#FFC444"/>
	<stop  offset="0.4849" style="stop-color:#FDB946"/>
	<stop  offset="0.7754" style="stop-color:#F99C4D"/>
	<stop  offset="0.8658" style="stop-color:#F8924F"/>
	<stop  offset="1" style="stop-color:#F8924F"/>
</linearGradient>
<path class="st4" d="M577.7,93.1c0,24.6-19.2,43.8-43.8,43c-25.4-0.9-46.8-22.9-46.8-49.1c0-26.3,21.3-45.4,46.8-42.8
	C558.5,46.6,577.7,68.5,577.7,93.1z"/>
<linearGradient id="SVGID_5_" gradientUnits="userSpaceOnUse" x1="522.5527" y1="248.035" x2="543.0046" y2="171.3848" gradientTransform="matrix(1 0 0 -1 0 302)">
	<stop  offset="0" style="stop-color:#FFDB44"/>
	<stop  offset="1" style="stop-color:#FEEF06"/>
</linearGradient>
<path class="st5" d="M533.7,52.5c1.3,0.1,2.4,1.3,2.4,2.6v4.5c2.6,0.3,5.2,0.7,7.8,1.4c1.9,0.5,3.8,1,5.7,1.6
	c1.1,0.4,1.9,1.5,1.8,2.7l-0.6,5.7c-0.1,1.5-1.6,2.4-3,1.8c-1.3-0.6-2.5-1-3.9-1.4c-2.3-0.7-4.7-1.1-7.3-1.4l-0.7-0.1v13
	c6.8,1.9,11.8,4.5,15,7.7c3.2,3.2,4.8,7.2,4.8,12c0,5.2-1.8,9.3-5.3,12.5c-3.6,3.1-8.6,4.9-15.1,5.3v5c0,1.3-1.1,2.4-2.4,2.3h0
	c-1.3-0.1-2.4-1.2-2.4-2.5v-4.9l-1.1-0.1c-3-0.1-6-0.4-8.7-0.9c-2.1-0.4-4.1-0.8-6-1.4c-1.2-0.3-2-1.5-1.9-2.7l0.7-7.3
	c0.1-1.6,1.7-2.5,3.2-1.9c1.8,0.7,3.5,1.3,5.3,1.7c2.8,0.7,5.6,1.2,8.5,1.4l0-14.4c-6.5-1.6-11.4-4-14.6-7.2
	c-3.2-3.2-4.8-7.3-4.8-12.2c0-5.1,1.8-9.1,5.3-11.9c3.5-2.8,8.4-4.1,14.8-4.1v-4.6C531.3,53.4,532.4,52.4,533.7,52.5z M531.3,69.8
	c-2,0.1-3.6,0.7-4.7,1.7c-1.1,1-1.7,2.3-1.7,3.9c0,1.5,0.5,2.8,1.6,3.9c1,1,2.7,1.9,4.8,2.5L531.3,69.8L531.3,69.8z M535.5,95.9
	v13.2c2.2,0,3.9-0.5,5.1-1.6c1.2-1,1.8-2.5,1.8-4.5c0-1.8-0.5-3.2-1.6-4.3C539.6,97.6,537.9,96.7,535.5,95.9z"/>
<linearGradient id="SVGID_6_" gradientUnits="userSpaceOnUse" x1="512.2133" y1="223.8699" x2="552.8052" y2="137.7021" gradientTransform="matrix(1 0 0 -1 0 302)">
	<stop  offset="0" style="stop-color:#FCB148"/>
	<stop  offset="5.207239e-02" style="stop-color:#FDBA46"/>
	<stop  offset="0.1424" style="stop-color:#FFC244"/>
	<stop  offset="0.3183" style="stop-color:#FFC444"/>
	<stop  offset="0.4849" style="stop-color:#FDB946"/>
	<stop  offset="0.7754" style="stop-color:#F99C4D"/>
	<stop  offset="0.8658" style="stop-color:#F8924F"/>
	<stop  offset="1" style="stop-color:#F8924F"/>
</linearGradient>
<path class="st6" d="M526,99.1c1.5-14.6,14.9-20.8,13.2-34.2c-1.1-8.3-7.4-15.3-14.4-20.7C503.6,46.4,487.2,64,487.2,87
	c0,26.3,21.3,48.3,46.8,49.1c2.5,0.1,4.9,0,7.2-0.4C531.1,125.7,524.8,111.6,526,99.1z"/>
<linearGradient id="SVGID_7_" gradientUnits="userSpaceOnUse" x1="833.7087" y1="46.3964" x2="492.6047" y2="219.9224" gradientTransform="matrix(1 0 0 -1 0 302)">
	<stop  offset="0" style="stop-color:#FBAE48"/>
	<stop  offset="1" style="stop-color:#E19A6C"/>
</linearGradient>
<path class="st7" d="M643.4,114.5L637,71.7l-14.2,1.4c-1.2-0.2-3.5,1-4,2.3l-18.6,43.3c-0.6,1.3,0.3,2.9,1.6,2.9l5.3-0.2v101
	c0,1.8,1.3,3.1,2.9,2.9l12.7,2.8c1.5-0.2,15.8-7.9,15.8-9.6V117.2l3.2,0C643.1,117.2,643.9,115.7,643.4,114.5z"/>
<linearGradient id="SVGID_8_" gradientUnits="userSpaceOnUse" x1="736.8434" y1="82.9166" x2="545.4004" y2="155.3546" gradientTransform="matrix(1 0 0 -1 0 302)">
	<stop  offset="0" style="stop-color:#FBAE48"/>
	<stop  offset="1" style="stop-color:#E19A6C"/>
</linearGradient>
<path class="st8" d="M621.3,120.9l-14,0.5v101c0,1.8,1.3,3.1,2.9,2.9l12.7,2.8c0.6-0.1,3.4-1.4,6.5-3.1L621.3,120.9z"/>
<linearGradient id="SVGID_9_" gradientUnits="userSpaceOnUse" x1="708.3859" y1="294.9481" x2="536.8619" y2="-78.7187" gradientTransform="matrix(1 0 0 -1 0 302)">
	<stop  offset="4.687500e-02" style="stop-color:#FFDFB0"/>
	<stop  offset="1" style="stop-color:#FFBA56"/>
</linearGradient>
<path class="st9" d="M655.5,120.7l-3.3,0v100.8c0,1.7-1.2,3.3-2.6,3.5l-25.5,3.3c-1.6,0.2-2.9-1.1-2.9-2.9V120.9l-3.5,0
	c-1.3,0-2.2-1.5-1.6-2.9l19.4-45.4c0.6-1.5,2.5-1.4,3.1,0.2l18.4,45.2C657.6,119.2,656.7,120.7,655.5,120.7z"/>
<linearGradient id="SVGID_10_" gradientUnits="userSpaceOnUse" x1="743.9564" y1="-25.6199" x2="494.9483" y2="202.8161" gradientTransform="matrix(1 0 0 -1 0 302)">
	<stop  offset="0" style="stop-color:#FBAE48"/>
	<stop  offset="1" style="stop-color:#E19A6C"/>
</linearGradient>
<path class="st10" d="M582.1,233.6l-13.3-3.1c-1.7,0.2-3-1.1-3-2.9v-82.5c0-1.8,1.4-3.3,3-3.3l28.5-0.8c1.6,0,14.8,0.7,14.8,0.7
	l-12,81.7C600.1,225.1,582.1,233.6,582.1,233.6z"/>
<linearGradient id="SVGID_11_" gradientUnits="userSpaceOnUse" x1="627.2693" y1="207.7828" x2="549.1263" y2="-32.1506" gradientTransform="matrix(1 0 0 -1 0 302)">
	<stop  offset="4.687500e-02" style="stop-color:#FFDFB0"/>
	<stop  offset="1" style="stop-color:#FFBA56"/>
</linearGradient>
<path class="st11" d="M614.4,144.7v81.8c0,0.5-0.2,0.9-0.4,1.4c-0.4,1.1-1.5,1.9-2.6,2.1l-28.2,3.6c-1.7,0.2-2.9-1.1-2.9-2.8v-84.9
	c0-1.8,1.3-3.3,2.9-3.3l6.1-0.2l22.1-0.7C613.1,141.6,614.4,143,614.4,144.7z"/>
<linearGradient id="SVGID_12_" gradientUnits="userSpaceOnUse" x1="657.1966" y1="-51.9485" x2="478.2736" y2="190.0855" gradientTransform="matrix(1 0 0 -1 0 302)">
	<stop  offset="0" style="stop-color:#FBAE48"/>
	<stop  offset="1" style="stop-color:#E19A6C"/>
</linearGradient>
<path class="st12" d="M537.5,239.4l-14-3.1c-1.8,0.2-3.3-1.1-3.3-3l0.4-57.8c0-1.9,1.5-3.5,3.3-3.6l31.3-1.9
	c1.7-0.1,16.1,1.9,16.1,1.9l-13.4,56.7C557.9,230.5,539.2,239.2,537.5,239.4z"/>
<linearGradient id="SVGID_13_" gradientUnits="userSpaceOnUse" x1="569.6269" y1="169.5438" x2="528.1498" y2="-17.8752" gradientTransform="matrix(1 0 0 -1 0 302)">
	<stop  offset="4.687500e-02" style="stop-color:#FFDFB0"/>
	<stop  offset="1" style="stop-color:#FFBA56"/>
</linearGradient>
<path class="st13" d="M572.3,174.4v57.3c0,1.8-1.3,3.4-3,3.6l-30.9,4c-1.8,0.2-3.2-1.1-3.2-3v-59.7c0-1.9,1.4-3.5,3.2-3.6l9.6-0.6
	l21.3-1.3C571,171.2,572.3,172.6,572.3,174.4z"/>
<linearGradient id="SVGID_14_" gradientUnits="userSpaceOnUse" x1="549.668" y1="-41.5146" x2="464.7679" y2="152.2294" gradientTransform="matrix(1 0 0 -1 0 302)">
	<stop  offset="0" style="stop-color:#FBAE48"/>
	<stop  offset="1" style="stop-color:#E19A6C"/>
</linearGradient>
<path class="st14" d="M486.6,245.3l-13.1-2.6c-2,0.3-3.7-1.1-3.7-3.1v-30c0-2,1.7-3.7,3.7-3.9l34.6-3.1c1.9-0.2,15,1.4,15,1.4
	l-11.6,30.5C511.5,236.3,488.6,245.1,486.6,245.3z"/>
<linearGradient id="SVGID_15_" gradientUnits="userSpaceOnUse" x1="511.3131" y1="123.485" x2="496.7311" y2="4.286" gradientTransform="matrix(1 0 0 -1 0 302)">
	<stop  offset="4.687500e-02" style="stop-color:#FFDFB0"/>
	<stop  offset="1" style="stop-color:#FFBA56"/>
</linearGradient>
<path class="st15" d="M526.4,207v30.5c0,0.6-0.1,1.2-0.4,1.7c-0.6,1.1-1.7,2-3,2.2l-1.3,0.2l-33,4.3c-2,0.3-3.7-1.1-3.7-3.1v-31.8
	c0-2,1.7-3.7,3.7-3.9l4.4-0.4l6.4-0.6l23.5-2.1C524.9,203.7,526.4,205.1,526.4,207z"/>
<linearGradient id="SVGID_16_" gradientUnits="userSpaceOnUse" x1="473.2858" y1="-32.5605" x2="426.3398" y2="126.2785" gradientTransform="matrix(1 0 0 -1 0 302)">
	<stop  offset="0" style="stop-color:#FBAE48"/>
	<stop  offset="1" style="stop-color:#E19A6C"/>
</linearGradient>
<path class="st16" d="M456.5,220.5l-38.4,4c-1.6,0.2-3.1,1.2-3.7,2.5c-0.2,0.5-0.4,1.1-0.4,1.6v16.5c0,2.1,1.8,3.8,4.1,4.6l13.6,2.7
	c2.1-0.3,28.6-9.7,28.6-11.7l6.4-7.7l6.4-10.9C473.1,222.2,458.6,220.3,456.5,220.5z"/>
<linearGradient id="SVGID_17_" gradientUnits="userSpaceOnUse" x1="455.6143" y1="98.4871" x2="448.5693" y2="10.7821" gradientTransform="matrix(1 0 0 -1 0 302)">
	<stop  offset="4.687500e-02" style="stop-color:#FFDFB0"/>
	<stop  offset="1" style="stop-color:#FFBA56"/>
</linearGradient>
<path class="st17" d="M475.9,225.5v18.3c0,2-1.7,3.8-3.8,4.1l-8.3,1.1l-29.7,3.8c-2.2,0.3-4.1-1.1-4.1-3.2v-19.2
	c0-2.1,1.8-3.9,4.1-4.2l5.8-0.6l32.2-3.4C474.1,222.1,475.9,223.6,475.9,225.5z"/>
<linearGradient id="SVGID_18_" gradientUnits="userSpaceOnUse" x1="678.4506" y1="230.1977" x2="568.4836" y2="-33.3863" gradientTransform="matrix(1 0 0 -1 0 302)">
	<stop  offset="4.687500e-02" style="stop-color:#FFDFB0"/>
	<stop  offset="1" style="stop-color:#FFBA56"/>
</linearGradient>
<path class="st18" d="M652.3,204.3v17.2c0,1.7-1.2,3.3-2.6,3.5l-25.5,3.3c-1.6,0.2-2.9-1.1-2.9-2.9V121.1
	c4.2,0.2,12.9,7.2,10.1,29.6c-3.9,30.6-3.8,32.1,1.1,37.2C635.5,191.1,647.3,194.7,652.3,204.3z"/>
<linearGradient id="SVGID_19_" gradientUnits="userSpaceOnUse" x1="626.8805" y1="206.8107" x2="549.3114" y2="-31.4282" gradientTransform="matrix(1 0 0 -1 0 302)">
	<stop  offset="4.687500e-02" style="stop-color:#FFDFB0"/>
	<stop  offset="1" style="stop-color:#FFBA56"/>
</linearGradient>
<path class="st19" d="M614,227.8c-0.4,1.1-1.4,1.9-2.5,2.1l-28.2,3.6c-1.7,0.2-2.9-1.1-2.9-2.8v-84.9c0-1.8,1.3-3.3,2.9-3.3l6.1-0.2
	c4.7,3.5,6.1,8.6,4,15.1c-7.5,23.1-6.3,36.1-1.5,41.2C596.1,203,616.4,208.1,614,227.8z"/>
<linearGradient id="SVGID_20_" gradientUnits="userSpaceOnUse" x1="568.9175" y1="167.6747" x2="528.9305" y2="-16.5083" gradientTransform="matrix(1 0 0 -1 0 302)">
	<stop  offset="3.597120e-03" style="stop-color:#FFC97A"/>
	<stop  offset="1" style="stop-color:#C9A97A"/>
</linearGradient>
<path class="st20" d="M572.3,226.8v4.9c0,1.8-1.3,3.4-3,3.6l-30.9,4c-1.8,0.2-3.2-1.1-3.2-3v-59.7c0-1.9,1.4-3.5,3.2-3.6l9.6-0.6
	c10.4,7.7-9.2,26.8,3.3,42.9C559.9,226.6,568.5,215.3,572.3,226.8z"/>
<linearGradient id="SVGID_21_" gradientUnits="userSpaceOnUse" x1="508.9612" y1="119.0279" x2="494.6402" y2="7.7829" gradientTransform="matrix(1 0 0 -1 0 302)">
	<stop  offset="3.597120e-03" style="stop-color:#FFC97A"/>
	<stop  offset="1" style="stop-color:#C9A97A"/>
</linearGradient>
<path class="st21" d="M521.8,241.5l-33,4.3c-2,0.3-3.7-1.1-3.7-3.1v-31.8c0-2,1.7-3.7,3.7-3.9l4.4-0.4c0.8,4.2,2.5,6.5,4.6,8.8
	C501.9,219.7,520.4,224.6,521.8,241.5z"/>
<linearGradient id="SVGID_22_" gradientUnits="userSpaceOnUse" x1="449.8293" y1="92.9336" x2="442.2743" y2="15.1376" gradientTransform="matrix(1 0 0 -1 0 302)">
	<stop  offset="3.597120e-03" style="stop-color:#FFC97A"/>
	<stop  offset="1" style="stop-color:#C9A97A"/>
</linearGradient>
<path class="st22" d="M463.8,249l-29.7,3.8c-2.2,0.3-4.1-1.1-4.1-3.2v-19.2c0-2.1,1.8-3.9,4.1-4.2l5.8-0.6c0.7,1.2,1.5,2.2,2.5,3.2
	C445.7,232.5,460.2,236.6,463.8,249z"/>
<linearGradient id="SVGID_23_" gradientUnits="userSpaceOnUse" x1="505.7676" y1="98.279" x2="448.9687" y2="114.361" gradientTransform="matrix(1 0 0 -1 0 302)">
	<stop  offset="0" style="stop-color:#F8924F"/>
	<stop  offset="1" style="stop-color:#BD8B6A"/>
</linearGradient>
<path class="st23" d="M461.9,199.6c1.8,0.9,4.1,0.1,5.1-1.9c1-2,0.3-4.3-1.5-5.2c-0.1-0.1-0.2-0.1-0.3-0.1c0.3-1.1,0.6-2.2,0.8-3.3
	c0.1,0,0.2,0,0.3,0c2.1-0.2,3.7-2.1,3.7-4.3c0-2.2-1.8-3.8-3.8-3.6c-0.1,0-0.2,0-0.3,0c-0.2-1.1-0.5-2.1-0.9-3.1
	c0.1-0.1,0.2-0.1,0.3-0.2c1.8-1.2,2.3-3.7,1.3-5.5c-1.1-1.8-3.4-2.2-5.2-1c-0.1,0.1-0.2,0.1-0.3,0.2c-0.7-0.8-1.5-1.5-2.3-2.2
	c0.1-0.1,0.1-0.2,0.2-0.3c1-2,2.3-4.1,0.5-5c-4.2-2.1-6.1-0.3-7.1,1.7c-0.1,0.1-0.1,0.2-0.1,0.3c-1-0.3-2.1-0.5-3.1-0.6
	c0-0.1,0-0.2,0-0.3c0-2.2,0.6-3.3-1.5-3.4c-4.5-0.1-6.1,1.9-6,4c0,0.1,0,0.2,0,0.3c-1,0.3-2.1,0.7-3.1,1.1c-0.1-0.1-0.1-0.2-0.2-0.3
	c-1.1-1.8-3.4-2.2-5.2-1s-2.3,3.7-1.3,5.5c0.1,0.1,0.1,0.2,0.2,0.3c-0.8,0.8-1.5,1.6-2.2,2.6c-0.1-0.1-0.2-0.1-0.3-0.2
	c-1.8-0.9-4.1-0.1-5.1,1.9c-1,2-0.3,4.3,1.5,5.2c0.1,0.1,0.2,0.1,0.3,0.1c-0.3,1.1-0.6,2.2-0.8,3.3c-0.1,0-0.2,0-0.3,0
	c-2.1,0.2-3.7,2.1-3.7,4.3c0,2.2,1.8,3.8,3.8,3.6c0.1,0,0.2,0,0.3,0c0.2,1.1,0.5,2.1,0.9,3.1c-0.1,0.1-0.2,0.1-0.3,0.2
	c-1.8,1.2-2.3,3.7-1.3,5.5c1.1,1.8,4.6,2.6,6.4,1.4c0.1-0.1-1.1-0.5-1-0.6c0.7,0.8,1.5,1.5,2.3,2.2c-0.1,0.1-0.1,0.2-0.2,0.3
	c-1,2-0.3,4.3,1.5,5.2s4.1,0.1,5.1-1.9c0.1-0.1,0.1-0.2,0.1-0.3c1,0.3,2.1,0.5,3.1,0.6c0,0.1,0,0.2,0,0.3c0,2.2,1.8,3.8,3.8,3.6
	c2.1-0.2,3.7-2.1,3.7-4.3c0-0.1,0-0.2,0-0.3c1-0.3,2.1-0.7,3.1-1.1c0.1,0.1,0.1,0.2,0.2,0.3c1.1,1.8,3.4,2.2,5.2,1
	c1.8-1.2,2.3-3.7,1.3-5.5c-0.1-0.1-0.1-0.2-0.2-0.3c0.8-0.8,1.5-1.6,2.2-2.6C461.7,199.5,461.8,199.6,461.9,199.6z M439.2,199.9
	c-6.6-3.4-9-11.9-5.4-19c3.6-7.2,11.9-10.2,18.5-6.9c6.6,3.4,9,11.9,5.4,19C454.1,200.2,445.8,203.3,439.2,199.9z"/>
<linearGradient id="SVGID_24_" gradientUnits="userSpaceOnUse" x1="505.6165" y1="97.777" x2="448.8345" y2="113.831" gradientTransform="matrix(1 0 0 -1 0 302)">
	<stop  offset="0" style="stop-color:#BD8A69"/>
	<stop  offset="1" style="stop-color:#81614C"/>
</linearGradient>
<path class="st24" d="M466.3,189.1c2.1-0.2,3.7-2.1,3.7-4.3c0-2.2-1.8-3.8-3.8-3.6c-0.1,0-0.2,0-0.3,0c-0.2-1.1-0.5-2.1-0.9-3.1
	c0.1-0.1,0.2-0.1,0.3-0.2c1.8-1.2,4-4.2,2.7-5.9c-2.4-3.2-4.8-1.8-6.6-0.5c-0.1,0.1-0.2,0.1-0.3,0.2c-0.7-0.8-1.5-1.5-2.3-2.2
	c0.1-0.1,0.1-0.2,0.2-0.3c0.5-1.1,0.6-2.3,0.2-3.3c-1.7,3-3.4,6-5.1,9.1c5.3,3.9,6.9,11.5,3.7,18c-2.8,5.5-8.3,8.6-13.8,8.2
	c-0.2,0.6-0.5,1.3-0.7,1.9c-0.7,1.7-1.5,3.3-2.3,5c0.5,0.1,1,0.2,1.5,0.2c0,0.1,0,0.2,0,0.3c0,2.2,1.4,4,5.1,3.8
	c2.1-0.1,2.4-2.3,2.4-4.5c0-0.1,0-0.2,0-0.3c1-0.3,2.1-0.7,3.1-1.1c0.1,0.1,0.1,0.2,0.2,0.3c1.1,1.8,4.8,2.5,6.6,1.3s0.9-4-0.2-5.8
	c-0.1-0.1-0.1-0.2-0.2-0.3c0.8-0.8,1.5-1.6,2.2-2.6c0.1,0.1,0.2,0.1,0.3,0.2c1.8,0.9,4.1,0.1,5.1-1.9c1-2,0.3-4.3-1.5-5.2
	c-0.1-0.1-0.2-0.1-0.3-0.1c0.3-1.1,0.6-2.2,0.8-3.3C466.1,189.1,466.2,189.1,466.3,189.1z"/>
<linearGradient id="SVGID_25_" gradientUnits="userSpaceOnUse" x1="454.7622" y1="170.6751" x2="436.6462" y2="26.9781" gradientTransform="matrix(1 0 0 -1 0 302)">
	<stop  offset="3.597120e-03" style="stop-color:#FFC97A"/>
	<stop  offset="1" style="stop-color:#C9A97A"/>
</linearGradient>
<path class="st25" d="M463.8,199.8c1.8,0.9,4.1,0.1,5.1-1.9c1-2,0.3-4.3-1.5-5.2c-0.1-0.1-0.2-0.1-0.3-0.1c0.3-1.1,0.6-2.2,0.8-3.3
	c0.1,0,0.2,0,0.3,0c2.1-0.2,3.7-2.1,3.7-4.3c0-2.2-1.8-3.8-3.8-3.6c-0.1,0-0.2,0-0.3,0c-0.2-1.1-0.5-2.1-0.9-3.1
	c0.1-0.1,0.2-0.1,0.3-0.2c1.8-1.2,2.3-3.7,1.3-5.5c-1.1-1.8-3.4-2.2-5.2-1c-0.1,0.1-0.2,0.1-0.3,0.2c-0.7-0.8-1.5-1.5-2.3-2.2
	c0.1-0.1,0.1-0.2,0.2-0.3c1-2,0.3-4.3-1.5-5.2s-4.1-0.1-5.1,1.9c-0.1,0.1-0.1,0.2-0.1,0.3c-1-0.3-2.1-0.5-3.1-0.6c0-0.1,0-0.2,0-0.3
	c0-2.2-1.8-3.8-3.8-3.6c-2.1,0.2-3.7,2.1-3.7,4.3c0,0.1,0,0.2,0,0.3c-1,0.3-2.1,0.7-3.1,1.1c-0.1-0.1-0.1-0.2-0.2-0.3
	c-1.1-1.8-3.4-2.2-5.2-1c-1.8,1.2-2.3,3.7-1.3,5.5c0.1,0.1,0.1,0.2,0.2,0.3c-0.8,0.8-1.5,1.6-2.2,2.6c-0.1-0.1-0.2-0.1-0.3-0.2
	c-1.8-0.9-4.1-0.1-5.1,1.9c-1,2-0.3,4.3,1.5,5.2c0.1,0.1,0.2,0.1,0.3,0.1c-0.3,1.1-0.6,2.2-0.8,3.3c-0.1,0-0.2,0-0.3,0
	c-2.1,0.2-3.7,2.1-3.7,4.3c0,2.2,1.8,3.8,3.8,3.6c0.1,0,0.2,0,0.3,0c0.2,1.1,0.5,2.1,0.9,3.1c-0.1,0.1-0.2,0.1-0.3,0.2
	c-1.8,1.2-2.3,3.7-1.3,5.5c1.1,1.8,3.4,2.2,5.2,1c0.1-0.1,0.2-0.1,0.3-0.2c0.7,0.8,1.5,1.5,2.3,2.2c-0.1,0.1-0.1,0.2-0.2,0.3
	c-1,2-0.3,4.3,1.5,5.2c1.8,0.9,4.1,0.1,5.1-1.9c0.1-0.1,0.1-0.2,0.1-0.3c1,0.3,2,0.5,3.1,0.6c0,0.1,0,0.2,0,0.3
	c0,2.2,1.8,3.8,3.8,3.6c2.1-0.2,3.7-2.1,3.7-4.3c0-0.1,0-0.2,0-0.3c1-0.3,2.1-0.7,3.1-1.1c0.1,0.1,0.1,0.2,0.2,0.3
	c1.1,1.8,3.4,2.2,5.2,1s2.3-3.7,1.3-5.5c-0.1-0.1-0.1-0.2-0.2-0.3c0.8-0.8,1.5-1.6,2.2-2.6C463.6,199.7,463.7,199.8,463.8,199.8z
	 M441.1,200.1c-6.6-3.4-9-11.9-5.4-19c3.6-7.2,11.9-10.2,18.5-6.9c6.6,3.4,9,11.9,5.4,19C456,200.4,447.7,203.5,441.1,200.1z"/>
<linearGradient id="SVGID_26_" gradientUnits="userSpaceOnUse" x1="536.8257" y1="117.4379" x2="495.7137" y2="129.0719" gradientTransform="matrix(1 0 0 -1 0 302)">
	<stop  offset="0" style="stop-color:#F8924F"/>
	<stop  offset="1" style="stop-color:#BD8B6A"/>
</linearGradient>
<path class="st26" d="M505,181.6c1.3,0.7,3,0.1,3.7-1.4c0.7-1.4,0.2-3.1-1.1-3.8c-0.1,0-0.1-0.1-0.2-0.1c0.2-0.8,0.4-1.6,0.5-2.4
	c0.1,0,0.2,0,0.2,0c1.5-0.1,2.7-1.5,2.7-3.1c0-1.6-1.3-2.7-2.8-2.6c-0.1,0-0.2,0-0.2,0c-0.2-0.8-0.4-1.5-0.6-2.3
	c0.1,0,0.1-0.1,0.2-0.1c1.3-0.9,1.7-2.7,0.9-4c-0.8-1.3-2.5-1.6-3.7-0.7c-0.1,0-0.1,0.1-0.2,0.1c-0.5-0.6-1.1-1.1-1.7-1.6
	c0-0.1,0.1-0.1,0.1-0.2c0.7-1.4,1.7-3,0.3-3.6c-3.1-1.5-4.4-0.2-5.1,1.2c0,0.1-0.1,0.1-0.1,0.2c-0.7-0.2-1.5-0.4-2.2-0.4
	c0-0.1,0-0.2,0-0.2c0-1.6,0.4-2.4-1.1-2.4c-3.3-0.1-4.4,1.4-4.4,2.9c0,0.1,0,0.2,0,0.2c-0.8,0.2-1.5,0.5-2.2,0.8
	c0-0.1-0.1-0.1-0.1-0.2c-0.8-1.3-2.5-1.6-3.7-0.7c-1.3,0.9-1.7,2.7-0.9,4c0,0.1,0.1,0.1,0.1,0.2c-0.6,0.6-1.1,1.2-1.6,1.9
	c-0.1,0-0.1-0.1-0.2-0.1c-1.3-0.7-3-0.1-3.7,1.4c-0.7,1.4-0.2,3.1,1.1,3.8c0.1,0,0.1,0.1,0.2,0.1c-0.2,0.8-0.4,1.6-0.5,2.4
	c-0.1,0-0.2,0-0.2,0c-1.5,0.1-2.7,1.5-2.7,3.1c0,1.6,1.3,2.7,2.8,2.6c0.1,0,0.2,0,0.2,0c0.2,0.8,0.4,1.5,0.6,2.3
	c-0.1,0-0.1,0.1-0.2,0.1c-1.3,0.9-1.7,2.7-0.9,4c0.8,1.3,3.4,1.9,4.6,1c0.1,0-0.8-0.4-0.7-0.4c0.5,0.6,1.1,1.1,1.7,1.6
	c0,0.1-0.1,0.1-0.1,0.2c-0.7,1.4-0.2,3.1,1.1,3.8c1.3,0.7,3,0.1,3.7-1.4c0-0.1,0.1-0.1,0.1-0.2c0.7,0.2,1.5,0.4,2.2,0.4
	c0,0.1,0,0.2,0,0.2c0,1.6,1.3,2.7,2.8,2.6c1.5-0.1,2.7-1.5,2.7-3.1c0-0.1,0-0.2,0-0.2c0.8-0.2,1.5-0.5,2.2-0.8
	c0,0.1,0.1,0.1,0.1,0.2c0.8,1.3,2.5,1.6,3.7,0.7c1.3-0.9,1.7-2.7,0.9-4c0-0.1-0.1-0.1-0.1-0.2c0.6-0.6,1.1-1.2,1.6-1.9
	C504.9,181.5,505,181.6,505,181.6z M488.6,181.8c-4.8-2.4-6.5-8.6-3.9-13.8c2.6-5.2,8.6-7.4,13.4-5c4.8,2.4,6.5,8.6,3.9,13.8
	C499.4,182,493.4,184.2,488.6,181.8z"/>
<linearGradient id="SVGID_27_" gradientUnits="userSpaceOnUse" x1="536.7198" y1="117.0609" x2="495.6068" y2="128.6949" gradientTransform="matrix(1 0 0 -1 0 302)">
	<stop  offset="0" style="stop-color:#BD8A69"/>
	<stop  offset="1" style="stop-color:#81614C"/>
</linearGradient>
<path class="st27" d="M508.2,174c1.5-0.1,2.7-1.5,2.7-3.1c0-1.6-1.3-2.7-2.8-2.6c-0.1,0-0.2,0-0.2,0c-0.2-0.8-0.4-1.5-0.6-2.3
	c0.1,0,0.1-0.1,0.2-0.1c1.3-0.9,2.9-3.1,2-4.3c-1.7-2.3-3.5-1.3-4.8-0.4c-0.1,0-0.1,0.1-0.2,0.1c-0.5-0.6-1.1-1.1-1.7-1.6
	c0-0.1,0.1-0.1,0.1-0.2c0.4-0.8,0.4-1.6,0.2-2.4c-1.2,2.2-2.5,4.4-3.7,6.6c3.8,2.8,5,8.3,2.6,13c-2,4-6,6.2-10,5.9
	c-0.2,0.5-0.3,0.9-0.5,1.4c-0.5,1.2-1.1,2.4-1.7,3.6c0.4,0.1,0.7,0.1,1.1,0.2c0,0.1,0,0.2,0,0.2c0,1.6,1,2.9,3.7,2.8
	c1.5-0.1,1.8-1.7,1.7-3.2c0-0.1,0-0.2,0-0.2c0.8-0.2,1.5-0.5,2.2-0.8c0,0.1,0.1,0.1,0.1,0.2c0.8,1.3,3.5,1.8,4.8,0.9
	c1.3-0.9,0.7-2.9-0.1-4.2c0-0.1-0.1-0.1-0.1-0.2c0.6-0.6,1.1-1.2,1.6-1.9c0.1,0,0.1,0.1,0.2,0.1c1.3,0.7,3,0.1,3.7-1.4
	c0.7-1.4,0.2-3.1-1.1-3.8c-0.1,0-0.1-0.1-0.2-0.1c0.2-0.8,0.4-1.6,0.5-2.4C508.1,174,508.2,174,508.2,174z"/>
<linearGradient id="SVGID_28_" gradientUnits="userSpaceOnUse" x1="499.9172" y1="169.845" x2="486.7952" y2="65.8" gradientTransform="matrix(1 0 0 -1 0 302)">
	<stop  offset="3.597120e-03" style="stop-color:#FFC97A"/>
	<stop  offset="1" style="stop-color:#C9A97A"/>
</linearGradient>
<path class="st28" d="M506.5,181.8c1.3,0.7,3,0.1,3.7-1.4c0.7-1.4,0.2-3.1-1.1-3.8c-0.1,0-0.1-0.1-0.2-0.1c0.2-0.8,0.4-1.6,0.5-2.4
	c0.1,0,0.2,0,0.2,0c1.5-0.1,2.7-1.5,2.7-3.1c0-1.6-1.3-2.7-2.8-2.6c-0.1,0-0.2,0-0.2,0c-0.2-0.8-0.4-1.5-0.6-2.3
	c0.1,0,0.1-0.1,0.2-0.1c1.3-0.9,1.7-2.7,0.9-4c-0.8-1.3-2.5-1.6-3.7-0.7c-0.1,0-0.1,0.1-0.2,0.1c-0.5-0.6-1.1-1.1-1.7-1.6
	c0-0.1,0.1-0.1,0.1-0.2c0.7-1.4,0.2-3.1-1.1-3.8c-1.3-0.7-3-0.1-3.7,1.4c0,0.1-0.1,0.1-0.1,0.2c-0.7-0.2-1.5-0.4-2.2-0.4
	c0-0.1,0-0.2,0-0.2c0-1.6-1.3-2.7-2.8-2.6c-1.5,0.1-2.7,1.5-2.7,3.1c0,0.1,0,0.2,0,0.2c-0.8,0.2-1.5,0.5-2.2,0.8
	c0-0.1-0.1-0.1-0.1-0.2c-0.8-1.3-2.5-1.6-3.7-0.7c-1.3,0.9-1.7,2.7-0.9,4c0,0.1,0.1,0.1,0.1,0.2c-0.6,0.6-1.1,1.2-1.6,1.9
	c-0.1,0-0.1-0.1-0.2-0.1c-1.3-0.7-3-0.1-3.7,1.4c-0.7,1.4-0.2,3.1,1.1,3.8c0.1,0,0.1,0.1,0.2,0.1c-0.2,0.8-0.4,1.6-0.5,2.4
	c-0.1,0-0.2,0-0.2,0c-1.5,0.1-2.7,1.5-2.7,3.1c0,1.6,1.3,2.7,2.8,2.6c0.1,0,0.2,0,0.2,0c0.2,0.8,0.4,1.5,0.6,2.3
	c-0.1,0-0.1,0.1-0.2,0.1c-1.3,0.9-1.7,2.7-0.9,4c0.8,1.3,2.5,1.6,3.7,0.7c0.1,0,0.1-0.1,0.2-0.1c0.5,0.6,1.1,1.1,1.7,1.6
	c0,0.1-0.1,0.1-0.1,0.2c-0.7,1.4-0.2,3.1,1.1,3.8c1.3,0.7,3,0.1,3.7-1.4c0-0.1,0.1-0.1,0.1-0.2c0.7,0.2,1.5,0.4,2.2,0.4
	c0,0.1,0,0.2,0,0.2c0,1.6,1.3,2.7,2.8,2.6c1.5-0.1,2.7-1.5,2.7-3.1c0-0.1,0-0.2,0-0.2c0.8-0.2,1.5-0.5,2.2-0.8
	c0,0.1,0.1,0.1,0.1,0.2c0.8,1.3,2.5,1.6,3.7,0.7c1.3-0.9,1.7-2.7,0.9-4c0-0.1-0.1-0.1-0.1-0.2c0.6-0.6,1.1-1.2,1.6-1.9
	C506.3,181.7,506.4,181.7,506.5,181.8z M490.1,182c-4.8-2.4-6.5-8.6-3.9-13.8c2.6-5.2,8.6-7.4,13.4-5c4.8,2.4,6.5,8.6,3.9,13.8
	C500.8,182.2,494.8,184.4,490.1,182z"/>
</svg>
