<svg width="36" height="36" viewBox="0 0 36 36" fill="none" xmlns="http://www.w3.org/2000/svg">
<g clip-path="url(#clip0_114_1554)">
<path d="M30.7263 18.8547H27.2024C26.7228 18.8547 26.2585 18.9203 25.8165 19.0408C24.9448 17.3271 23.1651 16.1497 21.1142 16.1497H14.8853C12.8345 16.1497 11.0547 17.3271 10.183 19.0408C9.74106 18.9203 9.27672 18.8547 8.79712 18.8547H5.27319C2.36542 18.8547 -0.000244141 21.2204 -0.000244141 24.1282V29.7615C-0.000244141 31.5061 1.41915 32.9255 3.16382 32.9255H32.8357C34.5804 32.9255 35.9998 31.5061 35.9998 29.7615V24.1282C35.9998 21.2204 33.6341 18.8547 30.7263 18.8547ZM9.61183 21.4232V30.8162H3.16382C2.58226 30.8162 2.10913 30.3431 2.10913 29.7615V24.1282C2.10913 22.3836 3.52853 20.9642 5.27319 20.9642H8.79712C9.08343 20.9642 9.36067 21.003 9.62462 21.0747C9.61703 21.1901 9.61183 21.3061 9.61183 21.4232ZM24.2783 30.8162H11.7212V21.4232C11.7212 19.6785 13.1406 18.2591 14.8853 18.2591H21.1142C22.8589 18.2591 24.2783 19.6785 24.2783 21.4232V30.8162ZM33.8904 29.7615C33.8904 30.3431 33.4172 30.8162 32.8357 30.8162H26.3877V21.4232C26.3877 21.306 26.3825 21.1899 26.3749 21.0746C26.6388 21.003 26.9161 20.9641 27.2024 20.9641H30.7263C32.471 20.9641 33.8904 22.3835 33.8904 24.1282V29.7615Z" fill="white"/>
<path d="M7.03517 8.89478C4.45125 8.89478 2.34912 10.9969 2.34912 13.5808C2.34905 16.1647 4.45125 18.2669 7.03517 18.2669C9.61901 18.2669 11.7212 16.1647 11.7212 13.5808C11.7212 10.9969 9.61908 8.89478 7.03517 8.89478ZM7.0351 16.1575C5.61429 16.1575 4.45843 15.0016 4.45843 13.5808C4.45843 12.16 5.61429 11.0042 7.0351 11.0042C8.4559 11.0042 9.61177 12.16 9.61177 13.5808C9.61177 15.0016 8.4559 16.1575 7.0351 16.1575Z" fill="white"/>
<path d="M17.9997 3.07373C14.5477 3.07373 11.7393 5.88215 11.7393 9.33422C11.7393 12.7863 14.5477 15.5947 17.9997 15.5947C21.4518 15.5947 24.2602 12.7863 24.2602 9.33422C24.2602 5.88222 21.4518 3.07373 17.9997 3.07373ZM17.9997 13.4853C15.7108 13.4853 13.8486 11.6232 13.8486 9.33422C13.8486 7.04533 15.7108 5.18311 17.9997 5.18311C20.2887 5.18311 22.1508 7.04526 22.1508 9.33422C22.1508 11.6232 20.2887 13.4853 17.9997 13.4853Z" fill="white"/>
<path d="M28.9641 8.89478C26.3803 8.89478 24.2781 10.9969 24.2781 13.5808C24.2781 16.1647 26.3803 18.2669 28.9641 18.2669C31.548 18.2669 33.6502 16.1647 33.6502 13.5808C33.6502 10.9969 31.548 8.89478 28.9641 8.89478ZM28.9641 16.1575C27.5434 16.1575 26.3875 15.0016 26.3875 13.5808C26.3875 12.16 27.5434 11.0042 28.9641 11.0042C30.3849 11.0042 31.5408 12.16 31.5408 13.5808C31.5408 15.0016 30.3849 16.1575 28.9641 16.1575Z" fill="white"/>
</g>
<defs>
<clipPath id="clip0_114_1554">
<rect width="36" height="36" fill="white" transform="translate(-0.000244141)"/>
</clipPath>
</defs>
</svg>
