<svg width="36" height="36" viewBox="0 0 36 36" fill="none" xmlns="http://www.w3.org/2000/svg">
<g clip-path="url(#clip0_114_7900)">
<path d="M34.4477 24.4743C35.1855 23.5332 35.5393 22.5245 35.4941 21.4856C35.449 20.3413 34.9371 19.4454 34.5155 18.8959C35.0048 17.6763 35.193 15.7566 33.5594 14.266C32.3624 13.1744 30.3298 12.6851 27.5142 12.8206C25.5343 12.9109 23.8781 13.2798 23.8103 13.2949H23.8028C23.4264 13.3626 23.0274 13.4454 22.6209 13.5358C22.5908 13.054 22.6736 11.857 23.5619 9.16186C24.6159 5.95483 24.5556 3.50063 23.3662 1.85947C22.1165 0.135508 20.1215 0 19.5343 0C18.9697 0 18.4502 0.233375 18.0814 0.662484C17.2457 1.63363 17.3436 3.42534 17.449 4.25345C16.4553 6.91844 13.6698 13.4529 11.3135 15.2673C11.2683 15.2974 11.2307 15.335 11.193 15.3726C10.5004 16.1029 10.0337 16.8934 9.71748 17.5859C9.27332 17.345 8.76893 17.2095 8.22689 17.2095H3.63467C1.90318 17.2095 0.50293 18.6173 0.50293 20.3413V32.5747C0.50293 34.3061 1.91071 35.7064 3.63467 35.7064H8.22689C8.89691 35.7064 9.52175 35.4956 10.0337 35.1343L11.8028 35.345C12.0738 35.3827 16.8919 35.9925 21.8379 35.8946C22.7338 35.9624 23.577 36 24.3599 36C25.7074 36 26.8819 35.8946 27.8605 35.6838C30.1642 35.1945 31.7376 34.2158 32.5356 32.7779C33.1453 31.6788 33.1453 30.5872 33.0475 29.8946C34.5456 28.5395 34.8091 27.0414 34.7564 25.9875C34.7263 25.3777 34.5908 24.8582 34.4477 24.4743ZM3.63467 33.6738C3.02489 33.6738 2.53555 33.1769 2.53555 32.5747V20.3338C2.53555 19.724 3.03242 19.2346 3.63467 19.2346H8.22689C8.83668 19.2346 9.32602 19.7315 9.32602 20.3338V32.5671C9.32602 33.1769 8.82915 33.6662 8.22689 33.6662H3.63467V33.6738ZM32.5205 23.5935C32.2043 23.9247 32.1441 24.4291 32.385 24.8206C32.385 24.8281 32.6936 25.3551 32.7313 26.0778C32.784 27.064 32.3097 27.9373 31.316 28.6826C30.9622 28.9536 30.8191 29.4203 30.9697 29.8419C30.9697 29.8494 31.2934 30.8432 30.7664 31.7842C30.262 32.6876 29.1403 33.335 27.4389 33.6964C26.0763 33.99 24.2244 34.0427 21.9509 33.862C21.9207 33.862 21.8831 33.862 21.8455 33.862C17.0048 33.9674 12.1115 33.335 12.0588 33.3275H12.0512L11.2909 33.2371C11.3361 33.0263 11.3586 32.8005 11.3586 32.5747V20.3338C11.3586 20.01 11.3059 19.6939 11.2156 19.4003C11.3511 18.8959 11.7275 17.7742 12.6159 16.8181C15.996 14.138 19.3009 5.09661 19.444 4.70514C19.5042 4.54705 19.5192 4.3739 19.4891 4.20075C19.3611 3.35759 19.4063 2.32622 19.587 2.01757C19.986 2.02509 21.0625 2.13802 21.71 3.03388C22.4778 4.09536 22.4477 5.99247 21.6196 8.5069C20.3549 12.3388 20.2495 14.3563 21.2507 15.2447C21.7476 15.6888 22.4101 15.7114 22.8919 15.5383C23.3511 15.4329 23.7878 15.3425 24.2018 15.2748C24.2319 15.2673 24.2696 15.2597 24.2997 15.2522C26.6108 14.7478 30.7514 14.4391 32.1893 15.7491C33.4088 16.8632 32.5431 18.3388 32.4452 18.4969C32.1667 18.9184 32.2495 19.468 32.6259 19.8068C32.6334 19.8143 33.4239 20.5596 33.4615 21.5609C33.4916 22.2309 33.1755 22.9159 32.5205 23.5935Z" fill="white"/>
</g>
<defs>
<clipPath id="clip0_114_7900">
<rect width="36" height="36" fill="white"/>
</clipPath>
</defs>
</svg>
