<svg width="25" height="20" viewBox="0 0 25 20" fill="none" xmlns="http://www.w3.org/2000/svg">
<g clip-path="url(#clip0_32_455)">
<path d="M23.0645 0.968262H6.93548C5.87097 0.968262 5 1.83923 5 2.90375C5 3.96826 5.87097 4.83923 6.93548 4.83923H23.0645C24.129 4.83923 25 3.96826 25 2.90375C25 1.83923 24.129 0.968262 23.0645 0.968262Z" fill="#313131"/>
<path d="M20.565 8.06445H4.43597C3.37146 8.06445 2.50049 8.93542 2.50049 9.99994C2.50049 11.0645 3.37146 11.9354 4.43597 11.9354H20.565C21.6295 11.9354 22.5005 11.0645 22.5005 9.99994C22.5005 8.93542 21.6295 8.06445 20.565 8.06445Z" fill="#313131"/>
<path d="M18.065 15.1626H1.93597C0.871456 15.1626 0.000488281 16.0336 0.000488281 17.0981C0.000488281 18.1626 0.871456 19.0336 1.93597 19.0336H18.065C19.1295 19.0336 20.0005 18.1626 20.0005 17.0981C20.0005 16.0336 19.1295 15.1626 18.065 15.1626Z" fill="#313131"/>
</g>
<defs>
<clipPath id="clip0_32_455">
<rect width="25" height="20" fill="white"/>
</clipPath>
</defs>
</svg>
