<svg width="24" height="24" viewBox="0 0 24 24" fill="none" xmlns="http://www.w3.org/2000/svg">
<path fill-rule="evenodd" clip-rule="evenodd" d="M19.6342 4.5355C17.6652 2.56425 15.0468 1.47819 12.257 1.47705C6.50877 1.47705 1.8303 6.15513 1.82806 11.9051C1.82726 13.7432 2.30749 15.5373 3.22015 17.1189L1.7406 22.523L7.26911 21.0728C8.79235 21.9036 10.5074 22.3415 12.2528 22.3421H12.2571C12.2574 22.3421 12.2568 22.3421 12.2572 22.3421C18.0048 22.3421 22.6835 17.6636 22.686 11.9135C22.687 9.12684 21.6032 6.50667 19.6342 4.5355ZM12.257 20.5809H12.2535C10.6982 20.5803 9.17263 20.1624 7.84176 19.3726L7.52527 19.1848L4.24457 20.0454L5.12028 16.8467L4.91416 16.5187C4.04649 15.1387 3.58824 13.5436 3.58891 11.9057C3.59078 7.12655 7.47934 3.23841 12.2605 3.23841C14.5758 3.23913 16.7521 4.14197 18.3887 5.7804C20.0252 7.41882 20.926 9.59666 20.9251 11.9128C20.9231 16.6923 17.0347 20.5809 12.257 20.5809Z" fill="#FCD9A6"/>
<path fill-rule="evenodd" clip-rule="evenodd" d="M17.0117 14.0892C16.7511 13.9587 15.4699 13.3284 15.2311 13.2414C14.9922 13.1544 14.8185 13.111 14.6448 13.3718C14.4711 13.6326 13.9717 14.2196 13.8197 14.3936C13.6677 14.5674 13.5156 14.5893 13.2551 14.4587C12.9946 14.3283 12.1549 14.0532 11.1596 13.1654C10.3849 12.4744 9.86199 11.6211 9.70993 11.3602C9.55795 11.0994 9.69376 10.9584 9.82423 10.8284C9.94145 10.7116 10.0848 10.5241 10.2151 10.3719C10.3454 10.2198 10.3888 10.111 10.4757 9.9372C10.5626 9.76325 10.5192 9.61106 10.454 9.48068C10.3888 9.35025 9.8677 8.06763 9.65058 7.54579C9.439 7.03775 9.2242 7.10658 9.06422 7.0985C8.91245 7.09092 8.73851 7.08936 8.56481 7.08936C8.39112 7.08936 8.10876 7.15459 7.86996 7.41541C7.63111 7.67631 6.95789 8.30678 6.95789 9.58926C6.95789 10.8719 7.89163 12.111 8.02193 12.2849C8.15219 12.4589 9.85941 15.0908 12.4734 16.2195C13.0951 16.4881 13.5805 16.6484 13.9589 16.7684C14.5832 16.9668 15.1512 16.9388 15.6002 16.8717C16.1009 16.7969 17.142 16.2413 17.3591 15.6327C17.5763 15.024 17.5763 14.5022 17.5111 14.3935C17.446 14.2849 17.2722 14.2196 17.0117 14.0892Z" fill="#FCD9A6"/>
</svg>
