<svg xmlns="http://www.w3.org/2000/svg" xmlns:xlink="http://www.w3.org/1999/xlink" viewBox="0 0 1015 1014.25"><defs><style>.cls-1{fill:#fcd9a6;}.cls-2{mask:url(#mask);}.cls-3{fill:url(#Безымянный_градиент_37);}.cls-4{fill:url(#Безымянный_градиент_37-2);}.cls-5{fill:url(#Безымянный_градиент_37-3);}.cls-6{fill:url(#Безымянный_градиент_37-4);}.cls-7{fill:url(#Безымянный_градиент_37-5);}.cls-8{fill:url(#Безымянный_градиент_37-6);}.cls-9{fill:url(#Безымянный_градиент_37-7);}.cls-10{fill:url(#Безымянный_градиент_37-8);}.cls-11{fill:url(#Безымянный_градиент_37-9);}.cls-12{fill:url(#Безымянный_градиент_37-10);}.cls-13{fill:url(#Безымянный_градиент_37-11);}.cls-14{fill:url(#Безымянный_градиент_37-12);}.cls-15{fill:url(#Безымянный_градиент_37-13);}.cls-16{fill:url(#Безымянный_градиент_37-14);}.cls-17{fill:url(#Безымянный_градиент_37-15);}.cls-18{fill:url(#Безымянный_градиент_37-16);}.cls-19{fill:url(#Безымянный_градиент_37-17);}.cls-20{fill:url(#Безымянный_градиент_37-18);}.cls-21{fill:url(#Безымянный_градиент_37-19);}.cls-22{fill:url(#Безымянный_градиент_37-20);}.cls-23{fill:url(#Безымянный_градиент_37-21);}.cls-24{fill:url(#Безымянный_градиент_37-22);}.cls-25{fill:url(#Безымянный_градиент_37-23);}.cls-26{fill:url(#Безымянный_градиент_37-24);}.cls-27{fill:url(#Безымянный_градиент_37-25);}.cls-28{fill:url(#Безымянный_градиент_37-26);}.cls-29{fill:url(#Безымянный_градиент_37-27);}.cls-30{fill:url(#Безымянный_градиент_37-28);}.cls-31{fill:url(#Безымянный_градиент_37-29);}.cls-32{fill:url(#Безымянный_градиент_37-30);}.cls-33{fill:url(#Безымянный_градиент_37-31);}.cls-34{fill:url(#Безымянный_градиент_37-32);}.cls-35{fill:url(#Безымянный_градиент_37-33);}.cls-36{fill:url(#Безымянный_градиент_37-34);}.cls-37{fill:url(#Безымянный_градиент_37-35);}.cls-38{fill:url(#Безымянный_градиент_37-36);}.cls-39{fill:url(#Безымянный_градиент_37-37);}</style><mask id="mask" x="0" y="0" width="1015" height="1014.25" maskUnits="userSpaceOnUse"><g id="mask0_114:1458" data-name="mask0 114:1458"><rect class="cls-1" x="54.3" y="233.22" width="720" height="538" rx="8"/></g></mask><linearGradient id="Безымянный_градиент_37" x1="148.89" y1="1052.59" x2="866.13" y2="335.25" gradientTransform="matrix(1, 0, 0, -1, 0, 1201.03)" gradientUnits="userSpaceOnUse"><stop offset="0" stop-color="#fff" stop-opacity="0"/><stop offset="1" stop-color="#fff"/></linearGradient><linearGradient id="Безымянный_градиент_37-2" x1="157.91" y1="1043.6" x2="857.08" y2="344.26" xlink:href="#Безымянный_градиент_37"/><linearGradient id="Безымянный_градиент_37-3" x1="166.81" y1="1034.66" x2="848.16" y2="353.3" xlink:href="#Безымянный_градиент_37"/><linearGradient id="Безымянный_градиент_37-4" x1="175.82" y1="1025.7" x2="839.18" y2="362.2" xlink:href="#Безымянный_градиент_37"/><linearGradient id="Безымянный_градиент_37-5" x1="184.8" y1="1016.73" x2="830.18" y2="371.21" xlink:href="#Безымянный_градиент_37"/><linearGradient id="Безымянный_градиент_37-6" x1="193.72" y1="1007.69" x2="821.3" y2="380.08" xlink:href="#Безымянный_градиент_37"/><linearGradient id="Безымянный_градиент_37-7" x1="202.77" y1="998.8" x2="812.32" y2="389.15" xlink:href="#Безымянный_градиент_37"/><linearGradient id="Безымянный_градиент_37-8" x1="211.87" y1="989.62" x2="803.1" y2="398.34" xlink:href="#Безымянный_градиент_37"/><linearGradient id="Безымянный_градиент_37-9" x1="220.85" y1="980.65" x2="794.12" y2="407.31" xlink:href="#Безымянный_градиент_37"/><linearGradient id="Безымянный_градиент_37-10" x1="229.85" y1="971.71" x2="785.14" y2="416.23" xlink:href="#Безымянный_градиент_37"/><linearGradient id="Безымянный_градиент_37-11" x1="238.78" y1="962.71" x2="776.22" y2="425.13" xlink:href="#Безымянный_градиент_37"/><linearGradient id="Безымянный_градиент_37-12" x1="247.72" y1="953.79" x2="767.27" y2="434.16" xlink:href="#Безымянный_градиент_37"/><linearGradient id="Безымянный_градиент_37-13" x1="256.7" y1="944.82" x2="758.29" y2="443.13" xlink:href="#Безымянный_градиент_37"/><linearGradient id="Безымянный_градиент_37-14" x1="265.68" y1="935.84" x2="749.29" y2="452.12" xlink:href="#Безымянный_градиент_37"/><linearGradient id="Безымянный_градиент_37-15" x1="274.64" y1="926.81" x2="740.36" y2="461.03" xlink:href="#Безымянный_градиент_37"/><linearGradient id="Безымянный_градиент_37-16" x1="283.61" y1="917.86" x2="731.4" y2="469.99" xlink:href="#Безымянный_градиент_37"/><linearGradient id="Безымянный_градиент_37-17" x1="292.55" y1="908.94" x2="722.43" y2="479.04" xlink:href="#Безымянный_градиент_37"/><linearGradient id="Безымянный_градиент_37-18" x1="301.52" y1="899.95" x2="713.45" y2="488.01" xlink:href="#Безымянный_градиент_37"/><linearGradient id="Безымянный_градиент_37-19" x1="310.52" y1="891.02" x2="704.46" y2="496.93" xlink:href="#Безымянный_градиент_37"/><linearGradient id="Безымянный_градиент_37-20" x1="319.49" y1="881.99" x2="695.52" y2="505.86" xlink:href="#Безымянный_градиент_37"/><linearGradient id="Безымянный_градиент_37-21" x1="328.44" y1="873.05" x2="686.55" y2="514.84" xlink:href="#Безымянный_градиент_37"/><linearGradient id="Безымянный_градиент_37-22" x1="337.4" y1="864.1" x2="677.61" y2="523.83" xlink:href="#Безымянный_градиент_37"/><linearGradient id="Безымянный_градиент_37-23" x1="346.36" y1="855.15" x2="668.63" y2="532.8" xlink:href="#Безымянный_градиент_37"/><linearGradient id="Безымянный_градиент_37-24" x1="355.34" y1="846.17" x2="659.65" y2="541.78" xlink:href="#Безымянный_градиент_37"/><linearGradient id="Безымянный_градиент_37-25" x1="364.34" y1="837.19" x2="650.68" y2="550.76" xlink:href="#Безымянный_градиент_37"/><linearGradient id="Безымянный_градиент_37-26" x1="373.25" y1="828.14" x2="641.79" y2="559.62" xlink:href="#Безымянный_градиент_37"/><linearGradient id="Безымянный_градиент_37-27" x1="382.21" y1="819.27" x2="632.78" y2="568.71" xlink:href="#Безымянный_градиент_37"/><linearGradient id="Безымянный_градиент_37-28" x1="391.18" y1="810.28" x2="623.79" y2="577.68" xlink:href="#Безымянный_градиент_37"/><linearGradient id="Безымянный_градиент_37-29" x1="400.18" y1="801.35" x2="614.8" y2="586.6" xlink:href="#Безымянный_градиент_37"/><linearGradient id="Безымянный_градиент_37-30" x1="409.15" y1="792.39" x2="605.82" y2="595.57" xlink:href="#Безымянный_градиент_37"/><linearGradient id="Безымянный_градиент_37-31" x1="418.04" y1="783.44" x2="596.93" y2="604.52" xlink:href="#Безымянный_градиент_37"/><linearGradient id="Безымянный_градиент_37-32" x1="427.03" y1="774.47" x2="587.99" y2="613.53" xlink:href="#Безымянный_градиент_37"/><linearGradient id="Безымянный_градиент_37-33" x1="436.01" y1="765.48" x2="578.97" y2="622.47" xlink:href="#Безымянный_градиент_37"/><linearGradient id="Безымянный_градиент_37-34" x1="444.99" y1="756.5" x2="569.98" y2="631.46" xlink:href="#Безымянный_градиент_37"/><linearGradient id="Безымянный_градиент_37-35" x1="453.91" y1="747.46" x2="561.11" y2="640.31" xlink:href="#Безымянный_градиент_37"/><linearGradient id="Безымянный_градиент_37-36" x1="462.86" y1="738.58" x2="552.11" y2="649.38" xlink:href="#Безымянный_градиент_37"/><linearGradient id="Безымянный_градиент_37-37" x1="471.84" y1="729.61" x2="543.13" y2="658.36" xlink:href="#Безымянный_градиент_37"/></defs><g id="Слой_2" data-name="Слой 2"><g id="Слой_1-2" data-name="Слой 1"><g class="cls-2"><path class="cls-3" d="M376.32,17.52C507.2-17.55,643.9.38,761.23,68.12s201.25,176.94,236.3,307.73,17,267.41-50.78,384.65-177.16,201.21-308,236.28-267.54,16.92-384.94-50.7S52.51,769.14,17.47,638.35.48,370.94,68.25,253.7,245.43,52.59,376.32,17.52Zm261.33,975.3C767.47,958,876,874.8,943.29,758.42s85.1-251.91,50.35-381.63S875.57,138.63,759.22,71.46s-252.07-85-381.9-50.17S139,139.31,71.68,255.68-13.43,507.59,21.33,637.32,139.4,875.47,255.75,942.65,507.82,1027.6,637.65,992.82Z"/><path class="cls-4" d="M379.6,29.79C507.2-4.4,640.47,13.1,754.84,79.05S951.07,251.54,985.23,379s16.64,260.68-49.53,375S763,950.22,635.39,984.41s-260.87,16.69-375.23-49.26-196.23-172.49-230.4-300-16.63-260.68,49.53-375S252,64,379.6,29.79ZM634.38,980.65C761,946.72,866.82,865.57,932.3,752.16s83-245.55,49.07-372.08-115-232.25-228.54-297.7S507.24-.37,380.61,33.56,148.18,148.64,82.7,262.05s-83,245.54-49.07,372.08,115,232.24,228.53,297.69S507.85,1014.55,634.38,980.65Z"/><path class="cls-5" d="M382.86,42C507.18,8.65,637,25.73,748.45,90S939.58,258.14,972.87,382.35s16.18,254-48.17,365.42S756.42,938.84,632.11,972.15s-254.16,16.23-365.59-48S75.39,756,42.1,631.75s-16.18-254,48.17-365.42S258.55,75.27,382.86,42ZM631.1,968.38c123.35-33,226.39-112.12,290.27-222.61s80.85-239.18,47.83-362.43-112.07-226.21-222.64-290S507.22,12.68,383.87,45.73,157.48,157.84,93.6,268.34,12.75,507.52,45.77,630.77s112.07,226.2,222.64,290S507.84,1001.4,631.1,968.38Z"/><path class="cls-6" d="M386.15,54.23c121-32.43,247.54-15.81,356,46.74S928.29,264.68,960.7,385.62,976.45,633,913.78,741.38s-163.83,186-285,218.5-247.54,15.81-356-46.75S86.68,749.43,54.27,628.49,38.52,381.14,101.19,272.72,265.12,86.66,386.15,54.23ZM627.81,956.11C747.87,923.94,848.17,847,910.35,739.4s78.73-232.81,46.58-352.78S847.83,166.46,740.2,104.4s-233-78.58-353-46.41S166.8,167.15,104.62,274.7,26,507.49,58.14,627.46,167.24,847.62,274.77,909.7,507.84,988.26,627.81,956.11Z"/><path class="cls-7" d="M389.44,66.49C507.18,34.94,630.24,51,735.82,112S916.91,271.25,948.43,388.9,963.73,629.54,902.75,735s-159.47,181-277.22,212.59S384.82,963,279.15,902.11,98.06,742.85,66.54,625.2s-15.3-240.63,45.67-346.11S271.69,98,389.44,66.49ZM624.52,943.84C741.3,912.55,838.87,837.75,899.35,733.13s76.58-226.53,45.31-343.22S838.53,175.79,733.81,115.33,507.23,39,390.45,70.26,176.1,176.35,115.62,281,39,507.51,70.31,624.19,176.47,838.42,281.16,898.78,507.74,975.14,624.52,943.84Z"/><path class="cls-8" d="M392.72,78.76c114.47-30.67,234.1-15,336.73,44.26s176.07,154.8,206.74,269.27S951,626.21,891.78,728.85s-155,176-269.48,206.69-234.1,15-336.73-44.26S109.5,736.48,78.83,622,64,388.09,123.24,285.45,278.26,109.43,392.72,78.76ZM621.24,931.58c113.49-30.41,208.4-103.16,267.09-204.81s74.35-220.15,44-333.55S829.1,185,727.45,126.35,507.13,52.14,393.73,82.53,185.33,185.68,126.64,287.34s-74.36,220.14-44,333.54,103.1,208.21,204.85,266.88S507.74,962,621.24,931.58Z"/><path class="cls-9" d="M396,90.93c111.27-29.81,227.38-14.54,327.17,43S894.23,284.37,924,395.45s14.5,227.19-43.16,326.91S730.26,893.36,619,923.17s-227.38,14.55-327.07-43-171-150.35-200.84-261.53S76.68,391.41,134.23,291.72,284.81,120.72,396,90.93ZM618,919.41c110.22-29.53,202.37-100.19,259.46-198.93s72.2-213.88,42.7-324S820,194.31,721.18,137.35,507.23,65.26,397,94.8,194.66,195,137.57,293.73,65.34,507.51,94.84,617.62s100.24,202.15,199,259.11S507.76,948.94,618,919.41Z"/><path class="cls-10" d="M399.27,103.2C622.11,43.49,852,176.12,911.63,398.76S838.54,851.2,615.7,910.91,163,838,103.34,615.34,176.43,162.91,399.27,103.2ZM614.69,907.14C835.5,848,967,620.39,907.86,399.77S621.09,47.8,400.28,107,48,393.72,107.11,614.33,394,966.28,614.69,907.14Z"/><path class="cls-11" d="M402.56,115.47c216.08-57.9,439,70.7,496.8,286.58s-70.87,438.69-287,496.59-439-70.7-496.8-286.58S186.48,173.36,402.56,115.47ZM611.4,894.87c214.05-57.35,341.5-278,284.19-491.81s-278.07-341.15-492-283.83-341.5,278-284.19,491.82S397.45,952.2,611.4,894.87Z"/><path class="cls-12" d="M405.85,127.73c209.31-56.08,425.31,68.46,481.34,277.58s-68.65,425-278.07,481.06S183.81,817.92,127.78,608.79,196.53,183.82,405.85,127.73ZM608.11,882.6c207.29-55.54,330.8-269.18,275.31-476.28S614.14,76,407,131.48,76.25,400.64,131.74,607.73,400.92,938.12,608.11,882.6Z"/><path class="cls-13" d="M409.13,140C611.69,85.73,820.7,206.24,875,408.69S808.51,819.9,605.86,874.2,194.3,808,140.05,605.51,206.58,194.28,409.13,140Zm195.7,730.34C805.35,816.61,924.74,610,871.06,409.63S610.57,90.06,410.14,143.77,90.23,404.14,143.91,604.47,404.4,924,604.83,870.34Z"/><path class="cls-14" d="M412.39,152.17c195.8-52.46,397.83,64,450.27,259.72s-64.2,397.56-260.09,450-397.82-64-450.26-259.71S216.6,204.63,412.39,152.17Zm189.18,706C795.33,806.25,910.78,606.56,858.91,413S607.22,104.21,413.46,156.13,104.24,407.74,156.11,601.31,407.9,910.06,601.57,858.17Z"/><path class="cls-15" d="M415.68,164.44c189-50.65,384.08,61.8,434.71,250.73s-62,383.82-251.1,434.5-384.08-61.8-434.71-250.74S226.65,215.09,415.68,164.44ZM598.28,845.9c187-50.11,298.4-242.91,248.34-429.72s-242.93-298.08-429.93-248-298.4,242.9-248.34,429.71S411.37,896,598.28,845.9Z"/><path class="cls-16" d="M419,176.71c182.27-48.84,370.34,59.58,419.15,241.75S778.27,788.56,596,837.4,225.66,777.82,176.85,595.65,236.7,225.55,419,176.71ZM595,833.63C775.23,785.34,882.6,599.52,834.35,419.47S600.22,132.18,420,180.47,132.37,414.59,180.62,594.64,414.85,881.9,595,833.63Z"/><path class="cls-17" d="M422.26,189c175.5-47,356.59,57.36,403.59,232.78s-57.5,356.43-233.11,403.48-356.6-57.36-403.6-232.77S246.75,236,422.26,189ZM591.7,821.37C765.18,774.88,868.52,596,822.09,422.76s-225.34-276.5-398.82-230S146.45,418.06,192.88,591.35,418.32,867.82,591.7,821.37Z"/><path class="cls-18" d="M425.54,201.24C594.39,156,768.42,256.48,813.61,425.13S758.3,767.72,589.45,813,246.57,757.72,201.38,589.07,256.8,246.46,425.54,201.24ZM588.42,809.1c166.72-44.67,266-216.53,221.4-383.06S593.27,160.34,426.55,205s-266,216.53-221.4,383S421.8,853.74,588.42,809.1Z"/><path class="cls-19" d="M428.8,213.41c162.09-43.43,329.14,53,372.52,214.91s-53.17,329-215.15,372.37-329.14-53-372.52-214.9S266.82,256.82,428.8,213.41ZM585.16,796.93c160-42.86,255.23-207.74,212.39-367.6s-207.75-254.92-367.71-212S174.61,425,217.44,584.87,425.2,839.79,585.16,796.93Z"/><path class="cls-20" d="M432.09,225.68c155.32-41.62,315.4,50.8,357,205.93S738.1,746.83,582.88,788.43s-315.4-50.8-357-205.93S276.87,267.27,432.09,225.68Zm149.78,559c153.2-41,244.44-198.94,203.42-352S586.3,188.4,433.1,229.45s-244.44,198.94-203.42,352S428.67,825.71,581.87,784.66Z"/><path class="cls-21" d="M435.38,238c148.56-39.81,301.75,48.55,341.5,196.92S728.15,736.35,579.59,776.16,277.84,727.6,238.09,579.24,286.92,277.73,435.38,238Zm143.2,534.44C725,733.16,812.23,582.24,773,435.9S582.82,202.48,436.39,241.71,202.74,431.86,242,578.2,432.15,811.63,578.58,772.39Z"/><path class="cls-22" d="M438.66,250.21c141.8-38,288,46.34,326,188S718.13,726,576.33,764s-288-46.34-326-187.94S297,288.18,438.66,250.21ZM575.3,760.13C715,722.7,798.15,578.77,760.75,439.19S579.35,216.56,439.67,254,216.82,435.34,254.22,574.92,435.62,797.55,575.3,760.13Z"/><path class="cls-23" d="M442,262.48c135-36.18,274.27,44.12,310.4,179S708.08,715.54,573,751.72,298.78,707.6,262.62,572.66,307,298.64,442,262.48ZM572,748c132.92-35.61,212-172.66,176.48-305.38S575.9,230.73,443,266.34,231,439,266.51,571.72,439.12,783.57,572,748Z"/><path class="cls-24" d="M445.21,274.65c128.28-34.37,260.52,41.9,294.87,170.08S698,705.08,569.76,739.45s-260.52-41.9-294.87-170.07S317,309,445.21,274.65Zm123.54,461c126.15-33.8,201.34-163.9,167.56-290s-163.91-201-290.06-167.23S245,442.29,278.75,568.34,442.6,769.49,568.75,735.69Z"/><path class="cls-25" d="M448.5,286.92C570,254.36,695.28,326.6,727.81,448S688,694.63,566.47,727.19s-246.78-39.68-279.31-161.1S327.08,319.45,448.5,286.92Zm117,436.5C684.85,691.43,756,568.32,724.05,449S568.9,258.7,449.51,290.69,259,445.79,290.92,565.08,446.07,755.41,565.46,723.42Z"/><path class="cls-26" d="M451.79,299.19c114.75-30.75,233,37.46,263.76,152.11S677.93,684.17,563.18,714.92s-233-37.46-263.76-152.12S337.13,329.91,451.79,299.19Zm110.38,412C674.8,681,741.93,564.84,711.78,452.31S565.42,272.77,452.8,303,273,449.26,303.19,561.79,449.55,741.33,562.17,711.15Z"/><path class="cls-27" d="M455.07,311.45c108-28.93,219.3,35.25,248.21,143.14S667.89,673.72,559.9,702.65,340.58,667.31,311.69,559.52,347.18,340.36,455.07,311.45ZM558.89,698.89c105.86-28.37,169-137.52,140.62-243.29S562,286.85,456.08,315.22s-169,137.52-140.62,243.29S453,727.25,558.89,698.89Z"/><path class="cls-28" d="M458.36,323.72C559.59,296.6,663.94,356.84,691,458S657.89,663.45,556.66,690.58,351.08,657.46,324,556.33,357.23,350.82,458.36,323.72Zm97.27,363C654.73,660.16,713.8,558,687.27,459S558.5,301,459.4,327.58,301.22,456.31,327.75,555.32,456.52,713.27,555.63,686.72Z"/><path class="cls-29" d="M461.62,335.89c94.47-25.31,191.84,30.9,217.12,125.27s-31,191.77-125.39,217.05-191.84-30.9-217.12-125.27S367.25,361.18,461.62,335.89Zm90.72,338.56C644.68,649.7,699.72,554.52,675,462.17S555,314.91,462.63,339.66,315.25,459.59,340,551.93,460,699.19,552.34,674.45Z"/><path class="cls-30" d="M464.91,348.16c87.71-23.5,178.09,28.68,201.57,116.29s-28.81,178-116.42,201.5S372,637.26,348.49,549.65,377.3,371.63,464.91,348.16Zm84.14,314C634.63,639.25,685.64,551,662.71,465.46S551.5,329,465.92,351.93,329.33,463.06,352.26,548.65,463.47,685.11,549.05,662.18Z"/><path class="cls-31" d="M468.2,360.43c80.94-21.69,164.44,26.43,186.11,107.28S627.72,632,546.77,653.68,382.33,627.24,360.66,546.39,387.35,382.09,468.2,360.43Zm77.56,289.48c78.82-21.12,125.8-102.34,104.68-181.16S548,343.07,469.21,364.19,343.41,466.54,364.53,545.36,466.94,671,545.76,649.91Z"/><path class="cls-32" d="M471.48,372.69C545.67,352.82,622.19,396.91,642,471s-24.37,150.54-98.55,170.41-150.71-24.22-170.56-98.3S397.3,392.57,471.48,372.69Zm71,265c72.06-19.31,115-93.65,95.69-165.62s-93.62-114.88-165.68-95.57-115,93.65-95.69,165.61S470.42,657,542.48,637.65Z"/><path class="cls-33" d="M474.74,384.86c67.43-18.06,137,22,155,89.43s-22.12,136.89-89.54,155-137-22-155-89.42S407.32,402.93,474.74,384.86Zm64.48,240.62c65.29-17.5,104.18-84.86,86.71-150.06s-84.83-104.09-150.12-86.6-104.19,84.86-86.72,150.06S473.92,643,539.22,625.48Z"/><path class="cls-34" d="M478,397.13c60.66-16.25,123.22,19.78,139.47,80.44S597.6,600.72,536.94,617A113.8,113.8,0,0,1,478,397.13Zm57.9,216.08c58.53-15.69,93.49-76.09,77.81-134.63A110.05,110.05,0,0,0,479,400.9c-58.53,15.68-93.49,76.09-77.81,134.62A110.18,110.18,0,0,0,535.93,613.21Z"/><path class="cls-35" d="M481.32,409.4a101.1,101.1,0,1,1-71.59,123.85A101.3,101.3,0,0,1,481.32,409.4Zm51.32,191.54a97.2,97.2,0,1,0-119.14-68.7C427.37,584,480.87,614.81,532.64,600.94Z"/><path class="cls-36" d="M484.61,421.67A88.4,88.4,0,1,1,422,530,88.57,88.57,0,0,1,484.61,421.67Zm44.75,167A84.5,84.5,0,1,0,425.77,529,84.66,84.66,0,0,0,529.36,588.67Z"/><path class="cls-37" d="M487.89,433.93a75.8,75.8,0,1,1-53.6,92.84A75.89,75.89,0,0,1,487.89,433.93Zm38.18,142.48a71.8,71.8,0,1,0-88-50.75A72,72,0,0,0,526.07,576.41Z"/><path class="cls-38" d="M491.15,446.1a63.1,63.1,0,1,1-44.61,77.28A63.17,63.17,0,0,1,491.15,446.1Zm31.66,118.14a59.1,59.1,0,1,0-72.48-41.77A59.23,59.23,0,0,0,522.81,564.24Z"/><path class="cls-39" d="M494.44,458.37A50.4,50.4,0,1,1,458.8,520.1,50.46,50.46,0,0,1,494.44,458.37ZM519.52,552a46.5,46.5,0,1,0-56.95-32.88A46.54,46.54,0,0,0,519.52,552Z"/></g></g></g></svg>