<?xml version="1.0" encoding="utf-8"?>
<!-- Generator: Adobe Illustrator 24.1.2, SVG Export Plug-In . SVG Version: 6.00 Build 0)  -->
<svg version="1.1" id="Слой_1" xmlns="http://www.w3.org/2000/svg" xmlns:xlink="http://www.w3.org/1999/xlink" x="0px" y="0px"
	 viewBox="0 0 720 538" style="enable-background:new 0 0 720 538;" xml:space="preserve">
<style type="text/css">
	.st0{fill:#FCD9A6;filter:url(#Adobe_OpacityMaskFilter);}
	.st1{mask:url(#mask0_114:1458_1_);}
	.st2{fill:url(#SVGID_1_);}
	.st3{fill:url(#SVGID_2_);}
	.st4{fill:url(#SVGID_3_);}
	.st5{fill:url(#SVGID_4_);}
	.st6{fill:url(#SVGID_5_);}
	.st7{fill:url(#SVGID_6_);}
	.st8{fill:url(#SVGID_7_);}
	.st9{fill:url(#SVGID_8_);}
	.st10{fill:url(#SVGID_9_);}
	.st11{fill:url(#SVGID_10_);}
	.st12{fill:url(#SVGID_11_);}
	.st13{fill:url(#SVGID_12_);}
	.st14{fill:url(#SVGID_13_);}
	.st15{fill:url(#SVGID_14_);}
	.st16{fill:url(#SVGID_15_);}
	.st17{fill:url(#SVGID_16_);}
	.st18{fill:url(#SVGID_17_);}
	.st19{fill:url(#SVGID_18_);}
	.st20{fill:url(#SVGID_19_);}
	.st21{fill:url(#SVGID_20_);}
	.st22{fill:url(#SVGID_21_);}
	.st23{fill:url(#SVGID_22_);}
	.st24{fill:url(#SVGID_23_);}
	.st25{fill:url(#SVGID_24_);}
	.st26{fill:url(#SVGID_25_);}
	.st27{fill:url(#SVGID_26_);}
	.st28{fill:url(#SVGID_27_);}
	.st29{fill:url(#SVGID_28_);}
	.st30{fill:url(#SVGID_29_);}
	.st31{fill:url(#SVGID_30_);}
	.st32{fill:url(#SVGID_31_);}
	.st33{fill:url(#SVGID_32_);}
	.st34{fill:url(#SVGID_33_);}
	.st35{fill:url(#SVGID_34_);}
	.st36{fill:url(#SVGID_35_);}
	.st37{fill:url(#SVGID_36_);}
	.st38{fill:url(#SVGID_37_);}
</style>
<defs>
	<filter id="Adobe_OpacityMaskFilter" filterUnits="userSpaceOnUse" x="-54.3" y="-233.2" width="1015" height="1014.2">
		<feColorMatrix  type="matrix" values="1 0 0 0 0  0 1 0 0 0  0 0 1 0 0  0 0 0 1 0"/>
	</filter>
</defs>
<mask maskUnits="userSpaceOnUse" x="-54.3" y="-233.2" width="1015" height="1014.2" id="mask0_114:1458_1_">
	<path class="st0" d="M8,0h704c4.4,0,8,3.6,8,8v522c0,4.4-3.6,8-8,8H8c-4.4,0-8-3.6-8-8V8C0,3.6,3.6,0,8,0z"/>
</mask>
<g class="st1">
	
		<linearGradient id="SVGID_1_" gradientUnits="userSpaceOnUse" x1="94.5935" y1="624.7778" x2="811.8309" y2="-92.5628" gradientTransform="matrix(1 0 0 -1 0 540)">
		<stop  offset="0" style="stop-color:#FFFFFF;stop-opacity:0"/>
		<stop  offset="1" style="stop-color:#FFFFFF"/>
	</linearGradient>
	<path class="st2" d="M322-215.7c130.9-35.1,267.6-17.1,384.9,50.6C824.2-97.5,908.2,11.8,943.2,142.6c35,130.8,17,267.4-50.8,384.6
		c-67.8,117.2-177.2,201.2-308,236.3s-267.5,16.9-384.9-50.7C82.2,645.2-1.8,535.9-36.8,405.1c-35-130.8-17-267.4,50.8-384.6
		C81.8-96.8,191.1-180.6,322-215.7z M583.3,759.6c129.8-34.8,238.4-118,305.6-234.4c67.3-116.4,85.1-251.9,50.3-381.6
		C904.6,13.8,821.3-94.6,704.9-161.8c-116.4-67.1-252.1-85-381.9-50.2C193.2-177.1,84.6-93.9,17.4,22.5
		C-49.9,138.8-67.7,274.4-33,404.1C1.8,533.8,85.1,642.3,201.4,709.4C317.9,776.6,453.5,794.4,583.3,759.6z"/>
	
		<linearGradient id="SVGID_2_" gradientUnits="userSpaceOnUse" x1="103.6126" y1="615.7938" x2="802.7802" y2="-83.5476" gradientTransform="matrix(1 0 0 -1 0 540)">
		<stop  offset="0" style="stop-color:#FFFFFF;stop-opacity:0"/>
		<stop  offset="1" style="stop-color:#FFFFFF"/>
	</linearGradient>
	<path class="st3" d="M325.3-203.4c127.6-34.2,260.9-16.7,375.2,49.3c114.4,65.9,196.2,172.5,230.4,300
		c34.2,127.5,16.6,260.7-49.5,375c-66,114.4-172.7,196.2-300.3,230.4s-260.9,16.7-375.2-49.3C91.5,636,9.6,529.4-24.5,401.9
		C-58.7,274.4-41.2,141.3,25,26.9C91-87.5,197.7-169.2,325.3-203.4z M580.1,747.4C706.7,713.5,812.5,632.3,878,518.9
		c65.6-113.4,83-245.5,49.1-372.1C893.2,20.3,812-85.4,698.5-150.8c-113.4-65.4-245.6-82.8-372.2-48.8
		C199.7-165.7,93.9-84.6,28.4,28.8c-65.6,113.4-83,245.5-49.1,372.1s115,232.2,228.5,297.7C321.4,764,453.5,781.3,580.1,747.4z"/>
	
		<linearGradient id="SVGID_3_" gradientUnits="userSpaceOnUse" x1="112.5062" y1="606.8486" x2="793.8609" y2="-74.5056" gradientTransform="matrix(1 0 0 -1 0 540)">
		<stop  offset="0" style="stop-color:#FFFFFF;stop-opacity:0"/>
		<stop  offset="1" style="stop-color:#FFFFFF"/>
	</linearGradient>
	<path class="st4" d="M328.6-191.3c124.3-33.3,254.2-16.2,365.6,48C805.6-79,885.3,24.9,918.6,149.1c33.3,124.2,16.2,254-48.2,365.4
		C806,625.9,702.1,705.6,577.8,738.9s-254.2,16.2-365.6-48C100.8,626.7,21.1,522.7-12.2,398.5C-45.5,274.3-28.4,144.6,36,33.1
		C100.3-78.2,204.2-158,328.6-191.3z M576.8,735.2C700.1,702.1,803.2,623,867.1,512.5c63.9-110.5,80.9-239.2,47.8-362.4
		c-33-123.3-112.1-226.2-222.6-290c-110.6-63.8-239.3-80.7-362.7-47.7C206.2-154.4,103.2-75.4,39.3,35.1
		C-24.6,145.6-41.6,274.3-8.5,397.5c33,123.3,112.1,226.2,222.6,290C324.7,751.3,453.5,768.2,576.8,735.2z"/>
	
		<linearGradient id="SVGID_4_" gradientUnits="userSpaceOnUse" x1="121.5206" y1="597.8852" x2="784.882" y2="-65.6089" gradientTransform="matrix(1 0 0 -1 0 540)">
		<stop  offset="0" style="stop-color:#FFFFFF;stop-opacity:0"/>
		<stop  offset="1" style="stop-color:#FFFFFF"/>
	</linearGradient>
	<path class="st5" d="M331.8-179c121-32.4,247.5-15.8,356,46.7C796.4-69.6,874,31.5,906.4,152.4s15.8,247.3-46.9,355.8
		c-62.6,108.5-163.8,186-285,218.5c-121.1,32.5-247.5,15.8-356-46.7C110,617.4,32.4,516.2,0,395.3S-15.8,147.9,46.9,39.5
		C109.7-68.9,210.8-146.6,331.8-179z M573.5,722.9C693.6,690.7,793.9,613.7,856,506.2c62.2-107.6,78.7-232.8,46.6-352.8
		c-32.1-120-109.1-220.2-216.7-282.2c-107.6-62.1-233-78.6-353-46.4C212.8-143.1,112.5-66.1,50.3,41.5
		C-11.8,149-28.3,274.3,3.8,394.2s109.1,220.2,216.6,282.2C328.1,738.5,453.5,755,573.5,722.9z"/>
	
		<linearGradient id="SVGID_5_" gradientUnits="userSpaceOnUse" x1="130.5018" y1="588.9238" x2="775.8806" y2="-56.5963" gradientTransform="matrix(1 0 0 -1 0 540)">
		<stop  offset="0" style="stop-color:#FFFFFF;stop-opacity:0"/>
		<stop  offset="1" style="stop-color:#FFFFFF"/>
	</linearGradient>
	<path class="st6" d="M335.1-166.7c117.7-31.6,240.8-15.5,346.4,45.5C787.1-60.3,862.6,38,894.1,155.7
		c31.5,117.6,15.3,240.6-45.7,346.1c-61,105.6-159.5,181-277.2,212.6c-117.7,31.5-240.7,15.4-346.4-45.5
		C119.3,607.9,43.8,509.6,12.2,392C-19.3,274.3-3.1,151.3,57.9,45.9C119-59.7,217.4-135.2,335.1-166.7z M570.2,710.6
		C687,679.3,784.6,604.5,845,499.9c60.5-104.6,76.6-226.5,45.3-343.2C859.1,40,784.2-57.4,679.5-117.9
		c-104.7-60.4-226.6-76.4-343.4-45.1C219.4-131.7,121.8-56.9,61.3,47.7C0.8,152.4-15.3,274.3,16,391
		c31.3,116.7,106.2,214.2,210.9,274.6C331.5,725.9,453.4,741.9,570.2,710.6z"/>
	
		<linearGradient id="SVGID_6_" gradientUnits="userSpaceOnUse" x1="139.4222" y1="579.877" x2="766.9966" y2="-47.7272" gradientTransform="matrix(1 0 0 -1 0 540)">
		<stop  offset="0" style="stop-color:#FFFFFF;stop-opacity:0"/>
		<stop  offset="1" style="stop-color:#FFFFFF"/>
	</linearGradient>
	<path class="st7" d="M338.4-154.5c114.5-30.7,234.1-15,336.7,44.3C777.8-51,851.2,44.6,881.9,159.1
		c30.7,114.5,14.9,233.9-44.4,336.6c-59.3,102.6-155,176-269.5,206.7c-114.5,30.7-234.1,15-336.7-44.3
		C128.6,598.8,55.2,503.3,24.5,388.8C-6.1,274.3,9.7,154.9,68.9,52.2C128.2-50.4,224-123.8,338.4-154.5z M566.9,698.4
		C680.4,667.9,775.3,595.2,834,493.5c58.8-101.7,74.4-220.1,44-333.5C847.6,46.6,774.8-48.2,673.1-106.9
		c-101.7-58.7-220.3-74.2-333.7-43.8C226-120.3,131-47.5,72.3,54.1C13.6,155.8-2,274.3,28.4,387.7
		c30.4,113.4,103.1,208.2,204.9,266.9C335,713.2,453.4,728.8,566.9,698.4z"/>
	
		<linearGradient id="SVGID_7_" gradientUnits="userSpaceOnUse" x1="148.4665" y1="570.9916" x2="758.0149" y2="-38.6569" gradientTransform="matrix(1 0 0 -1 0 540)">
		<stop  offset="0" style="stop-color:#FFFFFF;stop-opacity:0"/>
		<stop  offset="1" style="stop-color:#FFFFFF"/>
	</linearGradient>
	<path class="st8" d="M341.7-142.3c111.3-29.8,227.4-14.5,327.2,43c99.7,57.6,171.1,150.5,200.8,261.5
		c29.8,111.1,14.5,227.2-43.2,326.9C769,588.8,676,660.1,564.7,689.9c-111.3,29.8-227.4,14.5-327.1-43
		c-99.7-57.6-171-150.4-200.8-261.5C7,274.2,22.4,158.2,79.9,58.5C137.5-41.1,230.5-112.5,341.7-142.3z M563.7,686.2
		C673.9,656.7,766,586,823.1,487.3c57.1-98.8,72.2-213.9,42.7-324C836.3,53.1,765.7-38.9,666.9-95.9c-98.8-57-213.9-72.1-324.2-42.6
		C232.5-108.9,140.4-38.2,83.3,60.5C26.2,159.2,11,274.3,40.5,384.4c29.5,110.1,100.2,202.1,199,259.1
		C338.3,700.6,453.5,715.7,563.7,686.2z"/>
	
		<linearGradient id="SVGID_8_" gradientUnits="userSpaceOnUse" x1="157.5659" y1="561.8138" x2="748.801" y2="-29.4705" gradientTransform="matrix(1 0 0 -1 0 540)">
		<stop  offset="0" style="stop-color:#FFFFFF;stop-opacity:0"/>
		<stop  offset="1" style="stop-color:#FFFFFF"/>
	</linearGradient>
	<path class="st9" d="M345-130c222.8-59.7,452.7,72.9,512.4,295.6C917,388.2,784.2,618,561.4,677.7S108.7,604.8,49,382.1
		C-10.6,159.5,122.1-70.3,345-130z M560.4,673.9c220.8-59.2,352.3-286.7,293.2-507.4C794.4-54.1,566.8-185.4,346-126.3
		C125.2-67.1-6.3,160.5,52.8,381.1C111.9,601.7,339.7,733.1,560.4,673.9z"/>
	
		<linearGradient id="SVGID_9_" gradientUnits="userSpaceOnUse" x1="166.5456" y1="552.8377" x2="739.8212" y2="-20.4951" gradientTransform="matrix(1 0 0 -1 0 540)">
		<stop  offset="0" style="stop-color:#FFFFFF;stop-opacity:0"/>
		<stop  offset="1" style="stop-color:#FFFFFF"/>
	</linearGradient>
	<path class="st10" d="M348.3-117.8c216.1-57.9,439,70.7,496.8,286.6c57.8,215.9-70.9,438.7-287,496.6
		c-216.1,57.9-439-70.7-496.8-286.6C3.5,162.9,132.2-59.9,348.3-117.8z M557.1,661.6c214-57.4,341.5-278,284.2-491.8
		C784-44,563.2-171.3,349.3-114C135.3-56.7,7.8,164,65.1,377.8C122.4,591.7,343.1,719,557.1,661.6z"/>
	
		<linearGradient id="SVGID_10_" gradientUnits="userSpaceOnUse" x1="175.5475" y1="543.9028" x2="730.8356" y2="-11.5753" gradientTransform="matrix(1 0 0 -1 0 540)">
		<stop  offset="0" style="stop-color:#FFFFFF;stop-opacity:0"/>
		<stop  offset="1" style="stop-color:#FFFFFF"/>
	</linearGradient>
	<path class="st11" d="M351.5-105.5C560.9-161.6,776.9-37,832.9,172.1c56,209.1-68.7,424.9-278.1,481.1
		c-209.3,56.1-425.3-68.5-481.3-277.6C17.4,166.4,142.2-49.4,351.5-105.5z M553.8,649.4c207.3-55.5,330.8-269.2,275.3-476.3
		C773.6-34,559.8-157.3,352.7-101.7C145.4-46.2,21.9,167.4,77.4,374.5C132.9,581.6,346.6,704.9,553.8,649.4z"/>
	
		<linearGradient id="SVGID_11_" gradientUnits="userSpaceOnUse" x1="184.4748" y1="534.9011" x2="721.921" y2="-2.6833" gradientTransform="matrix(1 0 0 -1 0 540)">
		<stop  offset="0" style="stop-color:#FFFFFF;stop-opacity:0"/>
		<stop  offset="1" style="stop-color:#FFFFFF"/>
	</linearGradient>
	<path class="st12" d="M354.8-93.2C557.4-147.5,766.4-27,820.6,175.5c54.2,202.5-66.4,411.2-269.1,465.5S140,574.7,85.7,372.3
		S152.3-38.9,354.8-93.2z M550.5,637.1c200.5-53.7,319.9-260.4,266.2-460.7S556.3-143.2,355.8-89.5
		C155.4-35.8,35.9,170.9,89.6,371.2C143.3,571.6,350.1,690.8,550.5,637.1z"/>
	
		<linearGradient id="SVGID_12_" gradientUnits="userSpaceOnUse" x1="193.4179" y1="525.9802" x2="712.9641" y2="6.3468" gradientTransform="matrix(1 0 0 -1 0 540)">
		<stop  offset="0" style="stop-color:#FFFFFF;stop-opacity:0"/>
		<stop  offset="1" style="stop-color:#FFFFFF"/>
	</linearGradient>
	<path class="st13" d="M358.1-81.1c195.8-52.5,397.8,64,450.3,259.7c52.4,195.7-64.2,397.6-260.1,450
		C352.5,681.2,150.4,564.7,98,369C45.6,173.3,162.3-28.6,358.1-81.1z M547.3,624.9C741,573,856.5,373.3,804.6,179.8
		C752.7-13.8,552.9-129,359.2-77.1C165.4-25.2,49.9,174.5,101.8,368.1C153.7,561.7,353.6,676.8,547.3,624.9z"/>
	
		<linearGradient id="SVGID_13_" gradientUnits="userSpaceOnUse" x1="202.3978" y1="517.0052" x2="703.9846" y2="15.3224" gradientTransform="matrix(1 0 0 -1 0 540)">
		<stop  offset="0" style="stop-color:#FFFFFF;stop-opacity:0"/>
		<stop  offset="1" style="stop-color:#FFFFFF"/>
	</linearGradient>
	<path class="st14" d="M361.4-68.8c189-50.7,384.1,61.8,434.7,250.7c50.6,188.9-62,383.8-251.1,434.5
		c-189,50.7-384.1-61.8-434.7-250.7C59.7,176.8,172.3-18.1,361.4-68.8z M544,612.7C731,562.6,842.4,369.8,792.3,183
		C742.3-3.9,549.4-115.1,362.4-65C175.4-14.9,64,177.9,114,364.7C164.1,551.5,357.1,662.8,544,612.7z"/>
	
		<linearGradient id="SVGID_14_" gradientUnits="userSpaceOnUse" x1="211.3782" y1="508.0297" x2="694.9888" y2="24.313" gradientTransform="matrix(1 0 0 -1 0 540)">
		<stop  offset="0" style="stop-color:#FFFFFF;stop-opacity:0"/>
		<stop  offset="1" style="stop-color:#FFFFFF"/>
	</linearGradient>
	<path class="st15" d="M364.7-56.5C546.9-105.4,735,3.1,783.8,185.2c48.8,182.2-59.9,370.1-242.1,418.9
		C359.4,653,171.4,544.6,122.5,362.4C73.7,180.2,182.4-7.7,364.7-56.5z M540.7,600.4c180.2-48.3,287.6-234.1,239.4-414.2
		C731.8,6.2,545.9-101,365.7-52.8C185.4-4.5,78.1,181.4,126.3,361.4C174.6,541.5,360.5,648.7,540.7,600.4z"/>
	
		<linearGradient id="SVGID_15_" gradientUnits="userSpaceOnUse" x1="220.3344" y1="498.9993" x2="686.0609" y2="33.2178" gradientTransform="matrix(1 0 0 -1 0 540)">
		<stop  offset="0" style="stop-color:#FFFFFF;stop-opacity:0"/>
		<stop  offset="1" style="stop-color:#FFFFFF"/>
	</linearGradient>
	<path class="st16" d="M368-44.3c175.5-47,356.6,57.4,403.6,232.8C818.6,363.9,714,545,538.4,592
		c-175.6,47.1-356.6-57.4-403.6-232.8C87.8,183.8,192.4,2.8,368-44.3z M537.4,588.1c173.5-46.5,276.8-225.3,230.4-398.6
		C721.4,16.2,542.4-87,369-40.5C195.5,6,92.1,184.8,138.6,358.1C185,531.4,364,634.6,537.4,588.1z"/>
	
		<linearGradient id="SVGID_16_" gradientUnits="userSpaceOnUse" x1="229.3055" y1="490.0465" x2="677.1027" y2="42.1844" gradientTransform="matrix(1 0 0 -1 0 540)">
		<stop  offset="0" style="stop-color:#FFFFFF;stop-opacity:0"/>
		<stop  offset="1" style="stop-color:#FFFFFF"/>
	</linearGradient>
	<path class="st17" d="M371.2-32c168.8-45.2,342.9,55.2,388.1,223.9c45.2,168.7-55.3,342.6-224.2,387.8
		C366.3,625,192.3,524.5,147.1,355.8C101.9,187.2,202.5,13.2,371.2-32z M534.1,575.9c166.7-44.7,266-216.5,221.4-383.1
		C710.9,26.3,539-72.9,372.3-28.2c-166.7,44.7-266,216.5-221.4,383.1C195.5,521.4,367.5,620.5,534.1,575.9z"/>
	
		<linearGradient id="SVGID_17_" gradientUnits="userSpaceOnUse" x1="238.2492" y1="481.1255" x2="668.1313" y2="51.2305" gradientTransform="matrix(1 0 0 -1 0 540)">
		<stop  offset="0" style="stop-color:#FFFFFF;stop-opacity:0"/>
		<stop  offset="1" style="stop-color:#FFFFFF"/>
	</linearGradient>
	<path class="st18" d="M374.5-19.8c162.1-43.4,329.1,53,372.5,214.9c43.4,161.9-53.2,329-215.2,372.4
		c-162,43.4-329.1-53-372.5-214.9C116,190.7,212.5,23.6,374.5-19.8z M530.9,563.7c160-42.9,255.2-207.7,212.4-367.6
		C700.4,36.2,535.5-58.8,375.5-15.9c-160,42.9-255.2,207.7-212.4,367.6C206,511.5,370.9,606.6,530.9,563.7z"/>
	
		<linearGradient id="SVGID_18_" gradientUnits="userSpaceOnUse" x1="247.2226" y1="472.1439" x2="659.1447" y2="60.1992" gradientTransform="matrix(1 0 0 -1 0 540)">
		<stop  offset="0" style="stop-color:#FFFFFF;stop-opacity:0"/>
		<stop  offset="1" style="stop-color:#FFFFFF"/>
	</linearGradient>
	<path class="st19" d="M377.8-7.5c155.3-41.6,315.4,50.8,357,205.9c41.6,155.1-50.9,315.2-206.2,356.8
		c-155.3,41.6-315.4-50.8-357-205.9C130.1,194.1,222.6,34,377.8-7.5z M527.6,551.4c153.2-41,244.4-198.9,203.4-352
		C690,46.3,532-44.8,378.8-3.8c-153.2,41-244.4,198.9-203.4,352C216.4,501.4,374.4,592.5,527.6,551.4z"/>
	
		<linearGradient id="SVGID_19_" gradientUnits="userSpaceOnUse" x1="256.2236" y1="463.2082" x2="650.1586" y2="69.1193" gradientTransform="matrix(1 0 0 -1 0 540)">
		<stop  offset="0" style="stop-color:#FFFFFF;stop-opacity:0"/>
		<stop  offset="1" style="stop-color:#FFFFFF"/>
	</linearGradient>
	<path class="st20" d="M381.1,4.7c148.6-39.8,301.7,48.6,341.5,196.9c39.8,148.4-48.7,301.5-197.3,341.3
		C376.7,582.7,223.5,494.4,183.8,346C144,197.6,232.6,44.5,381.1,4.7z M524.3,539.2C670.7,499.9,757.9,349,718.7,202.7
		C679.5,56.3,528.5-30.7,382.1,8.5C235.7,47.7,148.4,198.6,187.6,345S377.8,578.4,524.3,539.2z"/>
	
		<linearGradient id="SVGID_20_" gradientUnits="userSpaceOnUse" x1="265.1867" y1="454.1846" x2="641.2215" y2="78.046" gradientTransform="matrix(1 0 0 -1 0 540)">
		<stop  offset="0" style="stop-color:#FFFFFF;stop-opacity:0"/>
		<stop  offset="1" style="stop-color:#FFFFFF"/>
	</linearGradient>
	<path class="st21" d="M384.4,17c141.8-38,288,46.3,325.9,187.9c37.9,141.6-46.5,287.8-188.3,325.8c-141.8,38-288-46.3-325.9-187.9
		S242.7,55,384.4,17z M521,526.9C660.7,489.5,743.8,345.5,706.4,206C669,66.4,525-16.7,385.4,20.8
		C245.7,58.2,162.5,202.1,199.9,341.7C237.3,481.3,381.3,564.3,521,526.9z"/>
	
		<linearGradient id="SVGID_21_" gradientUnits="userSpaceOnUse" x1="274.1431" y1="445.2434" x2="632.2469" y2="87.0271" gradientTransform="matrix(1 0 0 -1 0 540)">
		<stop  offset="0" style="stop-color:#FFFFFF;stop-opacity:0"/>
		<stop  offset="1" style="stop-color:#FFFFFF"/>
	</linearGradient>
	<path class="st22" d="M387.6,29.3c135-36.2,274.3,44.1,310.4,179c36.1,134.8-44.3,274.1-179.3,310.3
		c-135,36.2-274.3-44.1-310.4-179.1S252.7,65.4,387.6,29.3z M517.7,514.7c132.9-35.6,212-172.7,176.5-305.4
		C658.6,76.5,521.6-2.5,388.7,33.1c-132.9,35.6-212,172.7-176.5,305.4C247.8,471.2,384.8,550.3,517.7,514.7z"/>
	
		<linearGradient id="SVGID_22_" gradientUnits="userSpaceOnUse" x1="283.0958" y1="436.2899" x2="623.3079" y2="96.0168" gradientTransform="matrix(1 0 0 -1 0 540)">
		<stop  offset="0" style="stop-color:#FFFFFF;stop-opacity:0"/>
		<stop  offset="1" style="stop-color:#FFFFFF"/>
	</linearGradient>
	<path class="st23" d="M390.9,41.4C519.2,7.1,651.4,83.3,685.8,211.5c34.3,128.2-42,260.4-170.3,294.7s-260.5-41.9-294.9-170.1
		C186.4,208,262.7,75.8,390.9,41.4z M514.4,502.5C640.6,468.7,715.8,338.6,682,212.5C648.2,86.5,518.1,11.5,391.9,45.3
		S190.7,209.1,224.5,335.1C258.2,461.2,388.3,536.3,514.4,502.5z"/>
	
		<linearGradient id="SVGID_23_" gradientUnits="userSpaceOnUse" x1="292.055" y1="427.3356" x2="614.3278" y2="104.9918" gradientTransform="matrix(1 0 0 -1 0 540)">
		<stop  offset="0" style="stop-color:#FFFFFF;stop-opacity:0"/>
		<stop  offset="1" style="stop-color:#FFFFFF"/>
	</linearGradient>
	<path class="st24" d="M394.2,53.7C515.7,21.1,641,93.4,673.5,214.8C706,336.2,633.7,461.4,512.2,494
		c-121.5,32.6-246.8-39.7-279.3-161.1C200.3,211.4,272.8,86.2,394.2,53.7z M511.2,490.2c119.4-32,190.5-155.1,158.6-274.4
		C637.8,96.5,514.6,25.5,395.2,57.5c-119.4,32-190.5,155.1-158.6,274.4C268.7,451.1,391.8,522.2,511.2,490.2z"/>
	
		<linearGradient id="SVGID_24_" gradientUnits="userSpaceOnUse" x1="301.0349" y1="418.3602" x2="605.3478" y2="113.9672" gradientTransform="matrix(1 0 0 -1 0 540)">
		<stop  offset="0" style="stop-color:#FFFFFF;stop-opacity:0"/>
		<stop  offset="1" style="stop-color:#FFFFFF"/>
	</linearGradient>
	<path class="st25" d="M397.5,66c114.8-30.7,233,37.5,263.8,152.1c30.7,114.7-37.6,232.9-152.4,263.6
		c-114.8,30.7-233-37.5-263.8-152.1C214.4,214.9,282.8,96.7,397.5,66z M507.9,477.9c112.6-30.2,179.8-146.3,149.6-258.8
		c-30.2-112.5-146.4-179.5-259-149.4C285.9,99.9,218.7,216,248.9,328.6C279,441.1,395.2,508.1,507.9,477.9z"/>
	
		<linearGradient id="SVGID_25_" gradientUnits="userSpaceOnUse" x1="310.0367" y1="409.3795" x2="596.3759" y2="122.9504" gradientTransform="matrix(1 0 0 -1 0 540)">
		<stop  offset="0" style="stop-color:#FFFFFF;stop-opacity:0"/>
		<stop  offset="1" style="stop-color:#FFFFFF"/>
	</linearGradient>
	<path class="st26" d="M400.8,78.2c108-28.9,219.3,35.2,248.2,143.1c28.9,107.9-35.4,219.1-143.4,248.1
		c-108,28.9-219.3-35.3-248.2-143.1C228.5,218.5,292.9,107.1,400.8,78.2z M504.6,465.7c105.9-28.4,169-137.5,140.6-243.3
		C616.9,116.6,507.6,53.6,401.8,82c-105.9,28.4-169,137.5-140.6,243.3C289.5,431.1,398.7,494,504.6,465.7z"/>
	
		<linearGradient id="SVGID_26_" gradientUnits="userSpaceOnUse" x1="318.9444" y1="400.3283" x2="587.4895" y2="131.8061" gradientTransform="matrix(1 0 0 -1 0 540)">
		<stop  offset="0" style="stop-color:#FFFFFF;stop-opacity:0"/>
		<stop  offset="1" style="stop-color:#FFFFFF"/>
	</linearGradient>
	<path class="st27" d="M404.1,90.5c101.2-27.1,205.6,33.1,232.7,134.3c27.1,101.1-33.1,205.5-134.4,232.6
		c-101.2,27.1-205.6-33.1-232.7-134.3C242.6,222,302.9,117.6,404.1,90.5z M501.3,453.5c99.1-26.6,158.2-128.7,131.6-227.7
		c-26.5-99-128.8-158-227.9-131.4C306,120.9,246.9,223.1,273.5,322.1C300,421.1,402.2,480,501.3,453.5z"/>
	
		<linearGradient id="SVGID_27_" gradientUnits="userSpaceOnUse" x1="327.9057" y1="391.4564" x2="578.4742" y2="140.8999" gradientTransform="matrix(1 0 0 -1 0 540)">
		<stop  offset="0" style="stop-color:#FFFFFF;stop-opacity:0"/>
		<stop  offset="1" style="stop-color:#FFFFFF"/>
	</linearGradient>
	<path class="st28" d="M407.3,102.7c94.5-25.3,191.8,30.9,217.1,125.3s-31,191.8-125.4,217c-94.4,25.3-191.8-30.9-217.1-125.3
		C256.6,225.3,313,128,407.3,102.7z M498,441.2c92.3-24.7,147.4-119.9,122.6-212.3c-24.7-92.2-120-147.3-212.3-122.5
		C316,131.2,260.9,226.4,285.7,318.7C310.4,411,405.7,466,498,441.2z"/>
	
		<linearGradient id="SVGID_28_" gradientUnits="userSpaceOnUse" x1="336.879" y1="382.474" x2="569.488" y2="149.869" gradientTransform="matrix(1 0 0 -1 0 540)">
		<stop  offset="0" style="stop-color:#FFFFFF;stop-opacity:0"/>
		<stop  offset="1" style="stop-color:#FFFFFF"/>
	</linearGradient>
	<path class="st29" d="M410.6,114.9c87.7-23.5,178.1,28.7,201.6,116.3c23.5,87.6-28.8,178-116.4,201.5
		c-87.7,23.5-178.1-28.7-201.6-116.3C270.7,228.8,323,138.4,410.6,114.9z M494.8,429c85.6-22.9,136.6-111.1,113.7-196.7
		c-22.9-85.6-111.2-136.5-196.8-113.5C326,141.6,275,229.8,298,315.4S409.2,451.9,494.8,429z"/>
	
		<linearGradient id="SVGID_29_" gradientUnits="userSpaceOnUse" x1="345.8809" y1="373.5385" x2="560.5018" y2="158.7887" gradientTransform="matrix(1 0 0 -1 0 540)">
		<stop  offset="0" style="stop-color:#FFFFFF;stop-opacity:0"/>
		<stop  offset="1" style="stop-color:#FFFFFF"/>
	</linearGradient>
	<path class="st30" d="M413.9,127.2c80.9-21.7,164.4,26.4,186.1,107.3c21.7,80.8-26.6,164.3-107.5,186
		C411.5,442.1,328,394,306.4,313.2S333,148.9,413.9,127.2z M491.5,416.7c78.8-21.1,125.8-102.3,104.7-181.2
		C575,156.7,493.7,109.8,414.9,131c-78.8,21.1-125.8,102.3-104.7,181.2C331.3,391,412.6,437.8,491.5,416.7z"/>
	
		<linearGradient id="SVGID_30_" gradientUnits="userSpaceOnUse" x1="354.8454" y1="364.5792" x2="551.5217" y2="167.7641" gradientTransform="matrix(1 0 0 -1 0 540)">
		<stop  offset="0" style="stop-color:#FFFFFF;stop-opacity:0"/>
		<stop  offset="1" style="stop-color:#FFFFFF"/>
	</linearGradient>
	<path class="st31" d="M417.2,139.5c74.2-19.9,150.7,24.2,170.6,98.3s-24.4,150.5-98.6,170.4C415,428.1,338.5,384,318.6,309.9
		C298.8,235.8,343,159.3,417.2,139.5z M488.2,404.4c72.1-19.3,115-93.6,95.7-165.6c-19.3-72.1-93.6-114.9-165.7-95.6
		s-115,93.6-95.7,165.6C341.8,380.9,416.1,423.7,488.2,404.4z"/>
	
		<linearGradient id="SVGID_31_" gradientUnits="userSpaceOnUse" x1="363.7354" y1="355.6324" x2="542.6315" y2="176.7113" gradientTransform="matrix(1 0 0 -1 0 540)">
		<stop  offset="0" style="stop-color:#FFFFFF;stop-opacity:0"/>
		<stop  offset="1" style="stop-color:#FFFFFF"/>
	</linearGradient>
	<path class="st32" d="M420.4,151.6c67.4-18.1,137,22,155,89.4c18.1,67.4-22.1,136.9-89.5,155c-67.4,18.1-137-22-155-89.4
		C312.8,239.2,353,169.7,420.4,151.6z M484.9,392.3c65.3-17.5,104.2-84.9,86.7-150.1c-17.5-65.3-84.8-104.1-150.1-86.6
		c-65.3,17.5-104.2,84.9-86.7,150.1S419.6,409.7,484.9,392.3z"/>
	
		<linearGradient id="SVGID_32_" gradientUnits="userSpaceOnUse" x1="372.7326" y1="346.6558" x2="533.6892" y2="185.7242" gradientTransform="matrix(1 0 0 -1 0 540)">
		<stop  offset="0" style="stop-color:#FFFFFF;stop-opacity:0"/>
		<stop  offset="1" style="stop-color:#FFFFFF"/>
	</linearGradient>
	<path class="st33" d="M423.7,163.9c60.7-16.3,123.2,19.8,139.5,80.4c16.3,60.7-19.9,123.1-80.6,139.4s-123.1-19.8-139.4-80.5
		C327,242.6,363.1,180.2,423.7,163.9z M481.6,380c58.5-15.7,93.5-76.1,77.8-134.6c-15.7-58.5-76.1-93.4-134.7-77.7
		c-58.5,15.7-93.5,76.1-77.8,134.6C362.7,360.8,423.1,395.7,481.6,380z"/>
	
		<linearGradient id="SVGID_33_" gradientUnits="userSpaceOnUse" x1="381.7091" y1="337.6688" x2="524.6709" y2="194.661" gradientTransform="matrix(1 0 0 -1 0 540)">
		<stop  offset="0" style="stop-color:#FFFFFF;stop-opacity:0"/>
		<stop  offset="1" style="stop-color:#FFFFFF"/>
	</linearGradient>
	<path class="st34" d="M427,176.2c53.9-14.4,109.5,17.7,123.9,71.5c14.4,53.9-17.7,109.4-71.6,123.8
		c-53.9,14.4-109.5-17.7-123.9-71.5C341,246.2,373.1,190.6,427,176.2z M478.3,367.7c51.8-13.9,82.7-67.3,68.8-119.1
		c-13.9-51.8-67.3-82.6-119.1-68.7c-51.8,13.9-82.7,67.3-68.8,119.1C373.1,350.8,426.6,381.6,478.3,367.7z"/>
	
		<linearGradient id="SVGID_34_" gradientUnits="userSpaceOnUse" x1="390.6892" y1="328.693" x2="515.6774" y2="203.6499" gradientTransform="matrix(1 0 0 -1 0 540)">
		<stop  offset="0" style="stop-color:#FFFFFF;stop-opacity:0"/>
		<stop  offset="1" style="stop-color:#FFFFFF"/>
	</linearGradient>
	<path class="st35" d="M430.3,188.4c47.1-12.6,95.8,15.4,108.4,62.5c12.6,47-15.5,95.7-62.6,108.3c-47.1,12.6-95.8-15.4-108.4-62.5
		C355.1,249.7,383.2,201.1,430.3,188.4z M475.1,355.4c45-12.1,71.9-58.5,59.8-103.5c-12.1-45-58.5-71.8-103.6-59.7
		c-45,12.1-71.9,58.5-59.8,103.5C383.6,340.7,430,367.5,475.1,355.4z"/>
	
		<linearGradient id="SVGID_35_" gradientUnits="userSpaceOnUse" x1="399.6054" y1="319.6498" x2="506.813" y2="212.5002" gradientTransform="matrix(1 0 0 -1 0 540)">
		<stop  offset="0" style="stop-color:#FFFFFF;stop-opacity:0"/>
		<stop  offset="1" style="stop-color:#FFFFFF"/>
	</linearGradient>
	<path class="st36" d="M433.6,200.7c40.4-10.8,82,13.2,92.8,53.6c10.8,40.4-13.2,82-53.6,92.8c-40.4,10.8-82-13.2-92.8-53.6
		C369.2,253.2,393.2,211.5,433.6,200.7z M471.8,343.2c38.3-10.2,61.1-49.7,50.9-88c-10.2-38.3-49.7-61-88-50.7
		c-38.3,10.2-61.1,49.7-50.9,88C394.1,330.7,433.5,353.4,471.8,343.2z"/>
	
		<linearGradient id="SVGID_36_" gradientUnits="userSpaceOnUse" x1="408.56" y1="310.7713" x2="497.8064" y2="221.5718" gradientTransform="matrix(1 0 0 -1 0 540)">
		<stop  offset="0" style="stop-color:#FFFFFF;stop-opacity:0"/>
		<stop  offset="1" style="stop-color:#FFFFFF"/>
	</linearGradient>
	<path class="st37" d="M436.9,212.9c33.6-9,68.3,11,77.3,44.6c9,33.6-11,68.3-44.6,77.3c-33.6,9-68.3-11-77.3-44.6
		C383.2,256.5,403.2,221.9,436.9,212.9z M468.5,331c31.5-8.4,50.3-40.9,41.9-72.4c-8.4-31.5-41-50.2-72.5-41.8
		c-31.5,8.4-50.3,40.9-41.9,72.4C404.5,320.7,437,339.4,468.5,331z"/>
	
		<linearGradient id="SVGID_37_" gradientUnits="userSpaceOnUse" x1="417.5398" y1="301.7957" x2="488.8272" y2="230.5473" gradientTransform="matrix(1 0 0 -1 0 540)">
		<stop  offset="0" style="stop-color:#FFFFFF;stop-opacity:0"/>
		<stop  offset="1" style="stop-color:#FFFFFF"/>
	</linearGradient>
	<path class="st38" d="M440.1,225.1c26.9-7.2,54.5,8.8,61.7,35.6s-8.8,54.5-35.6,61.7c-26.9,7.2-54.5-8.8-61.7-35.6
		C397.3,260,413.3,232.3,440.1,225.1z M465.2,318.7c24.7-6.6,39.5-32.1,32.9-57c-6.6-24.7-32.2-39.5-57-32.9
		c-24.7,6.6-39.5,32.1-32.9,57C414.9,310.6,440.5,325.4,465.2,318.7z"/>
</g>
</svg>
