<svg width="1920" height="1080" viewBox="0 0 1920 1080" fill="none" xmlns="http://www.w3.org/2000/svg">
<mask id="mask0_272:18044" style="mask-type:alpha" maskUnits="userSpaceOnUse" x="0" y="0" width="1920" height="1080">
<rect width="1920" height="1080" rx="8" transform="matrix(-1 -8.74228e-08 -8.74228e-08 1 1920 0)" fill="#FCD9A6"/>
</mask>
<g mask="url(#mask0_272:18044)">
<g opacity="0.2">
<path d="M875.054 905.867C929.023 1107.28 1058.1 1275.67 1238.66 1379.91C1419.07 1484.2 1629.33 1511.98 1830.59 1458.05C2031.86 1404.12 2200.05 1274.93 2304.15 1094.41C2408.25 913.895 2435.99 703.492 2382.02 502.077C2328.05 300.663 2198.71 132.507 2018.26 28.073C1837.85 -76.2124 1627.6 -103.994 1426.33 -50.0653C1225.07 3.8637 1056.87 133.051 952.776 313.57C848.719 494.238 821.086 704.453 875.054 905.867ZM2375.93 503.71C2429.46 703.489 2402.06 912.208 2298.72 1091.41C2195.39 1270.61 2028.48 1398.65 1828.85 1452.14C1629.22 1505.63 1420.61 1478.05 1241.56 1374.67C1062.47 1271.15 934.382 1104.09 880.852 904.314C827.321 704.535 854.718 495.817 958.053 316.617C1061.39 137.417 1228.3 9.37136 1427.93 -44.1195C1627.56 -97.6103 1836.17 -70.0247 2015.22 33.3504C2194.31 136.874 2322.39 303.931 2375.93 503.71Z" fill="url(#paint0_linear_272:18044)"/>
<path d="M893.932 900.809C946.547 1097.17 1072.42 1261.31 1248.31 1362.99C1424.19 1464.66 1629.17 1491.79 1825.38 1439.21C2021.6 1386.64 2185.59 1260.81 2287.04 1084.66C2388.67 908.626 2415.61 703.536 2362.99 507.176C2310.38 310.815 2184.51 146.67 2008.62 44.9961C1832.73 -56.6777 1627.75 -83.8016 1431.54 -31.2268C1235.33 21.348 1071.33 147.18 969.887 323.324C868.253 499.359 841.318 704.449 893.932 900.809ZM2357.2 508.729C2409.41 703.603 2382.67 907.047 2281.91 1081.57C2181.19 1256.25 2018.52 1381.09 1823.79 1433.27C1629.07 1485.44 1425.77 1458.66 1251.2 1357.75C1076.82 1256.95 951.946 1094.13 899.729 899.256C847.513 704.382 874.252 500.938 975.016 326.411C1075.74 151.734 1238.41 26.8955 1433.13 -25.281C1627.86 -77.4575 1831.15 -50.6784 2005.72 50.2337C2180.29 151.146 2305.02 314.004 2357.2 508.729Z" fill="url(#paint1_linear_272:18044)"/>
<path d="M912.661 895.791C963.922 1087.1 1086.59 1247 1257.95 1346.07C1429.31 1445.13 1629.13 1471.41 1820.29 1420.18C2011.44 1368.96 2171.2 1246.34 2270.22 1074.83C2369.1 903.355 2395.38 703.54 2344.12 512.234C2292.85 320.927 2170.19 161.021 1998.83 61.9586C1827.46 -37.1036 1627.65 -63.3812 1436.49 -12.1607C1245.33 39.0599 1085.57 161.685 986.553 333.197C887.679 504.669 861.401 704.484 912.661 895.791ZM2338.32 513.787C2389.18 703.607 2363.1 901.776 2264.99 1071.93C2166.87 1242.08 2008.44 1363.71 1818.77 1414.54C1629.1 1465.36 1431.08 1439.24 1261.04 1340.94C1090.99 1242.64 969.321 1084.06 918.459 894.237C867.597 704.417 893.678 506.248 991.79 336.095C1089.9 165.942 1248.33 44.31 1438 -6.51226C1627.68 -57.3345 1825.7 -31.2133 1995.74 67.0873C2165.78 165.388 2287.5 324.116 2338.32 513.787Z" fill="url(#paint2_linear_272:18044)"/>
<path d="M931.539 890.732C981.446 1076.98 1100.94 1232.8 1267.78 1329.25C1434.77 1425.66 1629.16 1451.32 1815.27 1401.46C2001.37 1351.59 2157.04 1232.13 2253.3 1065.18C2349.71 898.194 2375.18 703.693 2325.24 517.292C2275.29 330.891 2155.83 175.224 1988.99 78.7728C1822.15 -17.6779 1627.61 -43.2978 1441.51 6.56863C1255.41 56.435 1099.74 175.893 1003.48 342.842C907.253 509.939 881.633 704.48 931.539 890.732ZM2319.44 518.845C2368.95 703.611 2343.52 896.507 2248.02 1062.14C2152.52 1227.77 1998.33 1346.19 1813.71 1395.66C1629.1 1445.13 1436.35 1419.66 1270.83 1323.97C1105.31 1228.29 986.845 1073.94 937.337 889.179C887.829 704.413 913.252 511.518 1008.75 345.888C1104.29 180.408 1258.48 61.9825 1443.1 12.5144C1627.72 -36.9537 1820.47 -11.4902 1985.95 84.0501C2151.47 179.739 2269.97 334.228 2319.44 518.845Z" fill="url(#paint3_linear_272:18044)"/>
<path d="M950.418 885.674C998.97 1066.87 1115.11 1218.49 1277.58 1312.29C1440.04 1406.09 1629.16 1431.09 1810.21 1382.58C1991.26 1334.07 2142.69 1217.81 2236.34 1055.39C2330.14 892.924 2354.91 703.549 2306.36 522.35C2257.81 341.152 2141.71 189.684 1979.2 95.7356C1816.74 1.93634 1627.62 -23.0656 1446.57 25.4466C1265.52 73.9588 1114.09 190.21 1020.44 352.635C926.679 515.249 901.866 704.475 950.418 885.674ZM2300.56 523.904C2348.72 703.616 2324.1 891.197 2231.21 1052.3C2138.32 1213.41 1988.22 1328.67 1808.66 1376.78C1629.09 1424.89 1441.62 1400.09 1280.48 1307.05C1119.48 1213.97 1004.37 1063.83 956.215 884.121C908.061 704.409 932.678 516.828 1025.57 355.722C1118.46 194.616 1268.56 79.3577 1448.12 31.2438C1627.68 -16.8701 1815.3 7.89569 1976.3 100.973C2137.3 194.051 2252.41 344.192 2300.56 523.904Z" fill="url(#paint4_linear_272:18044)"/>
<path d="M969.295 880.616C1016.49 1056.76 1129.43 1204.14 1287.37 1295.33C1445.31 1386.51 1629.16 1410.86 1805.3 1363.66C1981.44 1316.46 2128.49 1203.46 2219.67 1045.52C2310.86 887.575 2334.98 703.474 2287.78 527.329C2240.58 351.185 2127.65 203.807 1969.7 112.619C1811.76 21.4312 1627.92 -2.91287 1451.77 44.2849C1275.63 91.4828 1128.59 204.487 1037.4 362.429C946.213 520.37 922.098 704.471 969.295 880.616ZM2281.68 528.962C2328.48 703.62 2304.56 886.075 2214.25 1042.51C2123.97 1199.09 1978.07 1310.99 1803.56 1357.75C1629.05 1404.51 1446.7 1380.41 1290.27 1290.09C1133.83 1199.77 1021.85 1053.57 975.092 879.062C928.333 704.553 952.212 521.949 1042.53 365.515C1132.81 208.933 1278.71 97.0303 1453.22 50.2706C1627.73 3.51096 1810.03 27.47 1966.51 117.936C2122.98 208.402 2234.88 354.304 2281.68 528.962Z" fill="url(#paint5_linear_272:18044)"/>
<path d="M988.024 875.597C1033.91 1046.84 1143.6 1189.83 1297.05 1278.55C1450.47 1367.13 1629.19 1390.77 1800.13 1344.97C1971.07 1299.17 2114.06 1189.48 2202.6 1035.91C2291.18 882.493 2314.64 703.666 2268.75 532.427C2222.87 361.188 2113.18 218.197 1959.76 129.621C1806.34 41.045 1627.77 17.3588 1456.68 63.2024C1285.59 109.046 1142.79 218.843 1054.21 372.262C965.787 525.64 942.181 704.506 988.024 875.597ZM2262.95 533.981C2308.4 703.585 2285.14 880.765 2197.47 1032.82C2109.66 1184.92 1967.99 1293.62 1798.54 1339.02C1629.08 1384.43 1452.05 1361.13 1300.1 1273.27C1148.15 1185.42 1039.42 1043.61 993.97 874.004C948.525 704.4 971.786 527.219 1059.45 375.16C1147.12 223.101 1288.78 114.405 1458.24 68.9995C1627.69 23.5941 1804.76 47.0441 1956.71 134.898C2108.77 222.564 2217.51 364.376 2262.95 533.981Z" fill="url(#paint6_linear_272:18044)"/>
<path d="M1006.9 870.539C1098.79 1213.46 1452.41 1417.75 1795.03 1325.94C2137.66 1234.14 2341.76 880.41 2249.87 537.486C2157.99 194.561 1804.37 -9.72629 1461.74 82.0804C1119.11 173.887 915.016 527.614 1006.9 870.539ZM2244.08 539.039C2335.13 878.842 2132.99 1229.18 1793.48 1320.15C1453.98 1411.12 1103.75 1208.79 1012.7 868.985C921.65 529.182 1123.79 178.848 1463.3 87.8776C1802.8 -3.09266 2153.07 199.385 2244.08 539.039Z" fill="url(#paint7_linear_272:18044)"/>
<path d="M1025.78 865.48C1114.88 1198 1457.75 1396.08 1789.98 1307.07C2122.2 1218.05 2320.09 875.063 2231 542.544C2141.9 210.024 1799.02 11.9396 1466.8 100.958C1134.58 189.977 936.682 532.961 1025.78 865.48ZM2225.2 544.097C2313.46 873.495 2117.52 1213.09 1788.42 1301.27C1459.32 1389.45 1119.8 1193.18 1031.58 863.927C943.356 534.678 1139.25 194.938 1468.35 106.755C1797.45 18.5733 2136.98 214.848 2225.2 544.097Z" fill="url(#paint8_linear_272:18044)"/>
<path d="M1044.66 860.422C1130.97 1182.54 1463.14 1374.57 1784.96 1288.34C2106.77 1202.11 2298.47 869.865 2212.12 547.602C2125.81 225.488 1793.64 33.457 1471.82 119.688C1150 205.918 958.348 538.308 1044.66 860.422ZM2206.32 549.155C2291.79 868.148 2102.1 1197.15 1783.4 1282.54C1464.71 1367.93 1135.93 1177.86 1050.5 859.017C965.022 540.024 1154.76 211.176 1473.45 125.782C1792.15 40.3878 2120.89 230.311 2206.32 549.155Z" fill="url(#paint9_linear_272:18044)"/>
<path d="M1063.54 855.364C1147.06 1167.07 1468.49 1352.9 1780.05 1269.42C2091.61 1185.94 2276.95 864.479 2193.39 552.621C2109.83 240.763 1788.44 55.0834 1476.88 138.566C1165.32 222.048 980.014 543.655 1063.54 855.364ZM2187.44 554.214C2270.13 862.802 2086.6 1180.91 1778.31 1263.51C1470.02 1346.12 1151.98 1162.25 1069.33 853.811C986.688 545.372 1170.18 227.118 1478.47 144.512C1786.76 61.9056 2104.8 245.775 2187.44 554.214Z" fill="url(#paint10_linear_272:18044)"/>
<path d="M1082.27 850.345C1163 1151.65 1473.69 1331.28 1774.84 1250.58C2076 1169.89 2255.28 859.132 2174.51 557.679C2093.78 256.375 1783.09 76.7494 1481.94 157.444C1180.78 238.138 1001.53 549.041 1082.27 850.345ZM2168.71 559.233C2248.61 857.415 2071.32 1164.93 1773.44 1244.74C1475.55 1324.56 1168.26 1146.89 1088.36 848.712C1008.46 550.53 1185.75 243.019 1483.64 163.201C1781.52 83.383 2088.86 261.199 2168.71 559.233Z" fill="url(#paint11_linear_272:18044)"/>
<path d="M1101.14 845.287C1179.09 1136.19 1479.03 1309.61 1769.78 1231.7C2060.53 1153.8 2233.62 853.785 2155.63 562.738C2077.69 271.839 1777.74 98.4155 1486.99 176.322C1196.24 254.228 1023.2 554.388 1101.14 845.287ZM2149.84 564.291C2226.95 852.068 2055.71 1148.88 1768.23 1225.91C1480.75 1302.94 1184.05 1131.51 1106.94 843.734C1029.83 555.957 1201.07 259.149 1488.55 182.119C1776.03 105.089 2072.77 276.662 2149.84 564.291Z" fill="url(#paint12_linear_272:18044)"/>
<path d="M1120.02 840.228C1195.18 1120.72 1484.38 1287.94 1764.72 1212.82C2045.07 1137.71 2211.91 848.289 2136.75 567.795C2061.6 287.302 1772.4 120.081 1492.05 195.199C1211.71 270.317 1044.86 559.735 1120.02 840.228ZM2130.96 569.349C2205.28 846.721 2040.25 1132.79 1763.17 1207.03C1486.1 1281.27 1200.14 1116.05 1125.82 838.675C1051.5 561.303 1216.53 275.238 1493.61 200.996C1770.68 126.755 2056.68 292.125 2130.96 569.349Z" fill="url(#paint13_linear_272:18044)"/>
<path d="M1138.9 835.17C1211.27 1105.26 1489.73 1266.28 1759.67 1193.95C2029.61 1121.62 2190.44 843.051 2118.03 572.814C2045.62 302.577 1767.2 141.707 1497.26 214.037C1227.32 286.368 1066.53 565.082 1138.9 835.17ZM2112.08 574.407C2183.61 841.374 2024.78 1116.7 1758.11 1188.15C1491.44 1259.6 1216.23 1100.58 1144.7 833.617C1073.16 566.65 1231.99 291.328 1498.66 219.874C1765.33 148.42 2040.59 307.589 2112.08 574.407Z" fill="url(#paint14_linear_272:18044)"/>
<path d="M1157.78 830.112C1227.4 1089.94 1495.22 1244.57 1754.76 1175.03C2014.29 1105.49 2168.77 837.705 2099.15 577.873C2029.53 318.041 1761.7 163.413 1502.17 232.955C1242.63 302.498 1088.2 570.429 1157.78 830.112ZM2093.2 579.466C2161.95 836.028 2009.32 1100.61 1753.05 1169.27C1496.79 1237.94 1232.32 1085.12 1163.57 828.559C1094.83 571.997 1247.46 307.418 1503.72 238.753C1759.99 170.087 2024.5 323.053 2093.2 579.466Z" fill="url(#paint15_linear_272:18044)"/>
<path d="M1176.51 825.094C1243.34 1074.52 1500.42 1222.95 1749.55 1156.19C1998.68 1089.44 2147.06 832.209 2080.27 582.931C2013.48 333.653 1756.36 185.079 1507.23 251.833C1258.1 318.587 1109.71 575.816 1176.51 825.094ZM2074.47 584.484C2140.43 830.641 1994 1084.48 1748 1150.39C1501.99 1216.31 1248.41 1069.66 1182.45 823.5C1116.49 577.344 1262.92 323.508 1508.93 257.591C1754.94 191.673 2008.52 338.328 2074.47 584.484Z" fill="url(#paint16_linear_272:18044)"/>
<path d="M1195.38 820.035C1259.43 1059.06 1505.77 1201.28 1744.49 1137.31C1983.22 1073.35 2125.4 826.862 2061.39 587.989C1997.35 348.968 1751.01 206.745 1512.29 270.711C1273.56 334.677 1131.38 581.162 1195.38 820.035ZM2055.59 589.542C2118.76 825.294 1978.54 1068.39 1742.94 1131.52C1507.33 1194.65 1264.35 1054.23 1201.18 818.482C1138.01 582.73 1278.24 339.638 1513.84 276.508C1749.44 213.379 1992.43 353.791 2055.59 589.542Z" fill="url(#paint17_linear_272:18044)"/>
<path d="M1214.26 814.977C1275.52 1043.59 1511.15 1179.76 1739.47 1118.58C1967.79 1057.41 2103.77 821.664 2042.51 593.048C1981.26 364.431 1745.62 228.263 1517.3 289.441C1288.99 350.619 1153.04 586.509 1214.26 814.977ZM2036.72 594.601C2097.1 819.947 1963.08 1052.3 1737.88 1112.64C1512.68 1172.98 1280.44 1038.77 1220.06 813.423C1159.68 588.077 1293.7 355.728 1518.9 295.386C1744.09 235.045 1976.34 369.255 2036.72 594.601Z" fill="url(#paint18_linear_272:18044)"/>
<path d="M1233.14 809.919C1291.61 1028.13 1516.5 1158.1 1734.41 1099.71C1952.33 1041.32 2082.25 816.277 2023.78 598.066C1965.32 379.855 1740.43 249.889 1522.51 308.279C1304.6 366.669 1174.71 591.856 1233.14 809.919ZM2017.84 599.659C2075.43 814.6 1947.61 1036.21 1732.82 1093.76C1518.03 1151.31 1296.53 1023.31 1238.94 808.365C1181.34 593.424 1309.16 371.818 1523.96 314.264C1738.75 256.711 1960.25 384.718 2017.84 599.659Z" fill="url(#paint19_linear_272:18044)"/>
<path d="M1252.02 804.86C1307.7 1012.67 1521.85 1136.43 1729.36 1080.83C1936.86 1025.23 2060.59 810.93 2004.91 603.124C1949.23 395.318 1735.08 271.555 1527.42 327.196C1319.76 382.838 1196.38 597.203 1252.02 804.86ZM1999.11 604.678C2053.91 809.213 1932.15 1020.12 1727.91 1074.84C1523.52 1129.61 1312.77 1007.8 1257.96 803.267C1203.16 598.731 1324.92 387.828 1529.16 333.102C1733.4 278.377 1944.3 400.142 1999.11 604.678Z" fill="url(#paint20_linear_272:18044)"/>
<path d="M1270.75 799.842C1323.64 997.243 1527.05 1114.8 1724.3 1061.95C1921.55 1009.1 2038.92 805.584 1986.03 608.183C1933.14 410.782 1729.73 293.221 1532.48 346.075C1335.42 399.037 1217.89 602.59 1270.75 799.842ZM1980.23 609.736C2032.25 803.867 1916.73 1004.18 1722.74 1056.15C1528.76 1108.13 1328.71 992.379 1276.69 798.249C1224.68 604.118 1340.09 403.998 1534.07 352.02C1728.05 300.043 1928.21 415.605 1980.23 609.736Z" fill="url(#paint21_linear_272:18044)"/>
<path d="M1289.63 794.784C1339.73 981.779 1532.39 1093.14 1719.24 1043.07C1906.09 993.007 2017.26 800.237 1967.15 613.241C1917.05 426.245 1724.38 314.887 1537.54 364.953C1350.69 415.018 1239.56 607.936 1289.63 794.784ZM1961.35 614.795C2010.58 798.52 1901.26 988.086 1717.69 1037.28C1534.11 1086.46 1344.65 976.956 1295.42 793.23C1246.19 609.505 1355.51 419.939 1539.09 370.75C1722.71 321.709 1912.12 431.069 1961.35 614.795Z" fill="url(#paint22_linear_272:18044)"/>
<path d="M1308.5 789.725C1355.82 966.316 1537.74 1071.47 1714.18 1024.19C1890.62 976.917 1995.59 794.89 1948.27 618.3C1900.96 441.709 1719.04 336.553 1542.6 383.83C1366.15 431.108 1261.23 613.283 1308.5 789.725ZM1942.48 619.853C1988.92 793.173 1885.8 971.996 1712.63 1018.4C1539.46 1064.8 1360.74 961.492 1314.3 788.172C1267.86 614.851 1370.98 436.029 1544.15 389.628C1717.32 343.226 1896.03 446.533 1942.48 619.853Z" fill="url(#paint23_linear_272:18044)"/>
<path d="M1327.38 784.667C1371.91 950.852 1543.09 1049.81 1709.12 1005.32C1875.16 960.827 1973.92 789.543 1929.39 623.358C1884.87 457.172 1713.54 358.259 1547.65 402.708C1381.77 447.158 1282.89 618.63 1327.38 784.667ZM1923.6 624.911C1967.25 787.826 1870.34 955.906 1707.57 999.519C1544.8 1043.13 1376.83 946.029 1333.18 783.113C1289.53 620.198 1386.44 452.119 1549.21 408.505C1711.97 364.892 1879.94 461.996 1923.6 624.911Z" fill="url(#paint24_linear_272:18044)"/>
<path d="M1346.26 779.608C1388 935.389 1548.58 1028.1 1704.21 986.398C1859.84 944.697 1952.56 784.117 1910.81 628.336C1869.07 472.556 1708.49 379.845 1552.86 421.546C1397.23 463.248 1304.56 623.977 1346.26 779.608ZM1904.87 629.93C1945.73 782.44 1855.02 939.776 1702.66 980.601C1550.3 1021.43 1393.07 930.525 1352.21 778.015C1311.34 625.505 1402.05 468.169 1554.41 427.344C1706.78 386.519 1864 477.42 1904.87 629.93Z" fill="url(#paint25_linear_272:18044)"/>
<path d="M1364.99 774.59C1403.94 919.965 1553.78 1006.47 1699.01 967.56C1844.23 928.647 1930.7 778.661 1891.79 633.435C1852.87 488.208 1703 401.551 1557.77 440.464C1412.54 479.378 1326.08 629.364 1364.99 774.59ZM1885.99 634.988C1924.07 777.093 1839.56 923.686 1697.45 961.763C1555.5 999.8 1408.86 915.141 1370.79 773.037C1332.71 630.932 1417.22 484.338 1559.32 446.261C1701.43 408.185 1847.91 492.883 1885.99 634.988Z" fill="url(#paint26_linear_272:18044)"/>
<path d="M1383.87 769.531C1420.03 904.501 1559.13 984.807 1693.95 948.682C1828.77 912.557 1909.03 773.314 1872.91 638.493C1836.74 503.523 1697.65 423.217 1562.83 459.342C1428.01 495.467 1347.74 634.71 1383.87 769.531ZM1867.11 640.046C1902.4 771.746 1824.09 907.596 1692.39 942.885C1560.69 978.174 1424.95 899.678 1389.66 767.978C1354.38 636.278 1432.68 500.428 1564.38 465.139C1696.08 429.85 1831.82 508.346 1867.11 640.046Z" fill="url(#paint27_linear_272:18044)"/>
<path d="M1402.74 764.473C1436.12 889.038 1564.51 963.29 1688.93 929.953C1813.34 896.616 1887.41 768.116 1854.03 643.551C1820.65 518.986 1692.26 444.734 1567.85 478.071C1443.43 511.409 1369.41 640.057 1402.74 764.473ZM1848.23 645.105C1880.74 766.399 1808.63 891.506 1687.34 924.007C1566.04 956.508 1441.04 884.214 1408.54 762.92C1376.04 641.625 1448.15 516.518 1569.44 484.017C1690.74 451.516 1815.73 523.81 1848.23 645.105Z" fill="url(#paint28_linear_272:18044)"/>
<path d="M1421.62 759.415C1452.21 873.574 1569.86 941.624 1683.87 911.075C1797.88 880.526 1865.74 762.769 1835.15 648.61C1804.56 534.45 1686.92 466.4 1572.91 496.949C1458.9 527.498 1391.03 645.255 1421.62 759.415ZM1829.36 650.163C1859.07 761.052 1793.02 875.456 1682.28 905.129C1571.39 934.842 1457.13 868.751 1427.42 757.862C1397.71 646.972 1463.76 532.568 1574.5 502.895C1685.39 473.182 1799.64 539.274 1829.36 650.163Z" fill="url(#paint29_linear_272:18044)"/>
<path d="M1440.35 754.396C1468.15 858.151 1575.06 919.998 1678.81 892.197C1782.57 864.396 1844.23 757.382 1816.42 653.628C1788.62 549.873 1681.72 488.026 1577.96 515.827C1474.21 543.628 1412.55 650.642 1440.35 754.396ZM1810.63 655.181C1837.55 755.665 1777.7 859.326 1677.37 886.211C1576.88 913.136 1473.37 853.247 1446.45 752.763C1419.52 652.279 1479.37 548.618 1579.71 521.733C1680.04 494.848 1783.7 554.697 1810.63 655.181Z" fill="url(#paint30_linear_272:18044)"/>
<path d="M1459.23 749.338C1484.24 842.687 1580.4 898.332 1673.75 873.319C1767.1 848.306 1822.56 752.036 1797.55 658.686C1772.53 565.337 1676.41 509.841 1583.06 534.854C1489.71 559.867 1434.22 655.989 1459.23 749.338ZM1791.75 660.24C1815.89 750.319 1762.28 843.385 1672.2 867.522C1582.12 891.659 1489.2 838.012 1465.03 747.785C1440.89 657.706 1494.5 564.639 1584.58 540.502C1674.69 516.515 1767.61 570.161 1791.75 660.24Z" fill="url(#paint31_linear_272:18044)"/>
<path d="M1478.11 744.28C1500.33 827.224 1585.9 876.626 1668.7 854.441C1751.64 832.217 1800.89 746.689 1778.67 663.745C1756.44 580.801 1670.88 531.398 1588.08 553.583C1505.29 575.768 1455.88 661.336 1478.11 744.28ZM1772.87 665.298C1794.22 744.972 1746.82 827.296 1667.14 848.644C1587.47 869.993 1505.29 822.549 1483.91 742.726C1462.56 663.053 1509.96 580.729 1589.63 559.38C1669.31 538.032 1751.52 585.624 1772.87 665.298Z" fill="url(#paint32_linear_272:18044)"/>
<path d="M1496.99 739.222C1516.42 811.76 1591.25 854.96 1663.64 835.563C1736.03 816.166 1779.23 741.342 1759.79 668.803C1740.35 596.264 1665.53 553.064 1593.14 572.461C1520.75 591.858 1477.55 666.683 1496.99 739.222ZM1753.99 670.357C1772.55 739.625 1731.35 811.206 1662.08 829.766C1592.82 848.327 1521.38 807.086 1502.78 737.668C1484.22 668.399 1525.42 596.819 1594.69 578.258C1664 559.847 1735.43 601.088 1753.99 670.357Z" fill="url(#paint33_linear_272:18044)"/>
<path d="M1515.86 734.163C1532.51 796.297 1596.59 833.294 1658.73 816.645C1720.86 799.997 1757.86 735.915 1741.21 673.781C1724.56 611.648 1660.48 574.65 1598.35 591.299C1536.21 607.948 1499.21 672.029 1515.86 734.163ZM1735.12 675.414C1750.89 734.278 1715.89 795.115 1657.03 810.888C1598.16 826.66 1537.47 791.622 1521.66 732.609C1505.89 673.746 1540.89 612.908 1599.75 597.136C1658.65 581.512 1719.34 616.551 1735.12 675.414Z" fill="url(#paint34_linear_272:18044)"/>
<path d="M1534.59 729.145C1548.45 780.873 1601.79 811.668 1653.52 797.807C1705.25 783.947 1736.04 730.608 1722.18 678.88C1708.32 627.151 1654.98 596.356 1603.26 610.217C1551.53 624.078 1520.73 677.416 1534.59 729.145ZM1716.39 680.433C1729.37 728.892 1700.57 778.986 1652.12 791.97C1603.66 804.955 1553.67 775.97 1540.69 727.512C1527.7 679.053 1556.5 628.959 1604.96 615.974C1653.42 602.99 1703.4 631.975 1716.39 680.433Z" fill="url(#paint35_linear_272:18044)"/>
<path d="M1553.47 724.086C1564.54 765.41 1607.14 790.002 1648.46 778.929C1689.79 767.857 1714.38 725.262 1703.31 683.938C1692.23 642.615 1649.64 618.022 1608.31 629.095C1566.99 640.168 1542.4 682.763 1553.47 724.086ZM1697.51 685.492C1707.7 723.545 1685.11 762.896 1646.91 773.132C1608.86 783.329 1569.46 760.586 1559.27 722.533C1549.07 684.48 1571.67 645.128 1609.87 634.892C1647.92 624.696 1687.31 647.438 1697.51 685.492Z" fill="url(#paint36_linear_272:18044)"/>
</g>
</g>
<defs>
<linearGradient id="paint0_linear_272:18044" x1="874.618" y1="501.943" x2="2382.59" y2="905.888" gradientUnits="userSpaceOnUse">
<stop stop-color="white" stop-opacity="0"/>
<stop offset="1" stop-color="white"/>
</linearGradient>
<linearGradient id="paint1_linear_272:18044" x1="893.495" y1="507.001" x2="2363.61" y2="900.72" gradientUnits="userSpaceOnUse">
<stop stop-color="white" stop-opacity="0"/>
<stop offset="1" stop-color="white"/>
</linearGradient>
<linearGradient id="paint2_linear_272:18044" x1="912.263" y1="512.166" x2="2344.59" y2="895.957" gradientUnits="userSpaceOnUse">
<stop stop-color="white" stop-opacity="0"/>
<stop offset="1" stop-color="white"/>
</linearGradient>
<linearGradient id="paint3_linear_272:18044" x1="931.13" y1="517.146" x2="2325.79" y2="890.696" gradientUnits="userSpaceOnUse">
<stop stop-color="white" stop-opacity="0"/>
<stop offset="1" stop-color="white"/>
</linearGradient>
<linearGradient id="paint4_linear_272:18044" x1="950.017" y1="522.2" x2="2306.91" y2="885.619" gradientUnits="userSpaceOnUse">
<stop stop-color="white" stop-opacity="0"/>
<stop offset="1" stop-color="white"/>
</linearGradient>
<linearGradient id="paint5_linear_272:18044" x1="968.924" y1="527.249" x2="2288.24" y2="880.725" gradientUnits="userSpaceOnUse">
<stop stop-color="white" stop-opacity="0"/>
<stop offset="1" stop-color="white"/>
</linearGradient>
<linearGradient id="paint6_linear_272:18044" x1="987.672" y1="532.38" x2="2269.27" y2="875.671" gradientUnits="userSpaceOnUse">
<stop stop-color="white" stop-opacity="0"/>
<stop offset="1" stop-color="white"/>
</linearGradient>
<linearGradient id="paint7_linear_272:18044" x1="1006.55" y1="537.397" x2="2250.32" y2="870.611" gradientUnits="userSpaceOnUse">
<stop stop-color="white" stop-opacity="0"/>
<stop offset="1" stop-color="white"/>
</linearGradient>
<linearGradient id="paint8_linear_272:18044" x1="1025.44" y1="542.451" x2="2231.44" y2="865.533" gradientUnits="userSpaceOnUse">
<stop stop-color="white" stop-opacity="0"/>
<stop offset="1" stop-color="white"/>
</linearGradient>
<linearGradient id="paint9_linear_272:18044" x1="1044.3" y1="547.431" x2="2212.64" y2="860.273" gradientUnits="userSpaceOnUse">
<stop stop-color="white" stop-opacity="0"/>
<stop offset="1" stop-color="white"/>
</linearGradient>
<linearGradient id="paint10_linear_272:18044" x1="1063.2" y1="552.483" x2="2193.86" y2="855.288" gradientUnits="userSpaceOnUse">
<stop stop-color="white" stop-opacity="0"/>
<stop offset="1" stop-color="white"/>
</linearGradient>
<linearGradient id="paint11_linear_272:18044" x1="1081.95" y1="557.575" x2="2174.94" y2="850.342" gradientUnits="userSpaceOnUse">
<stop stop-color="white" stop-opacity="0"/>
<stop offset="1" stop-color="white"/>
</linearGradient>
<linearGradient id="paint12_linear_272:18044" x1="1100.83" y1="562.629" x2="2156.05" y2="845.265" gradientUnits="userSpaceOnUse">
<stop stop-color="white" stop-opacity="0"/>
<stop offset="1" stop-color="white"/>
</linearGradient>
<linearGradient id="paint13_linear_272:18044" x1="1119.72" y1="567.683" x2="2137.17" y2="840.187" gradientUnits="userSpaceOnUse">
<stop stop-color="white" stop-opacity="0"/>
<stop offset="1" stop-color="white"/>
</linearGradient>
<linearGradient id="paint14_linear_272:18044" x1="1138.62" y1="572.734" x2="2118.39" y2="835.202" gradientUnits="userSpaceOnUse">
<stop stop-color="white" stop-opacity="0"/>
<stop offset="1" stop-color="white"/>
</linearGradient>
<linearGradient id="paint15_linear_272:18044" x1="1157.51" y1="577.789" x2="2099.51" y2="830.125" gradientUnits="userSpaceOnUse">
<stop stop-color="white" stop-opacity="0"/>
<stop offset="1" stop-color="white"/>
</linearGradient>
<linearGradient id="paint16_linear_272:18044" x1="1176.25" y1="582.88" x2="2080.58" y2="825.179" gradientUnits="userSpaceOnUse">
<stop stop-color="white" stop-opacity="0"/>
<stop offset="1" stop-color="white"/>
</linearGradient>
<linearGradient id="paint17_linear_272:18044" x1="1195.14" y1="587.934" x2="2061.7" y2="820.102" gradientUnits="userSpaceOnUse">
<stop stop-color="white" stop-opacity="0"/>
<stop offset="1" stop-color="white"/>
</linearGradient>
<linearGradient id="paint18_linear_272:18044" x1="1214.01" y1="592.914" x2="2042.9" y2="814.841" gradientUnits="userSpaceOnUse">
<stop stop-color="white" stop-opacity="0"/>
<stop offset="1" stop-color="white"/>
</linearGradient>
<linearGradient id="paint19_linear_272:18044" x1="1232.9" y1="597.966" x2="2024.12" y2="809.856" gradientUnits="userSpaceOnUse">
<stop stop-color="white" stop-opacity="0"/>
<stop offset="1" stop-color="white"/>
</linearGradient>
<linearGradient id="paint20_linear_272:18044" x1="1251.79" y1="603.02" x2="2005.24" y2="804.778" gradientUnits="userSpaceOnUse">
<stop stop-color="white" stop-opacity="0"/>
<stop offset="1" stop-color="white"/>
</linearGradient>
<linearGradient id="paint21_linear_272:18044" x1="1270.54" y1="608.112" x2="1986.31" y2="799.833" gradientUnits="userSpaceOnUse">
<stop stop-color="white" stop-opacity="0"/>
<stop offset="1" stop-color="white"/>
</linearGradient>
<linearGradient id="paint22_linear_272:18044" x1="1289.43" y1="613.166" x2="1967.43" y2="794.756" gradientUnits="userSpaceOnUse">
<stop stop-color="white" stop-opacity="0"/>
<stop offset="1" stop-color="white"/>
</linearGradient>
<linearGradient id="paint23_linear_272:18044" x1="1308.31" y1="618.22" x2="1948.54" y2="789.679" gradientUnits="userSpaceOnUse">
<stop stop-color="white" stop-opacity="0"/>
<stop offset="1" stop-color="white"/>
</linearGradient>
<linearGradient id="paint24_linear_272:18044" x1="1327.2" y1="623.274" x2="1929.66" y2="784.601" gradientUnits="userSpaceOnUse">
<stop stop-color="white" stop-opacity="0"/>
<stop offset="1" stop-color="white"/>
</linearGradient>
<linearGradient id="paint25_linear_272:18044" x1="1346.11" y1="628.323" x2="1910.98" y2="779.707" gradientUnits="userSpaceOnUse">
<stop stop-color="white" stop-opacity="0"/>
<stop offset="1" stop-color="white"/>
</linearGradient>
<linearGradient id="paint26_linear_272:18044" x1="1364.84" y1="633.417" x2="1891.95" y2="774.67" gradientUnits="userSpaceOnUse">
<stop stop-color="white" stop-opacity="0"/>
<stop offset="1" stop-color="white"/>
</linearGradient>
<linearGradient id="paint27_linear_272:18044" x1="1383.73" y1="638.471" x2="1873.07" y2="769.593" gradientUnits="userSpaceOnUse">
<stop stop-color="white" stop-opacity="0"/>
<stop offset="1" stop-color="white"/>
</linearGradient>
<linearGradient id="paint28_linear_272:18044" x1="1402.6" y1="643.451" x2="1854.27" y2="764.332" gradientUnits="userSpaceOnUse">
<stop stop-color="white" stop-opacity="0"/>
<stop offset="1" stop-color="white"/>
</linearGradient>
<linearGradient id="paint29_linear_272:18044" x1="1421.49" y1="648.506" x2="1835.39" y2="759.255" gradientUnits="userSpaceOnUse">
<stop stop-color="white" stop-opacity="0"/>
<stop offset="1" stop-color="white"/>
</linearGradient>
<linearGradient id="paint30_linear_272:18044" x1="1440.24" y1="653.594" x2="1816.57" y2="754.401" gradientUnits="userSpaceOnUse">
<stop stop-color="white" stop-opacity="0"/>
<stop offset="1" stop-color="white"/>
</linearGradient>
<linearGradient id="paint31_linear_272:18044" x1="1459.16" y1="658.76" x2="1797.66" y2="749.49" gradientUnits="userSpaceOnUse">
<stop stop-color="white" stop-opacity="0"/>
<stop offset="1" stop-color="white"/>
</linearGradient>
<linearGradient id="paint32_linear_272:18044" x1="1478.02" y1="663.703" x2="1778.8" y2="744.247" gradientUnits="userSpaceOnUse">
<stop stop-color="white" stop-opacity="0"/>
<stop offset="1" stop-color="white"/>
</linearGradient>
<linearGradient id="paint33_linear_272:18044" x1="1496.9" y1="668.757" x2="1759.92" y2="739.17" gradientUnits="userSpaceOnUse">
<stop stop-color="white" stop-opacity="0"/>
<stop offset="1" stop-color="white"/>
</linearGradient>
<linearGradient id="paint34_linear_272:18044" x1="1515.81" y1="673.806" x2="1741.24" y2="734.275" gradientUnits="userSpaceOnUse">
<stop stop-color="white" stop-opacity="0"/>
<stop offset="1" stop-color="white"/>
</linearGradient>
<linearGradient id="paint35_linear_272:18044" x1="1534.55" y1="678.9" x2="1722.21" y2="729.238" gradientUnits="userSpaceOnUse">
<stop stop-color="white" stop-opacity="0"/>
<stop offset="1" stop-color="white"/>
</linearGradient>
<linearGradient id="paint36_linear_272:18044" x1="1553.44" y1="683.954" x2="1703.33" y2="724.161" gradientUnits="userSpaceOnUse">
<stop stop-color="white" stop-opacity="0"/>
<stop offset="1" stop-color="white"/>
</linearGradient>
</defs>
</svg>
