<svg width="1117" height="1080" viewBox="0 0 1117 1080" fill="none" xmlns="http://www.w3.org/2000/svg">
<mask id="mask0_272_18044" style="mask-type:alpha" maskUnits="userSpaceOnUse" x="0" y="0" width="1117" height="1080">
<rect width="1117" height="1080" rx="8" transform="matrix(-1 -8.74228e-08 -8.74228e-08 1 1117 0)" fill="#FCD9A6"/>
</mask>
<g mask="url(#mask0_272_18044)">
<g opacity="0.2">
<path d="M72.0543 905.867C126.023 1107.28 255.102 1275.67 435.661 1379.91C616.07 1484.2 826.326 1511.98 1027.59 1458.05C1228.86 1404.12 1397.05 1274.93 1501.15 1094.41C1605.25 913.895 1632.99 703.492 1579.02 502.077C1525.05 300.663 1395.71 132.507 1215.26 28.073C1034.85 -76.2124 824.6 -103.994 623.334 -50.0653C422.068 3.8637 253.873 133.051 149.776 313.57C45.7188 494.238 18.0855 704.453 72.0543 905.867ZM1572.93 503.71C1626.46 703.489 1599.06 912.208 1495.72 1091.41C1392.39 1270.61 1225.48 1398.65 1025.85 1452.14C826.219 1505.63 617.61 1478.05 438.559 1374.67C259.468 1271.15 131.382 1104.09 77.8515 904.314C24.3208 704.535 51.7179 495.817 155.053 316.617C258.388 137.417 425.297 9.37136 624.927 -44.1195C824.558 -97.6103 1033.17 -70.0247 1212.22 33.3504C1391.31 136.874 1519.39 303.931 1572.93 503.71Z" fill="url(#paint0_linear_272_18044)"/>
<path d="M90.9322 900.809C143.547 1097.17 269.419 1261.31 445.305 1362.99C621.192 1464.66 826.173 1491.79 1022.38 1439.21C1218.6 1386.64 1382.59 1260.81 1484.04 1084.66C1585.67 908.626 1612.61 703.536 1559.99 507.176C1507.38 310.815 1381.51 146.67 1205.62 44.9961C1029.73 -56.6777 824.753 -83.8016 628.541 -31.2268C432.329 21.348 268.333 147.18 166.887 323.324C65.2532 499.359 38.3175 704.449 90.9322 900.809ZM1554.2 508.729C1606.41 703.603 1579.67 907.047 1478.91 1081.57C1378.19 1256.25 1215.52 1381.09 1020.79 1433.27C826.066 1485.44 622.771 1458.66 448.203 1357.75C273.825 1256.95 148.946 1094.13 96.7294 899.256C44.513 704.382 71.2523 500.938 172.016 326.411C272.739 151.734 435.409 26.8955 630.134 -25.281C824.859 -77.4575 1028.15 -50.6784 1202.72 50.2337C1377.29 151.146 1502.02 314.004 1554.2 508.729Z" fill="url(#paint1_linear_272_18044)"/>
<path d="M109.661 895.791C160.922 1087.1 283.587 1247 454.95 1346.07C626.313 1445.13 826.129 1471.41 1017.29 1420.18C1208.44 1368.96 1368.2 1246.34 1467.22 1074.83C1566.1 903.355 1592.38 703.54 1541.12 512.234C1489.85 320.927 1367.19 161.021 1195.83 61.9586C1024.46 -37.1036 824.648 -63.3812 633.49 -12.1607C442.333 39.0599 282.575 161.685 183.553 333.197C84.6788 504.669 58.401 704.484 109.661 895.791ZM1535.32 513.787C1586.18 703.607 1560.1 901.776 1461.99 1071.93C1363.87 1242.08 1205.44 1363.71 1015.77 1414.54C826.102 1465.36 628.081 1439.24 458.037 1340.94C287.993 1242.64 166.321 1084.06 115.459 894.237C64.5965 704.417 90.6781 506.248 188.79 336.095C286.902 165.942 445.333 44.31 635.004 -6.51226C824.675 -57.3345 1022.7 -31.2133 1192.74 67.0873C1362.78 165.388 1484.5 324.116 1535.32 513.787Z" fill="url(#paint2_linear_272_18044)"/>
<path d="M128.539 890.732C178.446 1076.98 297.943 1232.8 464.783 1329.25C631.772 1425.66 826.164 1451.32 1012.27 1401.46C1198.37 1351.59 1354.04 1232.13 1450.3 1065.18C1546.71 898.194 1572.18 703.693 1522.24 517.292C1472.29 330.891 1352.83 175.224 1185.99 78.7728C1019.15 -17.6779 824.613 -43.2978 638.509 6.56863C452.405 56.435 296.738 175.893 200.475 342.842C104.253 509.939 78.6332 704.48 128.539 890.732ZM1516.44 518.845C1565.95 703.611 1540.52 896.507 1445.02 1062.14C1349.52 1227.77 1195.33 1346.19 1010.71 1395.66C826.097 1445.13 633.351 1419.66 467.83 1323.97C302.309 1228.29 183.845 1073.94 134.337 889.179C84.8287 704.413 110.252 511.518 205.753 345.888C301.293 180.408 455.485 61.9825 640.102 12.5144C824.719 -36.9537 1017.47 -11.4902 1182.95 84.0501C1348.47 179.739 1466.97 334.228 1516.44 518.845Z" fill="url(#paint3_linear_272_18044)"/>
<path d="M147.418 885.674C195.97 1066.87 312.112 1218.49 474.577 1312.29C637.042 1406.09 826.16 1431.09 1007.21 1382.58C1188.26 1334.07 1339.69 1217.81 1433.34 1055.39C1527.14 892.924 1551.91 703.549 1503.36 522.35C1454.81 341.152 1338.71 189.684 1176.2 95.7356C1013.74 1.93634 824.617 -23.0656 643.568 25.4466C462.518 73.9588 311.089 190.21 217.438 352.635C123.679 515.249 98.8656 704.475 147.418 885.674ZM1497.56 523.904C1545.72 703.616 1521.1 891.197 1428.21 1052.3C1335.32 1213.41 1185.22 1328.67 1005.66 1376.78C826.093 1424.89 638.621 1400.09 477.475 1307.05C316.478 1213.97 201.369 1063.83 153.215 884.121C105.061 704.409 129.678 516.828 222.567 355.722C315.456 194.616 465.557 79.3577 645.121 31.2438C824.684 -16.8701 1012.3 7.89569 1173.3 100.973C1334.3 194.051 1449.41 344.192 1497.56 523.904Z" fill="url(#paint4_linear_272_18044)"/>
<path d="M166.295 880.616C213.493 1056.76 326.428 1204.14 484.37 1295.33C642.312 1386.51 826.155 1410.86 1002.3 1363.66C1178.44 1316.46 1325.49 1203.46 1416.67 1045.52C1507.86 887.575 1531.98 703.474 1484.78 527.329C1437.58 351.185 1324.65 203.807 1166.7 112.619C1008.76 21.4312 824.919 -2.91287 648.774 44.2849C472.63 91.4828 325.589 204.487 234.401 362.429C143.213 520.37 119.098 704.471 166.295 880.616ZM1478.68 528.962C1525.48 703.62 1501.56 886.075 1411.25 1042.51C1320.97 1199.09 1175.07 1310.99 1000.56 1357.75C826.048 1404.51 643.702 1380.41 487.268 1290.09C330.834 1199.77 218.852 1053.57 172.092 879.062C125.333 704.553 149.212 521.949 239.53 365.515C329.807 208.933 475.709 97.0303 650.219 50.2706C824.728 3.51096 1007.03 27.47 1163.51 117.936C1319.98 208.402 1431.88 354.304 1478.68 528.962Z" fill="url(#paint5_linear_272_18044)"/>
<path d="M185.024 875.597C230.908 1046.84 340.596 1189.83 494.054 1278.55C647.473 1367.13 826.19 1390.77 997.132 1344.97C1168.07 1299.17 1311.06 1189.48 1399.6 1035.91C1488.18 882.493 1511.64 703.666 1465.75 532.427C1419.87 361.188 1310.18 218.197 1156.76 129.621C1003.34 41.045 824.774 17.3588 653.684 63.2024C482.593 109.046 339.791 218.843 251.215 372.262C162.787 525.64 139.181 704.506 185.024 875.597ZM1459.95 533.981C1505.4 703.585 1482.14 880.765 1394.47 1032.82C1306.66 1184.92 1164.99 1293.62 995.539 1339.02C826.084 1384.43 649.052 1361.13 497.101 1273.27C345.151 1185.42 236.415 1043.61 190.97 874.004C145.525 704.4 168.786 527.219 256.452 375.16C344.118 223.101 485.781 114.405 655.237 68.9995C824.693 23.5941 1001.76 47.0441 1153.71 134.898C1305.77 222.564 1414.51 364.376 1459.95 533.981Z" fill="url(#paint6_linear_272_18044)"/>
<path d="M203.902 870.539C295.789 1213.46 649.407 1417.75 992.034 1325.94C1334.66 1234.14 1538.76 880.41 1446.87 537.486C1354.99 194.561 1001.37 -9.72629 658.742 82.0804C316.115 173.887 112.016 527.614 203.902 870.539ZM1441.08 539.039C1532.13 878.842 1329.99 1229.18 990.481 1320.15C650.975 1411.12 300.75 1208.79 209.7 868.985C118.65 529.182 320.79 178.848 660.295 87.8776C999.801 -3.09266 1350.07 199.385 1441.08 539.039Z" fill="url(#paint7_linear_272_18044)"/>
<path d="M222.781 865.48C311.879 1198 654.754 1396.08 986.976 1307.07C1319.2 1218.05 1517.09 875.063 1428 542.544C1338.9 210.024 996.023 11.9396 663.801 100.958C331.578 189.977 133.682 532.961 222.781 865.48ZM1422.2 544.097C1510.46 873.495 1314.52 1213.09 985.423 1301.27C656.322 1389.45 316.8 1193.18 228.578 863.927C140.356 534.678 336.253 194.938 665.354 106.755C994.455 18.5733 1333.98 214.848 1422.2 544.097Z" fill="url(#paint8_linear_272_18044)"/>
<path d="M241.658 860.422C327.969 1182.54 660.141 1374.57 981.958 1288.34C1303.77 1202.11 1495.47 869.865 1409.12 547.602C1322.81 225.488 990.636 33.457 668.819 119.688C347.002 205.918 155.348 538.308 241.658 860.422ZM1403.32 549.155C1488.79 868.148 1299.1 1197.15 980.404 1282.54C661.709 1367.93 332.929 1177.86 247.495 859.017C162.022 540.024 351.757 211.176 670.452 125.782C989.148 40.3878 1317.89 230.311 1403.32 549.155Z" fill="url(#paint9_linear_272_18044)"/>
<path d="M260.536 855.364C344.059 1167.07 665.488 1352.9 977.048 1269.42C1288.61 1185.94 1473.95 864.479 1390.39 552.621C1306.83 240.763 985.438 55.0834 673.878 138.566C362.317 222.048 177.014 543.655 260.536 855.364ZM1384.44 554.214C1467.13 862.802 1283.6 1180.91 975.306 1263.51C667.016 1346.12 348.98 1162.25 266.334 853.811C183.688 545.372 367.18 227.118 675.471 144.512C983.761 61.9056 1301.8 245.775 1384.44 554.214Z" fill="url(#paint10_linear_272_18044)"/>
<path d="M279.266 850.345C360 1151.65 670.685 1331.28 971.841 1250.58C1273 1169.89 1452.28 859.132 1371.51 557.679C1290.78 256.375 980.091 76.7494 678.936 157.444C377.78 238.138 198.531 549.041 279.266 850.345ZM1365.71 559.233C1445.61 857.415 1268.32 1164.93 970.436 1244.74C672.551 1324.56 365.258 1146.89 285.36 848.712C205.462 550.53 382.752 243.019 680.637 163.201C978.523 83.383 1285.86 261.199 1365.71 559.233Z" fill="url(#paint11_linear_272_18044)"/>
<path d="M298.144 845.287C376.09 1136.19 676.033 1309.61 966.783 1231.7C1257.53 1153.8 1430.62 853.785 1352.63 562.738C1274.69 271.839 974.744 98.4155 683.994 176.322C393.244 254.228 220.197 554.388 298.144 845.287ZM1346.84 564.291C1423.95 852.068 1252.71 1148.88 965.229 1225.91C677.749 1302.94 381.05 1131.51 303.941 843.734C226.831 555.957 398.068 259.149 685.547 182.119C973.027 105.089 1269.77 276.662 1346.84 564.291Z" fill="url(#paint12_linear_272_18044)"/>
<path d="M317.021 840.228C392.179 1120.72 681.379 1287.94 961.724 1212.82C1242.07 1137.71 1408.91 848.289 1333.75 567.795C1258.6 287.302 969.397 120.081 689.052 195.199C408.707 270.317 241.863 559.735 317.021 840.228ZM1327.96 569.349C1402.28 846.721 1237.25 1132.79 960.171 1207.03C683.096 1281.27 397.14 1116.05 322.818 838.675C248.497 561.303 413.531 275.238 690.606 200.996C967.68 126.755 1253.68 292.125 1327.96 569.349Z" fill="url(#paint13_linear_272_18044)"/>
<path d="M335.9 835.17C408.27 1105.26 686.727 1266.28 956.666 1193.95C1226.61 1121.62 1387.44 843.051 1315.03 572.814C1242.62 302.577 964.199 141.707 694.26 214.037C424.32 286.368 263.53 565.082 335.9 835.17ZM1309.08 574.407C1380.61 841.374 1221.78 1116.7 955.113 1188.15C688.443 1259.6 413.231 1100.58 341.697 833.617C270.163 566.65 428.995 291.328 695.664 219.874C962.334 148.42 1237.59 307.589 1309.08 574.407Z" fill="url(#paint14_linear_272_18044)"/>
<path d="M354.777 830.112C424.399 1089.94 692.222 1244.57 951.756 1175.03C1211.29 1105.49 1365.77 837.705 1296.15 577.873C1226.53 318.041 958.704 163.413 699.169 232.955C439.635 302.498 285.196 570.429 354.777 830.112ZM1290.2 579.466C1358.95 836.028 1206.32 1100.61 950.054 1169.27C693.79 1237.94 429.32 1085.12 360.575 828.559C291.829 571.997 444.458 307.418 700.722 238.753C956.987 170.087 1221.5 323.053 1290.2 579.466Z" fill="url(#paint15_linear_272_18044)"/>
<path d="M373.507 825.094C440.34 1074.52 697.42 1222.95 946.549 1156.19C1195.68 1089.44 1344.06 832.209 1277.27 582.931C1210.48 333.653 953.357 185.079 704.227 251.833C455.098 318.587 306.713 575.816 373.507 825.094ZM1271.47 584.484C1337.43 830.641 1191 1084.48 944.996 1150.39C698.988 1216.31 445.41 1069.66 379.452 823.5C313.495 577.344 459.921 323.508 705.929 257.591C951.937 191.673 1205.52 338.328 1271.47 584.484Z" fill="url(#paint16_linear_272_18044)"/>
<path d="M392.385 820.035C456.43 1059.06 702.767 1201.28 941.491 1137.31C1180.22 1073.35 1322.4 826.862 1258.39 587.989C1194.35 348.968 948.01 206.745 709.286 270.711C470.561 334.677 328.379 581.162 392.385 820.035ZM1252.59 589.542C1315.76 825.294 1175.54 1068.39 939.938 1131.52C704.335 1194.65 461.351 1054.23 398.182 818.482C335.012 582.73 475.236 339.638 710.839 276.508C946.442 213.379 1189.43 353.791 1252.59 589.542Z" fill="url(#paint17_linear_272_18044)"/>
<path d="M411.263 814.977C472.52 1043.59 708.153 1179.76 936.473 1118.58C1164.79 1057.41 1300.77 821.664 1239.51 593.048C1178.26 364.431 942.623 228.263 714.304 289.441C485.985 350.619 350.045 586.509 411.263 814.977ZM1233.72 594.601C1294.1 819.947 1160.08 1052.3 934.879 1112.64C709.682 1172.98 477.441 1038.77 417.06 813.423C356.679 588.077 490.7 355.728 715.897 295.386C941.095 235.045 1173.34 369.255 1233.72 594.601Z" fill="url(#paint18_linear_272_18044)"/>
<path d="M430.141 809.919C488.61 1028.13 713.5 1158.1 931.414 1099.71C1149.33 1041.32 1279.25 816.277 1220.78 598.066C1162.32 379.855 937.425 249.889 719.511 308.279C501.597 366.669 371.711 591.856 430.141 809.919ZM1214.84 599.659C1272.43 814.6 1144.61 1036.21 929.821 1093.76C715.029 1151.31 493.531 1023.31 435.938 808.365C378.345 593.424 506.163 371.818 720.956 314.264C935.748 256.711 1157.25 384.718 1214.84 599.659Z" fill="url(#paint19_linear_272_18044)"/>
<path d="M449.018 804.86C504.7 1012.67 718.847 1136.43 926.356 1080.83C1133.86 1025.23 1257.59 810.93 1201.91 603.124C1146.23 395.318 932.078 271.555 724.421 327.196C516.763 382.838 393.377 597.203 449.018 804.86ZM1196.11 604.678C1250.91 809.213 1129.15 1020.12 924.911 1074.84C720.524 1129.61 509.769 1007.8 454.964 803.267C400.159 598.731 521.924 387.828 726.162 333.102C930.401 278.377 1141.3 400.142 1196.11 604.678Z" fill="url(#paint20_linear_272_18044)"/>
<path d="M467.748 799.842C520.641 997.243 724.045 1114.8 921.298 1061.95C1118.55 1009.1 1235.92 805.584 1183.03 608.183C1130.14 410.782 926.732 293.221 729.479 346.075C532.416 399.037 414.894 602.59 467.748 799.842ZM1177.23 609.736C1229.25 803.867 1113.73 1004.18 919.744 1056.15C725.762 1108.13 525.711 992.379 473.694 798.249C421.677 604.118 537.09 403.998 731.072 352.02C925.054 300.043 1125.21 415.605 1177.23 609.736Z" fill="url(#paint21_linear_272_18044)"/>
<path d="M486.626 794.784C536.731 981.779 729.392 1093.14 916.239 1043.07C1103.09 993.007 1214.26 800.237 1164.15 613.241C1114.05 426.245 921.384 314.887 734.537 364.953C547.69 415.018 436.56 607.936 486.626 794.784ZM1158.35 614.795C1207.58 798.52 1098.26 988.086 914.686 1037.28C731.109 1086.46 541.652 976.956 492.423 793.23C443.194 609.505 552.514 419.939 736.091 370.75C919.707 321.709 1109.12 431.069 1158.35 614.795Z" fill="url(#paint22_linear_272_18044)"/>
<path d="M505.504 789.725C552.821 966.316 734.739 1071.47 911.181 1024.19C1087.62 976.917 1192.59 794.89 1145.27 618.3C1097.96 441.709 916.038 336.553 739.596 383.83C563.154 431.108 458.226 613.283 505.504 789.725ZM1139.48 619.853C1185.92 793.173 1082.8 971.996 909.628 1018.4C736.456 1064.8 557.742 961.492 511.301 788.172C464.86 614.851 567.978 436.029 741.149 389.628C914.321 343.226 1093.03 446.533 1139.48 619.853Z" fill="url(#paint23_linear_272_18044)"/>
<path d="M524.382 784.667C568.911 950.852 740.086 1049.81 906.122 1005.32C1072.16 960.827 1170.92 789.543 1126.39 623.358C1081.87 457.172 910.542 358.259 744.654 402.708C578.766 447.158 479.892 618.63 524.382 784.667ZM1120.6 624.911C1164.25 787.826 1067.34 955.906 904.569 999.519C741.802 1043.13 573.832 946.029 530.179 783.113C486.526 620.198 583.441 452.119 746.207 408.505C908.974 364.892 1076.94 461.996 1120.6 624.911Z" fill="url(#paint24_linear_272_18044)"/>
<path d="M543.26 779.608C585.001 935.389 745.581 1028.1 901.213 986.398C1056.84 944.697 1149.56 784.117 1107.81 628.336C1066.07 472.556 905.493 379.845 749.861 421.546C594.23 463.248 501.558 623.977 543.26 779.608ZM1101.87 629.93C1142.73 782.44 1052.02 939.776 899.66 980.601C747.298 1021.43 590.071 930.525 549.206 778.015C508.341 625.505 599.053 468.169 751.415 427.344C903.776 386.519 1061 477.42 1101.87 629.93Z" fill="url(#paint25_linear_272_18044)"/>
<path d="M561.989 774.59C600.942 919.965 750.78 1006.47 896.006 967.56C1041.23 928.647 1127.7 778.661 1088.79 633.435C1049.87 488.208 899.997 401.551 754.771 440.464C609.545 479.378 523.076 629.364 561.989 774.59ZM1082.99 634.988C1121.07 777.093 1036.56 923.686 894.453 961.763C752.496 999.8 605.863 915.141 567.786 773.037C529.709 630.932 614.219 484.338 756.324 446.261C898.429 408.185 1044.91 492.883 1082.99 634.988Z" fill="url(#paint26_linear_272_18044)"/>
<path d="M580.867 769.531C617.032 904.501 756.126 984.807 890.947 948.682C1025.77 912.557 1106.03 773.314 1069.91 638.493C1033.74 503.523 894.65 423.217 759.829 459.342C625.008 495.467 544.741 634.71 580.867 769.531ZM1064.11 640.046C1099.4 771.746 1021.09 907.596 889.394 942.885C757.694 978.174 621.953 899.678 586.664 767.978C551.375 636.278 629.683 500.428 761.382 465.139C893.082 429.85 1028.82 508.346 1064.11 640.046Z" fill="url(#paint27_linear_272_18044)"/>
<path d="M599.745 764.473C633.122 889.038 761.513 963.29 885.929 929.953C1010.34 896.616 1084.41 768.116 1051.03 643.551C1017.65 518.986 889.264 444.734 764.847 478.071C640.431 511.409 566.407 640.057 599.745 764.473ZM1045.23 645.105C1077.74 766.399 1005.63 891.506 884.336 924.007C763.041 956.508 638.043 884.214 605.542 762.92C573.041 641.625 645.146 516.518 766.441 484.017C887.735 451.516 1012.73 523.81 1045.23 645.105Z" fill="url(#paint28_linear_272_18044)"/>
<path d="M618.623 759.415C649.212 873.574 766.86 941.624 880.871 911.075C994.882 880.526 1062.74 762.769 1032.15 648.61C1001.56 534.45 883.917 466.4 769.906 496.949C655.895 527.498 588.034 645.255 618.623 759.415ZM1026.36 650.163C1056.07 761.052 990.018 875.456 879.278 905.129C768.388 934.842 654.133 868.751 624.42 757.862C594.707 646.972 660.759 532.568 771.499 502.895C882.389 473.182 996.644 539.274 1026.36 650.163Z" fill="url(#paint29_linear_272_18044)"/>
<path d="M637.352 754.396C665.153 858.151 772.058 919.998 875.812 892.197C979.566 864.396 1041.23 757.382 1013.42 653.628C985.623 549.873 878.718 488.026 774.964 515.827C671.21 543.628 609.551 650.642 637.352 754.396ZM1007.63 655.181C1034.55 755.665 974.703 859.326 874.367 886.211C773.883 913.136 670.371 853.247 643.446 752.763C616.521 652.279 676.37 548.618 776.706 521.733C877.041 494.848 980.702 554.697 1007.63 655.181Z" fill="url(#paint30_linear_272_18044)"/>
<path d="M656.23 749.338C681.243 842.687 777.405 898.332 870.754 873.319C964.103 848.306 1019.56 752.036 994.546 658.686C969.534 565.337 873.412 509.841 780.062 534.854C686.713 559.867 631.217 655.989 656.23 749.338ZM988.749 660.24C1012.89 750.319 959.28 843.385 869.2 867.522C779.121 891.659 686.203 838.012 662.027 747.785C637.89 657.706 691.497 564.639 781.576 540.502C871.695 516.515 964.613 570.161 988.749 660.24Z" fill="url(#paint31_linear_272_18044)"/>
<path d="M675.108 744.28C697.333 827.224 782.9 876.626 865.696 854.441C948.64 832.217 997.894 746.689 975.669 663.745C953.444 580.801 867.877 531.398 785.081 553.583C702.286 575.768 652.883 661.336 675.108 744.28ZM969.872 665.298C991.22 744.972 943.816 827.296 864.142 848.644C784.469 869.993 702.294 822.549 680.905 742.726C659.557 663.053 706.961 580.729 786.634 559.38C866.308 538.032 948.523 585.624 969.872 665.298Z" fill="url(#paint32_linear_272_18044)"/>
<path d="M693.986 739.222C713.423 811.76 788.247 854.96 860.637 835.563C933.027 816.166 976.227 741.342 956.791 668.803C937.354 596.264 862.529 553.064 790.139 572.461C717.749 591.858 674.549 666.683 693.986 739.222ZM950.993 670.357C969.554 739.625 928.353 811.206 859.084 829.766C789.815 848.327 718.383 807.086 699.783 737.668C681.222 668.399 722.424 596.819 791.693 578.258C861.001 559.847 932.433 601.088 950.993 670.357Z" fill="url(#paint33_linear_272_18044)"/>
<path d="M712.864 734.163C729.512 796.297 793.594 833.294 855.727 816.645C917.861 799.997 954.858 735.915 938.21 673.781C921.561 611.648 857.48 574.65 795.346 591.299C733.212 607.948 696.215 672.029 712.864 734.163ZM932.115 675.414C947.888 734.278 912.889 795.115 854.025 810.888C795.162 826.66 734.473 791.622 718.661 732.609C702.888 673.746 737.887 612.908 796.751 597.136C855.654 581.512 916.343 616.551 932.115 675.414Z" fill="url(#paint34_linear_272_18044)"/>
<path d="M731.593 729.145C745.453 780.873 798.792 811.668 850.52 797.807C902.249 783.947 933.044 730.608 919.183 678.88C905.322 627.151 851.984 596.356 800.256 610.217C748.527 624.078 717.732 677.416 731.593 729.145ZM913.386 680.433C926.37 728.892 897.574 778.986 849.116 791.97C800.657 804.955 750.672 775.97 737.687 727.512C724.703 679.053 753.499 628.959 801.958 615.974C850.416 602.99 900.402 631.975 913.386 680.433Z" fill="url(#paint35_linear_272_18044)"/>
<path d="M750.471 724.086C761.544 765.41 804.139 790.002 845.462 778.929C886.786 767.857 911.378 725.262 900.305 683.938C889.233 642.615 846.638 618.022 805.314 629.095C763.991 640.168 739.398 682.763 750.471 724.086ZM894.508 685.492C904.705 723.545 882.111 762.896 843.909 773.132C805.856 783.329 766.465 760.586 756.268 722.533C746.072 684.48 768.666 645.128 806.868 634.892C844.921 624.696 884.312 647.438 894.508 685.492Z" fill="url(#paint36_linear_272_18044)"/>
</g>
</g>
<defs>
<linearGradient id="paint0_linear_272_18044" x1="71.6183" y1="501.943" x2="1579.59" y2="905.888" gradientUnits="userSpaceOnUse">
<stop stop-color="white" stop-opacity="0"/>
<stop offset="1" stop-color="white"/>
</linearGradient>
<linearGradient id="paint1_linear_272_18044" x1="90.4951" y1="507.001" x2="1560.61" y2="900.72" gradientUnits="userSpaceOnUse">
<stop stop-color="white" stop-opacity="0"/>
<stop offset="1" stop-color="white"/>
</linearGradient>
<linearGradient id="paint2_linear_272_18044" x1="109.263" y1="512.166" x2="1541.59" y2="895.957" gradientUnits="userSpaceOnUse">
<stop stop-color="white" stop-opacity="0"/>
<stop offset="1" stop-color="white"/>
</linearGradient>
<linearGradient id="paint3_linear_272_18044" x1="128.13" y1="517.146" x2="1522.79" y2="890.696" gradientUnits="userSpaceOnUse">
<stop stop-color="white" stop-opacity="0"/>
<stop offset="1" stop-color="white"/>
</linearGradient>
<linearGradient id="paint4_linear_272_18044" x1="147.017" y1="522.2" x2="1503.91" y2="885.619" gradientUnits="userSpaceOnUse">
<stop stop-color="white" stop-opacity="0"/>
<stop offset="1" stop-color="white"/>
</linearGradient>
<linearGradient id="paint5_linear_272_18044" x1="165.924" y1="527.249" x2="1485.24" y2="880.725" gradientUnits="userSpaceOnUse">
<stop stop-color="white" stop-opacity="0"/>
<stop offset="1" stop-color="white"/>
</linearGradient>
<linearGradient id="paint6_linear_272_18044" x1="184.672" y1="532.38" x2="1466.27" y2="875.671" gradientUnits="userSpaceOnUse">
<stop stop-color="white" stop-opacity="0"/>
<stop offset="1" stop-color="white"/>
</linearGradient>
<linearGradient id="paint7_linear_272_18044" x1="203.549" y1="537.397" x2="1447.32" y2="870.611" gradientUnits="userSpaceOnUse">
<stop stop-color="white" stop-opacity="0"/>
<stop offset="1" stop-color="white"/>
</linearGradient>
<linearGradient id="paint8_linear_272_18044" x1="222.436" y1="542.451" x2="1428.44" y2="865.533" gradientUnits="userSpaceOnUse">
<stop stop-color="white" stop-opacity="0"/>
<stop offset="1" stop-color="white"/>
</linearGradient>
<linearGradient id="paint9_linear_272_18044" x1="241.303" y1="547.431" x2="1409.64" y2="860.273" gradientUnits="userSpaceOnUse">
<stop stop-color="white" stop-opacity="0"/>
<stop offset="1" stop-color="white"/>
</linearGradient>
<linearGradient id="paint10_linear_272_18044" x1="260.199" y1="552.483" x2="1390.86" y2="855.288" gradientUnits="userSpaceOnUse">
<stop stop-color="white" stop-opacity="0"/>
<stop offset="1" stop-color="white"/>
</linearGradient>
<linearGradient id="paint11_linear_272_18044" x1="278.948" y1="557.575" x2="1371.94" y2="850.342" gradientUnits="userSpaceOnUse">
<stop stop-color="white" stop-opacity="0"/>
<stop offset="1" stop-color="white"/>
</linearGradient>
<linearGradient id="paint12_linear_272_18044" x1="297.834" y1="562.629" x2="1353.05" y2="845.265" gradientUnits="userSpaceOnUse">
<stop stop-color="white" stop-opacity="0"/>
<stop offset="1" stop-color="white"/>
</linearGradient>
<linearGradient id="paint13_linear_272_18044" x1="316.721" y1="567.683" x2="1334.17" y2="840.187" gradientUnits="userSpaceOnUse">
<stop stop-color="white" stop-opacity="0"/>
<stop offset="1" stop-color="white"/>
</linearGradient>
<linearGradient id="paint14_linear_272_18044" x1="335.619" y1="572.734" x2="1315.39" y2="835.202" gradientUnits="userSpaceOnUse">
<stop stop-color="white" stop-opacity="0"/>
<stop offset="1" stop-color="white"/>
</linearGradient>
<linearGradient id="paint15_linear_272_18044" x1="354.505" y1="577.789" x2="1296.51" y2="830.125" gradientUnits="userSpaceOnUse">
<stop stop-color="white" stop-opacity="0"/>
<stop offset="1" stop-color="white"/>
</linearGradient>
<linearGradient id="paint16_linear_272_18044" x1="373.253" y1="582.88" x2="1277.58" y2="825.179" gradientUnits="userSpaceOnUse">
<stop stop-color="white" stop-opacity="0"/>
<stop offset="1" stop-color="white"/>
</linearGradient>
<linearGradient id="paint17_linear_272_18044" x1="392.14" y1="587.934" x2="1258.7" y2="820.102" gradientUnits="userSpaceOnUse">
<stop stop-color="white" stop-opacity="0"/>
<stop offset="1" stop-color="white"/>
</linearGradient>
<linearGradient id="paint18_linear_272_18044" x1="411.007" y1="592.914" x2="1239.9" y2="814.841" gradientUnits="userSpaceOnUse">
<stop stop-color="white" stop-opacity="0"/>
<stop offset="1" stop-color="white"/>
</linearGradient>
<linearGradient id="paint19_linear_272_18044" x1="429.904" y1="597.966" x2="1221.12" y2="809.856" gradientUnits="userSpaceOnUse">
<stop stop-color="white" stop-opacity="0"/>
<stop offset="1" stop-color="white"/>
</linearGradient>
<linearGradient id="paint20_linear_272_18044" x1="448.791" y1="603.02" x2="1202.24" y2="804.778" gradientUnits="userSpaceOnUse">
<stop stop-color="white" stop-opacity="0"/>
<stop offset="1" stop-color="white"/>
</linearGradient>
<linearGradient id="paint21_linear_272_18044" x1="467.539" y1="608.112" x2="1183.31" y2="799.833" gradientUnits="userSpaceOnUse">
<stop stop-color="white" stop-opacity="0"/>
<stop offset="1" stop-color="white"/>
</linearGradient>
<linearGradient id="paint22_linear_272_18044" x1="486.426" y1="613.166" x2="1164.43" y2="794.756" gradientUnits="userSpaceOnUse">
<stop stop-color="white" stop-opacity="0"/>
<stop offset="1" stop-color="white"/>
</linearGradient>
<linearGradient id="paint23_linear_272_18044" x1="505.313" y1="618.22" x2="1145.54" y2="789.679" gradientUnits="userSpaceOnUse">
<stop stop-color="white" stop-opacity="0"/>
<stop offset="1" stop-color="white"/>
</linearGradient>
<linearGradient id="paint24_linear_272_18044" x1="524.199" y1="623.274" x2="1126.66" y2="784.601" gradientUnits="userSpaceOnUse">
<stop stop-color="white" stop-opacity="0"/>
<stop offset="1" stop-color="white"/>
</linearGradient>
<linearGradient id="paint25_linear_272_18044" x1="543.106" y1="628.323" x2="1107.98" y2="779.707" gradientUnits="userSpaceOnUse">
<stop stop-color="white" stop-opacity="0"/>
<stop offset="1" stop-color="white"/>
</linearGradient>
<linearGradient id="paint26_linear_272_18044" x1="561.845" y1="633.417" x2="1088.95" y2="774.67" gradientUnits="userSpaceOnUse">
<stop stop-color="white" stop-opacity="0"/>
<stop offset="1" stop-color="white"/>
</linearGradient>
<linearGradient id="paint27_linear_272_18044" x1="580.731" y1="638.471" x2="1070.07" y2="769.593" gradientUnits="userSpaceOnUse">
<stop stop-color="white" stop-opacity="0"/>
<stop offset="1" stop-color="white"/>
</linearGradient>
<linearGradient id="paint28_linear_272_18044" x1="599.598" y1="643.451" x2="1051.27" y2="764.332" gradientUnits="userSpaceOnUse">
<stop stop-color="white" stop-opacity="0"/>
<stop offset="1" stop-color="white"/>
</linearGradient>
<linearGradient id="paint29_linear_272_18044" x1="618.485" y1="648.506" x2="1032.39" y2="759.255" gradientUnits="userSpaceOnUse">
<stop stop-color="white" stop-opacity="0"/>
<stop offset="1" stop-color="white"/>
</linearGradient>
<linearGradient id="paint30_linear_272_18044" x1="637.243" y1="653.594" x2="1013.57" y2="754.401" gradientUnits="userSpaceOnUse">
<stop stop-color="white" stop-opacity="0"/>
<stop offset="1" stop-color="white"/>
</linearGradient>
<linearGradient id="paint31_linear_272_18044" x1="656.16" y1="658.76" x2="994.66" y2="749.49" gradientUnits="userSpaceOnUse">
<stop stop-color="white" stop-opacity="0"/>
<stop offset="1" stop-color="white"/>
</linearGradient>
<linearGradient id="paint32_linear_272_18044" x1="675.017" y1="663.703" x2="975.801" y2="744.247" gradientUnits="userSpaceOnUse">
<stop stop-color="white" stop-opacity="0"/>
<stop offset="1" stop-color="white"/>
</linearGradient>
<linearGradient id="paint33_linear_272_18044" x1="693.904" y1="668.757" x2="956.917" y2="739.17" gradientUnits="userSpaceOnUse">
<stop stop-color="white" stop-opacity="0"/>
<stop offset="1" stop-color="white"/>
</linearGradient>
<linearGradient id="paint34_linear_272_18044" x1="712.81" y1="673.806" x2="938.242" y2="734.275" gradientUnits="userSpaceOnUse">
<stop stop-color="white" stop-opacity="0"/>
<stop offset="1" stop-color="white"/>
</linearGradient>
<linearGradient id="paint35_linear_272_18044" x1="731.548" y1="678.9" x2="919.21" y2="729.238" gradientUnits="userSpaceOnUse">
<stop stop-color="white" stop-opacity="0"/>
<stop offset="1" stop-color="white"/>
</linearGradient>
<linearGradient id="paint36_linear_272_18044" x1="750.436" y1="683.954" x2="900.327" y2="724.161" gradientUnits="userSpaceOnUse">
<stop stop-color="white" stop-opacity="0"/>
<stop offset="1" stop-color="white"/>
</linearGradient>
</defs>
</svg>
