<svg width="510" height="525" viewBox="0 0 510 525" fill="none" xmlns="http://www.w3.org/2000/svg">
<path d="M373.782 205.339C373.953 205.438 374.222 205.366 374.321 205.195L430.041 136.694C430.139 136.523 430.238 136.352 430.067 136.254C429.995 135.984 429.824 135.886 429.726 136.056L248.033 105.179C247.862 105.08 247.593 105.153 247.396 105.494C247.297 105.665 247.369 105.934 247.54 106.033L373.782 205.339ZM428.989 136.542L374.203 204.216L250.011 106.093L428.989 136.542Z" fill="#FCD9A6"/>
<path d="M323.084 475.803C323.254 475.901 323.425 476 323.524 475.829C323.793 475.757 323.721 475.488 323.82 475.317L286.756 315.439L286.684 315.17L115.095 152.785C114.924 152.686 114.753 152.587 114.484 152.66C114.214 152.732 114.286 153.001 114.188 153.172L140.357 309.038L140.429 309.307L323.084 475.803ZM285.679 315.728L322.309 473.989L141.166 308.821L115.259 154.473L285.679 315.728Z" fill="#FCD9A6"/>
<path d="M323.083 475.803C323.424 476 323.523 475.829 323.622 475.659L415.204 336.758C415.303 336.587 415.303 336.587 415.23 336.318L374.347 204.755C374.275 204.485 374.104 204.386 373.933 204.288C373.762 204.189 373.493 204.261 373.394 204.432L285.363 315.091C285.264 315.261 285.165 315.432 285.336 315.531L322.4 475.409C322.912 475.704 322.912 475.704 323.083 475.803ZM414.35 336.265L323.458 473.97L286.585 315.341L373.854 205.609L414.35 336.265Z" fill="#FCD9A6"/>
<path d="M92.2602 396.289L323.156 476.072C323.326 476.171 323.596 476.099 323.694 475.928C323.793 475.757 323.892 475.586 323.721 475.488L286.658 315.61C286.756 315.439 286.585 315.34 286.415 315.242C286.244 315.143 286.244 315.143 285.974 315.215L92.313 395.408C92.0436 395.48 91.945 395.651 92.0172 395.921C92.0172 395.921 92.0894 396.19 92.2602 396.289ZM322.624 474.626L93.9755 395.685L285.921 316.096L322.624 474.626Z" fill="#FCD9A6"/>
<path d="M268.23 223.658L371.297 335.094L287.384 433.097L163.135 287.34L268.23 223.658Z" fill="#EEECE8"/>
<path d="M402.191 182.565L371.296 335.094L268.229 223.658L402.191 182.565Z" fill="#F3F1EE"/>
<path d="M268.229 223.658L265.489 141.221L158.199 164.915L163.134 287.34L268.229 223.658Z" fill="#F3F1EE"/>
<path d="M402.191 182.565L265.489 141.221L268.229 223.658L402.191 182.565Z" fill="#FCFCFC"/>
<path d="M158.199 164.916L117.523 349.378L163.135 287.34L158.199 164.916Z" fill="#EEECE8"/>
<path d="M163.134 287.34L287.383 433.098L117.523 349.378L163.134 287.34Z" fill="#E1DED9"/>
<path d="M323.085 475.803C323.255 475.902 323.255 475.902 323.525 475.83C323.696 475.928 323.794 475.757 323.893 475.587L415.475 336.686C415.574 336.515 415.502 336.246 415.429 335.976L265.599 210.069C265.428 209.97 265.257 209.872 264.889 210.115L140.825 308.624C140.726 308.795 140.726 308.795 140.628 308.966C140.529 309.137 140.7 309.235 140.871 309.334L323.085 475.803ZM414.154 336.607L323.065 474.653L141.508 309.019L264.836 210.995L414.154 336.607Z" fill="#FFCB80"/>
<path d="M414.666 336.902C414.837 337.001 415.008 337.1 415.107 336.929C415.376 336.857 415.475 336.686 415.403 336.416L430.338 136.181C430.436 136.011 430.265 135.912 430.095 135.813C429.924 135.715 429.753 135.616 429.654 135.787L264.889 210.114C264.79 210.285 264.521 210.357 264.692 210.456C264.593 210.627 264.764 210.725 264.836 210.995L414.666 336.902ZM429.233 136.91L414.404 335.384L265.841 210.437L429.233 136.91Z" fill="#FFCB80"/>
<path d="M140.601 309.406C140.772 309.505 141.041 309.432 141.14 309.262L265.375 210.851C265.474 210.68 265.572 210.509 265.572 210.509L248.645 105.304C248.744 105.133 248.573 105.035 248.402 104.936C248.232 104.838 248.232 104.838 247.962 104.91L114.484 152.66C114.215 152.732 114.116 152.903 114.188 153.172L140.358 309.038C140.43 309.307 140.43 309.307 140.601 309.406ZM264.35 210.259L141.12 308.112L114.97 153.396L247.541 106.033L264.35 210.259Z" fill="#FFCB80"/>
<path d="M264.665 210.896C264.836 210.995 265.007 211.094 265.105 210.923L429.871 136.595C430.14 136.523 430.239 136.352 430.167 136.083C430.095 135.814 429.924 135.715 429.753 135.616L248.061 104.739C247.89 104.64 247.791 104.811 247.522 104.883C247.423 105.054 247.325 105.225 247.325 105.225L264.251 210.43C264.593 210.627 264.665 210.896 264.665 210.896ZM428.11 136.49L265.355 209.701L248.79 105.843L428.11 136.49Z" fill="#FFCB80"/>
<path d="M92.2612 396.289C92.6028 396.486 92.8723 396.414 92.8987 395.974L141.14 309.262C141.238 309.091 141.238 309.091 141.166 308.821L114.826 152.857C114.754 152.588 114.583 152.489 114.412 152.39C114.143 152.462 114.044 152.633 113.946 152.804L91.7751 395.553C92.0182 395.921 92.0903 396.19 92.2612 396.289ZM140.457 308.867L93.2281 393.431L114.759 156.918L140.457 308.867Z" fill="#FFCB80"/>
<path d="M92.261 396.289L323.156 476.073C323.327 476.171 323.597 476.099 323.695 475.928C323.794 475.757 323.722 475.488 323.551 475.389L141.067 308.992C140.897 308.894 140.726 308.795 140.627 308.966C140.456 308.867 140.358 309.038 140.259 309.209L92.0179 395.921C91.9193 396.092 91.9193 396.092 91.9915 396.361C92.1888 396.02 92.0902 396.19 92.261 396.289ZM321.232 474.278L93.3652 395.56L141.015 309.873L321.232 474.278Z" fill="#FFCB80"/>
<path d="M427.138 135.017C426.519 136.482 427.123 138.198 428.589 138.816C430.054 139.434 431.769 138.83 432.387 137.365C433.005 135.9 432.401 134.184 430.936 133.566C429.471 132.948 427.756 133.552 427.138 135.017Z" fill="#FFCB80"/>
<path d="M245.544 103.969C244.926 105.434 245.53 107.149 246.995 107.767C248.46 108.386 250.176 107.782 250.794 106.316C251.412 104.851 250.808 103.136 249.343 102.518C247.976 101.729 246.162 102.504 245.544 103.969Z" fill="#FFCB80"/>
<path d="M111.967 151.89C111.349 153.355 111.953 155.07 113.418 155.688C114.884 156.307 116.599 155.703 117.217 154.237C117.835 152.772 117.231 151.057 115.766 150.439C114.301 149.821 112.586 150.425 111.967 151.89Z" fill="#FFCB80"/>
<path d="M89.797 394.639C89.1788 396.104 89.7828 397.819 91.248 398.437C92.7132 399.055 94.4285 398.451 95.0467 396.986C95.6648 395.521 95.0608 393.806 93.5956 393.187C92.1304 392.569 90.4151 393.173 89.797 394.639Z" fill="#FFCB80"/>
<path d="M320.522 474.323C319.904 475.789 320.508 477.504 321.973 478.122C323.438 478.74 325.153 478.136 325.772 476.671C326.39 475.206 325.786 473.49 324.321 472.872C322.954 472.083 321.14 472.858 320.522 474.323Z" fill="#FFCB80"/>
<path d="M138.308 307.854C137.69 309.32 138.294 311.035 139.759 311.653C141.224 312.271 142.939 311.667 143.557 310.202C144.176 308.737 143.572 307.022 142.106 306.403C140.47 305.687 138.926 306.389 138.308 307.854Z" fill="#FFCB80"/>
<path d="M412.202 335.252C411.584 336.717 412.188 338.433 413.654 339.051C415.119 339.669 416.834 339.065 417.452 337.6C418.07 336.134 417.466 334.419 416.001 333.801C414.536 333.183 412.821 333.787 412.202 335.252Z" fill="#FFCB80"/>
<path d="M182.928 386.001C182.309 387.466 182.913 389.182 184.379 389.8C185.844 390.418 187.559 389.814 188.177 388.349C188.795 386.883 188.191 385.168 186.726 384.55C185.261 383.932 183.546 384.536 182.928 386.001Z" fill="#FFCB80"/>
<path d="M194.816 199.722C194.198 201.188 194.802 202.903 196.267 203.521C197.732 204.139 199.447 203.535 200.065 202.07C200.684 200.605 200.08 198.889 198.614 198.271C197.149 197.653 195.434 198.257 194.816 199.722Z" fill="#FFCB80"/>
<path d="M364.035 213.149C363.417 214.614 364.021 216.33 365.486 216.948C366.951 217.566 368.667 216.962 369.285 215.497C369.903 214.032 369.299 212.316 367.834 211.698C366.198 210.981 364.653 211.684 364.035 213.149Z" fill="#FFCB80"/>
</svg>
