<svg xmlns="http://www.w3.org/2000/svg" xmlns:xlink="http://www.w3.org/1999/xlink" viewBox="0 0 214.93 48.86"><defs><style>.cls-1{fill:none;}.cls-2{clip-path:url(#clip-path);}.cls-3{fill:url(#Безымянный_градиент_11);}.cls-4{fill:url(#Безымянный_градиент_11-2);}.cls-5{fill:url(#Безымянный_градиент_11-3);}.cls-6{fill:url(#Безымянный_градиент_11-4);}.cls-7{fill:url(#Безымянный_градиент_11-5);}.cls-8{fill:url(#Безымянный_градиент_11-6);}.cls-9{fill:url(#Безымянный_градиент_11-7);}.cls-10{fill:url(#Безымянный_градиент_11-8);}.cls-11{fill:url(#Безымянный_градиент_11-9);}.cls-12{fill:url(#Безымянный_градиент_11-10);}.cls-13{fill:url(#Безымянный_градиент_11-11);}.cls-14{fill-rule:evenodd;fill:url(#Безымянный_градиент_12);}</style><clipPath id="clip-path"><rect class="cls-1" width="215" height="48.86"/></clipPath><linearGradient id="Безымянный_градиент_11" x1="66.53" y1="284.58" x2="66.53" y2="253.21" gradientTransform="matrix(1, 0, 0, -1, 0, 292.49)" gradientUnits="userSpaceOnUse"><stop offset="0" stop-color="#ffdca7"/><stop offset="0.44" stop-color="#dcba9b"/><stop offset="1" stop-color="#887c6b"/></linearGradient><linearGradient id="Безымянный_градиент_11-2" x1="81.67" y1="284.58" x2="81.67" y2="253.21" xlink:href="#Безымянный_градиент_11"/><linearGradient id="Безымянный_градиент_11-3" x1="97.72" y1="284.58" x2="97.72" y2="253.21" xlink:href="#Безымянный_градиент_11"/><linearGradient id="Безымянный_градиент_11-4" x1="115.36" y1="284.58" x2="115.36" y2="253.21" xlink:href="#Безымянный_градиент_11"/><linearGradient id="Безымянный_градиент_11-5" x1="131.3" y1="284.58" x2="131.3" y2="253.21" xlink:href="#Безымянный_градиент_11"/><linearGradient id="Безымянный_градиент_11-6" x1="146.44" y1="284.58" x2="146.44" y2="253.21" xlink:href="#Безымянный_градиент_11"/><linearGradient id="Безымянный_градиент_11-7" x1="160.77" y1="284.58" x2="160.77" y2="253.2" xlink:href="#Безымянный_градиент_11"/><linearGradient id="Безымянный_градиент_11-8" x1="173.02" y1="284.58" x2="173.02" y2="253.2" xlink:href="#Безымянный_градиент_11"/><linearGradient id="Безымянный_градиент_11-9" x1="183.99" y1="284.58" x2="183.99" y2="253.21" xlink:href="#Безымянный_градиент_11"/><linearGradient id="Безымянный_градиент_11-10" x1="194.67" y1="284.58" x2="194.67" y2="253.21" xlink:href="#Безымянный_градиент_11"/><linearGradient id="Безымянный_градиент_11-11" x1="208.48" y1="284.58" x2="208.48" y2="253.21" xlink:href="#Безымянный_градиент_11"/><linearGradient id="Безымянный_градиент_12" x1="24.46" y1="292.49" x2="24.46" y2="243.62" gradientTransform="matrix(1, 0, 0, -1, 0, 292.49)" gradientUnits="userSpaceOnUse"><stop offset="0" stop-color="#ffdca7"/><stop offset="0.33" stop-color="#dcba9b"/><stop offset="1" stop-color="#887c6b"/></linearGradient></defs><g id="Слой_2" data-name="Слой 2"><g id="Слой_1-2" data-name="Слой 1"><g class="cls-2"><path class="cls-3" d="M66,31.2a4.61,4.61,0,0,0,2.71-.63,2.07,2.07,0,0,0,.84-1.77,2.23,2.23,0,0,0-.3-1.18,2.5,2.5,0,0,0-.82-.87A5.32,5.32,0,0,0,67.14,26a15.11,15.11,0,0,0-1.76-.68c-.65-.24-1.29-.5-1.91-.77a7.23,7.23,0,0,1-1.62-1.07A5.12,5.12,0,0,1,60.73,22a5,5,0,0,1-.41-2.1,4.87,4.87,0,0,1,1.78-4,7.33,7.33,0,0,1,4.84-1.48,11.09,11.09,0,0,1,3.15.41,9.53,9.53,0,0,1,2.19.85l-1.07,2.79a8.26,8.26,0,0,0-2-.8,9.47,9.47,0,0,0-2.27-.27,3.7,3.7,0,0,0-2.19.57,1.93,1.93,0,0,0-.77,1.62,2.34,2.34,0,0,0,.25,1.09,2.9,2.9,0,0,0,.74.79A7,7,0,0,0,66,22.1c.44.2.91.39,1.42.57a23.19,23.19,0,0,1,2.39,1,5.75,5.75,0,0,1,1.77,1.2,4.39,4.39,0,0,1,1.13,1.64,6.05,6.05,0,0,1,.38,2.27,4.77,4.77,0,0,1-1.83,4A8.6,8.6,0,0,1,66,34.18,13.23,13.23,0,0,1,63.82,34a12.35,12.35,0,0,1-1.72-.36c-.49-.14-.92-.29-1.29-.43s-.65-.31-.87-.44L61,30a10.86,10.86,0,0,0,2,.82A9.68,9.68,0,0,0,66,31.2Z"/><path class="cls-4" d="M75.21,26.69a9.11,9.11,0,0,1,.55-3.31A7,7,0,0,1,77.26,21a6.07,6.07,0,0,1,2.14-1.42,6.39,6.39,0,0,1,2.46-.49A5.86,5.86,0,0,1,86.46,21a7.9,7.9,0,0,1,1.67,5.47q0,.27,0,.63c0,.22,0,.42,0,.6H78.63a3.85,3.85,0,0,0,1.21,2.68,4.73,4.73,0,0,0,3.14.93A10.4,10.4,0,0,0,85.17,31a8.67,8.67,0,0,0,1.59-.47l.44,2.71a6.25,6.25,0,0,1-.77.3c-.31.09-.67.17-1.09.25s-.84.16-1.32.22a13.64,13.64,0,0,1-1.45.08,8.84,8.84,0,0,1-3.28-.55A6.25,6.25,0,0,1,77,32a6.44,6.44,0,0,1-1.34-2.35A9.75,9.75,0,0,1,75.21,26.69Zm9.61-1.47a4.47,4.47,0,0,0-.19-1.29,2.79,2.79,0,0,0-.58-1.06,2.44,2.44,0,0,0-.9-.72,2.73,2.73,0,0,0-1.26-.27,2.85,2.85,0,0,0-1.34.3,3.14,3.14,0,0,0-1,.74A3.85,3.85,0,0,0,79,24a5.81,5.81,0,0,0-.3,1.23Z"/><path class="cls-5" d="M104.59,26.61a9.45,9.45,0,0,1-.49,3.09,6.94,6.94,0,0,1-1.4,2.38,6.36,6.36,0,0,1-2.19,1.53,7.35,7.35,0,0,1-5.58,0,6.57,6.57,0,0,1-2.17-1.53,7.31,7.31,0,0,1-1.42-2.38,9.19,9.19,0,0,1-.49-3.09,8.93,8.93,0,0,1,.49-3.06,7.31,7.31,0,0,1,1.42-2.38A6.12,6.12,0,0,1,95,19.67a7.23,7.23,0,0,1,5.53,0,5.79,5.79,0,0,1,2.19,1.5,6.94,6.94,0,0,1,1.4,2.38A8.47,8.47,0,0,1,104.59,26.61Zm-3.4,0a5.45,5.45,0,0,0-.93-3.36A2.94,2.94,0,0,0,97.72,22a3,3,0,0,0-2.57,1.26,5.51,5.51,0,0,0-.91,3.36A5.71,5.71,0,0,0,95.15,30a3,3,0,0,0,2.57,1.26A2.94,2.94,0,0,0,100.26,30,5.64,5.64,0,0,0,101.19,26.61Z"/><path class="cls-6" d="M113.89,34c-1,0-2,0-3-.11a13.28,13.28,0,0,1-2.69-.38V15.1l1.29-.19c.46-.07.92-.13,1.4-.16l1.39-.09,1.34,0a18,18,0,0,1,3.21.27,7.67,7.67,0,0,1,2.54.85,4.48,4.48,0,0,1,1.7,1.58,4.62,4.62,0,0,1,.6,2.44,3.91,3.91,0,0,1-.66,2.29,4.33,4.33,0,0,1-1.78,1.53,5,5,0,0,1,2.55,1.7,4.66,4.66,0,0,1,.82,2.84,5,5,0,0,1-2.13,4.4Q118.29,34,113.89,34Zm-2.33-8.75V31c.38,0,.79.07,1.23.08l1.2,0a13.29,13.29,0,0,0,2-.13,5.53,5.53,0,0,0,1.59-.47,2.87,2.87,0,0,0,1.07-.93,2.49,2.49,0,0,0,.41-1.48,2.31,2.31,0,0,0-1.18-2.24,7,7,0,0,0-3.25-.63Zm0-2.7H114a7.11,7.11,0,0,0,3.1-.55,2.09,2.09,0,0,0,1.12-2A2,2,0,0,0,117,18a6.64,6.64,0,0,0-3-.58c-.53,0-1,0-1.42,0s-.75.05-1,.08Z"/><path class="cls-7" d="M130.75,31.2a4.59,4.59,0,0,0,2.71-.63,2.06,2.06,0,0,0,.85-1.77,2.23,2.23,0,0,0-.3-1.18,2.59,2.59,0,0,0-.82-.87A5.61,5.61,0,0,0,131.9,26a14.26,14.26,0,0,0-1.75-.68c-.66-.24-1.3-.5-1.92-.77a6.94,6.94,0,0,1-1.61-1.07A5,5,0,0,1,125.5,22a4.8,4.8,0,0,1-.41-2.1,4.89,4.89,0,0,1,1.77-4,7.36,7.36,0,0,1,4.85-1.48,11.09,11.09,0,0,1,3.15.41,9.53,9.53,0,0,1,2.19.85L136,18.44a8.41,8.41,0,0,0-2-.8,9.49,9.49,0,0,0-2.28-.27,3.7,3.7,0,0,0-2.19.57,1.92,1.92,0,0,0-.76,1.62,2.22,2.22,0,0,0,.25,1.09,2.85,2.85,0,0,0,.73.79,7.15,7.15,0,0,0,1.13.66c.43.2.91.39,1.42.57a23,23,0,0,1,2.38,1,5.92,5.92,0,0,1,1.78,1.2,4.36,4.36,0,0,1,1.12,1.64,5.85,5.85,0,0,1,.39,2.27,4.78,4.78,0,0,1-1.84,4,8.56,8.56,0,0,1-5.31,1.39,13.19,13.19,0,0,1-2.16-.16,12.5,12.5,0,0,1-1.73-.36c-.49-.14-.92-.29-1.28-.43s-.66-.31-.88-.44l1-2.82a10.72,10.72,0,0,0,2,.82A9.72,9.72,0,0,0,130.75,31.2Z"/><path class="cls-8" d="M140,26.69a9.34,9.34,0,0,1,.54-3.31A7.16,7.16,0,0,1,142,21a6,6,0,0,1,2.13-1.42,6.48,6.48,0,0,1,2.47-.49,5.87,5.87,0,0,1,4.6,1.83,7.9,7.9,0,0,1,1.67,5.47q0,.27,0,.63a5.47,5.47,0,0,1,0,.6H143.4a3.85,3.85,0,0,0,1.2,2.68,4.74,4.74,0,0,0,3.15.93,10.54,10.54,0,0,0,2.19-.22,8.92,8.92,0,0,0,1.59-.47l.43,2.71a6,6,0,0,1-.76.3c-.31.09-.68.17-1.1.25s-.84.16-1.31.22a13.79,13.79,0,0,1-1.45.08,8.93,8.93,0,0,1-3.29-.55A6.21,6.21,0,0,1,141.76,32a6.46,6.46,0,0,1-1.35-2.35A9.76,9.76,0,0,1,140,26.69Zm9.6-1.47a4.15,4.15,0,0,0-.19-1.29,2.91,2.91,0,0,0-.57-1.06,2.39,2.39,0,0,0-.91-.72,2.65,2.65,0,0,0-1.25-.27,2.89,2.89,0,0,0-1.35.3,3,3,0,0,0-1,.74,3.4,3.4,0,0,0-.6,1.07,5.26,5.26,0,0,0-.3,1.23Z"/><path class="cls-9" d="M164.56,22.46a8.42,8.42,0,0,0-1.15-.28,7.45,7.45,0,0,0-1.67-.16,7.18,7.18,0,0,0-1.17.11,7.38,7.38,0,0,0-.85.19V33.77h-3.31V20.16a16.65,16.65,0,0,1,2.38-.66,15.08,15.08,0,0,1,3.2-.32,5.68,5.68,0,0,1,.77.05,8.62,8.62,0,0,1,.87.11,7.12,7.12,0,0,1,.85.16,5.57,5.57,0,0,1,.66.17Z"/><path class="cls-10" d="M171.6,33.77q-1.38-2.81-2.83-6.45c-.94-2.44-1.81-5.05-2.59-7.84h3.53c.2.8.42,1.67.68,2.59s.56,1.84.85,2.77.62,1.8.93,2.67l.9,2.33c.28-.69.57-1.47.88-2.33s.61-1.76.9-2.67.6-1.85.88-2.77.51-1.79.71-2.59h3.42a78.22,78.22,0,0,1-2.63,7.84q-1.42,3.64-2.79,6.45Z"/><path class="cls-11" d="M185.67,33.77h-3.31V19.48h3.31ZM186,15.29a1.9,1.9,0,0,1-.6,1.48,2.08,2.08,0,0,1-1.43.55,2.13,2.13,0,0,1-1.45-.55,1.9,1.9,0,0,1-.6-1.48,1.93,1.93,0,0,1,.6-1.5,2.13,2.13,0,0,1,1.45-.55,2.08,2.08,0,0,1,1.43.55A1.93,1.93,0,0,1,186,15.29Z"/><path class="cls-12" d="M189.1,26.64a8.58,8.58,0,0,1,.5-2.95A7.16,7.16,0,0,1,191,21.28a6.75,6.75,0,0,1,2.25-1.59,7.34,7.34,0,0,1,3-.57,10.12,10.12,0,0,1,3.83.74l-.71,2.7a8.23,8.23,0,0,0-1.32-.41,7.33,7.33,0,0,0-1.53-.16,3.62,3.62,0,0,0-3,1.23,5.19,5.19,0,0,0-1,3.42,5.46,5.46,0,0,0,1,3.39,3.85,3.85,0,0,0,3.23,1.23,8.52,8.52,0,0,0,1.67-.17,7.54,7.54,0,0,0,1.42-.41l.46,2.74a7.18,7.18,0,0,1-1.66.49,11.31,11.31,0,0,1-2.28.22,8.48,8.48,0,0,1-3.2-.55A6.35,6.35,0,0,1,190.86,32a6.69,6.69,0,0,1-1.32-2.37A10.09,10.09,0,0,1,189.1,26.64Z"/><path class="cls-13" d="M202,26.69a9.34,9.34,0,0,1,.54-3.31A7.16,7.16,0,0,1,204.07,21a6,6,0,0,1,2.13-1.42,6.48,6.48,0,0,1,2.47-.49A5.84,5.84,0,0,1,213.26,21a7.85,7.85,0,0,1,1.67,5.47c0,.18,0,.39,0,.63a5.47,5.47,0,0,1,0,.6h-9.44a3.85,3.85,0,0,0,1.2,2.68,4.74,4.74,0,0,0,3.15.93A10.54,10.54,0,0,0,212,31a9.19,9.19,0,0,0,1.59-.47l.43,2.71a6,6,0,0,1-.76.3c-.31.09-.68.17-1.1.25s-.84.16-1.31.22a13.94,13.94,0,0,1-1.45.08,8.89,8.89,0,0,1-3.29-.55,6.33,6.33,0,0,1-2.3-1.56,6.44,6.44,0,0,1-1.34-2.35A9.76,9.76,0,0,1,202,26.69Zm9.6-1.47a4.15,4.15,0,0,0-.19-1.29,2.91,2.91,0,0,0-.57-1.06,2.39,2.39,0,0,0-.91-.72,2.67,2.67,0,0,0-1.26-.27,2.88,2.88,0,0,0-1.34.3,3,3,0,0,0-1,.74,3.4,3.4,0,0,0-.6,1.07,5.84,5.84,0,0,0-.31,1.23Z"/><path class="cls-14" d="M24.46,48.86A24.43,24.43,0,1,1,24.46,0c.61,0,1.21,0,1.8.07V10h4.5c2.72,0,7.61,1.38,8.15,5.93a6.84,6.84,0,0,1-3.78,6.94.13.13,0,0,0,0,.24c1.92.78,5.08,2.58,5.22,6.89a8,8,0,0,1-5.58,7.85,26.94,26.94,0,0,1-8.51.72V48.8Q25.38,48.86,24.46,48.86ZM27,48.73c.77-.08,1.52-.2,2.27-.35l.25-.05a24.43,24.43,0,0,0,0-47.8h0C28.73.35,27.89.22,27,.13V2.75s1.62.18,2.52.35a21.92,21.92,0,0,1,0,42.65s-1.92.42-2.52.48ZM20.11,10c-3.45-.12-5.24.13-7.46,1.68a7.34,7.34,0,0,0-3.42,6.4,7.38,7.38,0,0,0,1.74,5,11.43,11.43,0,0,0,4.32,2.46,38.25,38.25,0,0,0,4.62,1.29,22.43,22.43,0,0,1,3.65,1.05,2.88,2.88,0,0,1,1.92,2.51c.2,2.33-2.27,3.36-3.18,3.47a13,13,0,0,1-6.05-.78,2.8,2.8,0,0,1-1.68-1.67c-.2-.55-.54-2.52-.54-2.52H8.39A18.87,18.87,0,0,0,9,33.41c.71,1.93,2.25,3.44,5,4.44,3.73,1.36,8.45.89,9.69.74a11.41,11.41,0,0,0,5.18-2.42,8,8,0,0,0,2-2.82,9.25,9.25,0,0,0,.66-3.53,6.77,6.77,0,0,0-1.2-3.89,8.21,8.21,0,0,0-4.86-3.29c-1.72-.54-3-.84-4.12-1.12s-2.31-.56-3.79-1l-.5-.22c-1-.43-1.88-.81-2-2.06a2.5,2.5,0,0,1,.9-2.51,6.15,6.15,0,0,1,4.05-.9,5.15,5.15,0,0,1,4,1.74,3.73,3.73,0,0,1,.6,2.26v.13h5.94a8.29,8.29,0,0,0-2.76-6.28C25.66,10.78,23.56,10.13,20.11,10Z"/></g></g></g></svg>